/* XPM */
static char * attack2R_xpm[] = {
"64 64 257 2",
"  	c None",
". 	c #000000",
"+ 	c #0000A8",
"@ 	c #00A800",
"# 	c #00A8A8",
"$ 	c #A80000",
"% 	c #A800A8",
"& 	c #A85400",
"* 	c #A8A8A8",
"= 	c #545454",
"- 	c #5454FC",
"; 	c #54FC54",
"> 	c #54FCFC",
", 	c #FC5454",
"' 	c #FC54FC",
") 	c #FCFC54",
"! 	c #FCFCFC",
"~ 	c #ECECEC",
"{ 	c #DCDCDC",
"] 	c #D0D0D0",
"^ 	c #C0C0C0",
"/ 	c #B4B4B4",
"( 	c #A8A8A8",
"_ 	c #989898",
": 	c #8C8C8C",
"< 	c #7C7C7C",
"[ 	c #707070",
"} 	c #646464",
"| 	c #545454",
"1 	c #484848",
"2 	c #383838",
"3 	c #2C2C2C",
"4 	c #202020",
"5 	c #FC0000",
"6 	c #EC0000",
"7 	c #E00000",
"8 	c #D40000",
"9 	c #C80000",
"0 	c #BC0000",
"a 	c #B00000",
"b 	c #A40000",
"c 	c #980000",
"d 	c #880000",
"e 	c #7C0000",
"f 	c #700000",
"g 	c #640000",
"h 	c #580000",
"i 	c #4C0000",
"j 	c #400000",
"k 	c #FCD8D8",
"l 	c #FCB8B8",
"m 	c #FC9C9C",
"n 	c #FC7C7C",
"o 	c #FC5C5C",
"p 	c #FC4040",
"q 	c #FC2020",
"r 	c #FC0000",
"s 	c #FCA85C",
"t 	c #FC9840",
"u 	c #FC8820",
"v 	c #FC7800",
"w 	c #E46C00",
"x 	c #CC6000",
"y 	c #B45400",
"z 	c #9C4C00",
"A 	c #FCFCD8",
"B 	c #FCFCB8",
"C 	c #FCFC9C",
"D 	c #FCFC7C",
"E 	c #FCF85C",
"F 	c #FCF440",
"G 	c #FCF420",
"H 	c #FCF400",
"I 	c #E4D800",
"J 	c #CCC400",
"K 	c #B4AC00",
"L 	c #9C9C00",
"M 	c #848400",
"N 	c #706C00",
"O 	c #585400",
"P 	c #404000",
"Q 	c #D0FC5C",
"R 	c #C4FC40",
"S 	c #B4FC20",
"T 	c #A0FC00",
"U 	c #90E400",
"V 	c #80CC00",
"W 	c #74B400",
"X 	c #609C00",
"Y 	c #D8FCD8",
"Z 	c #BCFCB8",
"` 	c #9CFC9C",
" .	c #80FC7C",
"..	c #60FC5C",
"+.	c #40FC40",
"@.	c #20FC20",
"#.	c #00FC00",
"$.	c #00FC00",
"%.	c #00EC00",
"&.	c #00E000",
"*.	c #00D400",
"=.	c #04C800",
"-.	c #04BC00",
";.	c #04B000",
">.	c #04A400",
",.	c #049800",
"'.	c #048800",
").	c #047C00",
"!.	c #047000",
"~.	c #046400",
"{.	c #045800",
"].	c #044C00",
"^.	c #044000",
"/.	c #D8FCFC",
"(.	c #B8FCFC",
"_.	c #9CFCFC",
":.	c #7CFCF8",
"<.	c #5CFCFC",
"[.	c #40FCFC",
"}.	c #20FCFC",
"|.	c #00FCFC",
"1.	c #00E4E4",
"2.	c #00CCCC",
"3.	c #00B4B4",
"4.	c #009C9C",
"5.	c #008484",
"6.	c #007070",
"7.	c #005858",
"8.	c #004040",
"9.	c #5CBCFC",
"0.	c #40B0FC",
"a.	c #20A8FC",
"b.	c #009CFC",
"c.	c #008CE4",
"d.	c #007CCC",
"e.	c #006CB4",
"f.	c #005C9C",
"g.	c #D8D8FC",
"h.	c #B8BCFC",
"i.	c #9C9CFC",
"j.	c #7C80FC",
"k.	c #5C60FC",
"l.	c #4040FC",
"m.	c #2024FC",
"n.	c #0004FC",
"o.	c #0000FC",
"p.	c #0000EC",
"q.	c #0000E0",
"r.	c #0000D4",
"s.	c #0000C8",
"t.	c #0000BC",
"u.	c #0000B0",
"v.	c #0000A4",
"w.	c #000098",
"x.	c #000088",
"y.	c #00007C",
"z.	c #000070",
"A.	c #000064",
"B.	c #000058",
"C.	c #00004C",
"D.	c #000040",
"E.	c #282828",
"F.	c #FCE034",
"G.	c #FCD424",
"H.	c #FCCC18",
"I.	c #FCC008",
"J.	c #FCB400",
"K.	c #B420FC",
"L.	c #A800FC",
"M.	c #9800E4",
"N.	c #8000CC",
"O.	c #7400B4",
"P.	c #60009C",
"Q.	c #500084",
"R.	c #440070",
"S.	c #340058",
"T.	c #280040",
"U.	c #FCD8FC",
"V.	c #FCB8FC",
"W.	c #FC9CFC",
"X.	c #FC7CFC",
"Y.	c #FC5CFC",
"Z.	c #FC40FC",
"`.	c #FC20FC",
" +	c #FC00FC",
".+	c #E000E4",
"++	c #C800CC",
"@+	c #B400B4",
"#+	c #9C009C",
"$+	c #840084",
"%+	c #6C0070",
"&+	c #580058",
"*+	c #400040",
"=+	c #FCE8DC",
"-+	c #FCE0D0",
";+	c #FCD8C4",
">+	c #FCD4BC",
",+	c #FCCCB0",
"'+	c #FCC4A4",
")+	c #FCBC9C",
"!+	c #FCB890",
"~+	c #FCB080",
"{+	c #FCA470",
"]+	c #FC9C60",
"^+	c #F0945C",
"/+	c #E88C58",
"(+	c #DC8854",
"_+	c #D08050",
":+	c #C87C4C",
"<+	c #BC7848",
"[+	c #B47044",
"}+	c #A86840",
"|+	c #A0643C",
"1+	c #9C6038",
"2+	c #905C34",
"3+	c #885830",
"4+	c #80502C",
"5+	c #744C28",
"6+	c #6C4824",
"7+	c #5C4020",
"8+	c #543C1C",
"9+	c #483818",
"0+	c #403018",
"a+	c #382C14",
"b+	c #28200C",
"c+	c #600064",
"d+	c #006464",
"e+	c #006060",
"f+	c #00001C",
"g+	c #00002C",
"h+	c #302410",
"i+	c #480048",
"j+	c #500050",
"k+	c #000034",
"l+	c #1C1C1C",
"m+	c #4C4C4C",
"n+	c #5C5C5C",
"o+	c #404040",
"p+	c #303030",
"q+	c #343434",
"r+	c #D8F4F4",
"s+	c #B8E8E8",
"t+	c #9CDCDC",
"u+	c #74C8C8",
"v+	c #48C0C0",
"w+	c #20B4B4",
"x+	c #20B0B0",
"y+	c #00A4A4",
"z+	c #009898",
"A+	c #008C8C",
"B+	c #008484",
"C+	c #007C7C",
"D+	c #007878",
"E+	c #007474",
"F+	c #007070",
"G+	c #006C6C",
"H+	c #980088",
"                                                                                                                                ",
"                                                                                                                                ",
"                                                                                                                                ",
"                                                                                                                                ",
"                                                                                                                                ",
"                                                                                                                                ",
"                                                                                                                                ",
"                                                                                                                                ",
"                                                                                                                                ",
"                                                      [ [ [ [ [   [ [ } [ [ [ [ < n+.                                           ",
"                                                    n+[ [ [ [ [ n+[ } [ [ [ } } } l+.                                           ",
"                                                  n+} n+n+n+n+o+= } n+} } 8+= } = . l+                                          ",
"                                                  n+} 8+b+n+= b+n+[ 0+} q+q+n+} q+.                                             ",
"                                                  n+} } q+8+n+b+} } b+n+q+n+} = . .                                             ",
"                                                  n+n+} n+= o+. 1 q+b+= = = = E.. .                                             ",
"                                                    E.1 = = 0+0+q+q+0+= 1 q+q+. .                                               ",
"                                                      b+9+8+o+b+j b+q+7+7+q+. . b+                                              ",
"                                                      j d q j . b+. . q d . . . . 9+n+} } n+= =                                 ",
"                                                      j e 7+n+n+[ } 8+e j . . . . l+[ [ < < < [ m+1                             ",
"                                                      . E.0+. n+8+. n+0+. . . . . l+< < < < < < m+8+1                           ",
"                                                      . q+o+1 } = o+= 1 0+l+. . . E.[ < } < < < 5+7+} 1                         ",
"                                                    q+l+0+m+[ [ [ 5+n+0+b+j l+j . q+< < } n+} m+0+m+} 1 1                       ",
"                                                    . . b+9+9+f 8+8+9+[ 0+E.q+b+. q+< [ n+= 8+0+0+n+1 o+o+1                     ",
"                                                m+q+. . E.= : . l+_ = . l+0+b+b+. o+} o+q+q+b+b+o+1 E.q+o+n+1                   ",
"                                              q+8+q+. . E.o+n+h h m+l+. . j j q+. o+o+q+q+l+E.q+q+q+l+o+= } 0+7+                ",
"                                          = n+} n+l+. l+b+l+. f b b f . . j 8+0+l+q+o+= o+E.l+q+q+q+q+= } [ m+n+1               ",
"                                        n+[ [ [ n+l+. . 0+j o+d a d . o+. i 0+b+l+o+= o+q+E.. l+E.q+q+1 n+} 8+[ } = o+          ",
"                                [ [ < < [ } } [ 1 l+E.. E.0+[ 0+. o+. _ j 9+0+l+E.o+o+q+q+E.b+E.l+l+q+o+1 8+m+} } } } o+        ",
"                              n+} } [ < [ < n+} o+l+E.l+. q+0+0+_ m+_ 9+0+o+l+l+E.q+q+q+q+l+    E.E.E.q+o+q+1 = n+n+} o+o+      ",
"                            o+1 n+n+m+m+m+m+1 = o+l+E.E.E.l+E.0+0+0+0+0+q+l+l+E.l+. q+q+l+.         l+E.b+b+1 o+o+1 = o+0+o+    ",
"                            q+o+o+0+m+[ < } b+o+q+E.o+1 1 [ o+l+l+l+l+l+. l+q+q+E.. l+q+. .           l+. b+o+q+q+q+o+q+1 n+o+  ",
"                            E.E.. q+n+[ [ [ } } n+1 1 < q+o+} = o+1 o+q+E.l+0+o+l+. b+0+.               q+E.q+E.l+. . = n+q+o+  ",
"                            . . . E.= m+= m+} 8+m+[ l+o+} E.. _ [ q+< q+q+l+b+8+b+b+o+b+.                   q+E.l+l+o+[ } 1 q+  ",
"                            . . . q+1 b+o+q+n+} . o+[ l+. _ q+} * l+l+q+o+E.. 0+8+8+0+. .                     . E.= [ } n+= 0+  ",
"                            . . . E.l+. l+. l+n+n+. E._ E.< * . = q+l+0+o+0+. 0+8+8+0+b+.                     l+o+} } } n+= E.  ",
"                            . . . . . . . . . . = < . _ _ . o+q+b+q+l+o+o+l+l+8+8+8+8+0+.                     l+0+0+8+8+8+0+b+  ",
"                            b+. . . . . . . . . l+/ = . o+. . . j 0+b+0+0+. 0+8+8+8+o+0+. .                   q+o+m+} } m+0+.   ",
"                              . . . . . . . . l+. E.q+l+l+b+b+b+l+0+0+0+l+b+8+8+8+8+0+l+. .                     1 n+} } n+o+.   ",
"                                . . l+. . . l+l+l+l+. . . b+0+q+0+0+0+l+l+o+8+8+8+0+l+l+. . b+                  q+n+} n+= q+l+  ",
"                                  l+. . . . l+l+l+l+b+l+. b+0+0+0+0+0+. 0+o+8+8+q+l+l+l+. . .                     q+o+n+o+l+h+  ",
"                                        l+0+E.. . . l+b+b+q+0+0+o+o+b+l+b+b+l+l+l+E.E.. . . l+                    q+= } o+.     ",
"                                          = E.. . . . l+b+b+b+l+l+. . . . l+b+0+o+E.. . . l+. .         [ n+n+[ [ = [ } o+l+    ",
"                                      n+= o+E.l+l+. . l+l+l+l+l+l+q+b+b+8+8+8+o+0+E.l+. E.l+. .         o+o+} n+o+o+[ n+o+h+    ",
"                                    o+= = q+E.. . l+. . . 0+o+8+o+0+l+. l+b+l+l+. l+l+. E.l+. j           [ o+o+= } o+= q+0+    ",
"                                  o+o+o+o+E.l+. . . E.. . . l+. . . . . l+l+l+l+b+E.l+E.l+. l+b+E.      _ 1 o+} o+o+1 q+o+o+    ",
"                                  0+o+q+l+l+. . . . E.E.. . l+E.b+E.. . b+0+0+0+q+. E.q+. . E.q+q+q+        _ 1 o+n+1 o+} o+    ",
"                                0+o+q+E.l+. . . . . l+l+l+l+. . l+b+b+. . b+b+l+. E.q+q+l+E.q+q+E.o+      < n+[ [ 1 o+n+o+      ",
"                              q+l+q+l+l+. . . . . . l+l+l+E.l+. . . . . . . . l+E.b+l+j E.q+q+q+q+q+q+        < n+n+[ q+o+      ",
"                            b+l+l+l+. . . . . . . . . l+l+l+l+l+l+      j . l+l+l+j l+q+q+q+q+q+q+l+q+            [ m+o+        ",
"                            . . l+E.E.. . . . . . . . . l+l+l+l+          l+l+l+E.q+q+q+q+q+E.q+q+j q+                          ",
"                          . . . . E.E.E.l+. . . . . . . . . l+              l+l+E.E.q+q+q+q+E.q+E.. .                           ",
"                        n+. . . . E.E.E.l+. . . . l+l+l+. b+                  l+E.E.q+q+q+q+E.l+. l+l+q+                        ",
"                    n+o+q+. . . l+E.E.l+l+l+. . l+q+                            l+E.q+q+q+q+q+l+. l+l+l+q+                      ",
"                  n+o+E.l+. l+. . . . . l+l+                                    b+l+E.b+b+b+l+l+E.E.l+l+l+n+                    ",
"                = = q+E.E.l+b+q+                                                  . . j j j E.q+E.E.E.l+. o+0+                  ",
"            = n+} 1 E.E.E.q+                                                      b+. . l+q+q+q+q+q+E.l+. q+l+q+                ",
"          = } [ } 1 l+l+l+                                                          . l+E.q+q+q+q+q+E.. . . . . o+              ",
"        = [ } [ [ } o+l+l+                                                          h+. E.E.q+q+q+q+l+. . . . . = o+            ",
"      n+[ } } [ n+[ [ = b+                                                            b+E.E.E.E.q+E.l+l+. . . E.[ o+            ",
"    = n+} 1 [ } = } o+o+                                                                . l+j . l+l+E.E.. . . 1 [ o+            ",
"    < } q+n+} q+= q+q+                                                                    l+l+E.E.q+E.. . . l+} = 0+            ",
"  : ^ 8+* _ 0+[ [                                                                           E.q+q+E.. . . . E.[ 1 h+            ",
"  <   < /   [ ^ [                                                                               q+l+. . . l+l+1 8+              ",
"                                                                                                    . l+o+8+o+o+                "};
