/* XPM */
static char * die1R_xpm[] = {
"64 64 257 2",
"  	c None",
". 	c #000000",
"+ 	c #0000A8",
"@ 	c #00A800",
"# 	c #00A8A8",
"$ 	c #A80000",
"% 	c #A800A8",
"& 	c #A85400",
"* 	c #A8A8A8",
"= 	c #545454",
"- 	c #5454FC",
"; 	c #54FC54",
"> 	c #54FCFC",
", 	c #FC5454",
"' 	c #FC54FC",
") 	c #FCFC54",
"! 	c #FCFCFC",
"~ 	c #ECECEC",
"{ 	c #DCDCDC",
"] 	c #D0D0D0",
"^ 	c #C0C0C0",
"/ 	c #B4B4B4",
"( 	c #A8A8A8",
"_ 	c #989898",
": 	c #8C8C8C",
"< 	c #7C7C7C",
"[ 	c #707070",
"} 	c #646464",
"| 	c #545454",
"1 	c #484848",
"2 	c #383838",
"3 	c #2C2C2C",
"4 	c #202020",
"5 	c #FC0000",
"6 	c #EC0000",
"7 	c #E00000",
"8 	c #D40000",
"9 	c #C80000",
"0 	c #BC0000",
"a 	c #B00000",
"b 	c #A40000",
"c 	c #980000",
"d 	c #880000",
"e 	c #7C0000",
"f 	c #700000",
"g 	c #640000",
"h 	c #580000",
"i 	c #4C0000",
"j 	c #400000",
"k 	c #FCD8D8",
"l 	c #FCB8B8",
"m 	c #FC9C9C",
"n 	c #FC7C7C",
"o 	c #FC5C5C",
"p 	c #FC4040",
"q 	c #FC2020",
"r 	c #FC0000",
"s 	c #FCA85C",
"t 	c #FC9840",
"u 	c #FC8820",
"v 	c #FC7800",
"w 	c #E46C00",
"x 	c #CC6000",
"y 	c #B45400",
"z 	c #9C4C00",
"A 	c #FCFCD8",
"B 	c #FCFCB8",
"C 	c #FCFC9C",
"D 	c #FCFC7C",
"E 	c #FCF85C",
"F 	c #FCF440",
"G 	c #FCF420",
"H 	c #FCF400",
"I 	c #E4D800",
"J 	c #CCC400",
"K 	c #B4AC00",
"L 	c #9C9C00",
"M 	c #848400",
"N 	c #706C00",
"O 	c #585400",
"P 	c #404000",
"Q 	c #D0FC5C",
"R 	c #C4FC40",
"S 	c #B4FC20",
"T 	c #A0FC00",
"U 	c #90E400",
"V 	c #80CC00",
"W 	c #74B400",
"X 	c #609C00",
"Y 	c #D8FCD8",
"Z 	c #BCFCB8",
"` 	c #9CFC9C",
" .	c #80FC7C",
"..	c #60FC5C",
"+.	c #40FC40",
"@.	c #20FC20",
"#.	c #00FC00",
"$.	c #00FC00",
"%.	c #00EC00",
"&.	c #00E000",
"*.	c #00D400",
"=.	c #04C800",
"-.	c #04BC00",
";.	c #04B000",
">.	c #04A400",
",.	c #049800",
"'.	c #048800",
").	c #047C00",
"!.	c #047000",
"~.	c #046400",
"{.	c #045800",
"].	c #044C00",
"^.	c #044000",
"/.	c #D8FCFC",
"(.	c #B8FCFC",
"_.	c #9CFCFC",
":.	c #7CFCF8",
"<.	c #5CFCFC",
"[.	c #40FCFC",
"}.	c #20FCFC",
"|.	c #00FCFC",
"1.	c #00E4E4",
"2.	c #00CCCC",
"3.	c #00B4B4",
"4.	c #009C9C",
"5.	c #008484",
"6.	c #007070",
"7.	c #005858",
"8.	c #004040",
"9.	c #5CBCFC",
"0.	c #40B0FC",
"a.	c #20A8FC",
"b.	c #009CFC",
"c.	c #008CE4",
"d.	c #007CCC",
"e.	c #006CB4",
"f.	c #005C9C",
"g.	c #D8D8FC",
"h.	c #B8BCFC",
"i.	c #9C9CFC",
"j.	c #7C80FC",
"k.	c #5C60FC",
"l.	c #4040FC",
"m.	c #2024FC",
"n.	c #0004FC",
"o.	c #0000FC",
"p.	c #0000EC",
"q.	c #0000E0",
"r.	c #0000D4",
"s.	c #0000C8",
"t.	c #0000BC",
"u.	c #0000B0",
"v.	c #0000A4",
"w.	c #000098",
"x.	c #000088",
"y.	c #00007C",
"z.	c #000070",
"A.	c #000064",
"B.	c #000058",
"C.	c #00004C",
"D.	c #000040",
"E.	c #282828",
"F.	c #FCE034",
"G.	c #FCD424",
"H.	c #FCCC18",
"I.	c #FCC008",
"J.	c #FCB400",
"K.	c #B420FC",
"L.	c #A800FC",
"M.	c #9800E4",
"N.	c #8000CC",
"O.	c #7400B4",
"P.	c #60009C",
"Q.	c #500084",
"R.	c #440070",
"S.	c #340058",
"T.	c #280040",
"U.	c #FCD8FC",
"V.	c #FCB8FC",
"W.	c #FC9CFC",
"X.	c #FC7CFC",
"Y.	c #FC5CFC",
"Z.	c #FC40FC",
"`.	c #FC20FC",
" +	c #FC00FC",
".+	c #E000E4",
"++	c #C800CC",
"@+	c #B400B4",
"#+	c #9C009C",
"$+	c #840084",
"%+	c #6C0070",
"&+	c #580058",
"*+	c #400040",
"=+	c #FCE8DC",
"-+	c #FCE0D0",
";+	c #FCD8C4",
">+	c #FCD4BC",
",+	c #FCCCB0",
"'+	c #FCC4A4",
")+	c #FCBC9C",
"!+	c #FCB890",
"~+	c #FCB080",
"{+	c #FCA470",
"]+	c #FC9C60",
"^+	c #F0945C",
"/+	c #E88C58",
"(+	c #DC8854",
"_+	c #D08050",
":+	c #C87C4C",
"<+	c #BC7848",
"[+	c #B47044",
"}+	c #A86840",
"|+	c #A0643C",
"1+	c #9C6038",
"2+	c #905C34",
"3+	c #885830",
"4+	c #80502C",
"5+	c #744C28",
"6+	c #6C4824",
"7+	c #5C4020",
"8+	c #543C1C",
"9+	c #483818",
"0+	c #403018",
"a+	c #382C14",
"b+	c #28200C",
"c+	c #600064",
"d+	c #006464",
"e+	c #006060",
"f+	c #00001C",
"g+	c #00002C",
"h+	c #302410",
"i+	c #480048",
"j+	c #500050",
"k+	c #000034",
"l+	c #1C1C1C",
"m+	c #4C4C4C",
"n+	c #5C5C5C",
"o+	c #404040",
"p+	c #303030",
"q+	c #343434",
"r+	c #D8F4F4",
"s+	c #B8E8E8",
"t+	c #9CDCDC",
"u+	c #74C8C8",
"v+	c #48C0C0",
"w+	c #20B4B4",
"x+	c #20B0B0",
"y+	c #00A4A4",
"z+	c #009898",
"A+	c #008C8C",
"B+	c #008484",
"C+	c #007C7C",
"D+	c #007878",
"E+	c #007474",
"F+	c #007070",
"G+	c #006C6C",
"H+	c #980088",
"                                                                        n+[ [ } n+n+} n+=                                       ",
"                                                                    o+1 o+q+q+E.. E.l+q+n+n+                                    ",
"                                                                  o+m+l+. . . . . . . . . E.= }                                 ",
"                                                                b+o+n+o+. . . . . . . . . . . q+n+                              ",
"                                                      [ [ n+n+5+E.. . . . . j 1 = = o+. . . . . q+=                             ",
"                                                    < n+[ < < [ [ = l+. . . . = n+n+n+= o+. . . . l+0+                          ",
"                                              8+_ <+h 6+5+i 9+m+m+[ [ 8+o+b+. . o+1 = n+} = q+. . . q+=                         ",
"                                              0+< n+. o+1 . l+8+[ . j 6+8+8+0+j . l+1 = n+} [ = . . . E.o+                      ",
"                                          < _ 8+0+. _ [ . } * . E.o+= } i j b+8+o+o+n+} [ } } } n+l+. o+=                       ",
"                                          |+< 7+0+8+< < 0+8+= l+l+o+n+q+E.E.o+= < < < < < < } } n+= . o+q+                      ",
"                                            E.E.E.E.q+q+q+q+o+o+o+o+q+o+* * * < } / [ 1 o+o+1 1 1 = 1 = o+                      ",
"                                              l+. l+l+E.q+q+o+q+E.l+. . . . E.1 < = q+l+E.q+o+1 o+E.q+1 E.o+                    ",
"                                                  j . . . . . . . . . . l+E.o+1 1 E.E.E.l+E.E.q+o+o+E.q+1 1                     ",
"                                                        . . . . . . . j 0+o+= n+n+n+n+n+= 1 o+q+q+q+q+o+= n+1                   ",
"                                                  q+b+l+l+l+l+l+E.q+8+m+8+= n+n+n+n+n+n+= 1 1 m+} q+E.1 = n+n+=                 ",
"                                          o+. . . . l+. b+} < < [ o+[ [ b+o+< < [ [ [ [ n+1 q+o+q+1 q+E.o+= n+} n+=             ",
"                                      [ [ l+. . l+o+} m+j m+< < n+8+[ 0+o+[ [ [ = b+n+} = = E.o+n+n+0+l+b+1 = n+n+n+1           ",
"                                  } < n+. l+. . b+} [ n+m+= [ [ n+o+[ [ [ } n+[ m+j 0+n+= 1 E.l+o+m+1 l+q+o+1 = = n+= =         ",
"                                } < } E.. . . . . q+} o+0+[ < [ m+q+m+[ } 8+. = 8+. j = = o+q+. . 1 } E.E.q+1 = 1 = 1 1 1       ",
"                              n+[ } q+. l+. . l+l+q+8+= m+= [ [ n+0+b+= n+= 0+} 8+. . 1 = 1 q+. . E.o+E.l+q+o+1 = 1 1 1 1 o+    ",
"                              q+0+b+E.q+q+= q+. E.1 m+= n+} } [ [ 8+l+8+= = [ = m+q+b+0+= o+o+. . . l+l+l+E.q+o+1 1 1 o+o+o+o+  ",
"                            o+E.b+1 1 o+o+= [ q+l+l+8+m+= [ } } [ = b+l+m+n+= n+n+m+m+= = o+0+l+. . . l+l+l+E.q+o+o+1 o+o+q+q+  ",
"                          o+q+E.q+E.o+< E.l+q+E.. l+b+0+o+5+n+} } [ } 8+. o+= = n+= 5+m+= q+l+q+. .       l+. l+E.q+q+q+q+q+l+  ",
"                          . q+o+E.o+E.o+E.E.o+. . . b+q+0+8+m+5+} [ [ n+q+. 8+= = = 5+7+m+8+o+q+. .           . l+l+E.E.E.E.    ",
"                        q+l+E.l+E.[ [ . l+E.. . . . . . l+b+8+7+n+[ } [ n+l+l+m+= = = m+8+m+8+E.. j                             ",
"                      o+l+l+. . l+. l+E.l+b+j . . . . . . . l+b+0+8+5+= = q+. b+8+m+= 5+8+8+b+l+. b+                            ",
"                    q+o+b+. . . E.E.E.E..     . . . . . . l+l+l+l+. . . . . l+. . l+b+b+b+b+E.. . b+                            ",
"                    q+8+o+b+l+l+l+E.l+l+.       . . . l+. l+q+0+l+b+b+0+b+l+q+0+q+b+l+l+E.q+b+. . .                             ",
"                  o+1 1 = o+q+q+E.l+E..           . . l+. E.0+q+m+n+n+n+n+0+l+= } [ n+m+b+E.E.E.. .                             ",
"                  E.q+q+q+q+q+q+q+q+E.              . . . . l+b+b+b+q+0+0+l+. 0+0+0+0+0+0+0+q+. . .                             ",
"                  l+q+o+q+q+q+q+q+q+l+              . . . . E.E.E.b+l+. . . . l+l+b+b+0+o+o+l+. l+.                             ",
"                  l+l+b+E.q+q+E.q+l+                . l+l+l+E.b+0+q+b+q+b+. . 0+o+o+0+0+0+o+l+l+E.E.l+                          ",
"                    l+E.q+q+q+E.l+                    l+E.E.l+l+b+0+8+8+8+. . 8+8+8+8+8+0+E.E.E.E.E.l+                          ",
"                      l+E.E.l+l+                      l+E.E.l+l+o+8+8+8+8+l+. 0+8+8+o+0+0+b+l+E.E.E.l+                          ",
"                                                    b+. . . l+q+b+0+8+8+8+o+. b+8+8+8+8+b+l+. . l+l+b+                          ",
"                                                  j . . l+l+. l+b+l+o+8+8+o+l+E.8+8+8+0+. l+l+E.E.l+b+                          ",
"                                                j . . . . E.E.l+l+. b+0+0+0+l+l+o+0+q+l+l+E.E.E.E.. l+                          ",
"                                              . . l+l+l+l+. l+E.l+. l+b+l+l+. E.q+b+l+l+E.E.E.E.l+. l+                          ",
"                                            q+q+q+E.l+l+E.E.l+l+E.l+. . . . . b+b+l+l+E.E.q+q+E.l+. .                           ",
"                                            n+} } n+= o+E.E.q+E.l+E.. . . l+l+l+l+E.E.E.q+q+E.E.l+. .                           ",
"                                          0+} } } } n+n+1 q+q+q+l+l+E.j j q+q+q+E.E.E.q+E.E.l+l+. . .                           ",
"                                        . m+8+m+[ } n+1 o+q+q+q+q+E.. . l+E.l+l+. q+q+b+b+E.E.q+o+E.l+.                         ",
"                                      . . 1 [ 8+8+8+o+o+q+q+q+q+q+E.l+        . E.q+q+q+o+o+q+q+o+E.l+. j                       ",
"                                    . . l+E.[ } 8+0+q+b+q+q+q+q+E.l+          . q+q+q+q+q+o+o+q+1 q+l+. .                       ",
"                                  . l+l+l+E.} } = q+b+j q+q+q+E.l+            l+E.E.q+q+q+o+o+o+= q+E.l+.                       ",
"                                  . l+l+E.q+= = 1 0+b+l+j E.E.l+              l+E.E.q+q+q+o+o+1 = o+E.l+. .                     ",
"                                . . . l+E.o+o+o+o+q+q+E.E.l+E.                l+l+E.E.q+q+o+o+= 1 o+E.. . .                     ",
"                              l+. l+E.. l+o+o+o+q+q+E.E.E.E.l+                  l+E.E.q+q+q+q+o+o+l+. . . .                     ",
"                            l+. l+l+E.l+j b+o+q+q+E.E.E.l+l+                    . l+. . l+b+0+0+o+o+q+E.l+. j                   ",
"                          l+l+. l+l+E.E.E.j q+q+q+E.E.l+l+                    . . l+l+E.q+o+1 1 1 o+q+E.E.l+.                   ",
"                          j . . l+l+q+q+q+b+l+q+l+q+                        E.l+b+l+l+E.q+o+1 1 1 1 q+E.E.l+.                   ",
"                        o+0+E.l+E.q+q+o+q+o+l+l+                        E.q+1         l+q+o+o+1 = 1 o+q+E.. . .                 ",
"                      q+q+o+E.E.E.q+q+q+E.l+                          E.q+o+            E.o+1 1 o+o+b+l+. . . .                 ",
"                      l+q+q+j E.q+E.E.E.l+                          q+0+1               l+q+q+q+q+q+b+l+E.l+. .                 ",
"                    q+l+. E.l+. l+E.E.E.l+                      q+q+o+                    l+b+0+o+o+o+q+E.l+.                   ",
"                  o+E.E.l+E.E.E.l+. l+l+                    E.q+o+                        . E.q+o+1 o+q+l+.                     ",
"              o+1 b+E.q+E.l+E.E.                      1 1 o+1                           . . . l+E.q+q+E.l+                      ",
"            o+1 1 b+j l+E.                      1 1 o+1                               . . . . l+l+. . .                         ",
"          o+= 1 o+E.q+E.                                                          E.l+. . . l+l+. . .                           ",
"        o+= = o+l+q+                                                            l+E.E.. . . . . . .                             ",
"      o+= [ 1 . .                                                             E.E.l+E.q+. . . . .                               ",
"    o+n+[ n+1 o+q+                                                            q+l+E.E.l+E.E..                                   ",
"  [ o+< o+< = < =                                                             b+q+E.l+E.q+0+                                    ",
"  [   <   <   _ o+                                                              b+l+E.0+                                        "};
