/* XPM */
static char * front2R_xpm[] = {
"64 64 257 2",
"  	c None",
". 	c #000000",
"+ 	c #0000A8",
"@ 	c #00A800",
"# 	c #00A8A8",
"$ 	c #A80000",
"% 	c #A800A8",
"& 	c #A85400",
"* 	c #A8A8A8",
"= 	c #545454",
"- 	c #5454FC",
"; 	c #54FC54",
"> 	c #54FCFC",
", 	c #FC5454",
"' 	c #FC54FC",
") 	c #FCFC54",
"! 	c #FCFCFC",
"~ 	c #ECECEC",
"{ 	c #DCDCDC",
"] 	c #D0D0D0",
"^ 	c #C0C0C0",
"/ 	c #B4B4B4",
"( 	c #A8A8A8",
"_ 	c #989898",
": 	c #8C8C8C",
"< 	c #7C7C7C",
"[ 	c #707070",
"} 	c #646464",
"| 	c #545454",
"1 	c #484848",
"2 	c #383838",
"3 	c #2C2C2C",
"4 	c #202020",
"5 	c #FC0000",
"6 	c #EC0000",
"7 	c #E00000",
"8 	c #D40000",
"9 	c #C80000",
"0 	c #BC0000",
"a 	c #B00000",
"b 	c #A40000",
"c 	c #980000",
"d 	c #880000",
"e 	c #7C0000",
"f 	c #700000",
"g 	c #640000",
"h 	c #580000",
"i 	c #4C0000",
"j 	c #400000",
"k 	c #FCD8D8",
"l 	c #FCB8B8",
"m 	c #FC9C9C",
"n 	c #FC7C7C",
"o 	c #FC5C5C",
"p 	c #FC4040",
"q 	c #FC2020",
"r 	c #FC0000",
"s 	c #FCA85C",
"t 	c #FC9840",
"u 	c #FC8820",
"v 	c #FC7800",
"w 	c #E46C00",
"x 	c #CC6000",
"y 	c #B45400",
"z 	c #9C4C00",
"A 	c #FCFCD8",
"B 	c #FCFCB8",
"C 	c #FCFC9C",
"D 	c #FCFC7C",
"E 	c #FCF85C",
"F 	c #FCF440",
"G 	c #FCF420",
"H 	c #FCF400",
"I 	c #E4D800",
"J 	c #CCC400",
"K 	c #B4AC00",
"L 	c #9C9C00",
"M 	c #848400",
"N 	c #706C00",
"O 	c #585400",
"P 	c #404000",
"Q 	c #D0FC5C",
"R 	c #C4FC40",
"S 	c #B4FC20",
"T 	c #A0FC00",
"U 	c #90E400",
"V 	c #80CC00",
"W 	c #74B400",
"X 	c #609C00",
"Y 	c #D8FCD8",
"Z 	c #BCFCB8",
"` 	c #9CFC9C",
" .	c #80FC7C",
"..	c #60FC5C",
"+.	c #40FC40",
"@.	c #20FC20",
"#.	c #00FC00",
"$.	c #00FC00",
"%.	c #00EC00",
"&.	c #00E000",
"*.	c #00D400",
"=.	c #04C800",
"-.	c #04BC00",
";.	c #04B000",
">.	c #04A400",
",.	c #049800",
"'.	c #048800",
").	c #047C00",
"!.	c #047000",
"~.	c #046400",
"{.	c #045800",
"].	c #044C00",
"^.	c #044000",
"/.	c #D8FCFC",
"(.	c #B8FCFC",
"_.	c #9CFCFC",
":.	c #7CFCF8",
"<.	c #5CFCFC",
"[.	c #40FCFC",
"}.	c #20FCFC",
"|.	c #00FCFC",
"1.	c #00E4E4",
"2.	c #00CCCC",
"3.	c #00B4B4",
"4.	c #009C9C",
"5.	c #008484",
"6.	c #007070",
"7.	c #005858",
"8.	c #004040",
"9.	c #5CBCFC",
"0.	c #40B0FC",
"a.	c #20A8FC",
"b.	c #009CFC",
"c.	c #008CE4",
"d.	c #007CCC",
"e.	c #006CB4",
"f.	c #005C9C",
"g.	c #D8D8FC",
"h.	c #B8BCFC",
"i.	c #9C9CFC",
"j.	c #7C80FC",
"k.	c #5C60FC",
"l.	c #4040FC",
"m.	c #2024FC",
"n.	c #0004FC",
"o.	c #0000FC",
"p.	c #0000EC",
"q.	c #0000E0",
"r.	c #0000D4",
"s.	c #0000C8",
"t.	c #0000BC",
"u.	c #0000B0",
"v.	c #0000A4",
"w.	c #000098",
"x.	c #000088",
"y.	c #00007C",
"z.	c #000070",
"A.	c #000064",
"B.	c #000058",
"C.	c #00004C",
"D.	c #000040",
"E.	c #282828",
"F.	c #FCE034",
"G.	c #FCD424",
"H.	c #FCCC18",
"I.	c #FCC008",
"J.	c #FCB400",
"K.	c #B420FC",
"L.	c #A800FC",
"M.	c #9800E4",
"N.	c #8000CC",
"O.	c #7400B4",
"P.	c #60009C",
"Q.	c #500084",
"R.	c #440070",
"S.	c #340058",
"T.	c #280040",
"U.	c #FCD8FC",
"V.	c #FCB8FC",
"W.	c #FC9CFC",
"X.	c #FC7CFC",
"Y.	c #FC5CFC",
"Z.	c #FC40FC",
"`.	c #FC20FC",
" +	c #FC00FC",
".+	c #E000E4",
"++	c #C800CC",
"@+	c #B400B4",
"#+	c #9C009C",
"$+	c #840084",
"%+	c #6C0070",
"&+	c #580058",
"*+	c #400040",
"=+	c #FCE8DC",
"-+	c #FCE0D0",
";+	c #FCD8C4",
">+	c #FCD4BC",
",+	c #FCCCB0",
"'+	c #FCC4A4",
")+	c #FCBC9C",
"!+	c #FCB890",
"~+	c #FCB080",
"{+	c #FCA470",
"]+	c #FC9C60",
"^+	c #F0945C",
"/+	c #E88C58",
"(+	c #DC8854",
"_+	c #D08050",
":+	c #C87C4C",
"<+	c #BC7848",
"[+	c #B47044",
"}+	c #A86840",
"|+	c #A0643C",
"1+	c #9C6038",
"2+	c #905C34",
"3+	c #885830",
"4+	c #80502C",
"5+	c #744C28",
"6+	c #6C4824",
"7+	c #5C4020",
"8+	c #543C1C",
"9+	c #483818",
"0+	c #403018",
"a+	c #382C14",
"b+	c #28200C",
"c+	c #600064",
"d+	c #006464",
"e+	c #006060",
"f+	c #00001C",
"g+	c #00002C",
"h+	c #302410",
"i+	c #480048",
"j+	c #500050",
"k+	c #000034",
"l+	c #1C1C1C",
"m+	c #4C4C4C",
"n+	c #5C5C5C",
"o+	c #404040",
"p+	c #303030",
"q+	c #343434",
"r+	c #D8F4F4",
"s+	c #B8E8E8",
"t+	c #9CDCDC",
"u+	c #74C8C8",
"v+	c #48C0C0",
"w+	c #20B4B4",
"x+	c #20B0B0",
"y+	c #00A4A4",
"z+	c #009898",
"A+	c #008C8C",
"B+	c #008484",
"C+	c #007C7C",
"D+	c #007878",
"E+	c #007474",
"F+	c #007070",
"G+	c #006C6C",
"H+	c #980088",
"                                                                                                                                ",
"                                                                                                                                ",
"                                                    [ [ [                                                                       ",
"                                                  o+< } [ < < 1 [ < [ [     [ [                                                 ",
"                                                  [ [ } [ < < [ < < } < < < < < [                                               ",
"                                                  1 = } [ [ [ [ [ [ } [ [ < [ < }                                               ",
"                                                n+} = 1 1 1 1 1 } = 1 n+} [ } } n+                                              ",
"                                                o+= 1 1 n+= o+= [ n+o+1 1 1 = } o+                                              ",
"                                                n+n+1 . 1 = E.= } o+o+n+n+o+= n+n+                                              ",
"                                                o+1 = b+o+= l+n+[ 0+0+n+b+o+} = o+                                              ",
"                            0+. . . . b+        n+= n+= = = j } [ b+1 8+b+n+n+1 n+                                              ",
"                                0+. . . j 0+8+q+. l+o+o+o+q+. o+o+l+= 8+} } n+o+1 n+                                            ",
"                                    . . . . . . . l+o+= = o+0+b+b+q+0+1 o+o+o+1 o+n+n+                                          ",
"                                    8+. . . b+o+1 . j e h b+. . b+q+o+1 o+l+. q+1 n+1 8+                                        ",
"                      l+l+l+l+l+l+l+l+. q+8+8+[ o+. j h q j l+q+. j q e i . . E.n+= 1 0+                                        ",
"                          j . . . l+o+[ < } n+n+E.. . E.8+n+5+n+0+0+9+h . . . . n+= 1 o+                                        ",
"                            l+l+n+< < m+m+[ n+= l+. . j 8+m+n+n+[ 8+l+. . . . E.1 o+1 q+o+                                      ",
"                            [ < < < [ 5+= < [ n+q+. 1 1 . . o+. . 0+q+. . . . E.E.q+o+q+0+                                      ",
"                          n+< < < < < : < } 8+o+0+j o+} [ < < n+= = 1 l+. . . l+l+l+q+E.0+                                      ",
"                      n+[ < < < < < < < < } 1 q+0+0+l+1 [ < < < } o+. . b+l+l+l+. E.q+l+0+                                      ",
"                  n+[ < < : _ < < [ [ < < < [ n+l+0+. b+o+= n+1 0+l+. 0+q+. l+l+l+q+q+E.                                        ",
"                n+[ < < _ _ _ < [ [ [ < < < < } E.i = l+7+9+8+8+b+} 0+8+l+. E.l+. E.l+9+                                        ",
"                q+n+< < < : _ < [ } [ [ } } } n+E.q+q+l+< h h < l+l+9+l+. l+E.l+l+q+q+0+                                        ",
"              0+E.o+n+< < < < < [ } n+n+= = 1 o+E.l+i } j e e j 0+9+b+l+. l+E.. . l+o+= m+                                      ",
"              h+. l+b+o+m+} } n+= 1 o+q+o+q+q+q+q+. i i 0+n+j < 9+b+l+. . E.E.. . l+o+} } =                                     ",
"              h+. . . l+b+E.q+q+o+o+q+E.q+q+q+q+q+l+j i f d f 9+b+E.. . b+b+l+. . . q+n+< < } =                                 ",
"              h+. . E.E.q+E.q+q+q+q+E.E.q+q+q+q+o+E.. l+0+i 0+l+. l+l+b+b+. j   j . . q+q+n+< } } =                             ",
"              0+. l+l+E.q+q+q+q+q+q+E.E.E.q+. . E.q+l+. . . . l+. l+b+0+l+l+        j . . . 1 < n+} =                           ",
"                l+l+E.q+q+q+q+q+E.E.E.l+E.E.E.. . . l+. . . l+. l+b+0+0+l+. . l+        . . . = < o+} [ }                       ",
"                h+. l+E.q+q+q+q+E.l+l+l+E.E.q+q+. . . l+. . l+. l+0+0+l+. . . l+. . l+      . . } l+q+n+} n+                    ",
"                . . l+l+E.q+q+E.l+. . . . . l+b+0+q+b+q+b+b+. l+0+b+. . . l+E.E.E.l+l+. b+      . . . q+} n+                    ",
"                . . . . E.q+q+q+b+. . . . . . . b+q+0+0+b+. . l+l+. . . l+q+E.E.E.E.E.. . < < }     l+. n+n+                    ",
"              h+. . . . . j j b+b+E.. . . . . . . b+b+l+. l+b+b+l+. . l+q+q+q+q+q+E.l+. E.[ [ [ o+    . n+=                     ",
"              j . . . . . j l+0+o+o+l+. . . . . . . . l+. b+E.. . l+l+b+q+q+q+q+q+q+l+. o+} } } o+o+  q+1 n+                    ",
"              . l+. . . E.E.o+= 1 o+E.. . . l+l+l+. l+l+l+. . l+q+b+l+q+q+q+q+q+q+q+l+l+1 n+n+n+o+h+    8+                      ",
"              . l+. . l+E.q+1 1 1 o+E.o+0+b+. . l+l+q+b+l+l+E.q+q+b+l+q+q+q+q+q+q+q+l+q+o+o+= n+q+0+                            ",
"              b+l+. . l+E.q+o+q+o+q+E.l+l+. l+b+        E.q+q+q+q+q+E.q+q+q+q+q+q+q+b+q+q+o+1 1 l+8+                            ",
"              q+E.. . . E.q+q+q+q+q+. . . .               l+E.q+q+q+q+q+q+q+q+q+q+q+q+q+o+o+0+E.0+                              ",
"              l+l+. . . E.q+q+q+q+E.. . .                     q+E.E.E.E.E.q+q+q+q+q+q+o+q+q+l+l+                                ",
"              l+. . . . . l+j j j . . . .                           l+E.q+l+b+q+o+o+q+q+E.l+b+                                  ",
"              . j l+. . . l+b+b+q+l+l+l+.                             E.q+q+l+b+b+q+q+E.l+l+                                    ",
"              . q+E.. . . E.q+q+q+. l+E..                           l+E.q+q+q+b+j j l+E.q+                                      ",
"              l+q+q+. . . l+l+l+. . . E..                           l+q+q+q+o+q+E.. b+                                          ",
"              l+E.q+. . . . j l+l+l+l+E..                         l+l+b+q+o+q+E.q+                                              ",
"              h+. q+l+. . l+E.q+q+l+q+q+.                       l+E.E.l+l+E.q+                                                  ",
"                . E.l+. . E.E.q+q+q+1 o+.                     E.E.E.E.E.. b+                                                    ",
"                b+. . . . l+E.E.q+= n+1 l+                  q+E.E.E.E.. h+                                                      ",
"                  . . . . l+E.q+o+= m+0+l+              q+l+l+E.E.E.. h+                                                        ",
"                  l+l+. . . l+l+b+8+m+1 E.            q+E.l+l+E.E.l+j                                                           ",
"                E.. l+. . . . . q+} < = E.            E.l+l+l+E.E..                                                             ",
"                j . . . . . . E.o+} [ = E.              E.l+l+E.l+.                                                             ",
"                j . . . l+l+l+l+q+} < = E.                E.l+E.l+. b+                                                          ",
"                E.. l+. . l+l+l+E.8+[ m+q+                  l+l+E.l+. h+                                                        ",
"                E.l+E.l+. . . . l+o+} } q+                    E.E.E.l+. 0+                                                      ",
"                  E.l+E.l+l+l+. . 1 } [ 0+                      E.l+l+l+l+l+                                                    ",
"                  E.. l+l+l+. j   E.} < < n+                        l+l+l+l+l+                                                  ",
"                    l+l+l+l+.     b+E.= < < n+                        E.E.l+l+l+                                                ",
"                    . l+. . j       . l+q+n+} n+                                                                                ",
"                    . . . .         l+l+. l+E.o+} [                                                                             ",
"                    . . . . j         l+E.l+l+l+1 }                                                                             ",
"                  . . . . . .         l+E.E.l+E.1 = m+                                                                          ",
"                  . l+l+. . . . j       l+E.E.o+n+1 = n+                                                                        ",
"                  . . . . l+. . . . . h+0+E.E.q+q+q+= n+                                                                        ",
"                    E.l+l+l+l+0+. . . . l+0+0+b+l+l+E.n+                                                                        "};
