/* XPM */
static char * LAB_2A_dark_xpm[] = {
"64 64 13 1",
" 	c #000000",
".	c #3F3D33",
"+	c #2C3023",
"@	c #10100F",
"#	c #282517",
"$	c #686B45",
"%	c #201B19",
"&	c #52543D",
"*	c #161616",
"=	c #2B2E21",
"-	c #201F19",
";	c #181812",
">	c #131312",
"                                                                ",
".............+.+..........+.+++@ ..........................+.+..",
"+++++++++++++++++++++++++++++++@ .++++++++++++++++++++++++++++++",
"+++++++++++++++++++++++++++++++@ .++++++++++++++++++++++++++++++",
"+++++++++++++++++++++++++#$.+++@ .+#$.++++++++++++++++++++++++++",
"+++++++++++++++++++++++++#..+++@ .+#..++++++++++++++++++++++++++",
"+++++++++++++++++++++++++##++++@ .+##+++++++++++++++++++++++++++",
"+++++++++++++++++++++++++++++++@ .++++++++++++++++++++++++++++++",
"...............................%@$..............................",
"+++++++++++++++++++++++++++++++@ .++++++++++++++++++++++++++++++",
"...............................%@$..............................",
"...............................@ $..............................",
"...............................%@$..............................",
"...............................%@$..............................",
"...............................%@$..............................",
"...............................%@$..............................",
"...............................%@$..............................",
"...............................@@$..............................",
"...............................%@$..............................",
"...............................@@$..............................",
"...............................%@$..............................",
"...............................@@$..............................",
"...............................%@$..............................",
"...............................@@$..............................",
"...............................@@$..............................",
"...............................@@$..............................",
"...............................@@$..............................",
"...............................@@$..............................",
"...............................@@$..............................",
"...............................@@$..............................",
"...............................@@$..............................",
"...............................@%$..............................",
"...............................%@$..............................",
"...............................@%&..............................",
"...............................%@$..............................",
"...............................@%&..............................",
"...............................%%$..............................",
"...............................@%&..............................",
"...............................%%&..............................",
"...............................@%&..............................",
"...............................@*&..............................",
"...............................@%&..............................",
"...............................@*...............................",
"...............................@%&..............................",
"...............................@*...............................",
"...............................@@&..............................",
"...............................@*...............................",
"...............................@@...............................",
"...............................@@...............................",
".........................#$+...@@..#$+..........................",
".........................#++...@@..#++..........................",
".........................##....@@..##...........................",
"...............................@*...............................",
"&&&&&&&&&&&&&&&&&&&&&&&&&&&&.&.@@.&.&&&&&&&.&.&.&&&.&.&.&.&&&&&&",
"                               @*@                              ",
"*  **@ **  **@ **  **@ **  **@ **  **@ **  **@ **  **@ **  **@ *",
"=========-====-=-=-=-=------=-=-=-=======================-====-=",
";;;;;;;;>;;;;;;;;;;;;;;;;>;;;;;;>;;;;;;;>;;;;;;;>;>;;;;;>;;;;;;;",
";>;;;;;>;;;;;;;;;;;;;;;>>;;;;;;;;;;;;;;---;;;;;;;>;;;;;>;;;;;;;;",
">;;=@;;;;;;=@;;;;;;=@;;>;;-=@;;;;;;=@;-;-;;=@;;;>;;=@;;;;;;=@;;;",
";;> @;;;;;> @;;;;;> @;>;>;> @;;>;;> @;;-;;> @;;>;;> @;;;;;> @;;>",
">;>>;;;;;;>>;;;;;;>>;;;>;;>>-;;;;;>>;;-;;;>>;;>>;;>>;;;;;;>>;;>;",
";;;;;;;;;;;;;;;;;;;;;;>;;;;--;;;;;;;;-;;;;;;;;>;;;;;;;;;;;;;;>;>",
"@>>>>>>@>@>@@@@@@@>@>@ @ @    @ @@@@@@@@>@>@@>@>@>>>>>>@>@>@@@@@"};
