/* XPM */
static char * LAB_5B_xpm[] = {
"64 64 21 1",
" 	c #000000",
".	c #4F4C3F",
"+	c #373C2C",
"@	c #141413",
"#	c #1C1C1B",
"$	c #322E1D",
"%	c #66684C",
"&	c #28221F",
"*	c #075929",
"=	c #289237",
"-	c #1D783C",
";	c #AFDA2F",
">	c #FFEC24",
",	c #A0B652",
"'	c #818556",
")	c #37382C",
"!	c #353929",
"~	c #28271F",
"{	c #1E1E17",
"]	c #181817",
"^	c #28261F",
"                                                                ",
".............+.+......@@......+.+....+.+@@.................+.+..",
"++++++++++++++++++++++@#.++++++++++++++$@@++++++++++++++++++++++",
"++++++++++++++++++++++@#.+%++%%%%.+++%+$@#++++++++++++++++++++++",
"++++++++++++++++++++++@#.$++%$$$$$$+$++$@#++++++++++++++++++++++",
"++++++++++++++++++++++@&.++%$$$$$$$$.++$@#++++++++++++++++++++++",
"++++++++++++++++++++++@#.+%$$$*==*$$$.+$@&++++++++++++++++++++++",
"++++++++++++++++++++++@&.+%$$*=--=*$$%+$@#++++++++++++++++++++++",
"......................@#.+%$$=-;>-=$$%+$@&......................",
"++++++++++++++++++++++@@.+%$$=->;-=$$%+$@#++++++++++++++++++++++",
"......................@#%.,++*=--=*++,.+@&......................",
"......................@@.+%$$$*==*$$$,+$@#......................",
".....................'@@%..%++++++++,..+@@......................",
"......................@@%...%++++++,...$@#'.....................",
".....................'@#%....%,%,,,....+@@......................",
".....................'#&%..............$@@'.....................",
".....................'##.+++$+$$$$$$$$$$ @'.....................",
".....................'##@@  @            @'.....................",
".....................%)##&#&#@@@#####&#&#)%.....................",
"......................%'''',,,;@@;,,','''%......................",
".............................%,&@,%.............................",
"..............................'@@'..............................",
"..............................'&@'..............................",
"..............................'@@'..............................",
"..............................'@@'..............................",
"..............................'@@'..............................",
"..............................'@@'..............................",
"..............................%@@'..............................",
"..............................'@@'..............................",
"..............................%@@'..............................",
"..............................'@@'..............................",
"..............................%@&'..............................",
"..............................%&@'..............................",
"..............................%@&%..............................",
"..............................%&@'..............................",
"..............................%@&%..............................",
"..............................%&&'..............................",
"..............................%@&%..............................",
"..............................%&&%..............................",
"..............................%@&%..............................",
"...............................@#%..............................",
"..............................%@&%..............................",
"...............................@#...............................",
"...............................@&%..............................",
"...............................@#...............................",
"...............................@@%..............................",
"...............................@#...............................",
"...............................@@...............................",
"...............................@@...............................",
".........................$'+...@@..$'+..........................",
".........................$++...@@..$++..........................",
".........................$$....@@..$$...........................",
"...............................@#...............................",
"%%%%%%%%%%%%%%%%%%%%%%%%%%%%.%.@@.%.%%%%%%%.%.%.%%%.%.%.%.%%%%%%",
"                               @#@                              ",
"#  ##@ ##  ##@ ##  ##@ ##  ##@ ##  ##@ ##  ##@ ##  ##@ ##  ##@ #",
"!!!!!!!!!~!!!!~!~!~!~!~~~~~~!~!~!~!!!!!!!!!!!!!!!!!!!!!!!~!!!!~!",
"{{{{{{{{]{{{{{{{{{{{{{{{{]{{{{{{]{{{{{{{]{{{{{{{]{]{{{{{]{{{{{{{",
"{]{{{{{]{{{{{{{{{{{{{{{]]{{{{{{{{{{{{{{^^^{{{{{{{]{{{{{]{{{{{{{{",
"]{{!@{{{{{{!@{{{{{{!@{{]{{^!@{{{{{{!@{^{^{{!@{{{]{{!@{{{{{{!@{{{",
"{{] @{{{{{] @{{{{{] @{]{]{] @{{]{{] @{{^{{] @{{]{{] @{{{{{] @{{]",
"]{]]{{{{{{]]{{{{{{]]{{{]{{]]^{{{{{]]{{^{{{]]{{]]{{]]{{{{{{]]{{]{",
"{{{{{{{{{{{{{{{{{{{{{{]{{{{^^{{{{{{{{^{{{{{{{{]{{{{{{{{{{{{{{]{]",
"@]]]]]]@]@]@@@@@@@]@]@ @ @    @ @@@@@@@@]@]@@]@]@]]]]]]@]@]@@@@@"};
