/* XPM */
static char * LAB_4B_xpm[] = {
"64 64 22 1",
" 	c #000000",
".	c #4F4C3F",
"+	c #373C2C",
"@	c #322E1D",
"#	c #1C1C1B",
"$	c #024829",
"%	c #1D783C",
"&	c #91BA00",
"*	c #66684C",
"=	c #818556",
"-	c #382B2F",
";	c #44402F",
">	c #075929",
",	c #4AAE48",
"'	c #83CC44",
")	c #464637",
"!	c #141413",
"~	c #353929",
"{	c #28271F",
"]	c #1E1E17",
"^	c #181817",
"/	c #28261F",
"                                                                ",
".............+.+..........+.+..............................+.+..",
"++++++++++++++++++++++++++++++++++++++++++++++++++++++++++++++++",
"++++++++++++++++++++++++++++++++++++++++++++++++++++++++++++++++",
"++++++++++++++++++++++++++++++++++++++++++++++++++++++++++++++++",
"++++++++++++++++++++++++++++++++++++++++++++++++++++++++++++++++",
"++++++++++++++++++++++++++++++++++++++++++++++++++++++++++++++++",
"++++++++++++++++++++++++++++++++++++++++++++++++++++++++++++++++",
"................................................................",
"++++++++++++++++++++++++++++++++++++++++++++++++++++++++++++++++",
"................................................................",
"............................+@@@@@@+............................",
"..........................+@@@@@@@@@@+..........................",
".........................@@@@######@@@@.........................",
"........................@@@##$%%%%$##@@@........................",
".......................@@@#$%%%%%%%%$#@@@.......................",
"......................+@@#$%%%%%%%%%%$#@@+......................",
"......................@@#$%%%%%%%%%%%%$#@@......................",
".....................+@@#%%%%%%%%%%%%%%#@@+.....................",
".....................@@@$%%%%%%%%%%%%%%$@@@.....................",
".....................@@@%%%%%%%%%%%%%%&%@@@.....................",
".....................@@@%%%%%%%%%%%%%&&%@@@.....................",
".........*...........@+@%%%%%%%%%%%%&&&%@@+.....................",
"........*+...........+@@%%%%%%%%%%%&&&&%@+@.....................",
".......=-;...........@+@%%%%%%%%%%&&&&&%@@+.....................",
"......*-;;...........+@@%%%%%%%%%&&&&&%%@+@.....................",
".......;;............@+@>>%%%%%%&&&&&%%%@@+.....................",
".......;;;...........++@%,>>%%%%&&&&%%%%@++.....................",
".......;;............++@%>%%,>$%%&&%%%>>@++.....................",
".......;;............++@>%%%%%,>%%%%>,%%@++.....................",
".......;;;...........++@%%%%&%%%,>%$'%%%@++....).+.+............",
".......;;............++@%%%&&&&%%'$,%%&%@++.....+.+.+.+.).......",
".......;;;...........++@%%&&&&&%%%'>%&&%@++....+................",
".......;;............++@%&&&&&%%%%%'%%%%@++...)..;.......;......",
".......;.;...........++@%&&&&%%%%&%%,%%%@++....+...........)....",
".......;;............++@%&&&%%%%&&&%%$%%@++...).................",
".......;.............++@%&&%%%%&&&&%%,>%@++....)...........)....",
".......;;............++@%&%%%%&&&&%%%%>%@++...))............)...",
".......;;............++@%%%%%&&&&%%%%%%>@++....)...........+....",
".......;......*......++@%%%%&&&&%%%%%%%>@++......;.......;..)...",
".......;;....=+......++@$%%&&&&%%%%%%%%$@++....)...........)....",
".......;....*-;......+++@%&&&&%%%%%%%%%@+++.....).+.+.+)+)+.....",
"........;...+;;......*++@$%&&%%%%%%%%%$@++*........+...+.+.)....",
".......;.....;........+++@$%%%%%%%%%%$@+++..............).).....",
".............;;.......*+++@$%%%%%%%%$@+++*......................",
".......;.....;.........*+++@@$%%%%$@@+++*.......................",
"..............;.........*++++@@@@@@++++*........................",
".......;.....;...........*++++++++++++*.........................",
"...........................*++++++++*...........................",
".............;...............******.............................",
"................................................................",
"................................................................",
"................................................................",
"****************************.**************.*.*.***.*.*.*.******",
"                                                                ",
"#  ##! ##  ##! ##  ##! ##  ##! ##  ##! ##  ##! ##  ##! ##  ##! #",
"~~~~~~~~~{~~~~{~{~{~{~{{{{{{~{~{~{~~~~~~~~~~~~~~~~~~~~~~~{~~~~{~",
"]]]]]]]]^]]]]]]]]]]]]]]]]^]]]]]]^]]]]]]]^]]]]]]]^]^]]]]]^]]]]]]]",
"]^]]]]]^]]]]]]]]]]]]]]]^^]]]]]]]]]]]]]]///]]]]]]]^]]]]]^]]]]]]]]",
"^]]~!]]]]]]~!]]]]]]~!]]^]]/~!]]]]]]~!]/]/]]~!]]]^]]~!]]]]]]~!]]]",
"]]^ !]]]]]^ !]]]]]^ !]^]^]^ !]]^]]^ !]]/]]^ !]]^]]^ !]]]]]^ !]]^",
"^]^^]]]]]]^^]]]]]]^^]]]^]]^^/]]]]]^^]]/]]]^^]]^^]]^^]]]]]]^^]]^]",
"]]]]]]]]]]]]]]]]]]]]]]^]]]]//]]]]]]]]/]]]]]]]]^]]]]]]]]]]]]]]^]^",
"!^^^^^^!^!^!!!!!!!^!^! ! !    ! !!!!!!!!^!^!!^!^!^^^^^^!^!^!!!!!"};
