/* XPM */
static char * VINES_2_xpm[] = {
"64 64 6 1",
" 	c None",
".	c #094227",
"+	c #002922",
"@	c #16582E",
"#	c #316A1F",
"$	c #4C7C11",
"                   .   +.                 .+. .                 ",
"                    .+  ..                .@ .+                 ",
"                     .. +#               +@.+.                  ",
"                      +. #.             .@.+#+                  ",
"                        @+#.+      +...@  # #                   ",
"                         +# @@@....+      #+@                   ",
"                          +#   @@@+   +.@@. @                   ",
"                           #.@+  +.@@@.+ @# #                   ",
"                            # .@@.+  +@#@@$ #                   ",
"                            +@   +###@+ # $ $                   ",
"                             #         .# $ @                   ",
"                             +#       ##  . $                   ",
"                              .$     #.     @                   ",
"                               +#$$##+      @                   ",
"                                                                ",
"                                                                ",
"                                                                ",
"                                                                ",
"                                                                ",
"                                                                ",
"                                                                ",
"                                                                ",
"                                                                ",
"                                                                ",
"                                                                ",
"                                                                ",
"                                                                ",
"                                                                ",
"                                                                ",
"                                                                ",
"                                                                ",
"                                                                ",
"                                                                ",
"                                                                ",
"                                                                ",
"                                                                ",
"                                                                ",
"                                                                ",
"                                                                ",
"                                                                ",
"                                                                ",
"                                                                ",
"                                                                ",
"                                                                ",
"                                                                ",
"                                                                ",
"                                                                ",
"                                                                ",
"                                                                ",
"                                                                ",
"                                                                ",
"                                                                ",
"                                                                ",
"                                                                ",
"                                                                ",
"                                                                ",
"                                                                ",
"                                                                ",
"                                                                ",
"                                                                ",
"                                                                ",
"                                                                ",
"                                                                ",
"                                                                "};
