/* XPM */
static char * CONSOLE_1B_xpm[] = {
"64 64 20 1",
" 	c #000000",
".	c #464D4F",
"+	c #383F40",
"@	c #141413",
"#	c #28221F",
"$	c #536265",
"%	c #382B2F",
"&	c #62797E",
"*	c #4B3F38",
"=	c #889C9E",
"-	c #292A28",
";	c #334043",
">	c #242A2B",
",	c #191B1D",
"'	c #1C1C1B",
")	c #238F00",
"!	c #35AE00",
"~	c #0C3A00",
"{	c #246200",
"]	c #2F1C17",
"                                                                ",
"..+.+++@ ........................#...+.+..........+.+++@ .......",
"+++++++@ .++++++++++++++++++++.++#+++++++++++++++++++++@ .++++++",
"+++++++@ .++++++++++++++++++++$++%+++++++++++++++++++++@ .++++++",
"++%&.++@ .+%&.++++++++++++++++.++#+++++++++++++++%&.+++@ .%&.+++",
"++%..++@ .+%..++++++++++++++++$++%+++++++++++++++%..+++@ .%..%++",
"++%%+++@ .+%%+++++++++++++++++$++%+++++++++++++++%%++++@ .%%%+++",
"+++++++@ .++++++++++++++++++++$++%+++++++++++++++++++++@ .+%%+++",
".......#@&....................&..+.....................#@&.**...",
"+++++++@ .++++++++++++++++++++$++%+++++++++++++++++++++@ .+%%+++",
".......#@&....................&..+.....................#@&.**...",
".......@ &....................&..+.....................@ &.**...",
".......#@&....................&..+.....................#@&..*...",
".......#@&....$=====&=&&&&&&&&....$&&&&&$&$$$$$$$......#@&.*....",
".......#@&...$=........................................#@&..*...",
".......#@&...=.&................................&.+....#@&.*....",
".......@@$...=%..+%%%%%%%%%+%+%+++++++.+.+.....%..+....@@$......",
".......#@&...=..+@@@@@@@@@@@@@@@@@@@@@@@@@@@@@-...+....#@&......",
".......@@$...=..%@&;>>>>>,>,,,,@,@,@@@@@@@@@@@@...+....@@$......",
".......#@&...=..%@;>,,,,,,,,@,@,@@@@@@@@@@@@@@@$..+....#@&......",
".......@@$...&..%@>,,,,,,@,@,@@@@@@@@@@@@@@@@@@$..+....@@$......",
".......#@$...=..%@>,,,@,@,@@@@@@@@@@@@@@@@@@@@ $..+....#@$......",
".......'@$...&..%@>,,@,@@@@@@@@@@@@@@@@@@@@@@@@$..+....'@$......",
".......'@$...&..%@,,@,@@@@@@@@@@@@@@@@@@@@@@@@ $..+....'@$......",
".......''$...&..%@>,,@@@@@@@@@@@@@@@@@@@@@@@@@ &..+....''$......",
".......'@$...&..%@,,@@@@@@@@@@@@@@@@@@@@@@@@@@ $..+....'@$......",
".......@'$...&..%@,@@@@@@@@@@@@@@@@@@@@@@@@@@@ &..+....@'$......",
".......'@$...&..+@@,@@@@@@@@@@@@@@@@@@@@@@@@@@ &..+....'@$......",
".......@@$...&..%@,@@@@@@@@@@@@@@@@@@@@@@@@@@@ &..+....@@$......",
".......@@$...$..+@@,@@@@@@@@@@@@@@@@@@@@@@@@@@ &..+....@@$......",
".......@#$...&..+@,@@@@@@@@@@@@@@@@@@@@@@@@@@@ &..+....@#$......",
".......#@$...$..+@@@@@@@@@@@@@@@@@@@@@@@@@@@@@ &..%....#@$......",
".......@#$...$..+@,@@@@@@@@@@@@@@@@@@@@@@@@@@@ =..+....@#$......",
".......#@$...$..+@@@@@@@@@@@@@@@@@@@@@@@@@@@@@ &..%....#@$......",
".......@#$...$...@@)@!~)@!@~!@!{@)@~){@~@!@@@@ =..%....@#$......",
".......##$...$..+@@!@~){@~@!{@!)@)@{@!@)~)@@@@ &..%....##$......",
".......##$...$...@@@@@@@@@@@@@@@@@@@@@@@@@@@@@ =..%....#@$......",
"&&&&.&.#@$...$...@@!@)~@!@~)@{@!@!@@@@@@@@@@@@ =..%....@@$......",
"         $...$...@@~{!)@)@{)@!)~@)@@@@@@@@@@@@ =..%....@@       ",
"         $...$...@@@@@@@@@@@@@@@@@@@@@@@@@@@@  =..%....@-       ",
"'@ @'@@@@$...$...-@@@@@ @                     -&..%....@@@ @'@@@",
"-@ --'@-@$...$.....$.$.$$$$$$$$$$&$&&&&&&=====&...%....@-@ --'@-",
"-@ --''-'$...$.&................................&.%....@-@ --''-",
"-@ --''-@$....%................................%.%+....@-@ --''-",
"-'@--''-'......++++++++++%+%+%%%%%%%%%%%%%%%%%%%%+.....@-'@--''-",
"-@ --''-'$............................................. -@ --''-",
"-'@--''-'$.............................................@-'@--''-",
"-' --''-'&............................................. -' --''-",
"-'@--''-'&&&&&&&&.&.&.&&&&&&&&&&&&&&&&&&&.&.&&&&&&.&... -'@--''-",
"-'@--''-'                                               -'@--''-",
"-@@--''-'@ @'@@@'@ @'@@@'@ @'@@@'@ @'@@@'@ @'@@@'@ @'@@@-@@--''-",
"-'@--''--@ --'@--@ --'@--@ --'@--@ --'@--@ --'@--@ --'@--'@--''-",
"'@ -'''--@ --''--@ --''--@ --''--@ --''--@ --''--@ --''-'@ -'''-",
"-@@'-''--@ --''--@ --''--@ --''--@ --''--@ --''--@ --''--@@'-''-",
"'@ -''@-'@ -''@-'@ -''@-'@ -''@-'@ -''@-'@ -''@-'@ -''@-'@ -''@-",
"'  ''@ ''  ''@ ''  ''@ ''  ''@ ''  ''@ ''  ''@ ''  ''@ ''  ''@ '",
"&&&&&&&&&$&&&&$&$&$&$&$$$$$$&$&$&$&&&&&&&&&&&&&&&&&&&&&&&$&&&&$&",
"........+................+.............+.+......+.+.....+.......",
".+.....+...............++...............+........+.....+........",
"+..&+......&+......&+..+...&+......&+..+...&+...+..&+......&+...",
"..%++.....%++.....%++.+.+.%++.....%++.....%++..+..%++.....%++..+",
"+.%%......%%......%%...+..%%......%%......%%..++..%%......%%..+.",
"......................+.............+.........+..............+.+",
"%]]]]]]%]%]%%%%%%%]%]%@%@%@@@@%@%%%%%%%%]%]%%]%]%]]]]]]%]%]%%%%%"};
