/* XPM */
static char * PIPES_1B_xpm[] = {
"64 64 4 1",
" 	c #000000",
".	c #1C1C1B",
"+	c #141413",
"@	c #242729",
"              .++.                                              ",
".............+@..@+.............................................",
"@@@@@@@@@@@@@.@..@.@@@@@@@@@@@@@@@@@@@@@@@@@@@@@@@@@@@@@@@@@@@@@",
"@@@@@@@@@@@@@.@..@.@@@@@@@@@@@@@@@@@@@@@@@@@@@@@@@@@@@@@@@@@@@@@",
"@@@@@@@@@@@@@.@..@.@@@@@@@@@@@@@@@@@@@@@@@@@@@@@@@@@@@@@@@@@@@@@",
"@@@@@@@@@@@@@.@..@.@@@@@@@@@@@@@@@@@@@@@@@@@@@@@@@@@@@@@@@@@@@@@",
".............+@..@+.............................................",
"              .++.                                              ",
"                                                      .++.      ",
".....................................................+@..@+.....",
"@@@@@@@@@@@@@@@@@@@@@@@@@@@@@@@@@@@@@@@@@@@@@@@@@@@@@.@..@.@@@@@",
"@@@@@@@@@@@@@@@@@@@@@@@@@@@@@@@@@@@@@@@@@@@@@@@@@@@@@.@..@.@@@@@",
"@@@@@@@@@@@@@@@@@@@@@@@@@@@@@@@@@@@@@@@@@@@@@@@@@@@@@.@..@.@@@@@",
"@@@@@@@@@@@@@@@@@@@@@@@@@@@@@@@@@@@@@@@@@@@@@@@@@@@@@.@..@.@@@@@",
".....................................................+@..@+.....",
"                                                      .++.      ",
"                                              .++.              ",
".............................................+@..@+.............",
"@@@@@@@@@@@@@@@@@@@@@@@@@@@@@@@@@@@@@@@@@@@@@.@..@.@@@@@@@@@@@@@",
"@@@@@@@@@@@@@@@@@@@@@@@@@@@@@@@@@@@@@@@@@@@@@.@..@.@@@@@@@@@@@@@",
"@@@@@@@@@@@@@@@@@@@@@@@@@@@@@@@@@@@@@@@@@@@@@.@..@.@@@@@@@@@@@@@",
"@@@@@@@@@@@@@@@@@@@@@@@@@@@@@@@@@@@@@@@@@@@@@.@..@.@@@@@@@@@@@@@",
".............................................+@..@+.............",
"                                              .++.              ",
"                      .++.                                      ",
".....................+@..@+.....................................",
"@@@@@@@@@@@@@@@@@@@@@.@..@.@@@@@@@@@@@@@@@@@@@@@@@@@@@@@@@@@@@@@",
"@@@@@@@@@@@@@@@@@@@@@.@..@.@@@@@@@@@@@@@@@@@@@@@@@@@@@@@@@@@@@@@",
"@@@@@@@@@@@@@@@@@@@@@.@..@.@@@@@@@@@@@@@@@@@@@@@@@@@@@@@@@@@@@@@",
"@@@@@@@@@@@@@@@@@@@@@.@..@.@@@@@@@@@@@@@@@@@@@@@@@@@@@@@@@@@@@@@",
".....................+@..@+.....................................",
"                      .++.                                      ",
"+.                                                            .+",
".@+..........................................................+@.",
".@.@@@@@@@@@@@@@@@@@@@@@@@@@@@@@@@@@@@@@@@@@@@@@@@@@@@@@@@@@@.@.",
".@.@@@@@@@@@@@@@@@@@@@@@@@@@@@@@@@@@@@@@@@@@@@@@@@@@@@@@@@@@@.@.",
".@.@@@@@@@@@@@@@@@@@@@@@@@@@@@@@@@@@@@@@@@@@@@@@@@@@@@@@@@@@@.@.",
".@.@@@@@@@@@@@@@@@@@@@@@@@@@@@@@@@@@@@@@@@@@@@@@@@@@@@@@@@@@@.@.",
".@+..........................................................+@.",
"+.                                                            .+",
"                                      .++.                      ",
".....................................+@..@+.....................",
"@@@@@@@@@@@@@@@@@@@@@@@@@@@@@@@@@@@@@.@..@.@@@@@@@@@@@@@@@@@@@@@",
"@@@@@@@@@@@@@@@@@@@@@@@@@@@@@@@@@@@@@.@..@.@@@@@@@@@@@@@@@@@@@@@",
"@@@@@@@@@@@@@@@@@@@@@@@@@@@@@@@@@@@@@.@..@.@@@@@@@@@@@@@@@@@@@@@",
"@@@@@@@@@@@@@@@@@@@@@@@@@@@@@@@@@@@@@.@..@.@@@@@@@@@@@@@@@@@@@@@",
".....................................+@..@+.....................",
"                                      .++.                      ",
"      .++.                                                      ",
".....+@..@+.....................................................",
"@@@@@.@..@.@@@@@@@@@@@@@@@@@@@@@@@@@@@@@@@@@@@@@@@@@@@@@@@@@@@@@",
"@@@@@.@..@.@@@@@@@@@@@@@@@@@@@@@@@@@@@@@@@@@@@@@@@@@@@@@@@@@@@@@",
"@@@@@.@..@.@@@@@@@@@@@@@@@@@@@@@@@@@@@@@@@@@@@@@@@@@@@@@@@@@@@@@",
"@@@@@.@..@.@@@@@@@@@@@@@@@@@@@@@@@@@@@@@@@@@@@@@@@@@@@@@@@@@@@@@",
".....+@..@+.....................................................",
"      .++.                                                      ",
"                              .++.                              ",
".............................+@..@+.............................",
"@@@@@@@@@@@@@@@@@@@@@@@@@@@@@.@..@.@@@@@@@@@@@@@@@@@@@@@@@@@@@@@",
"@@@@@@@@@@@@@@@@@@@@@@@@@@@@@.@..@.@@@@@@@@@@@@@@@@@@@@@@@@@@@@@",
"@@@@@@@@@@@@@@@@@@@@@@@@@@@@@.@..@.@@@@@@@@@@@@@@@@@@@@@@@@@@@@@",
"@@@@@@@@@@@@@@@@@@@@@@@@@@@@@.@..@.@@@@@@@@@@@@@@@@@@@@@@@@@@@@@",
".............................+@..@+.............................",
"                              .++.                              "};
