/* XPM */
static char * RIVET_2C_xpm[] = {
"64 64 7 1",
" 	c #382B2F",
".	c #1C1C1B",
"+	c #181817",
"@	c #28221F",
"#	c #2B2724",
"$	c #000000",
"%	c #141413",
" ..+.+.+@......+ +..#..+ +.+...+@.+.+..$ +.....% +..#..+ +.....%",
" .+....% ......+@..#...+ .+....%@+.....+@......+@..#...+@......+",
" ......%@......% ......+ +.....%@......$ ......% ......+ ......%",
" .. +..% .. +..+ .. +..+ .. +..%@.# +..$ .. +..+ .. +..+ .. +..+",
" .%++..%@.%++..% .%++..+ .%++..% .%++..$ .%++..+ .%++..+ .%++..+",
" .%%...% .%%...+ .%%..#+ .%%...%@.%%#..$ .%%...+ .%%..#+ .%%..++",
" ......%@...+.+$ ..#.#.+ ......% ..##..+@......+ ..#.#.+@....+.+",
" .+....+@.++.+.+ .#.#..+ .+....+@..##..$ ......+ .#.#..+ ...+.++",
" +.....%@.+.+..$ +##...% +.....% +..#..+@......+ +##...% ..+.+.+",
"@......+@+.....+ .#....+@......+@..#...+ ......+ .#....+ .+....%",
" ......%@......$ ......% ......% ......+@......% ......% ......%",
" .. +..+@.# +..$ .. +..+ .. +..+ .. +..+ .. +..+ .. +..+ .. +..%",
" .%++..+ .%++..$ .%++..+ .%++..+ .%++..+@.%++..% .%++..+ .%++..%",
" .%%...+@.%%#..$ .%%...% .%%..++ .%%..#+ .%%...+ .%%...% .%%...%",
"@......+ ..##..+ ....+++@....+.+ ..#.#.+@...+.+$ ....+++ ......%",
" ......+@..##..$ ...++.% ...+.++ .#.#..+@.++.+.+ ...++.% .+....+",
"@......+ +..#..+ +.+...+ ..+.+.+ +##...%@.+.+..$ +.+...+ +.....%",
" ......+@..#...+ .+....% .+....% .#....+@+.....+ .+....%@......+",
"@......% ......+ +.....% ......% ......%@......$ +.....% ......%",
" .. +..+ .. +..+ .. +..% .. +..% .. +..+@.# +..$ .. +..% .. +..+",
"@.%++..% .%++..+ .%++..% .%++..% .%++..+ .%++..$ .%++..% .%++..+",
" .%%...+ .%%..#+ .%%...% .%%...% .%%...%@.%%#..$ .%%...% .%%...+",
"@...+.+$ ..#.#.+ ......% ......% ....+++ ..##..+ ......%@......+",
"@.++.+.+ .#.#..+ .+....+ .+....+ ...++.%@..##..$ .+....+ ......+",
"@.+.+..$ +##...% +.....% +.....% +.+...+ +..#..+ +.....%@......+",
"@+.....+ .#....+@......+@......+ .+....%@..#...+@......+ ......+",
"@......$ ......% ......% ......% +.....% ......+ ......%@......%",
"@.# +..$ .. +..+ .. +..+ .. +..+ .. +..% .. +..+ .. +..+ .. +..+",
" .%++..$ .%++..+ .%++..+ .%++..+ .%++..% .%++..+ .%++..+@.%++..%",
"@.%%#..$ .%%...% .%%..++ .%%...+ .%%...% .%%..#+ .%%..++ .%%...+",
" ..##..+ ....+++@....+.+@......+ ......% ..#.#.+@....+.+@...+.+$",
"@..##..$ ...++.% ...+.++ ......+ .+....+ .#.#..+ ...+.++@.++.+.+",
" +..#..+ +.+...+ ..+.+.+@......+ +.....% +##...% ..+.+.+@.+.+..$",
"@..#...+ .+....% .+....% ......+@......+ .#....+ .+....%@+.....+",
" ......+ +.....% ......%@......% ......% ......% ......%@......$",
" .. +..+ .. +..% .. +..% .. +..+ .. +..+ .. +..+ .. +..%@.# +..$",
" .%++..+ .%++..% .%++..%@.%++..% .%++..+ .%++..+ .%++..% .%++..$",
" .%%..#+ .%%...% .%%...% .%%...+ .%%..++ .%%...% .%%...%@.%%#..$",
" ..#.#.+ ......% ......%@...+.+$@....+.+ ....+++ ......% ..##..+",
" .#.#..+ .+....+ .+....+@.++.+.+ ...+.++ ...++.% .+....+@..##..$",
" +##...% +.....% +.....%@.+.+..$ ..+.+.+ +.+...+ +.....% +..#..+",
" .#....+@......+@......+@+.....+ .+....% .+....%@......+@..#...+",
" ......% ......% ......%@......$ ......% +.....% ......% ......+",
" .. +..+ .. +..+ .. +..+@.# +..$ .. +..% .. +..% .. +..+ .. +..+",
" .%++..+ .%++..+ .%++..+ .%++..$ .%++..% .%++..% .%++..+ .%++..+",
" .%%...% .%%..++ .%%...+@.%%#..$ .%%...% .%%...% .%%...+ .%%..#+",
" ....+++@....+.+@......+ ..##..+ ......% ......%@......+ ..#.#.+",
" ...++.% ...+.++ ......+@..##..$ .+....+ .+....+ ......+ .#.#..+",
" +.+...+ ..+.+.+@......+ +..#..+ +.....% +.....%@......+ +##...%",
" .+....% .+....% ......+@..#...+@......+@......+ ......+ .#....+",
" +.....% ......%@......% ......+ ......% ......%@......% ......%",
" .. +..% .. +..% .. +..+ .. +..+ .. +..+ .. +..+ .. +..+ .. +..+",
" .%++..% .%++..%@.%++..% .%++..+ .%++..+ .%++..+@.%++..% .%++..+",
" .%%...% .%%...% .%%...+ .%%..#+ .%%...+ .%%..++ .%%...+ .%%...%",
" ......% ......%@...+.+$ ..#.#.+@......+@....+.+@...+.+$ ....+++",
" .+....+ .+....+@.++.+.+ .#.#..+ ......+ ...+.++@.++.+.+ ...++.%",
" +.....% +.....%@.+.+..$ +##...%@......+ ..+.+.+@.+.+..$ +.+...+",
"@......+@......+@+.....+ .#....+ ......+ .+....%@+.....+ .+....%",
" ......% ......%@......$ ......%@......% ......%@......$ +.....%",
" .. +..+ .. +..+@.# +..$ .. +..+ .. +..+ .. +..%@.# +..$ .. +..%",
" .%++..+ .%++..+ .%++..$ .%++..+@.%++..% .%++..% .%++..$ .%++..%",
" .%%..++ .%%...+@.%%#..$ .%%...% .%%...+ .%%...%@.%%#..$ .%%...%",
"@....+.+@......+ ..##..+ ....+++@...+.+$ ......% ..##..+ ......%",
" ...+.++ ......+@..##..$ ...++.%@.++.+.+ .+....+@..##..$ .+....+"};
