/* XPM */
static char * BARREL_3_xpm[] = {
"64 64 23 1",
" 	c None",
".	c #1C1C1B",
"+	c #536265",
"@	c #62797E",
"#	c #464D4F",
"$	c #313534",
"%	c #292A28",
"&	c #141413",
"*	c #1E1E17",
"=	c #024122",
"-	c #0C5A33",
";	c #1D783C",
">	c #429128",
",	c #66A916",
"'	c #28261F",
")	c #383F40",
"!	c #1D1D1C",
"~	c #272C2D",
"{	c #222524",
"]	c #313637",
"^	c #445457",
"/	c #3A4446",
"(	c #000000",
"                                                                ",
"                                                                ",
"                                                                ",
"                                                                ",
"                                                                ",
"                                                                ",
"                                                                ",
"                                                                ",
"                                                                ",
"                                                                ",
"                                                                ",
"                                                                ",
"                                                                ",
"                                                                ",
"                                                                ",
"                                                                ",
"                                                                ",
"                                                                ",
"                                                                ",
"                                                                ",
"                                                                ",
"                                                                ",
"                                                                ",
"                                                                ",
"                                                                ",
"                                                                ",
"                                                                ",
"                                                                ",
"                                                                ",
"                                                                ",
"                      .++@@@@@@+@++++#+##.                      ",
"                   $#+#%%%%%%%%%.%....&.&##$*                   ",
"                  %&&=--;-;-;;;;;;;;;;;;--=&&*                  ",
"                  &##+#--;;;;>;>,>,,,,,>;##$'&                  ",
"                   &**%++@@@@@@+@++++#+##.&&&                   ",
"                   ''$))%%%%%%%%.%....&.-****                   ",
"                   '$$$)))))))$)$$$$'$'';'**'                   ",
"                   '$))######)#))))$)$$->''*'                   ",
"                  *'$$))####)#)#))$)$)$-,'*''*                  ",
"                  %'$))#)####)#))))$)$$$;$'*'*                  ",
"                  &$###)#)####)#))))$)$>,>;$'&                  ",
"                   &**%++@@@+@+++++>>,,>;&&&&                   ",
"                   ''$))%%%%%!%%.%....&.-****                   ",
"                   '$$$)))))~{~)$$$$'$''*'**'                   ",
"                   '$))####]~]~~)))$)$$$-''*'                   ",
"                  *'$$))##]]]~]~~)$)$)$';'*''*                  ",
"                  %'$))##]]]~]~]~~)$)$$$;$'*'*                  ",
"                  &$####~]]]]~]~~~~)$)$-,>)$'&                  ",
"                   &**%++^^/^/////+++#>,;&&&&                   ",
"                   ''$))%%!!!!!!!!....&.-****                   ",
"                   '$$$)))){{~{{$$$$'$''*'**'                   ",
"                   '$))#####]~~))))$)$$$'''*'                   ",
"                  *'$$))#####~##))$)$)$'$'*''*                  ",
"                  %'$))#)######))))$)$$$-$'*'*                  ",
"                  &$###)#)####)#))))$)$$>>)$'&                  ",
"                   &**%++@@@+@+++++++#+>;&&&&                   ",
"                   ''$))%%%%%%%%.%....&.-****                   ",
"                   '$$$)))))))$)$$$$'$''*'**'                   ",
"                   '$))######)#))))$)$$$'''*'                   ",
"                  *'$$))####)#)#))$)$)$'$'*''*                  ",
"                  %'$))#)####)#))))$)$$$'$'*'*                  ",
"                  &$###)#)####)#))))$)$$$))$'&                  ",
"                   &&.%++@@@+@+++++++#+##&&&&                   ",
"                      (.%%%%%%%%.%....&.&&                      "};
