/* XPM */
static char * BARREL2_xpm[] = {
"64 64 18 1",
" 	c None",
".	c #1C1C1B",
"+	c #536265",
"@	c #62797E",
"#	c #464D4F",
"$	c #313534",
"%	c #292A28",
"&	c #141413",
"*	c #1E1E17",
"=	c #000000",
"-	c #28261F",
";	c #383F40",
">	c #744000",
",	c #855A00",
"'	c #92670B",
")	c #9F7315",
"!	c #392D13",
"~	c #B08A2E",
"                                                                ",
"                                                                ",
"                                                                ",
"                                                                ",
"                                                                ",
"                                                                ",
"                                                                ",
"                                                                ",
"                                                                ",
"                                                                ",
"                                                                ",
"                                                                ",
"                                                                ",
"                                                                ",
"                                                                ",
"                                                                ",
"                                                                ",
"                                                                ",
"                                                                ",
"                                                                ",
"                                                                ",
"                                                                ",
"                                                                ",
"                                                                ",
"                                                                ",
"                                                                ",
"                                                                ",
"                                                                ",
"                                                                ",
"                                                                ",
"                      .++@@@@@@+@++++#+##.                      ",
"                   $#+#%%%%%%%%%.%....&.&##$*                   ",
"                  %&&.&=&=&=&&&&&&&&&&&&&&&&&*                  ",
"                  &##+#&=&=&=&.&.........##$-&                  ",
"                   &**%++@@@@@@+@++++#+##.&&&                   ",
"                   --$;;%%%%%%%%.%....&.&****                   ",
"                   -$$$;;;;;;;$;$$$$-$--*-**-                   ",
"                   -$;;######;#;;;;$;$$$---*-                   ",
"                  *-$$;;####;#;#;;$;$;$-$-*--*                  ",
"                  %-$;;#;####;#;;;;$;$$$-$-*-*                  ",
"                  &$###;#;####;#;;;;$;$$$;;$-&                  ",
"                   &**%++@@@+@+++++++#+##&&&&                   ",
"                   --$;;%%%%%>%%.%....&.&****                   ",
"                   -$$$;;;;;>,,;$$$$-$--*-**-                   ",
"                   -$;;####')))';;;$;$$$---*-                   ",
"                  *-$$;;##'))!))';$;$;$-$-*--*                  ",
"                  %-$;;#;')))!)')';$;$$$-$-*-*                  ",
"                  &$###;')'))!))'',;$;$$$;;$-&                  ",
"                   &**%++)~~~~~~)~+++#+##&&&&                   ",
"                   --$;;%%>>,&,,>%....&.&****                   ",
"                   -$$$;;;;,,''>$$$$-$--*-**-                   ",
"                   -$;;#####)));;;;$;$$$---*-                   ",
"                  *-$$;;####;';#;;$;$;$-$-*--*                  ",
"                  %-$;;#;####;#;;;;$;$$$-$-*-*                  ",
"                  &$###;#;####;#;;;;$;$$$;;$-&                  ",
"                   &**%++@@@+@+++++++#+##&&&&                   ",
"                   --$;;%%%%%%%%.%....&.&****                   ",
"                   -$$$;;;;;;;$;$$$$-$--*-**-                   ",
"                   -$;;######;#;;;;$;$$$---*-                   ",
"                  *-$$;;####;#;#;;$;$;$-$-*--*                  ",
"                  %-$;;#;####;#;;;;$;$$$-$-*-*                  ",
"                  &$###;#;####;#;;;;$;$$$;;$-&                  ",
"                   &&.%++@@@+@+++++++#+##&&&&                   ",
"                      ..%%%%%%%%.%....&.&&                      "};
