/* XPM */
static char * RIVET_3B_xpm[] = {
"64 64 7 1",
" 	c #353929",
".	c #28271F",
"+	c #1E1E17",
"@	c #181817",
"#	c #28261F",
"$	c #141413",
"%	c #000000",
"         .    . . . . ...... . . .                       .    . ",
"++++++++@++++++++++++++++@++++++@+++++++@+++++++@+@+++++@+++++++",
"+@+++++@+++++++++++++++@@++++++++++++++###+++++++@+++++@++++++++",
"@++.$++++++.$++++++.$++@++#.$++++++.$+#+#++.$+++@++.$++++++.$+++",
"++@%$+++++@%$+++++@%$+@+@+@%$++@++@%$++#++@%$++@++@%$+++++@%$++@",
"@+@@++++++@@++++++@@+++@++@@#+++++@@++#+++@@++@@++@@++++++@@++@+",
"++++++++++++++++++++++@++++##++++++++#++++++++@++++++++++++++@+@",
"$@@@@@@$@$@$$$$$$$@$@$%$%$%%%%$%$$$$$$$$@$@$$@$@$@@@@@@$@$@$$$$$",
". . . ...... . . .                       .    .          .    . ",
"+++++++++@++++++@+++++++@+++++++@+@+++++@+++++++++++++++@+++++++",
"+++++++@@++++++++++++++###+++++++@+++++@+++++++++@+++++@++++++++",
"+++.$++@++#.$++++++.$+#+#++.$+++@++.$++++++.$+++@++.$++++++.$+++",
"++@%$+@+@+@%$++@++@%$++#++@%$++@++@%$+++++@%$++@++@%$+++++@%$+++",
"++@@+++@++@@#+++++@@++#+++@@++@@++@@++++++@@++@+@+@@++++++@@++++",
"++++++@++++##++++++++#++++++++@++++++++++++++@+@++++++++++++++++",
"$$@$@$%$%$%%%%$%$$$$$$$$@$@$$@$@$@@@@@@$@$@$$$$$$@@@@@@$@$@$$$$$",
"                 .    .          .    . . . . ...... . . .      ",
"@+++++++@+@+++++@+++++++++++++++@++++++++++++++++@++++++@+++++++",
"##+++++++@+++++@+++++++++@+++++@+++++++++++++++@@++++++++++++++#",
"#++.$+++@++.$++++++.$+++@++.$++++++.$++++++.$++@++#.$++++++.$+#+",
"++@%$++@++@%$+++++@%$++@++@%$+++++@%$+++++@%$+@+@+@%$++@++@%$++#",
"++@@++@@++@@++++++@@++@+@+@@++++++@@++++++@@+++@++@@#+++++@@++#+",
"++++++@++++++++++++++@+@++++++++++++++++++++++@++++##++++++++#++",
"@$@$$@$@$@@@@@@$@$@$$$$$$@@@@@@$@$@$$$$$$$@$@$%$%$%%%%$%$$$$$$$$",
"         .    .          .    . . . . ...... . . .              ",
"@+@+++++@+++++++++++++++@++++++++++++++++@++++++@+++++++@+++++++",
"+@+++++@+++++++++@+++++@+++++++++++++++@@++++++++++++++###++++++",
"@++.$++++++.$+++@++.$++++++.$++++++.$++@++#.$++++++.$+#+#++.$+++",
"++@%$+++++@%$++@++@%$+++++@%$+++++@%$+@+@+@%$++@++@%$++#++@%$++@",
"++@@++++++@@++@+@+@@++++++@@++++++@@+++@++@@#+++++@@++#+++@@++@@",
"+++++++++++++@+@++++++++++++++++++++++@++++##++++++++#++++++++@+",
"$@@@@@@$@$@$$$$$$@@@@@@$@$@$$$$$$$@$@$%$%$%%%%$%$$$$$$$$@$@$$@$@",
".... . . .                       .    .          .    . . . . ..",
"+@++++++@+++++++@+++++++@+@+++++@+++++++++++++++@+++++++++++++++",
"@++++++++++++++###+++++++@+++++@+++++++++@+++++@+++++++++++++++@",
"++#.$++++++.$+#+#++.$+++@++.$++++++.$+++@++.$++++++.$++++++.$++@",
"@+@%$++@++@%$++#++@%$++@++@%$+++++@%$++@++@%$+++++@%$+++++@%$+@+",
"++@@#+++++@@++#+++@@++@@++@@++++++@@++@+@+@@++++++@@++++++@@+++@",
"+++##++++++++#++++++++@++++++++++++++@+@++++++++++++++++++++++@+",
"%$%%%%$%$$$$$$$$@$@$$@$@$@@@@@@$@$@$$$$$$@@@@@@$@$@$$$$$$$@$@$%$",
" .    . . . . ...... . . .                       .    .         ",
"@++++++++++++++++@++++++@+++++++@+++++++@+@+++++@+++++++++++++++",
"+++++++++++++++@@++++++++++++++###+++++++@+++++@+++++++++@+++++@",
"+++.$++++++.$++@++#.$++++++.$+#+#++.$+++@++.$++++++.$+++@++.$+++",
"++@%$+++++@%$+@+@+@%$++@++@%$++#++@%$++@++@%$+++++@%$++@++@%$+++",
"++@@++++++@@+++@++@@#+++++@@++#+++@@++@@++@@++++++@@++@+@+@@++++",
"++++++++++++++@++++##++++++++#++++++++@++++++++++++++@+@++++++++",
"@$@$$$$$$$@$@$%$%$%%%%$%$$$$$$$$@$@$$@$@$@@@@@@$@$@$$$$$$@@@@@@$",
" .                       .    .          .    . . . . ...... . .",
"@+++++++@+++++++@+@+++++@+++++++++++++++@++++++++++++++++@++++++",
"+++++++###+++++++@+++++@+++++++++@+++++@+++++++++++++++@@+++++++",
"+++.$+#+#++.$+++@++.$++++++.$+++@++.$++++++.$++++++.$++@++#.$+++",
"++@%$++#++@%$++@++@%$+++++@%$++@++@%$+++++@%$+++++@%$+@+@+@%$++@",
"++@@++#+++@@++@@++@@++++++@@++@+@+@@++++++@@++++++@@+++@++@@#+++",
"+++++#++++++++@++++++++++++++@+@++++++++++++++++++++++@++++##+++",
"$$$$$$$$@$@$$@$@$@@@@@@$@$@$$$$$$@@@@@@$@$@$$$$$$$@$@$%$%$%%%%$%",
" .    .          .    . . . . ...... . . .                      ",
"@+++++++++++++++@++++++++++++++++@++++++@+++++++@+++++++@+@+++++",
"+++++++++@+++++@+++++++++++++++@@++++++++++++++###+++++++@+++++@",
"+++.$+++@++.$++++++.$++++++.$++@++#.$++++++.$+#+#++.$+++@++.$+++",
"++@%$++@++@%$+++++@%$+++++@%$+@+@+@%$++@++@%$++#++@%$++@++@%$+++",
"++@@++@+@+@@++++++@@++++++@@+++@++@@#+++++@@++#+++@@++@@++@@++++",
"+++++@+@++++++++++++++++++++++@++++##++++++++#++++++++@+++++++++",
"@$@$$$$$$@@@@@@$@$@$$$$$$$@$@$%$%$%%%%$%$$$$$$$$@$@$$@$@$@@@@@@$"};
