/* XPM */
static char * BRICK_2A_xpm[] = {
"64 64 21 1",
" 	c #2E221C",
".	c #3B2921",
"+	c #463124",
"@	c #5B231E",
"#	c #4D1C1A",
"$	c #451816",
"%	c #68312E",
"&	c #3C1313",
"*	c #74362A",
"=	c #844241",
"-	c #693433",
";	c #713633",
">	c #612723",
",	c #4D1F1D",
"'	c #200707",
")	c #7E3C34",
"!	c #2E0E0F",
"~	c #58221F",
"{	c #491C19",
"]	c #000000",
"^	c #170606",
"      ..++..+.+..... ..++.+....    . ..+++++.+.     . .+++.+....",
"@@@@@#$#.++++...$%%@#$& +*=-;;@@@@@@@#$$$$#>>;;>;>>@#$&.+*=-;;@@",
",###,,#$@@%%%@@%%,##$#$'.),####@@@,####&##,####@>###$#$'.),###@,",
"###,,#####,###@,,####$#!.>####,,,,#######,###,@######$#! >###@,#",
"#,,,###&#####@,########'.>###>>#,########@##>>#########' >##>##,",
",,#####&####>#########$' >#,@##,#,###$###@#@##########$'.>#,>#,#",
"######&####,>#,#####~&!'.>#@,#,#,,##$#####@,########~&!' >#@###,",
"###$#$####@,#,#,####&&!! >@####,###$#$##@@,,#,#,####&&!!.>@###,#",
"###&######@,,#,####~&&!' {>#######$#$####,#,,#,####~&&!' {>#####",
"##&&######@,#,,###~&$&!! {#########$####,#,,#,,###~&$&!!.{######",
"#~&$#$####,#####$#&$#$&!.&#######~&$###&#,######$#&$#$&!.&######",
"~&$#$##########$#$$###&! &&#####~&$#####,######$#$$###&!.!&#####",
"$#$##########$#$#######'.&$###~&&$###########$#$#######'.&$###~&",
"#######$#$############$'.$####&&&&$######$############$'.$##~&&&",
"##&&$##&#$&&&#####&&##&'.$&&#$!!!!&&##$&#$&&&#####&&##&].$&&&&&$",
"!!!!'!']]''''!'!!!!!!''.+ '''''!'!!!!''']]'''!'!!!!!!'].+]'''!'!",
"+.    . .    .. ..  . .+++ .  . .. .      . .. .    .++++ . . .+",
"@@#$&++.%,@@,,,&! . >>,>,**>*>>>{&&&$$.++*>>>>&!&&$$$&&&###,@@@@",
",#,#$'+*,##>,#,#,! >,,####,####@>#&$$#'.%,#####&!$####$&######@,",
"#####! >##>,#,#,,!&&>########,@####$#$'+>##@###$&####$#$#####@,#",
",,,#&'.>#>##,#####>**#######>>######$$'.>#@#####&#####$#####>##,",
",###&! >###############&###@#######$#$! >@,####$#&#####$####>#,,",
"#,#&#! &######$###########@,########$&'.*,#,####$&#############,",
"##$##! !&$#$#$####$#######,########~&&! >#,######&#$##########,#",
"#####! &!&&#$#$#$$#$######,##,#,###~&#! @,,#####$$&#############",
"####$! &$##&&&$&$###########,,,####&$&!.########$##$############",
"###$$! $#####$$#&###########,,#####&&#! &######$#########&######",
"##&&&! $#######$#$##~######,,#,####&#&!.&##>####$###~~$&#&&#####",
"&&$#$' &#$#########~$#####,#,##$##&$#$!.>,##########$#$###$$#$#&",
"&##$$'.&$#$#$#####~$#$$##$####&##$&#$#'.$#############$###$#$#$$",
"#&$#&' &&$#$#$###~&&$$!##&$#&&###$&$$&'.&$#&&&######$####$#$$$&&",
"!!!'' . '''!!!'!!!!!'!'']''!'!!!!!!''] +.'!'!!!!!!!'']']]''''!'!",
"      ..  .. . . ..... .    .....  . . +++++.+.    . .  +.+.....",
"%%@,##@#@@@+++.+..$%%@#$& . =-**@@@@@#$#>>>,@@@@@@@#$& +..=)>>>>",
"@@,####&##,%%@@%%%%,##$#$' ),###@,##,,#$######~,###,#$'.+*,###@@",
",,#######,,###@,,,,####$#!.>###@,##,,########~,###,###!+.%###,,,",
",#######,#,##@,#,########' >##>##,,,###&####~###,,,,#&'..%##>>##",
"#,###$######>##,########$' >#,>#,#,########>~~,,,,###&!. @#@##,,",
",,##$######,>#,#######~&!' >#@###,####&###>$$$##,#,#&#!..@@,#,##",
"###$#$#####,#,#,######&&!! >@###,##$#$##>~$#$#$,###$##!. %,###,,",
"##$#$######,,#,######~&&!' {>######&###,$$#$#$########! $%,#####",
"###$#######,#,,##$##~&$&!!.{######&&##,###$##########$!.%,######",
"#~&$###&########$$$#&$#$&! &#####~&$#$###&#$########$$! %#######",
"~&$############$#$#$$###&!.&&####&$#$###$##########&&&!.@#######",
"&$###########$$#$#$######' &$###&#$######&$$#$#~&&&$#$' #$###~&&",
"&&$######$#####$########$'.$##~&&########$$#$#$&$&##$$' $#$##&&&",
"!!&&##$&#$&&&#######&&##&'.$&&&&$#&&$##&#$#$$$&#&#&$#&' &$##$!!!",
"'!!!!''']]]''']''!]]'!!'' +.'''!!!!!'!'']''''!'!!!!!''  ''!'''!!",
".     . ..  . .... .  . ..++..+.+..... ..........    . . +++++.+",
"@@@@@@#$&.. =))%>>{{&   *%%%>>>>$ {{&&&$$+++....... .%>>$&'*;,@@",
"@,,###,#$' *@@@##@>##&>*{{{#,##$!@>##&$#&'+.=*%%>%%>%#,,#$##,###",
",####,###!.@#@#,@####{{$#$#####!)#######&'.*##>,#,,############@",
"###,,,,#&' #@#>>########$$###$>&@######~&'+>#>##,########&####>#",
"##,,,###&! @#@#########$#$&##@&#,######&!!.>#############&###,>#",
"###,#,#&#! #@,########$#$&###$###,####~!&'.&#################@##",
"##,###$##! @,##########~##&$##########&&$!.!&$#$####$#######@###",
"#########! @,##,#,#######$#&#########$###! &!&&#$#$$#$######>###",
"########$!.@##,,,#####~#$$$&########~####!.&$##&&&$#############",
"#######$$! @##,,######~$&$$########&&$$#&! $######&#############",
"######&&&!.@#,,#,#####$&#######&#$&&$###&! $#####$#$##~#####&###",
"#~~&&&$#$'.@,,#,#####$&#&###&,&######$##$' &#$#######~$####&$$#$",
"$&&$&##$$'+#,#,##$###&#$#####&#&####$####! &$#$#####~$#$###$$#$#",
"&&#&#&$#&'.$####&###$&$!'&&$&#&&&########' &&$#$###~&&$$###$#$$$",
"'!!!!!!''.+.'!'!!'!''']''']''!'!!!!^!!'']   '''!'!!!!!'!'']''''!"};
