/* XPM */
static char * BRICK_4D_xpm[] = {
"64 64 147 2",
"  	c #3B2921",
". 	c #2E221C",
"+ 	c #463124",
"@ 	c #5B231E",
"# 	c #4D1C1A",
"$ 	c #451816",
"% 	c #3C1313",
"& 	c #612723",
"* 	c #844241",
"= 	c #693433",
"- 	c #713633",
"; 	c #74362A",
"> 	c #68312E",
", 	c #7E3C34",
"' 	c #200707",
") 	c #4D1F1D",
"! 	c #2B100F",
"~ 	c #094227",
"{ 	c #2E0E0F",
"] 	c #2B1210",
"^ 	c #316A1F",
"/ 	c #16582E",
"( 	c #3A1B1A",
"_ 	c #002922",
": 	c #260E0D",
"< 	c #58221F",
"[ 	c #3B2D1D",
"} 	c #210B0B",
"| 	c #003422",
"1 	c #1C0A0A",
"2 	c #120404",
"3 	c #211713",
"4 	c #160707",
"5 	c #110D0A",
"6 	c #271B14",
"7 	c #110506",
"8 	c #19120D",
"9 	c #000000",
"0 	c #1A0809",
"a 	c #1A1310",
"b 	c #4C7C11",
"c 	c #160F0C",
"d 	c #1B0A09",
"e 	c #230E0D",
"f 	c #210D0B",
"g 	c #491C19",
"h 	c #1C0C0B",
"i 	c #190908",
"j 	c #0C0303",
"k 	c #321411",
"l 	c #170606",
"m 	c #361614",
"n 	c #492524",
"o 	c #261211",
"p 	c #46211D",
"q 	c #200D0C",
"r 	c #2D1613",
"s 	c #311312",
"t 	c #472019",
"u 	c #170A08",
"v 	c #3E1715",
"w 	c #1A0606",
"x 	c #38271D",
"y 	c #1C3211",
"z 	c #394F0F",
"A 	c #250C0D",
"B 	c #261A15",
"C 	c #30201B",
"D 	c #1E1611",
"E 	c #3D5212",
"F 	c #251C17",
"G 	c #120D0A",
"H 	c #1C3413",
"I 	c #304918",
"J 	c #354B1A",
"K 	c #652F29",
"L 	c #431F1C",
"M 	c #425213",
"N 	c #3F1916",
"O 	c #2F1210",
"P 	c #270D0C",
"Q 	c #31100F",
"R 	c #405313",
"S 	c #5D2B21",
"T 	c #08341F",
"U 	c #2F4816",
"V 	c #240F0D",
"W 	c #00201B",
"X 	c #2D100F",
"Y 	c #304816",
"Z 	c #2E1F17",
"` 	c #371312",
" .	c #491D18",
"..	c #321210",
"+.	c #334919",
"@.	c #552A29",
"#.	c #324918",
"$.	c #3B1713",
"%.	c #314818",
"&.	c #415112",
"*.	c #150505",
"=.	c #223615",
"-.	c #3E1917",
";.	c #321412",
">.	c #3E5313",
",.	c #204213",
"'.	c #3D5913",
").	c #1C0B0A",
"!.	c #4E1F1C",
"~.	c #405112",
"{.	c #314918",
"].	c #354B19",
"^.	c #112610",
"/.	c #1F3313",
"(.	c #072A19",
"_.	c #120707",
":.	c #315216",
"<.	c #0E250F",
"[.	c #314A19",
"}.	c #1D3414",
"|.	c #415213",
"1.	c #1F3413",
"2.	c #0F2711",
"3.	c #1D3213",
"4.	c #391613",
"5.	c #304716",
"6.	c #0F371C",
"7.	c #1E090A",
"8.	c #1E3313",
"9.	c #2E4716",
"0.	c #3D5010",
"a.	c #2E4918",
"b.	c #102610",
"c.	c #001A15",
"d.	c #2C4615",
"e.	c #3E5112",
"f.	c #2A4615",
"g.	c #1E3514",
"h.	c #112711",
"i.	c #3C5010",
"j.	c #183814",
"k.	c #1B3111",
"l.	c #0F250F",
"m.	c #0A240D",
"n.	c #102911",
"o.	c #0D250E",
"p.	c #173110",
"  .     + +   +         . . . . .   .   + + +   +                 .   . . . .           . . . . .   .   . . +   +               ",
"@ # $ % % + & * = - - @ @ - & & @ # $ % % + ; * = - - @ @ $ > > @ # $ % %   & * = ; ; @ @ @ @ @ @ # $ % . +   & * , & & & $ > > ",
"# $ # $ '   , ) # # # # @ & # # # $ # $ '   , ) # # # @ ) > ) # # $ # $ ' . , ) # # # @ ) ) # # # ) ! $ '   + ; ) # # # @ > ) # ",
"# # $ # ~ ~ ~ ! # # # ) ) # # # # # $ # { . & # # # @ ) # ) # # # # $ # {   & # # # @ ) # # # # ] ^ / ! { + & ( # # # ) ) ) # # ",
"# # # ~ ~ ~ _ : ! # # < % # # # # # # # ~ [ [ $ # # # < % # # # # # # # ' . & # # & # # ) < % % } / / : ' ~ ~ ~ ! # # < % # # # ",
"# # # / ~ _ | [ ~ ! # % % # # # # # # / / / _ 1 # < % % % # # # # # # $ '   $ # # < % % # % $ } ! _ / [ [ _ ~ ~ ~ ! # % % # # # ",
"% # # } 2 3 _ / / / $ { { # # % % # # ^ / _ [ 4 } } % % $ # # % % # # % '   $ % % % % $ # # } ~ ~ [ 1 } 2 5 _ ~ / ! $ { { # # % ",
"{ { ' ' { 6 } | ^ ^ ^ ' { { { { { [ [ | 7 8 9 [ [ [ ~ 2 { 9 9 ' { { ' ' { + % ' ' ' { { { 0 / / / _ 2 2 0 a } 2 0 ' ' ' { { { { ",
". .   .     a ~ [ ^ b 3 . . ~ ~ [ _ ~ ~ ~ | / / / _ [ ~ ~ a .               . . . . .   a ^ ^ ^ | c a                 .       . ",
"& ; & & & & } [ d 4 4 } $ / / / _ e _ ~ / f ^ / _ 1 _ [ / / 0   & * , , > & & g g % % % : b ^ ~ [ [ ~ ( > & > @ @ @ @ # $ % % + ",
"> ) # # # # ! [ e ! } $ : ^ / _ e h : i : : : : i h i _ [ ^ | a ; @ @ @ # # @ & # # % $ # } j 8 _ / / / ] # ) ) # # # ) # $ '   ",
"& # # @ # # ! ~ ~ ~ ! : ! i j [ k : : ! $ $ $ $ : : : / / / _ 3 @ # @ # ) @ # # # # # # # % 2 3 i _ / ^ ! # # # # # ) # # # { + ",
"% # $ # # ! ~ ~ ~ _ [ [ ~ ~ [ c k ) $ $ $ $ $ $ { { ^ ^ ^ | [ 3 k ] ) # ) # # # # # $ # # $ ' . } [ i 1 ! # # < % % % $ # $ ' . ",
"% $ # $ # $ / ~ _ i ~ _ / / / c } $ $ $ $ $ $ % % { b ^ ~ 4 ~ [ ~ ~ ! ) # # $ # # $ # # # # { a ~ ~ [ : ! ! # % $ % # # $ $ '   ",
"% % $ # $ # : 1 1 / / / _ / ^ 3 { % $ { { { $ { { $ 0 } i 7 9 _ / / / ! # % # # # # # # # # 2 / / / _ ~ ~ [ [ ~ ~ ! % $ # % ' . ",
"% ' ' ' { { { 0 ^ ^ ^ | j 9 0 + { 9 ' 9 ' ' ' 9 ' ' ' ' 9 9 2 6 | ^ ^ ^ 0 { ' { l { { ' ' 9 0 ^ / _ / / / _ _ [ / / 0 { ' ' {   ",
". . . . .   .   b ^ ~ c 6 3               .   . . . .       3 3 5 [ ^ b a   .   . . +   +     3 3 c ^ / _ 5 c | ^ ^ ^ 6         ",
"# & @ @ # $ % { % 6 m n = - - @ @ $ > > @ # $ % %   & * = ; ; k k ~ [ ~ k # $ % % +   & * , & & & : ( o f 1 [ 4 ~ ^ b p & & & # ",
"# @ $ $ $ % $ % 9   , ) # # # @ ) > ) # # $ # $ ' . , ) # # # k / / / _ ! ) # $ '   + ; ) # # # @ > ) ! 1 ~ ~ [ j c m ] $ $ $ $ ",
") $ $ $ $ $ % $ ' . & # # # @ ) # ) # # # # $ # {   & # # # @ ] ^ / _ [ ] ! # # { + & > # # # ) ) ) # ! ! _ / / / 3 @ $ $ $ $ ) ",
"{ $ $ $ $ $ $ $ 9   % $ # # # < % # # # # # # # ' . & # # & # ! ] q 4 [ ~ [ ! $ ' . # $ # # # < % ! [ [ ~ ~ _ / ^ 3 { % $ $ $ # ",
"{ $ $ $ $ $ $ % 9   $ # # < % % % # # # # # # $ '   $ # # < % % ! 4 / / / _ [ [ ~ ~ $ # $ # # % } [ _ / / / 1 i 2   % $ $ $ $ { ",
"' $ $ { { $ $ { 9   $ % % % % % $ # # % % # # % '   $ % % % % $ ! ^ ^ ^ | i / / / _ [ $ # # $ { ~ [ ~ _ / ^ ! } '   % { { $ % ' ",
"' ' ' ' ' ' 9 9 ' + % ' ' ' { ' { 9 9 ' { { ' ' { + % ' ' ' { { 0 b ^ ~ 7 7 ^ / _ 5 [ ~ ~ ' ' / / / _ 7 7 0 ' ' { + { 9 9 9 9 9 ",
"  .                 .       . a .   .     . .     .   . . . . . .   a 3 3 a 6 a 8 3 _ / / / [ ^ / _ 3 3 3 . . . . .   .     . . ",
"* ; > > & > @ @ @ @ # $ % % | | | @ @ @ @ { @ g { { { % % { + & ; & & & & % # # @ @ 1 _ / ^ ~ f r m & > @ @ g g { { { % % { + & ",
"# # & ) # ) ) # # # ) # $ ' _ ~ ~ ~ $ $ $ $ # @ $ { % % $ 9   > ) # # # # # # # ) # ] 1 ~ [ | | | ! # $ $ # @ $ $ { % $ { 9 + ; ",
"$ # $ # # # # # # ) # # # { 8 _ ~ ~ # $ $ $ $ $ $ $ % $ % 9 + & # # @ # # # # # # # ! / / / _ ~ ~ ~ : ) # $ $ $ $ $ $ $ { 9   $ ",
"# $ # # # # < % % % $ # $ ' a [ : } $ $ $ $ % $ $ { % $ % '   & ) # # # # # # % % } ^ ^ ^ | c _ ~ ~ $ ) $ $ $ $ $ % $ $ % 9 . % ",
"$ # $ # # # % $ % # # $ $ 2 ~ ~ [ : % $ % $ $ $ % { $ % $ 9   $ # # # # # # $ | | | b ^ [ j 6 : ] : ) $ $ % $ $ % $ $ $ $ ' . % ",
"% $ # $ # # # % # % $ # % / / / _ | | | $ % $ $ % { % % { 9   % $ # % % % # ~ ~ ~ _ [ ~ 4 2   % $ $ $ $ { $ $ $ $ $ $ $ $ 9 . % ",
"' ' ' { ' { { { { { { ' 2 ^ / _ ~ _ ~ ~ ~ ' ' ' ' ' 9 9 9 ' + { ' { ' { { { ~ ~ _ [ 7 j 2 { + { 9 ' 9 ' ' 9 ' l ' ' 9 9 9 ' . % ",
".     + +   +         . . a 5 5 c ~ _ ~ ~ +   | ~ ~ ~ [     ~ ~ ~ 3 . . . . 3 | [ ~ c a . . . .   .   . . +   +                 ",
"# $ % % + @ , & & & # # & @ k 1 / / / _ [ ~ [ _ / / / f [ / / / | | | %   & n _ / / / k @ @ @ @ # $ % . +   & * , & & & $ > > @ ",
"$ # $ '   & ) $ $ $ $ # @ $ : ^ ^ ^ | 9 ~ / _ 1 | ^ ^ ^ o ^ / _ _ ~ ~ ~ a ~ ~ [ | ^ ^ ^ ] # # # ) # $ '   + ; ) # # # @ > ) # # ",
"# $ # {   @ $ $ $ $ ) ) $ $ : b ^ ~ i 2 / / _ 1 1 ~ ^ b ] 1 1 1 ~ _ ~ ~ / / / _ 1 ~ ^ b ! # # ) # # # { + & > # # # ) ) ) # # # ",
"# # # '   { % $ $ $ # { $ $ $ : : : : 9 3 ^ i ! ! ! s } ! ! 1 / / / _ 2 ^ / _ 1 e 1 1 ] s % % % $ # $ ' . # $ # # # < % # # # # ",
"# # $ '   % $ $ $ $ { { $ $ $ $ $ $ % 9   : ! ! < % % % # # ! ^ / _ [ 2 c [ ~ ~ s } } ! % $ % # # $ $ ' . $ # $ # # % % # # # # ",
"# # % '   % { { $ % ' ' $ $ { { $ $ { 9   $ % % % % % $ # # % } 1 1 [ j 3 [ / / / } $ # # % # % $ # % ' . % $ # # $ { { # # % % ",
"{ ' ' { + { 9 9 9 9 9 ' ' ' ' ' ' 9 9 ' + 9 ' ' ' { ' { 9 9 ' { 0 j ~ ~ [ 4 _ / ^ 0 { { { { { { { ' ' { . % ' { ' ' ' { { { { { ",
". . .   .     . .     .   . . . . . .   .     . + . +   . . . . 3 / / / _ c 3 a a . . .   .     . .   .                 .       ",
"+ & ; & & & & % & g % % % $ $ % + & ; & & & & % # # @ @ # $ % % ^ ^ ^ | r ( & & g g % % % $ $ t + & * ; > > & > @ @ @ @ # $ % % ",
"  > ) # # # # # @ & # % $ $ # '   > ) # # # # # # # ) # ) # $ 2 b ^ ~ | | | # @ & # # % $ # % ' + ; # # & ) # ) ) # # # ) # $ ' ",
"+ & # # @ # # # # # # # $ # $ ' + & # # @ # # # # # # # # # # | | | 1 _ ~ ~ ~ # # # # # # # % '   $ $ # $ # # # # # # ) # # # { ",
". % # $ # # # # $ # # % $ # $ {   & ) # # # # # # % % % $ # ~ ~ ~ _ ~ ~ _ ~ ~ # # # # $ # # $ ' . % # $ # # # # < % % % $ # $ ' ",
"  % $ # $ # $ # # # $ % # $ # '   $ # # # # # # $ $ % # # $ ~ ~ _ _ / / / ! # $ # # $ # # # # { . % $ # $ # # # % $ % # # $ $ ' ",
". % % $ # $ # $ # # $ % $ $ % '   % $ # % % % # % % # % $ # % 2 3 ~ _ / ^ ! % # # # # # # # # ' . % % $ # $ # # # % # % $ # % ' ",
"  % ' ' ' { { { { { { { ' ' 9 { + % ' { ' { { { ' { { { { ' ' 0 6 u [ 7 j 0 0 ' { l { { ' ' 9 { . % ' ' ' { ' { { { { { { ' ' { ",
". .   .   + + +   +                 .   . . . .           . . . a a ~ [ ~ ~ ~ 6   +                 .     + +   +         . . . ",
"& @ # $ % $ + & * = - - @ @ $ > > @ # $ % %   & * = ; ; @ @ @ @ k / / / _ / / / k , & @ @ @ % > > # $ % { { + ; * = - - @ @ - & ",
"# # $ # $ '   , ) # # # @ ) > ) # # $ # $ ' . , ) # # # @ ) ) # ! ^ / _ i | ^ ^ ^ ] $ $ $ # > ) $ $ % $ % 9   , ) # # # # @ & # ",
"# # # $ # { . & # # # @ ) # ) # # # # $ # {   & # # # @ ) # # # # ] 1 1 1 [ ~ ^ b : $ $ ) ) ) $ $ $ $ % $ '   & # # # # ) ) # # ",
"# # # # # '   % $ # # # < % # # # # # # # ' . & # # & # # ) < % % % : 1 [ [ ~ i 4 : $ $ # { $ $ $ $ $ $ $ 9   % $ # # # < % # # ",
"# # # # $ '   $ # # < % % % # # # # # # $ '   $ # # < % % # % $ % ~ ~ ~ _ / / / : % $ $ { { $ $ $ $ $ $ % 9   $ # # # # % % # # ",
"% % # # % 9   $ % % % % % $ v # % % # # % '   $ % % % % $ # # % / / / _ 4 _ / ^ } $ $ % w ' $ $ { { $ $ { 9   $ % % # $ { { # # ",
"{ { { w 9 { x % ' ' ' { ' y 9 9 ' { { ' ' { + % ' ' ' { { | | | ^ / _ | | | a 9 9 ' 9 z 9 ' ' ' ' ' ' 9 9 ' + % ' ' ' ' ' { { A ",
"B C   B . . D . .   .   B E F   .                 .     ~ ~ ~ _ ~ 5 G _ ~ ~ ~   .   . E H . . .   .     . + F +   . . . .   I C ",
"J K L M N g O P Q % $ $ P R N = S > > & > @ @ @ @ # $ % T ~ _ / / / U V W ~ T % Q Q X Y P Z @ ` @ @  .@ { $ ` ..# $ % A { B +.@.",
"#.$.%.&.$.& %...Q Y # Q *.R =.v %.& ) v ) -.# # v ;.# $ *.>.~ | ^ ,.'.).v @ !.&.P ` X &.*.I > ;.` ~.X $ X $ ` {.$ -.$ Q 9 D ].$.",
"M ^.{.M ..v %.&.v ../.Q *.I ^.` ..Y # v %...&...-.%.../.(.(.~ _.(.,.:.<.v ..v %./.` ..Y *.[. .X ` &.X ` X ` X Y X ` X Y *.}.M ..",
"|.^.1.&./.v ..&.X %.%.` *.2.3...X %.^...&.4.5.3.P Y %.6./ 6._ _.: ).y ^...X ..&.3.X &.Y 7.}.#.;.X Y X 8.X ~.7.9.7.5.X 5.9 >.M 1.",
"/.{./.%.8.%...8.../.&.^.0.a.b.8...8.%...&.b.~.3.....8.^ / c.| | | X /.^...%...^.3...~./.d.B 3.X ~.Y X X Y e.P 0.8.^.P e.f.g.%.h.",
"%.^.%.5./.^.../.%.^.&.^.i.2.5.b.Y /.Y /.&.^.3.^.P 8.%.} j [ _ ~ ~ j.^...^./.%.^.e.Y ^.5.k.B y e.Y l.0.y ^.0.l.~.y b.^.0.m.n.Y ^.",
"l.k.l.9.o.l.d.l.y o.k.f.l.H b.o.d.o.y o.9.y l.l.9.y o.' 0 [ } _ ~ j.l.y l.9.l.9.0.o.o.f.l.g.o.m.d.m.d.o.i.m.o.d.o.d.p.f.k.g.b.o."};
