/* XPM */
static char * FLOOR_2B_xpm[] = {
"64 64 25 1",
" 	c #889C9E",
".	c #62797E",
"+	c #536265",
"@	c #4B3F38",
"#	c #28221F",
"$	c #464D4F",
"%	c #382B2F",
"&	c #383F40",
"*	c #2F1C17",
"=	c #380901",
"-	c #300E0B",
";	c #3E0801",
">	c #2D0501",
",	c #270401",
"'	c #53271F",
")	c #430A01",
"!	c #30140F",
"~	c #4F0D01",
"{	c #2D0801",
"]	c #210401",
"^	c #471F18",
"/	c #3B1A13",
"(	c #280906",
"_	c #40140E",
":	c #380D05",
" ....+.++.@+@+@@ ....+.+.#++@+@@ ....+.++.@+@+@@ ....+.+.#++@+@@",
".$$$$$$$$$+$$$$%.$$$$$&$$.%$$$$%.$$$$$$$$$+$$$$%.$$$$$&$$.%$$$$%",
".$$$$$$$$$$$$$$@.$$$$&$$$$+$$$$@.$$$$$$$$$$$$$$@.$$$$&$$$$+$$$$@",
".$$.$$$&$$$$.$$%+$$.$$$$$$$$.$$%.$$.$$$&$$$$.$$%+$$.$$$$$$$$.$$%",
"+$%$$$%$$$$%$$$%.$%$$$$$$$$%$$$%+$%$$$%$$$$%$$$%.$%$$$$$$$$%$$$%",
".$$$$%+&$&$$$$$%+$$$$$$$%+$$$$$%.$$$$%+&$&$$$$$%+$$$$$$$%+$$$$$%",
"+$$$&.&&&+$+%$&%.$$$$&$%+$$$$$&%+$$$&.&&&+$+%$&%.$$$$&$%+$$$$$&%",
".$$&+$$%+$$$+&$*+$$$#+&+$$$$$&$*.$$&+$$%+$$$+&$*+$$$#+&+$$$$$&$*",
"+$$$$$#.$$&$$$&%+$$%.&$$$$$$#+&%+$$$$$#.$$&$$$&%+$$%.&$$$$$$#+&%",
"+$$$$%.$$&$$$%+*+$&+$+%$$$$%.$$*+$$$$%.$$&$$$%+*+$&+$+%$$$$%.$$*",
"@$$$&+$$$$$$&+$%+&$$$$.&$$&.$$$*@$$$&+$$$$$$&+$%+&$$$$.&$$&.$$$*",
"+$$$$$$+%$$$$$$*+$$$$$$+$$+$$$$*+$$$$$$+%$$$$$$*+$$$$$$+$$+$$$$*",
"@$$.$$$$.%$$.$$*@$$.$$$$&$$$.$$*@$$.$$$$.%$$.$$*@$$.$$$$&$$$.$$*",
"@$%$$$$$$+$%$$$*+$%$$$$&+$$%$$$*@$%$$$$$$+$%$$$*+$%$$$$&+$$%$$$*",
"@$$$$$$$$$$$$$$*@$$$$$&$$$$$$$$*@$$$$$$$$$$$$$$*@$$$$$&$$$$$$$$*",
"@%@%%%%%*%******@%@%%%%%*%******@%@%%%%%*%******@%@%%%%%*%******",
" .....+.+&+++@@@ ....+.&.+++@@@@ .....+.+&+++@@@ ....+.&.+++@@@@",
".$$$$$$$&+$$$$$%.$$$$$%.$$$$$$=-.$$$$$$$&+$$$$$%.$$$$$%.$$$$$$$%",
".$$$$$$&.$$$$$$@.$$$$&+$$$$$$$$;.$$$$$$&.$$$$$$@.$$$$&+$$$$$$$$@",
".$$.$$&.$$$$.$$%+$$.$$$$$$$$.$$>.$$.$$&.$$$$.$$%+$$.$$$$$$$$.$$%",
"+$%$$$+$$$$%$$$@.$%$$$$$=$$%$$=,+$%$$$+$$$$%$$$@.$%$$$$$$$$%$$$*",
".$$+%$$$$$$$$$$%+$$$$$$$%+$$$$=>'$$+%$$$$$$$$$$%+$$$$$$$%+$$$$$%",
"+%$&.%$$$&$&+$$%.$$$$&$#+$$&$$=,)%$!~%$$$&$&+$$%.$$$$&$#+$$&$$$*",
"#+$$$+$$&$%+$$$%+$$$$$#.=={$=$$>#+$==+$$&$%+$$$%+$$$$$#.$$&$$$$%",
".$$$$$+&$#.$$$&%+$$$$%.$=>=$$$$]~$$=$$+!=#.$$$&%+$$$$%.$$%$$$$$#",
"+$$$$$&&%.$$$&$*+$$$&+$$&)]=$$%=)$$$$${{%.$$$&$*+$$$&+$$&+#$$$%$",
"+$$$$$$&+$$$$$$%+$$&$$$&$&.>=%^>^$$=$$$&)=/$$$$%+$$&$$$&$&.%$%+%",
"@$$$$$&$$$$$$$$*+$$$$$$${$$+==/(_==$$={====/$$$*+$$$$$$$&$$+$$$*",
"+$$.$&$$$$$$.$$%@$$.$&$&$==:.:/,)=$.={//====.$$%@$$.$&$&$$$$.$$*",
"@$%$$$+%$$$%$$$*+$%$=)-$$$$%===,;=>===)%$/=>$$$*+$%$$+%$$$$%$$$*",
"@$$$$$$.#$$$$$$*@$$$$&+%$=$====,;=/===/.#$$$$$$*@$$$$&+%$$$$$$$*",
"@%@%%%%*$#%*****@%_>;>&=#%>,,,,,;>;%%%>,$#>,,***@%@%@%&$#%%*****",
" ....+.++.@+@+@@ ~~'~)~)~]))_);;~~~~~+.+)~;+@+@@ ....+.+.#++@+@@",
".$$$$$$$$$+$$$$%.$$$$$&$/~>=/==>~==$/==$$$+$$$$%.$$$$$&$$.%$$$$%",
".$$$$$$$$$$$$$$@.$$$/{=$=$+$=$=;.$=$$$==/$$$$$$@.$$$$&$$$$+$$$$@",
".$$.$$$&$$$$.$$%+$$.==$$$$$$~$=>~$$~$$$&$$$$.$$%+$$.$$$$$$$$.$$%",
"+$%$$$%$$$$%$$$%.$%$$$$$$$$>=$=>)$%==$%$$$$%$$$%.$%$$$$$$$$%$$$%",
".$$$$%+&$&$$$$$%+$$$$$$=%+$==$$>.=$==>)&$&$$$$$%+$$$$$$$%+$$$$$%",
"+$$$&.&&&+$+%$&%.$$$$&/>+$===$&>+$$/{~{&&+$+%$&%.$$$$&$%+$$$$$&%",
".$$&+$$%+$$$+&$*+$$$#+&+$$===&=,.$$&)=/%+$$$+&$*+$$$#+&+$$$$$&$*",
"+$$$$$#.$$&$$$&%+$$%.&$$$$/=#+{%+$$$$$#.$$&$$$&%+$$%.&$$$$$$#+&%",
"+$$$$%.$$&$$$%+*+$&+$+%$$$$%.$$,+$$$$%'$$&$$$%+*+$&+$+%$$$$%.$$*",
"@$$$&+$$$$$$&+$%+&$$$$.&$=&.$$$,@$$$&+=$$$$$&+$%+&$$$$.&$$&.$$$*",
"+$$$$$$+%$$$$$$*+$$$$$$+$=+$$$$,+$$$$$$+%$$$$$$*+$$$$$$+$$+$$$$*",
"@$$.$$$$.%$$.$$*@$$.$$$$!$$$.$$,@$$.$$$$.%$$.$$*@$$.$$$$&$$$.$$*",
"@$%$$$$$$+$%$$$*+$%$$$$&+$$%$$=,@$%$$$$$$+$%$$$*+$%$$$$&+$$%$$$*",
"@$$$$$$$$$$$$$$*@$$$$$&$$$$$$$=*@$$$$$$$$$$$$$$*@$$$$$&$$$$$$$$*",
"@%@%%%%%*%******@%@%%%%%*%******@%@%%%%%*%******@%@%%%%%*%******",
" .....+.+&+++@@@ ....+.&.+++@@@@ .....+.+&+++@@@ ....+.&.+++@@@@",
".$$$$$$$&+$$$$$%.$$$$$%.$$$$$$$%.$$$$$$$&+$$$$$%.$$$$$%.$$$$$$$%",
".$$$$$$&.$$$$$$@.$$$$&+$$$$$$$$@.$$$$$$&.$$$$$$@.$$$$&+$$$$$$$$@",
".$$.$$&.$$$$.$$%+$$.$$$$$$$$.$$%.$$.$$&.$$$$.$$%+$$.$$$$$$$$.$$%",
"+$%$$$+$$$$%$$$@.$%$$$$$$$$%$$$*+$%$$$+$$$$%$$$@.$%$$$$$$$$%$$$*",
".$$+%$$$$$$$$$$%+$$$$$$$%+$$$$$%.$$+%$$$$$$$$$$%+$$$$$$$%+$$$$$%",
"+%$&.%$$$&$&+$$%.$$$$&$#+$$&$$$*+%$&.%$$$&$&+$$%.$$$$&$#+$$&$$$*",
"#+$$$+$$&$%+$$$%+$$$$$#.$$&$$$$%#+$$$+$$&$%+$$$%+$$$$$#.$$&$$$$%",
".$$$$$+&$#.$$$&%+$$$$%.$$%$$$$$#.$$$$$+&$#.$$$&%+$$$$%.$$%$$$$$#",
"+$$$$$&&%.$$$&$*+$$$&+$$&+#$$$%$+$$$$$&&%.$$$&$*+$$$&+$$&+#$$$%$",
"+$$$$$$&+$$$$$$%+$$&$$$&$&.%$%+%+$$$$$$&+$$$$$$%+$$&$$$&$&.%$%+%",
"@$$$$$&$$$$$$$$*+$$$$$$$&$$+$$$*@$$$$$&$$$$$$$$*+$$$$$$$&$$+$$$*",
"+$$.$&$$$$$$.$$%@$$.$&$&$$$$.$$*+$$.$&$$$$$$.$$%@$$.$&$&$$$$.$$*",
"@$%$$$+%$$$%$$$*+$%$$+%$$$$%$$$*@$%$$$+%$$$%$$$*+$%$$+%$$$$%$$$*",
"@$$$$$$.#$$$$$$*@$$$$&+%$$$$$$$*@$$$$$$.#$$$$$$*@$$$$&+%$$$$$$$*",
"@%@%%%%*$#%*****@%@%@%&$#%%*****@%@%%%%*$#%*****@%@%@%&$#%%*****"};
