/* XPM */
static char * HEDGE_1B_xpm[] = {
"64 64 18 1",
" 	c #002922",
".	c #16582E",
"+	c #094227",
"@	c #003422",
"#	c #316A1F",
"$	c #5F2F4A",
"%	c #6E2F40",
"&	c #FF4398",
"*	c #BE43FF",
"=	c #F373FF",
"-	c #BA3A66",
";	c #FF9C15",
">	c #FFD711",
",	c #4C7C11",
"'	c #FF73B8",
")	c #002315",
"!	c #001B15",
"~	c #993AA8",
" ...++@@@ +##@   @@   @@...   +++   @@@++...++## +...   +$+  ## ",
"###++...  %&+@...++...+###@@@  ++... @@++ ###+   ###+@  *=$*@ ++",
"##++ @##&-;- ###++###@###@@@    ###   @@   ##@   ##++  .$>;*$+++",
" @@@   #%;>;%##@++##@@,#++@    @##+++...   +++   @%'%  $=;;$).. ",
"++... ++)-;-&#@      @@ +$=$...@@  +###@@@  +++ ..'>&  !*$**+###",
"#++###++@&%!!@   ...+++  =>*+### @@###+ @... ++###%&%   !)$!  ##",
", ++###  !) ...  @###+ @.$*$+ ###++,#++ ++##$*+## )!).   +!@ ++#",
"    $=$  +++..++@@+##+ ##)!)   #,+ @@    +*~;~@@  @@###   @...+@",
"..  =>* +++@@@+++@++ @@##@@@   ++...      $;>;$...@@ ##+$=$##+@.",
"###+$*$+++@... ++ ...@@   @...  ###  +++  )~;~*@..+   ++=>*#    ",
" ##+)!)++ ###+     ###++  ###+++##  +...   *$!!  +...++.$*$@    ",
"@@ +...@  ##+ @+++  ###   ##  +++  +++###  !)## @### ++ )!) +++@",
".@@###@@ +++  ...++ +#,@  +++ ...+ ++  ###+++    ##@   @@###++..",
" @###    ++  ###@++ @@# + ++@###++ @...+#,++     ++... @@ #,+###",
"++,#   ...  ###++ %..@  ++  ###    ###+ @#@   ... ++###   ++ ## ",
"@+#+    ### ,#++ &'%&#  ... ,#@    ##+@ %'% @###   ++###      @@",
"  ++@@@  ##@+++@@%>;&% ###  %&+         '>&+###+...@++#,  ...++@",
"   @@@ +++@@++ @%';;%) ## &-;-++... +++ %&%@,# + ###@@ #@@ ###++",
" ...@   +++ ... !&%&&+    %;>;%+@###++@@)!) #   ++##@@  @@@ ##++",
"###+++...+++@### !)%!... +)-;-&@@ ##+ @###    @@+++   +...+++   ",
"##+++### @... ### @!### +++&%!!@  ++  ### +++  @...  +### @+++@@",
" +++### @@@### #,@+### +++@!)##  @... ,#+ ...+  @###++##    +++@",
".++@,#+++@  ##+++@@,#+@++  @@### ###@+#+ ###++   @###+ $@... +..",
"  @@ ++...  @+++   $=$+@@...@@#,+##@@++ @##  ...++ #, *=$*#@ ###",
"@... ++@### +++    =>*+@@ ###+++    @@ @@@   @###   #+$>;*$@###@",
"++###@@%'%##++...+#$*$     ##++ +... ...@    ++##  ++$=;;$)+,# +",
"+++##@@'>&#, ###++#)!)  @@@ ++ +### ++### @@@++@@  ++!*$**+     ",
" +++   %&%++###++ @@+++...     +##@+++@### @@@    ... !)$!@...  ",
" ...   )!) +,#  ...+++### +++@    @++@$=$,+ ...  ++### +! @@### ",
"  ###@++### +++ @###+###   +..@ ++  ..=>*++###++  ++###    ++###",
"   ###++ ##  ... @## ,#    @@@@@+  ###$*$@### ++...++#,@...++@#,",
"  @@#,+ @@@ ###   @@   +++  @###  ###+)!)@,#   ###  ++#++###   #",
"..@@++ ...+%&#@+++    ++...@ @### ,#+++  @#++  ##   @@  ++## +++",
"###   ###&-;-@+++... ++###@   @#, #@@++  +++  @@+++  ...@++ +++ ",
" ##  ###+%;>;%++  ###++##@ ...  #+++ ...+++  ...++  ### @@ +... ",
"@+++ ,#++)-;-&.    ###   %'%#@@...+ ### ++  @+#%# @###++   ### @",
"@@+++#@   &%!!  +++ #,   '>& @@+### ##    ...+&'%& ,#++   ###   ",
" ...++ +++!)#+ @@+++ #   %&%  @++##@@@+++###  %>;&%++... @,# +++",
"+ ###+ .+ ,#+++ ...++    )!)++... @@@  +###++%';;%)+###  +++  ++",
"+  ###@@@ #  ++  ###+  @+++  ### @@+++  ,#@ +!&%&&@ ##    +++...",
" @@@#, @+++ ...   ##    @+++###+ @...    @@@..!)%!++     ...+ ##",
"+ @++$ +++@  ###@+++ @@...++,#   ++###@@  @@ ###!++ ...+### @@+#",
"..++*=$*+@@   ##+++@  @@###++   +++ ##@+++    ##++ ###++##   +++",
"###+$>;*$ ... @@++@...++@###     @@@   @+...+++   ###@@+++  +++@",
"@##$=;;$)  ###+@  ###++   #,@@  +++@@   ###+@+++  ,#+@  ++...+ @",
" ++!*$**@@@ ###+ ,##++   +++@  +++...@ ###++  +++@#+++... @###  ",
"  ++!)$!+++ @#,++##++ ...@+$+ ...$=$## ,#@@    ++@@ +###%'%@##+ ",
"..@+++!+++    #++ @@@### @*=$*##@=>*###    +++...@@@ ## '>&+++@.",
"#   ...    @@@   +++ ##   $>;*$++$*$ #,@@ +++###++@$=$  %&%  @##",
"  +###@@ ...++@...+      $=;;$) .)!)  #@@@++###@...=>*..)!)++###",
"   ##+@@###++@@@### @+++ !*$**+###+++  +++  ,#@###+$*$#   +++,# ",
"@@@ +++###++  @@ ### @+++ !)$!+##+++..%&+++    ##  )!)+...++@   ",
"+... ++##@@ ...++ #,  @+++ #!#   ++#&-;- +... +++  ,#+  ###   ++",
"  ###      ###++@@  ++...+  ###   ##%;>;% +###++  +#+   @### ...",
"# +###    @##++@@  ++### @@@ #,++ ,#)-;-&@@@###   ++   +++#,++##",
"#  +#, ...+@++@@  @+###%'%@  +++   @@&%!!.@  #,    ... @+++@++ #",
"    ++@+###  ...   @,# '>&..+++...+  !)## +++@#@    ###  +...   ",
"...  %@++## ### +++ #@)%&%#@++###+++@###   +++@@@ @@@##@@###    ",
"##  &'%&   ###@@@++$*@@#!)+@@ ##  ++ ,#@   ... @@...@@  ### ++..",
"#   %>;&%@@,#@@@ *~;~  ##+      @@@   @+++###   ### @@++,#@@ ###",
"+  %';;%)@@#++@  $;>;$+++       ...@  +$=$##   ###   +++  +++##+",
"+ @!&%&&@@  +... )~;~*++@ +...@  ###@ +=>*@    ,#   ++...  +++ +",
" @@,!)%!@... +###+*$!! @@+++###   ###  $*$++...++  @++ ###@...  ",
" @@#  !  +### +##+!)     ++@@##+   #,  )!).  ###@ @... +##@@### "};
