/* XPM */
static char * LIGHT_1A_xpm[] = {
"64 64 6 1",
" 	c #141413",
".	c #1C1C1B",
"+	c #211F1D",
"@	c #28221F",
"#	c #181817",
"$	c #382B2F",
" ...+. .....+...@....+..# ....+. ...+. .....+...@....+..# ....+.",
"#..@...#.@.@..@@.##...@.......# #..@...#.@.@..@@.##...@.......# ",
".+.@ @@@$@$@@@@@@@@@@$@$@$@..+@..+.@ @@@$@$@@@@@@@@@@$@$@$@..+@.",
"..@#$                      @......@#$                      @....",
"...@                        $. ....@                        $. .",
"..@   ....................   $....@   ....................   $..",
"..@  ..@$$$$$$$$$$$$$$$$@..  $+#..@  ..@$$$$$$$$$$$$$$$$@..  $+#",
" .@  .@  . ......... . . @.  @.. .@  .@  . ......... . . @.  @..",
"..@  .@ . ......... . .  @.  $....@  .@ . ......... . .  @.  $..",
"..@  ..@$$$$$$$$$$$$$$$$@..  @.#..@  ..@$$$$$$$$$$$$$$$$@..  @.#",
"#.$   ....................   @@.#.$   ....................   @@.",
".@@                          $#..@@                          $#.",
"@.@                          @..@.@                          @..",
"..@   ....................   $.@..@   ....................   $.@",
".@@  ..@$$$$$$$$$$$$$$$$@..  $@..@@  ..@$$$$$$$$$$$$$$$$@..  $@.",
"..@  .@  . ......... . . @.  $ ...@  .@  . ......... . . @.  $ .",
" .@  .@ . ......... . .  @.  $@. .@  .@ . ......... . .  @.  $@.",
"..$  ..@$$$$$$$$$$$$$$$$@..  $....$  ..@$$$$$$$$$$$$$$$$@..  $..",
".#$   ....................   @...#$   ....................   @..",
"@.$                          @..@.$                          @..",
"#.@                          @.+#.@                          @.+",
"..@   ....................   @....@   ....................   @..",
"#.$  ..@$$$$$$$$$$$$$$$$@..  @..#.$  ..@$$$$$$$$$$$$$$$$@..  @..",
"..@  .@  . ......... . . @.  $.+..@  .@  . ......... . . @.  $.+",
"..$  .@ . ......... . .  @.  $@...$  .@ . ......... . .  @.  $@.",
".@@  ..@$$$$$$$$$$$$$$$$@..  $#..@@  ..@$$$$$$$$$$$$$$$$@..  $#.",
". $   ....................   $... $   ....................   $..",
"..#$                        $..+..#$                        $..+",
"....@                      @. ......@                      @. ..",
".. .@@$@@$$@$@@$@$$$@@@$@$@.@.+... .@@$@@$$@$@@$@$$$@@@$@$@.@.+.",
".+... .....+......@ .+..#+.......+... .....+......@ .+..#+......",
"..+.@.....#.. .#.@....+. .....@...+.@.....#.. .#.@....+. .....@.",
" ...+. .....+...@....+..# ....+. ...+. .....+...@....+..# ....+.",
"#..@...#.@.@..@@.##...@.......# #..@...#.@.@..@@.##...@.......# ",
".+.@ @@@$@$@@@@@@@@@@$@$@$@..+@..+.@ @@@$@$@@@@@@@@@@$@$@$@..+@.",
"..@#$                      @......@#$                      @....",
"...@                        $. ....@                        $. .",
"..@   ....................   $....@   ....................   $..",
"..@  ..@$$$$$$$$$$$$$$$$@..  $+#..@  ..@$$$$$$$$$$$$$$$$@..  $+#",
" .@  .@  . ......... . . @.  @.. .@  .@  . ......... . . @.  @..",
"..@  .@ . ......... . .  @.  $....@  .@ . ......... . .  @.  $..",
"..@  ..@$$$$$$$$$$$$$$$$@..  @.#..@  ..@$$$$$$$$$$$$$$$$@..  @.#",
"#.$   ....................   @@.#.$   ....................   @@.",
".@@                          $#..@@                          $#.",
"@.@                          @..@.@                          @..",
"..@   ....................   $.@..@   ....................   $.@",
".@@  ..@$$$$$$$$$$$$$$$$@..  $@..@@  ..@$$$$$$$$$$$$$$$$@..  $@.",
"..@  .@  . ......... . . @.  $ ...@  .@  . ......... . . @.  $ .",
" .@  .@ . ......... . .  @.  $@. .@  .@ . ......... . .  @.  $@.",
"..$  ..@$$$$$$$$$$$$$$$$@..  $....$  ..@$$$$$$$$$$$$$$$$@..  $..",
".#$   ....................   @...#$   ....................   @..",
"@.$                          @..@.$                          @..",
"#.@                          @.+#.@                          @.+",
"..@   ....................   @....@   ....................   @..",
"#.$  ..@$$$$$$$$$$$$$$$$@..  @..#.$  ..@$$$$$$$$$$$$$$$$@..  @..",
"..@  .@  . ......... . . @.  $.+..@  .@  . ......... . . @.  $.+",
"..$  .@ . ......... . .  @.  $@...$  .@ . ......... . .  @.  $@.",
".@@  ..@$$$$$$$$$$$$$$$$@..  $#..@@  ..@$$$$$$$$$$$$$$$$@..  $#.",
". $   ....................   $... $   ....................   $..",
"..#$                        $..+..#$                        $..+",
"....@                      @. ......@                      @. ..",
".. .@@$@@$$@$@@$@$$$@@@$@$@.@.+... .@@$@@$$@$@@$@$$$@@@$@$@.@.+.",
".+... .....+......@ .+..#+.......+... .....+......@ .+..#+......",
"..+.@.....#.. .#.@....+. .....@...+.@.....#.. .#.@....+. .....@."};
