/* XPM */
static char * LIGHT_2B_xpm[] = {
"64 64 11 1",
" 	c #141413",
".	c #1C1C1B",
"+	c #211F1D",
"@	c #28271F",
"#	c #181817",
"$	c #323929",
"%	c #075929",
"&	c #289237",
"*	c #1D783C",
"=	c #AFDA2F",
"-	c #FFEC24",
" ...+. .....+...@....+..# ....+. ...+. .....+...@....+..# ....+.",
"#..@...#.@.@..@@.##...@.......# #..@...#.@.@..@@.##...@.......# ",
".+.@ @@@$@$@@@@@@@@@@$@$@$@..+@..+.@ @@@$@$@@@@@@@@@@$@$@$@..+@.",
"..@#$                      @......@#$                      @....",
"...@                        $. ....@                        $. .",
"..@   %&&&&&&&&&&&&&&&&&&%   $....@   %&&&&&&&&&&&&&&&&&&%   $..",
"..@  %&&**&********&&&**&&%  $+#..@  %&&**&********&&&**&&%  $+#",
" .@  &&==-=-----------=-=&&  @.. .@  &&==-=-----------=-=&&  @..",
"..@  &&=-=-----------=-==&&  $....@  &&=-=-----------=-==&&  $..",
"..@  %&&*&*******&*&****&&%  @.#..@  %&&*&*******&*&****&&%  @.#",
"#.$   %&&&&&&&&&&&&&&&&&&%   @@.#.$   %&&&&&&&&&&&&&&&&&&%   @@.",
".@@                          $#..@@                          $#.",
"@.@                          @..@.@                          @..",
"..@   %&&&&&&&&&&&&&&&&&&%   $.@..@   %&&&&&&&&&&&&&&&&&&%   $.@",
".@@  %&&****&*&*******&*&&%  $@..@@  %&&****&*&*******&*&&%  $@.",
"..@  &&==-=-----------=-=&&  $ ...@  &&==-=-----------=-=&&  $ .",
" .@  &&=-=-----------=-==&&  $@. .@  &&=-=-----------=-==&&  $@.",
"..$  %&&**&&&********&**&&%  $....$  %&&**&&&********&**&&%  $..",
".#$   %&&&&&&&&&&&&&&&&&&%   @...#$   %&&&&&&&&&&&&&&&&&&%   @..",
"@.$                          @..@.$                          @..",
"#.@                          @.+#.@                          @.+",
"..@   %&&&&&&&&&&&&&&&&&&%   @....@   %&&&&&&&&&&&&&&&&&&%   @..",
"#.$  %&&*&*******&*&****&&%  @..#.$  %&&*&*******&*&****&&%  @..",
"..@  &&==-=-----------=-=&&  $.+..@  &&==-=-----------=-=&&  $.+",
"..$  &&=-=-----------=-==&&  $@...$  &&=-=-----------=-==&&  $@.",
".@@  %&&**&********&&&**&&%  $#..@@  %&&**&********&&&**&&%  $#.",
". $   %&&&&&&&&&&&&&&&&&&%   $... $   %&&&&&&&&&&&&&&&&&&%   $..",
"..#$                        $..+..#$                        $..+",
"....@                      @. ......@                      @. ..",
".. .@@$@@$$@$@@$@$$$@@@$@$@.@.+... .@@$@@$$@$@@$@$$$@@@$@$@.@.+.",
".+... .....+......@ .+..#+.......+... .....+......@ .+..#+......",
"..+.@.....#.. .#.@....+. .....@...+.@.....#.. .#.@....+. .....@.",
" ...+. .....+...@....+..# ....+. ...+. .....+...@....+..# ....+.",
"#..@...#.@.@..@@.##...@.......# #..@...#.@.@..@@.##...@.......# ",
".+.@ @@@$@$@@@@@@@@@@$@$@$@..+@..+.@ @@@$@$@@@@@@@@@@$@$@$@..+@.",
"..@#$                      @......@#$                      @....",
"...@                        $. ....@                        $. .",
"..@   %&&&&&&&&&&&&&&&&&&%   $....@   %&&&&&&&&&&&&&&&&&&%   $..",
"..@  %&&**&********&&&**&&%  $+#..@  %&&**&********&&&**&&%  $+#",
" .@  &&==-=-----------=-=&&  @.. .@  &&==-=-----------=-=&&  @..",
"..@  &&=-=-----------=-==&&  $....@  &&=-=-----------=-==&&  $..",
"..@  %&&*&*******&*&****&&%  @.#..@  %&&*&*******&*&****&&%  @.#",
"#.$   %&&&&&&&&&&&&&&&&&&%   @@.#.$   %&&&&&&&&&&&&&&&&&&%   @@.",
".@@                          $#..@@                          $#.",
"@.@                          @..@.@                          @..",
"..@   %&&&&&&&&&&&&&&&&&&%   $.@..@   %&&&&&&&&&&&&&&&&&&%   $.@",
".@@  %&&****&*&*******&*&&%  $@..@@  %&&****&*&*******&*&&%  $@.",
"..@  &&==-=-----------=-=&&  $ ...@  &&==-=-----------=-=&&  $ .",
" .@  &&=-=-----------=-==&&  $@. .@  &&=-=-----------=-==&&  $@.",
"..$  %&&**&&&********&**&&%  $....$  %&&**&&&********&**&&%  $..",
".#$   %&&&&&&&&&&&&&&&&&&%   @...#$   %&&&&&&&&&&&&&&&&&&%   @..",
"@.$                          @..@.$                          @..",
"#.@                          @.+#.@                          @.+",
"..@   %&&&&&&&&&&&&&&&&&&%   @....@   %&&&&&&&&&&&&&&&&&&%   @..",
"#.$  %&&*&*******&*&****&&%  @..#.$  %&&*&*******&*&****&&%  @..",
"..@  &&==-=-----------=-=&&  $.+..@  &&==-=-----------=-=&&  $.+",
"..$  &&=-=-----------=-==&&  $@...$  &&=-=-----------=-==&&  $@.",
".@@  %&&**&********&&&**&&%  $#..@@  %&&**&********&&&**&&%  $#.",
". $   %&&&&&&&&&&&&&&&&&&%   $... $   %&&&&&&&&&&&&&&&&&&%   $..",
"..#$                        $..+..#$                        $..+",
"....@                      @. ......@                      @. ..",
".. .@@$@@$$@$@@$@$$$@@@$@$@.@.+... .@@$@@$$@$@@$@$$$@@@$@$@.@.+.",
".+... .....+......@ .+..#+.......+... .....+......@ .+..#+......",
"..+.@.....#.. .#.@....+. .....@...+.@.....#.. .#.@....+. .....@."};
