/* XPM */
static char * SUPPORT_3D_xpm[] = {
"64 64 16 1",
" 	c #000000",
".	c #464D4F",
"+	c #383F40",
"@	c #382B2F",
"#	c #62797E",
"$	c #F78300",
"%	c #FFB62C",
"&	c #FFEC24",
"*	c #BAB77A",
"=	c #FFD02C",
"-	c #FF992C",
";	c #536265",
">	c #F5F9ED",
",	c #4B3F38",
"'	c #796F47",
")	c #141413",
"                                                                ",
"......+.+.+.+++@......+.+.+.+++@......+.+.+.+++@......+.+.+.+++@",
".++++++++++++++@.++++++++++++++@.++++++++++++++@.++++++++++++++@",
".+#++####.+++#+@.+#++####.+++#+@.+#++####.+++#+@.+#++####.+++#+@",
".@++#@@@@@@+@++@.@++#@@@@@@+@++@.@++#@@@@@@+@++@.@++#@@@@@@+@++@",
".++#@@@@@@@@.++@.++#@@@@@@@@.++@.++#@@@@@@@@.++@.++#@@@@@@@@.++@",
".+#@@@$%%$@@@.+@.+#@@@$%%$@@@.+@.+#@@@$%%$@@@.+@.+#@@@$%%$@@@.+@",
".+#@@$%%%%$@@#+@.+#@@$%%%%$@@#+@.+#@@$%%%%$@@#+@.+#@@$%%%%$@@#+@",
".+#@@%%&&%%@@#+@.+#@@%%&&%%@@#+@.+#@@%%&&%%@@#+@.+#@@%%&&%%@@#+@",
".+#@@%%&&%%@@#+@.+#@@%%&&%%@@#+@.+#@@%%&&%%@@#+@.+#@@%%&&%%@@#+@",
"#.*++%====%++*.+#.*++%====%++*.+#.*++%====%++*.+#.*++%====%++*.+",
".+#@@@$%%$@@@*+@.+#@@@$%%$@@@*+@.+#@@@$%%$@@@*+@.+#@@@$%%$@@@*+@",
"#..#++++++++*..+#..#++++++++*..+#..#++++++++*..+#..#++++++++*..+",
"#...#++++++*...@#...#++++++*...@#...#++++++*...@#...#++++++*...@",
"#....#*#***....+#....#*#***....+#....#*#***....+#....#*#***....+",
"#..............@#..............@#..............@#..............@",
"#..............+#..............+#..............+#..............+",
"#....***###....+#....***###....+#....***###....+#....***###....+",
"#...*++++++#...+#...*++++++#...+#...*++++++#...+#...*++++++#...+",
"#..*++++++++#..+#..*++++++++#..+#..*++++++++#..+#..*++++++++#..+",
"#.*+++-==-+++#..#.*+++-==-+++#..#.*+++-==-+++#..#.*+++-==-+++#..",
";.*++-====-++*.+;.*++-====-++*.+;.*++-====-++*.+;.*++-====-++*.+",
"#.*++==&>==++#..#.*++==&>==++#..#.*++==&>==++#..#.*++==&>==++#..",
";.#++==>&==++*.+;.#++==>&==++*.+;.#++==>&==++*.+;.#++==>&==++*.+",
"#.*++-====-++*..#.*++-====-++*..#.*++-====-++*..#.*++-====-++*..",
";.#+++-==-+++*.+;.#+++-==-+++*.+;.#+++-==-+++*.+;.#+++-==-+++*.+",
";..#++++++++*..+;..#++++++++*..+;..#++++++++*..+;..#++++++++*..+",
";...#++++++*...+;...#++++++*...+;...#++++++*...+;...#++++++*...+",
";....#*****....@;....#*****....@;....#*****....@;....#*****....@",
";..............+;..............+;..............+;..............+",
";..............@;..............@;..............@;..............@",
";....***###....+;....***###....+;....***###....+;....***###....+",
";...*++++++#...@;...*++++++#...@;...*++++++#...@;...*++++++#...@",
";..*++++++++#..@;..*++++++++#..@;..*++++++++#..@;..*++++++++#..@",
";.*+++-==-+++#.@;.*+++-==-+++#.@;.*+++-==-+++#.@;.*+++-==-+++#.@",
";.*++-====-++*.@;.*++-====-++*.@;.*++-====-++*.@;.*++-====-++*.@",
";.*++==&>==++#.@;.*++==&>==++#.@;.*++==&>==++#.@;.*++==&>==++#.@",
";.#++==>&==++*.@;.#++==>&==++*.@;.#++==>&==++*.@;.#++==>&==++*.@",
";.*++-====-++*.@;.*++-====-++*.@;.*++-====-++*.@;.*++-====-++*.@",
";.#+++-==-+++*.@;.#+++-==-+++*.@;.#+++-==-+++*.@;.#+++-==-+++*.@",
";..#++++++++*..@;..#++++++++*..@;..#++++++++*..@;..#++++++++*..@",
";...#++++++*...@;...#++++++*...@;...#++++++*...@;...#++++++*...@",
".....#*****....@.....#*****....@.....#*****....@.....#*****....@",
";..............@;..............@;..............@;..............@",
"...............@...............@...............@...............@",
";....***###....@;....***###....@;....***###....@;....***###....@",
"....*++++++#...@....*++++++#...@....*++++++#...@....*++++++#...@",
";..*++++++++#..@;..*++++++++#..@;..*++++++++#..@;..*++++++++#..@",
"..*+++-==-+++#.@..*+++-==-+++#.@..*+++-==-+++#.@..*+++-==-+++#.@",
"..*++-====-++*.@..*++-====-++*.@..*++-====-++*.@..*++-====-++*.@",
"..*++==&>==++#.@..*++==&>==++#.@..*++==&>==++#.@..*++==&>==++#.@",
"..#++==>&==++*.@..#++==>&==++*.@..#++==>&==++*.@..#++==>&==++*.@",
"..*++-====-++*.@..*++-====-++*.@..*++-====-++*.@..*++-====-++*.@",
"..#+++-==-+++*.@..#+++-==-+++*.@..#+++-==-+++*.@..#+++-==-+++*.@",
"...#++++++++*..@...#++++++++*..@...#++++++++*..@...#++++++++*..@",
"....#++++++*...@....#++++++*...@....#++++++*...@....#++++++*...@",
".....#*****....@.....#*****....@.....#*****....@.....#*****....@",
".+.............@.+.............@.+.............@.+.............@",
"+..............@+..............@+..............@+..............@",
"..,'*......*'.,@..,'*......*'.,@..,'*......*'.,@..,'*......*'.,@",
"+.@''..+..@''..@+.@''..+..@''..@+.@''..+..@''..@+.@''..+..@''..@",
"..@@,.....@@..,@..@@,.....@@..,@..@@,.....@@..,@..@@,.....@@..,@",
"...,,........,.@...,,........,.@...,,........,.@...,,........,.@",
")@))))@)@@@@@@@@)@))))@)@@@@@@@@)@))))@)@@@@@@@@)@))))@)@@@@@@@@"};
