/* XPM */
static char * TECH_4C_xpm[] = {
"64 64 19 1",
" 	c #000000",
".	c #464D4F",
"+	c #383F40",
"@	c #141413",
"#	c #62797E",
"$	c #382B2F",
"%	c #796F47",
"&	c #BAB77A",
"*	c #F78300",
"=	c #FFB62C",
"-	c #28221F",
";	c #FFEC24",
">	c #F5F9ED",
",	c #FFD02C",
"'	c #536265",
")	c #FF992C",
"!	c #1C1C1B",
"~	c #292A28",
"{	c #2F1C17",
"                                                                ",
".............+.+.+.+++@ ......+.+.+.++++  ++.+.+...........+.+..",
"++++++++++++++++++++++@ .+++++++++++++++  ++++++++++++++++++++++",
"++++++++++++++++++++++@ .+#++####.+++#++  ++++++++++++++++++++++",
"++++++++++++++++$%%+++@ .$++#$$$$$$+$+++  ++$%%+++++++++++++++++",
"++++++++++++++++$%&+++@ .++#$$$$$$$$.+++ @++$&%+++++++++++++++++",
"++++++++++++++++$$++++@ .+#$$$*==*$$$.++@ ++$+++++++++++++++++++",
"++++++++++++++++++++++@ .+#$$*====*$$#++ @++++++++++++++++++++++",
"......................-@.+#$$==;;==$$#++@ ......................",
"++++++++++++++++++++++@ .+#$$==>>==$$#++ @++++++++++++++++++++++",
"......................-@#.&++,,>>,,++&..@ ......................",
"......................@ .+#$$==>>==$$#++ -......................",
"......................-@#.&++,,>>,,++&..-@......................",
"......................-@#.&++,,>>,,++&..@-......................",
"......................-@#.&++,,>>,,++&..-@......................",
"......................-@#.&++,,>>,,++&..@-......................",
"......................-@#.&++,,>>,,++&..-@......................",
"......................@@#.&++,,>>,,++&..@-......................",
"......................-@#.&++,,>>,,++&..--......................",
"......................@@'.&++,,>>,,++&..@-......................",
"......................-@#.&++,,>>,,++&..--......................",
"......................@@'.&++,,>>,,++&..@-......................",
"......................-@#.&++,,>>,,++&..--......................",
"......................@@'.&++,,>>,,++&..@-......................",
"......................@@'.&++,,>>,,++&..@-......................",
"......................@@'.&++,,>>,,++&..@-......................",
"......................@@'.&++,,>>,,++&..@-......................",
"......................@@'.&++,,>>,,++&..--......................",
"......................@@..&++,,>>,,++&..@-......................",
"......................@@'.&++,,>>,,++&..--......................",
"......................@@..#++,,>>,,++&..@-......................",
"......................@-'.&++,,;;,,++&..--......................",
"......................-@..#++),,,,)++&..--......................",
"................$%&...@-..#+++),,)+++&..--..$&%.................",
"................$%%...-@...#++++++++&...--..$%%.................",
"................$$....@-....#++++++&....--..$$..................",
"......................--..%..#&#&&&..%..--......................",
"###################.#.--.$..........$...--##.######.#.#.#.######",
"                       -................-                       ",
"                        ..##########.#..                        ",
"!@ @!@@@!@ @!@@@!@ @!@                     @!@@@!@ @!@@@!@ @!@@@",
"~@ ~~!@~~@ ~~!@~~@ ~~!@                  @ ~~!@~~@ ~~!@~~@ ~~!@~",
"~@ ~~!!~~@ ~~!!~~@ ~~!!~@@ @!@@@!@ @!@@@!@ ~~!!~~@ ~~!!~~@ ~~!!~",
"~@ ~~!!~~@ ~~!!~~@ ~~!!~~@ ~~!!~~@ ~~!!~~@ ~~!!~~@ ~~!!~~@ ~~!!~",
"~!@~~!!~~!@~~!!~~!@~~!!~~!@~~!!~~!@~~!!~~!@~~!!~~!@~~!!~~!@~~!!~",
"~@ ~~!!~~@ ~~!!~~@ ~~!!~~@ ~~!!~~@ ~~!!~~@ ~~!!~~@ ~~!!~~@ ~~!!~",
"~!@~~!!~~!@~~!!~~!@~~!!~~!@~~!!~~!@~~!!~~!@~~!!~~!@~~!!~~!@~~!!~",
"~! ~~!!~~! ~~!!~~! ~~!!~~! ~~!!~~! ~~!!~~! ~~!!~~! ~~!!~~! ~~!!~",
"~!@~~!!~~!@~~!!~~!@~~!!~~!@~~!!~~!@~~!!~~!@~~!!~~!@~~!!~~!@~~!!~",
"~!@~~!!~~!@~~!!~~!@~~!!~~!@~~!!~~!@~~!!~~!@~~!!~~!@~~!!~~!@~~!!~",
"~@@~~!!~~@@~!!!~~@@~~!!~~@@~!!!~~@@~~!!~~@@~!!!~~@@~~!!~~@@~!!!~",
"~!@~~!!~~!@~~!!~~!@~~!!~~!@~~!!~~!@~~!!~~!@~~!!~~!@~~!!~~!@~~!!~",
"!@ ~!!!~!@ ~!!!~!@ ~!!!~!@ ~!!!~!@ ~!!!~!@ ~!!!~!@ ~!!!~!@ ~!!!~",
"~@@!~!!~~@@!~!!~~@@!~!!~~@@!~!!~~@@!~!!~~@@!~!!~~@@!~!!~~@@!~!!~",
"!@ ~!!@~!@ ~!!@~!@ ~!!@~!@ ~!!@~!@ ~!!@~!@ ~!!@~!@ ~!!@~!@ ~!!@~",
"!  !!@ !!  !!@ !!  !!@ !!  !!@ !!  !!@ !!  !!@ !!  !!@ !!  !!@ !",
"#########'#&#&'&'&&&&&&&&&&&&&&&&&&&&&&&&&&&&#&#&#&######'####'#",
"........+................+.............+.+......+.+.....+.......",
".+.....+...............++...............+........+.....+........",
"+..#+......#+......%+..+...%+......%+..+...%+...+..#+......#+...",
"..$++.....$++.....$++.+.+.$++.....$++.....$++..+..$++.....$++..+",
"+.$$......$$......$$...+..$$......$$......$$..++..$$......$$..+.",
"......................+.............+.........+..............+.+",
"${{{{{{${${$$$$$$${${$@$@$@@@@$@$$$$$$$${${$${${${{{{{{${${$$$$$"};
