/* XPM */
static char * TILE_3B_xpm[] = {
"64 64 21 1",
" 	c #979578",
".	c #A1A9A3",
"+	c #89928C",
"@	c #93968B",
"#	c #79735E",
"$	c #67625C",
"%	c #5B5952",
"&	c #4F4C48",
"*	c #000000",
"=	c #28221F",
"-	c #383F40",
";	c #888D82",
">	c #9F9F8B",
",	c #807B6A",
"'	c #616257",
")	c #666A62",
"!	c #756F64",
"~	c #1C1C1B",
"{	c #211F1D",
"]	c #181817",
"^	c #141413",
" .+@@#######$%&**==-=--%;;##$%&= .+@@#######$%&* >>>,,,'';##$%&*",
">)$$$#))$$$))$%=>;;;##;;)$$$%$%=>)$$$#))$$$))$%=@)$$$$#,$$$$%$%=",
",$$$#)$$$$))$$$->)$$$#))$$$$$%$-,$$$#)$$$$))$$$-)$$$)#$$$$$$$%$-",
",$$,$$)$)))$$$&=>$$$#)$$$$$$$$$=,$$,$$)$)))$$$&=#$$,,$$$$$$$$$$=",
",$),$)$))$$$$$&-,$$,$$$$$$$$$$%=,$),$)$))$$$$$&-#$#$$$$$$$$$$$%=",
",$#$$$)$$$$$$&$-,$),$)$$$$$$!&-=,$#$$$)$$$$$$&$-##)$$$$$$$$$!&-=",
",#$$$)$$$$%$%$$-,#)$)$)$$$$!&&--,#$$$)$$$$%$%$$-,#)$)$)$$$$!&&--",
"',$$$$$$$$&$$$$-;#))$)$$$$!!&&-=',$$$$$$$$&$$$$-;#))$)$$$$!!&&-=",
"'$$$$$$$$&&$$$$-;#)$))$$$!&&%&--'$$$$$$$$&&$$$$-;#)$))$$$!&&%&--",
"&$$$$$$$!&%$%$$-#)$$$$$%$&%$$%&-&$$$$$$$!&%$%$$-#)$$$$$%$&%$$%&-",
"&&$$$$$!&%$%$$$-)$$$$$%$%%$$$$&-&&$$$$$!&%$%$$$-)$$$$$%$%%$$$$&-",
"&&$$$$!&%$%$%$$-$$$$$%$%$$$$$$$-&&$$$$!&%$%$%$$-$$$$$%$%$$$$$$$-",
"&%$$$!&%$%$$$$$=$$$$%$%$$$$$$$$=&%$$$!&%$%$$$$$=$$$$%$%$$$$$$$$=",
"%$$!&&&$$$$$$$%=%$$$$$$$$$$$$$%=%$$!&&&$$$$$$$%=%$$$$$$$$$$$$$%=",
"%&&&&&%$$&&%$$&*%&&&$$$$$&&%$$&=%&&&&&%$$&&%$$&=%&&&$$$$$&&%$$&*",
"*===-=-----=-=**====-=-----=-==*====-=-----=-==**===-=-----=-=**",
" @)#########$%&= ;)##)&-&&&,,%&=~~{~=~~~]~~{=~]~  ,,,&-&&%%%&&&*",
">)$$$#))$$$))$%= )$$,)$)-&,))$%=~~~{~~~{~~~===~^;)$$$$&-%$$$$%&=",
">$$$#)$$$$))$$$-,$$,)$))-& )$$$-]~=^{~~~]~~~=~~~)$$,$$%&$$$$%$%=",
">$$,$$$$)))$)$&=,$,$$)$$,&,$$$&=~= >>,-~^~~=^=]~#$,$$$$&$$$$$%$=",
",$),$$$)))$)$$&-,$$$$$$$$,,$$$&-=~>$$$)-~~={={~~#,)$$$%$&$$$$$%-",
",$#$$$$$)$)$$&$-&$$$$$$$$$,$$$$-~~@$$$-~~=]==~^=))$)$$$%&$$$$$$=",
",#$$$$$)$$$$%$$--&%$%$$$$%$$$$$-~=)$$,-~=~   ;;;,&)$$$$$&$%$$$$-",
"',$$$$$$$$$$$$$-&-&&$%$%%$%$$$$-~~#$$#==~~;;,$,$$-)$$$$%%&$$$$$-",
"'$$$$$$$$$$$$$%-&%$$&&&%$$$$$$$-^~~#$)~~~-;,$$$$$-$,$$$%$$%$$$!-",
"&$$$$$$$$$$$$%%-%$$$$$$&$$$$$$$-~~=))-~~~ ,$)$$$-&$$,$%$$$$$$!&-",
"&&$$$$$$$$$%&&&-%$$$$$%$%$$!$$$=~]~-)-~~] ,#$$$-&, ,,,$%$$$!!%&-",
"&&$$$%$$!!%&$%$-%$$$$$$$$$!%%$%==~=~^=~^=>#)$$-~,))$$$$$$$!%%$%=",
"&%%$%$!!&&&$%$%=&$%$$$$$$$!%$$-=]~{~~~~={,$)$-{*,)$$$$$$$$$%$%%-",
"%%$%$%&&%&$&$%%=&%$%$$$$$!%$%%=*~~~^~~=~;$$$-*~~%$$$$$$$$$$$$%-=",
"%$%%%&&$&$&$%$&=&&%$%$$$!&&%%-**]~=~]=~;$$$-*~~^&%$&&$$$$$$%-==*",
"====-=-----=-==*====-=-----=-==*~~~~{~=;$$-*~]====-=------==*=**",
" .+@@#######$%&= @)##==#####$%&=*>>>,,,>,-)$$%%=*==-=--%;;##$%&*",
">)$$$#))$$$))$%=>)$$$#=&$$$))$%==;)$$$##-)$$$$&*>;;;##;;)$$$%$%=",
",$$$#)$$$$))$$$->$$$#),=$$&)$$$-=;$$$))))$$$$$&=>)$$$#))$$$$$%$-",
",$$,$$)$)))$$$&=>$$,$$$=~-&$&$&=-;$$,,$)$$$$$$&=>$$$#)$$$$$$$$$=",
",$),$)$))$$$$$&-,$),$$&=~~~-$&&-=#$#$$)$)$$$%$$-,$$,$$$$$$$$$$%=",
",$#$$$)$$$$$$&$-,$#$$$&~ @-==--=-##)$)$))$$%$$$=,$),$)$$$$$$!&-=",
",#$$$)$$$$%$%$$-,#$$$&-@$$,@-~==-;)$$$)$$$%$%$$-,#)$)$)$$$$!&&--",
"',$$$$$$$$&$$$$-',$$$-,$$$$$,@-=%;)$$$$$$%$%$$$-;#))$)$$$$!!&&-=",
"'$$$$$$$$&&$$$$-'$$$&,$$$$$$$$%=;)$$$$$$$$%$$$$-;#)$))$$$!&&%&--",
"&$$$$$$$!&%$%$$-&$$&$$$$$$$$$%%-;$$$$$$$!&%$$$&-#)$$$$$%$&%$$%&-",
"&&$$$$$!&%$%$$$-&&$$$$$$$$$%&&&-#$$$$$$!&%$$$$&-)$$$$$%$%%$$$$&-",
"&&$$$$!&%$%$%$$-&&$$$%$$!!%&$%$-#$$$$$!!&$$$$$%=$$$$$%$%$$$$$$$-",
"&%$$$!&%$%$$$$$=&%%$%$!!&&&$%$%=$%$$$!&&%$$$$$$-$$$$%$%$$$$$$$$=",
"%$$!&&&$$$$$$$%=%%$%$%&&%&$&$%%=%$%$$&&&&%$$$$$=%$$$$$$$$$$$$$%=",
"%&&&&&%$$&&%$$&*%$%%%&&$&$&$%$&=&%$$%----&&$$%&=%&&&$$$$$&&%$$&=",
"====-=-----=-==*====-=-----=-==*==-===-=----===*====-=-----=-==*",
" @)#########$%&= >,,,,,''&&&&%%* @)#########$%&= ;)##)&-&&&,,%&=",
">)$$$#))$$$))$%=.)$$$$#,$$&&%$&=>)$$$#))$$$))$%= )$$,)$)-&,))$%=",
">$$$#)$$$$))$$$-+$$$)#$$$$$$$$&=>$$$#)$$$$))$$$-,$$,)$))-& )$$$-",
">$$,$$$$)))$)$&=@$$,,$$$$$$$$!&=>$$,$$$$)))$)$&=,$,$$)$$,&,$$$&=",
",$),$$$)))$)$$&-@$#$$$$$$$$$$&&-,$),$$$)))$)$$&-,$$$$$$$$,,$$$&-",
",$#$$$$$)$)$$&$-##)$)$)$$$$$!&&=,$#$$$$$)$)$$&$-&$$$$$$$$$,$$$$-",
",#$$$$$)$$$$%$$-#)$)$)$$$$$!&&%-,#$$$$$)$$$$%$$--&%$%$$$$%$$$$$-",
"',$$$$$$$$$$$$$-#)$$)$$$$$!&%$$-',$$$$$$$$$$$$$-&-&&$%$%%$%$$$$-",
"'$$$$$$$$$$$$$%-#$$))$$$$!&%$$$-'$$$$$$$$$$$$$%-&%$$&&&%$$$$$$$-",
"&$$$$$$$$$$$$%%-#$$)$$$$&&%$%$&-&$$$$$$$$$$$$%%-%$$$$$$&$$$$$$$-",
"&&$$$$$$$$$%&&&-#$))$$%&&%$%$$&-&&$$$$$$$$$%&&&-%$$$$$%$%$$!$$$=",
"&&$$$%$$!!%&$%$-#))$$$$$$$%$$$%=&&$$$%$$!!%&$%$-%$$$$$$$$$!%%$%=",
"&%%$%$!!&&&$%$%=$)$$$$%$$%$%$$$-&%%$%$!!&&&$%$%=&$%$$$$$$$!%$$-=",
"%%$%$%&&%&$&$%%=%$$$$&$$$$$$$$$=%%$%$%&&%&$&$%%=&%$%$$$$$!%$%%==",
"%$%%%&&$&$&$%$&=&%$&&$$$$$$$$%&=%$%%%&&$&$&$%$&=&&%$%$$$!&&%%-=*",
"====-=-----=-==**=-=--------===*====-=-----=-==*====-=-----=-==*"};
