/* XPM */
static char * attack1A_xpm[] = {
"64 64 257 2",
"  	c None",
". 	c #000000",
"+ 	c #0000A8",
"@ 	c #00A800",
"# 	c #00A8A8",
"$ 	c #A80000",
"% 	c #A800A8",
"& 	c #A85400",
"* 	c #A8A8A8",
"= 	c #545454",
"- 	c #5454FC",
"; 	c #54FC54",
"> 	c #54FCFC",
", 	c #FC5454",
"' 	c #FC54FC",
") 	c #FCFC54",
"! 	c #FCFCFC",
"~ 	c #ECECEC",
"{ 	c #DCDCDC",
"] 	c #D0D0D0",
"^ 	c #C0C0C0",
"/ 	c #B4B4B4",
"( 	c #A8A8A8",
"_ 	c #989898",
": 	c #8C8C8C",
"< 	c #7C7C7C",
"[ 	c #707070",
"} 	c #646464",
"| 	c #545454",
"1 	c #484848",
"2 	c #383838",
"3 	c #2C2C2C",
"4 	c #202020",
"5 	c #FC0000",
"6 	c #EC0000",
"7 	c #E00000",
"8 	c #D40000",
"9 	c #C80000",
"0 	c #BC0000",
"a 	c #B00000",
"b 	c #A40000",
"c 	c #980000",
"d 	c #880000",
"e 	c #7C0000",
"f 	c #700000",
"g 	c #640000",
"h 	c #580000",
"i 	c #4C0000",
"j 	c #400000",
"k 	c #FCD8D8",
"l 	c #FCB8B8",
"m 	c #FC9C9C",
"n 	c #FC7C7C",
"o 	c #FC5C5C",
"p 	c #FC4040",
"q 	c #FC2020",
"r 	c #FC0000",
"s 	c #FCA85C",
"t 	c #FC9840",
"u 	c #FC8820",
"v 	c #FC7800",
"w 	c #E46C00",
"x 	c #CC6000",
"y 	c #B45400",
"z 	c #9C4C00",
"A 	c #FCFCD8",
"B 	c #FCFCB8",
"C 	c #FCFC9C",
"D 	c #FCFC7C",
"E 	c #FCF85C",
"F 	c #FCF440",
"G 	c #FCF420",
"H 	c #FCF400",
"I 	c #E4D800",
"J 	c #CCC400",
"K 	c #B4AC00",
"L 	c #9C9C00",
"M 	c #848400",
"N 	c #706C00",
"O 	c #585400",
"P 	c #404000",
"Q 	c #D0FC5C",
"R 	c #C4FC40",
"S 	c #B4FC20",
"T 	c #A0FC00",
"U 	c #90E400",
"V 	c #80CC00",
"W 	c #74B400",
"X 	c #609C00",
"Y 	c #D8FCD8",
"Z 	c #BCFCB8",
"` 	c #9CFC9C",
" .	c #80FC7C",
"..	c #60FC5C",
"+.	c #40FC40",
"@.	c #20FC20",
"#.	c #00FC00",
"$.	c #00FC00",
"%.	c #00EC00",
"&.	c #00E000",
"*.	c #00D400",
"=.	c #04C800",
"-.	c #04BC00",
";.	c #04B000",
">.	c #04A400",
",.	c #049800",
"'.	c #048800",
").	c #047C00",
"!.	c #047000",
"~.	c #046400",
"{.	c #045800",
"].	c #044C00",
"^.	c #044000",
"/.	c #D8FCFC",
"(.	c #B8FCFC",
"_.	c #9CFCFC",
":.	c #7CFCF8",
"<.	c #5CFCFC",
"[.	c #40FCFC",
"}.	c #20FCFC",
"|.	c #00FCFC",
"1.	c #00E4E4",
"2.	c #00CCCC",
"3.	c #00B4B4",
"4.	c #009C9C",
"5.	c #008484",
"6.	c #007070",
"7.	c #005858",
"8.	c #004040",
"9.	c #5CBCFC",
"0.	c #40B0FC",
"a.	c #20A8FC",
"b.	c #009CFC",
"c.	c #008CE4",
"d.	c #007CCC",
"e.	c #006CB4",
"f.	c #005C9C",
"g.	c #D8D8FC",
"h.	c #B8BCFC",
"i.	c #9C9CFC",
"j.	c #7C80FC",
"k.	c #5C60FC",
"l.	c #4040FC",
"m.	c #2024FC",
"n.	c #0004FC",
"o.	c #0000FC",
"p.	c #0000EC",
"q.	c #0000E0",
"r.	c #0000D4",
"s.	c #0000C8",
"t.	c #0000BC",
"u.	c #0000B0",
"v.	c #0000A4",
"w.	c #000098",
"x.	c #000088",
"y.	c #00007C",
"z.	c #000070",
"A.	c #000064",
"B.	c #000058",
"C.	c #00004C",
"D.	c #000040",
"E.	c #282828",
"F.	c #FCE034",
"G.	c #FCD424",
"H.	c #FCCC18",
"I.	c #FCC008",
"J.	c #FCB400",
"K.	c #003800",
"L.	c #002800",
"M.	c #9800E4",
"N.	c #8000CC",
"O.	c #7400B4",
"P.	c #60009C",
"Q.	c #500084",
"R.	c #440070",
"S.	c #340058",
"T.	c #280040",
"U.	c #FCD8FC",
"V.	c #FCB8FC",
"W.	c #FC9CFC",
"X.	c #FC7CFC",
"Y.	c #FC5CFC",
"Z.	c #FC40FC",
"`.	c #FC20FC",
" +	c #FC00FC",
".+	c #E000E4",
"++	c #C800CC",
"@+	c #B400B4",
"#+	c #9C009C",
"$+	c #840084",
"%+	c #6C0070",
"&+	c #580058",
"*+	c #400040",
"=+	c #FCE8DC",
"-+	c #FCE0D0",
";+	c #FCD8C4",
">+	c #FCD4BC",
",+	c #FCCCB0",
"'+	c #FCC4A4",
")+	c #FCBC9C",
"!+	c #FCB890",
"~+	c #FCB080",
"{+	c #FCA470",
"]+	c #FC9C60",
"^+	c #F0945C",
"/+	c #E88C58",
"(+	c #DC8854",
"_+	c #D08050",
":+	c #C87C4C",
"<+	c #BC7848",
"[+	c #B47044",
"}+	c #A86840",
"|+	c #A0643C",
"1+	c #9C6038",
"2+	c #905C34",
"3+	c #885830",
"4+	c #80502C",
"5+	c #744C28",
"6+	c #6C4824",
"7+	c #5C4020",
"8+	c #543C1C",
"9+	c #483818",
"0+	c #403018",
"a+	c #382C14",
"b+	c #28200C",
"c+	c #600064",
"d+	c #006464",
"e+	c #006060",
"f+	c #00001C",
"g+	c #00002C",
"h+	c #302410",
"i+	c #480048",
"j+	c #500050",
"k+	c #000034",
"l+	c #1C1C1C",
"m+	c #4C4C4C",
"n+	c #5C5C5C",
"o+	c #404040",
"p+	c #303030",
"q+	c #343434",
"r+	c #D8F4F4",
"s+	c #B8E8E8",
"t+	c #9CDCDC",
"u+	c #74C8C8",
"v+	c #48C0C0",
"w+	c #20B4B4",
"x+	c #20B0B0",
"y+	c #00A4A4",
"z+	c #009898",
"A+	c #008C8C",
"B+	c #008484",
"C+	c #007C7C",
"D+	c #007878",
"E+	c #007474",
"F+	c #007070",
"G+	c #006C6C",
"H+	c #980088",
"                                                                                                                                ",
"                                                                                                                                ",
"                                                                                                                                ",
"                                                                  E.p+p+p+p+                                                    ",
"                                                                p+3 4 E.3 3 2                                                   ",
"                                                              . l+E.E.l+l+f+l+l+                                                ",
"                                                            . . f+4 f+f+f+f+. . E.    4 4 4 4 .                                 ",
"                                            l+l+p+E.p+l+    . . . . f+f+l+. . . l+  . . l+. . f+l+l+                            ",
"                                          l+3 2 4 4 p+o+l+. 0+a+b+b+l+l+l+a+4 9+. l+. . l+l+. . . . .                           ",
"                                        l+4 2 E.4 3 4 p+l+. h+j 0+. c 5 c 0+j j . . . . . . . . . . . .                         ",
"                                      l+l+2 2 l+l+4 p+E.l+. b+0+0+E.j 7+l+0+E.j 6+. . . . . . . . . . .                         ",
"                                    4 4 p+p+. . . l+E.q+4 [+8+h+q+a+a+0+b+a+q+h+6+[+3 . . . . . . . . . .                       ",
"                                    l+4 . . . . . . 4 3 2 p+h+}+< * < . < * < }+h+7+. . . . . . . . . . .                       ",
"                                  l+p+. . . . . . . f+4 2 p+0+0+. . . . . . . 0+7+9+. . . l+. . . . . . .                       ",
"                                  l+. . . . . . . . l+l+4 4 l+[ } m+0+} 0+m+} [ 7+. . . . E.4 . . . . . . .                     ",
"                                  . . . . . . . . . l+f+4 l+4 . . 0+7+8+7+l+4 l+8+b+. . . 2 2 . . . . . . .                     ",
"                                  . . . . . . . . . l+l+4 l+l+. . . 4 b+p+l+l+l+l+. . . . . 2 . . . . . . .                     ",
"                                  . . . . . . . . . . l+l+E.l+. . . 4 l+l+l+l+. . . . . . . o+2 . . . . . .                     ",
"                                  . . . . . . . . . . l+l+l+4 . . . . 4 l+l+. . . . . . . . p+1 . . . . f+                      ",
"                                  . . . . . . . . . . f+f+l+l+. . . . . l+. . . . . . . . . E.2 . . . . h+4                     ",
"                                  . . . . . . . . . . . l+l+. l+. . . . . . . . . . . . . l+a+2 . . 4 5+l+=                     ",
"                                  . . . . . . . . h+6+5+0+8+. . . . . . . . . . . . p+. l+h+b+1 . b+n+9+0+l+6+                  ",
"                                  . . . . . . E.E.7+6+4+5+9+b+. . . l+4 0+b+l+3 7+E.j 4 3 9+. l+h+a+3 h+9+8+m+                  ",
"                                    . . . 0+9+= [ 6+6+3+6+0+. j j l+6+q+7+. b+2 8+8+2 3 7+. . 4 7+4 4 o+m+4+9+                  ",
"                                    . . 0+8+7+. j 9+6+1+5+j b+l+4 3 8+8+7+. 5+7+7+8+7+8+4 . l+5+1 1 [ } m+p+9+[                 ",
"                                    l+. 6+7+8+1 m+7+3+3+8+b+4 7+7+9+6+8+l+4 4+6+6+5+b+b+l+j 6+m+6+8+= l+0+1 2 6+                ",
"                                      L |+4+6+6+l+3 p+7+4 0+q+m+4+3+p+L p+4 o+6+7+0+l+l+  2 6+1 7+8+6+o+m+2 o+7+=               ",
"                                      4 L N n+p+2 = 4 o+7+8+0+7+1 N L 7+8+0+6+8+b+9+4 3   h+8+q+q+0+3 3 4 4 p+8+7+              ",
"                                        N J.J 4 4 [+<+<+<+<+1 2 J J.N |+6+6+4+5+l+1 2 p+    9+7+7+a+4 4 l+4 l+4 l+              ",
"                                      7+8+J E J.<+t E E E t }+J.E J }+2+3+3+o+h+. 6+l+      0+2 7+3 4 4 2 l+. . .               ",
"                                      a+5+E.J ! H G H E E H ! ! J.a+8+8+6+6+p+b+b+m+3 p+      0+9+h+l+. . j l+b+. .             ",
"                                      9+5+2 <+H ! ! B B B ! ! E <+o+m+6+5+6+0+8+0+7+= }         h+. . . l+h+j 0+. 4             ",
"                                      7+m+j t E G ! ! A ! ! B H <+} 2 9+5+= 5+}+7+0+8+4+l+        . . l+4 8+. 7+8+.             ",
"                                      0+2+<+t E G B ! A A A ! G <+}+3 p+= 2 l+a+a+. l+l+h+        . . 4 b+7+h+h+E.h+            ",
"                                      9+2 <+t E E A B ! ! A D G t <+l+4 p+p+l+l+l+l+4+.             l+l+j l+h+. 6+              ",
"                                      h+1 <+t E ! A ! B ! A B G t <+. l+E.9+0+. . p+5+.               . 4 . 0+. 0+              ",
"                                      3 p+}+t E ! ! ! B A ! ! G <+. l+0+h+j b+. . E.2 E.                    . j                 ",
"                                      1 4 l+J ! E ! G C C E E ! J . = 6+h+h+l+8+7+. p+p+p+                                      ",
"                                      3 . J E H J E E E E E t J E J b+l+. . h+7+7+2 p+q+2                                       ",
"                                        N L J }+l+<+t t t t q+j J J.N l+l+l+a+2 2 q+2 8+1 2                                     ",
"                                        J N . . . . l+o+4 . l+2 3+N L E.l+l+7+2 2 q+p+p+4 =                                     ",
"                                      L N       o+E.7+7+8+3 h+4 E.l+4 N E.j E.h+3 8+7+7+E.o+                                    ",
"                                                o+E.8+9+p+3 l+b+l+E.h+l+2 l+b+l+3 p+9+8+E.o+                                    ",
"                                              o+l+E.h+0+E.h+j .             . j h+E.0+h+E.l+o+                                  ",
"                                              q+4 0+E.3 h+b+j l+            l+j b+h+3 E.0+4 o+                                  ",
"                                              2 j E.h+4 j b+l+l+              l+4 j b+l+E.p+                                    ",
"                                              l+h+4 E.4 l+j . E.              . . b+. . f+f+.                                   ",
"                                                p+E.l+b+j 4 l+                . . . . . f+f+.                                   ",
"                                                f+f+. . b+. .               . . . . . . . f+f+.                                 ",
"                                              . f+f+. . . . .               . . . . . . . f+. .                                 ",
"                                            . f+f+. . . . . . .             . . . 4 . 2 2 2 . . .                               ",
"                                            . . f+. . . . . . .             . . 3 3 2 o+7+= 2 2 p+                              ",
"                                          . . . 2 2 2 . 4 . . .             . 3 l+2 q+E.9+p+3 2 q+                              ",
"                                          p+2 2 = 7+o+2 3 3 . .               E.l+0+q+n+= 2 3 3 4                               ",
"                                          q+2 3 p+9+E.q+2 l+3 .               l+2 p+2 = m+q+o+l+3 E.                            ",
"                                          4 3 3 2 = n+q+0+l+E.              p+2 E.E.q+1 = _ < q+E.4 2                           ",
"                                        E.3 l+o+q+m+= 2 p+2 l+              4 E.3 p+q+3 } _ ^ } o+p+2                           ",
"                                      2 4 E.q+< _ = 1 q+E.E.2 p+          4 4 . l+3 q+p+o+: ^ : n+o+n+4                         ",
"                                      2 p+o+} ^ _ } 3 q+p+3 E.4           o+l+f+f+4 3 2 p+n+{ : < n+2 4                         ",
"                                    4 n+o+n+: ^ : o+p+q+3 l+. 4 4             l+l+f+E.p+2 1 { _ < < 2                           ",
"                                    4 2 n+< : { n+p+2 3 4 f+f+l+o+              l+4 4 E.3 1 * ] < <                             ",
"                                      2 < < _ { 1 2 p+E.f+l+l+                      p+E.4 4 4 < <                               ",
"                                        < < ] * 1 3 E.4 4 l+                                                                    ",
"                                          < < 4 4 4 E.p+                                                                        "};
