/* XPM */
static char * BARREL_xpm[] = {
"64 64 38 1",
" 	c None",
".	c #4C001C",
"+	c #B21820",
"@	c #C52A23",
"#	c #B91112",
"$	c #790314",
"%	c #292A28",
"&	c #1C1C1B",
"*	c #141413",
"=	c #4C000E",
"-	c #64001C",
";	c #024122",
">	c #0C5A33",
",	c #1D783C",
"'	c #370014",
")	c #429128",
"!	c #66A916",
"~	c #970918",
"{	c #EB4939",
"]	c #D63424",
"^	c #28261F",
"/	c #313534",
"(	c #1B0003",
"_	c #23000A",
":	c #744000",
"<	c #320010",
"[	c #320006",
"}	c #855A00",
"|	c #430010",
"1	c #1E1E17",
"2	c #92670B",
"3	c #9F7315",
"4	c #392D13",
"5	c #B08A2E",
"6	c #2B0007",
"7	c #7A0D13",
"8	c #1F0007",
"9	c #000000",
"                                                                ",
"                                                                ",
"                                                                ",
"                                                                ",
"                                                                ",
"                                                                ",
"                                                                ",
"                                                                ",
"                                                                ",
"                                                                ",
"                                                                ",
"                                                                ",
"                                                                ",
"                                                                ",
"                                                                ",
"                                                                ",
"                                                                ",
"                                                                ",
"                                                                ",
"                                                                ",
"                                                                ",
"                                                                ",
"                                                                ",
"                                                                ",
"                                                                ",
"                                                                ",
"                                                                ",
"                                                                ",
"                                                                ",
"                                                                ",
"                      .++@@@@@@+@++++#+##.                      ",
"                   $##+%%%%%%%%%&%&&&&*&*##$=                   ",
"                  -**;>>,>,>,,,,,,,,,,,,>>;**=                  ",
"                  '$##+>>,,,,),)!)!!!!!),#~$-'                  ",
"                   '==-+@{{{]@@+@++++#+##-'''                   ",
"                   --$$---------.-....'&>====                   ",
"                   -$$~#~~~~~$~$$$$-$--^,-==-                   ",
"                   -$~~##]]##~~~~~~$~$$>)--=-                   ",
"                  =-$$~##]]#~~~~~~$~$$$>!-=--=                  ",
"                  --$~~##]]##~~~~~~$~$$/,$-=-=                  ",
"                  '$##+~#@]##~~~~~~~$$$)!),$-'                  ",
"                   '==-+@{{{]@+++++))!!),(_''                   ",
"                   --$$------:--.-<<<<_<>[===                   ",
"                   -$$~#~~~~:}}$$$$-$-||1-==-                   ",
"                   -$~~##]]23332~~~$~$$$>--=-                   ",
"                  =-$$~##]2334332~$~$$$-,-=--=                  ",
"                  --$~~##233343232~$~$$$,$-=-=                  ",
"                  '$##+~2323343322}~$$$>!)~$-'                  ",
"                   '==-+@355555535+++~)!,6_''                   ",
"                   --$$---::}*}}:-...<_<>[===                   ",
"                   -$$~#~~~}}22:$$$-$---[-==-                   ",
"                   -$~~##]]#333~~~~$~$$$---=-                   ",
"                  =-$$~##]]#~2~~~~$~$$$---=--=                  ",
"                  --$~~##]]##~~~~~~$~$$$>$-=-=                  ",
"                  '$##+~#@]##~~~~~~~$$$-))~$-'                  ",
"                   '==-+@{{{]@+++++++~7),6'''                   ",
"                   --$$---------.-...<'8>[===                   ",
"                   -$$~#~~~~~$~$$$$-$---[-==-                   ",
"                   -$~~##]]##~~~~~~$~$$$---=-                   ",
"                  =-$$~##]]#~~~~~~$~$$$---=--=                  ",
"                  --$~~##]]##~~~~~~$~$$$-$-=-=                  ",
"                  '$##+~#@]##~~~~~~~$$$-$$~$-'                  ",
"                   ''..+@{{{]@+++++++~+~~-'''                   ",
"                      9.--------.-....'.''                      "};
