/* XPM */
static char * die0A_xpm[] = {
"64 64 257 2",
"  	c None",
". 	c #000000",
"+ 	c #0000A8",
"@ 	c #00A800",
"# 	c #00A8A8",
"$ 	c #A80000",
"% 	c #A800A8",
"& 	c #A85400",
"* 	c #A8A8A8",
"= 	c #545454",
"- 	c #5454FC",
"; 	c #54FC54",
"> 	c #54FCFC",
", 	c #FC5454",
"' 	c #FC54FC",
") 	c #FCFC54",
"! 	c #FCFCFC",
"~ 	c #ECECEC",
"{ 	c #DCDCDC",
"] 	c #D0D0D0",
"^ 	c #C0C0C0",
"/ 	c #B4B4B4",
"( 	c #A8A8A8",
"_ 	c #989898",
": 	c #8C8C8C",
"< 	c #7C7C7C",
"[ 	c #707070",
"} 	c #646464",
"| 	c #545454",
"1 	c #484848",
"2 	c #383838",
"3 	c #2C2C2C",
"4 	c #202020",
"5 	c #FC0000",
"6 	c #EC0000",
"7 	c #E00000",
"8 	c #D40000",
"9 	c #C80000",
"0 	c #BC0000",
"a 	c #B00000",
"b 	c #A40000",
"c 	c #980000",
"d 	c #880000",
"e 	c #7C0000",
"f 	c #700000",
"g 	c #640000",
"h 	c #580000",
"i 	c #4C0000",
"j 	c #400000",
"k 	c #FCD8D8",
"l 	c #FCB8B8",
"m 	c #FC9C9C",
"n 	c #FC7C7C",
"o 	c #FC5C5C",
"p 	c #FC4040",
"q 	c #FC2020",
"r 	c #FC0000",
"s 	c #FCA85C",
"t 	c #FC9840",
"u 	c #FC8820",
"v 	c #FC7800",
"w 	c #E46C00",
"x 	c #CC6000",
"y 	c #B45400",
"z 	c #9C4C00",
"A 	c #FCFCD8",
"B 	c #FCFCB8",
"C 	c #FCFC9C",
"D 	c #FCFC7C",
"E 	c #FCF85C",
"F 	c #FCF440",
"G 	c #FCF420",
"H 	c #FCF400",
"I 	c #E4D800",
"J 	c #CCC400",
"K 	c #B4AC00",
"L 	c #9C9C00",
"M 	c #848400",
"N 	c #706C00",
"O 	c #585400",
"P 	c #404000",
"Q 	c #D0FC5C",
"R 	c #C4FC40",
"S 	c #B4FC20",
"T 	c #A0FC00",
"U 	c #90E400",
"V 	c #80CC00",
"W 	c #74B400",
"X 	c #609C00",
"Y 	c #D8FCD8",
"Z 	c #BCFCB8",
"` 	c #9CFC9C",
" .	c #80FC7C",
"..	c #60FC5C",
"+.	c #40FC40",
"@.	c #20FC20",
"#.	c #00FC00",
"$.	c #00FC00",
"%.	c #00EC00",
"&.	c #00E000",
"*.	c #00D400",
"=.	c #04C800",
"-.	c #04BC00",
";.	c #04B000",
">.	c #04A400",
",.	c #049800",
"'.	c #048800",
").	c #047C00",
"!.	c #047000",
"~.	c #046400",
"{.	c #045800",
"].	c #044C00",
"^.	c #044000",
"/.	c #D8FCFC",
"(.	c #B8FCFC",
"_.	c #9CFCFC",
":.	c #7CFCF8",
"<.	c #5CFCFC",
"[.	c #40FCFC",
"}.	c #20FCFC",
"|.	c #00FCFC",
"1.	c #00E4E4",
"2.	c #00CCCC",
"3.	c #00B4B4",
"4.	c #009C9C",
"5.	c #008484",
"6.	c #007070",
"7.	c #005858",
"8.	c #004040",
"9.	c #5CBCFC",
"0.	c #40B0FC",
"a.	c #20A8FC",
"b.	c #009CFC",
"c.	c #008CE4",
"d.	c #007CCC",
"e.	c #006CB4",
"f.	c #005C9C",
"g.	c #D8D8FC",
"h.	c #B8BCFC",
"i.	c #9C9CFC",
"j.	c #7C80FC",
"k.	c #5C60FC",
"l.	c #4040FC",
"m.	c #2024FC",
"n.	c #0004FC",
"o.	c #0000FC",
"p.	c #0000EC",
"q.	c #0000E0",
"r.	c #0000D4",
"s.	c #0000C8",
"t.	c #0000BC",
"u.	c #0000B0",
"v.	c #0000A4",
"w.	c #000098",
"x.	c #000088",
"y.	c #00007C",
"z.	c #000070",
"A.	c #000064",
"B.	c #000058",
"C.	c #00004C",
"D.	c #000040",
"E.	c #282828",
"F.	c #FCE034",
"G.	c #FCD424",
"H.	c #FCCC18",
"I.	c #FCC008",
"J.	c #FCB400",
"K.	c #003800",
"L.	c #002800",
"M.	c #9800E4",
"N.	c #8000CC",
"O.	c #7400B4",
"P.	c #60009C",
"Q.	c #500084",
"R.	c #440070",
"S.	c #340058",
"T.	c #280040",
"U.	c #FCD8FC",
"V.	c #FCB8FC",
"W.	c #FC9CFC",
"X.	c #FC7CFC",
"Y.	c #FC5CFC",
"Z.	c #FC40FC",
"`.	c #FC20FC",
" +	c #FC00FC",
".+	c #E000E4",
"++	c #C800CC",
"@+	c #B400B4",
"#+	c #9C009C",
"$+	c #840084",
"%+	c #6C0070",
"&+	c #580058",
"*+	c #400040",
"=+	c #FCE8DC",
"-+	c #FCE0D0",
";+	c #FCD8C4",
">+	c #FCD4BC",
",+	c #FCCCB0",
"'+	c #FCC4A4",
")+	c #FCBC9C",
"!+	c #FCB890",
"~+	c #FCB080",
"{+	c #FCA470",
"]+	c #FC9C60",
"^+	c #F0945C",
"/+	c #E88C58",
"(+	c #DC8854",
"_+	c #D08050",
":+	c #C87C4C",
"<+	c #BC7848",
"[+	c #B47044",
"}+	c #A86840",
"|+	c #A0643C",
"1+	c #9C6038",
"2+	c #905C34",
"3+	c #885830",
"4+	c #80502C",
"5+	c #744C28",
"6+	c #6C4824",
"7+	c #5C4020",
"8+	c #543C1C",
"9+	c #483818",
"0+	c #403018",
"a+	c #382C14",
"b+	c #28200C",
"c+	c #600064",
"d+	c #006464",
"e+	c #006060",
"f+	c #00001C",
"g+	c #00002C",
"h+	c #302410",
"i+	c #480048",
"j+	c #500050",
"k+	c #000034",
"l+	c #1C1C1C",
"m+	c #4C4C4C",
"n+	c #5C5C5C",
"o+	c #404040",
"p+	c #303030",
"q+	c #343434",
"r+	c #D8F4F4",
"s+	c #B8E8E8",
"t+	c #9CDCDC",
"u+	c #74C8C8",
"v+	c #48C0C0",
"w+	c #20B4B4",
"x+	c #20B0B0",
"y+	c #00A4A4",
"z+	c #009898",
"A+	c #008C8C",
"B+	c #008484",
"C+	c #007C7C",
"D+	c #007878",
"E+	c #007474",
"F+	c #007070",
"G+	c #006C6C",
"H+	c #980088",
"                                                                                                                                ",
"                                                                                                                                ",
"                                                                                                                                ",
"                                                                                                                                ",
"                                                                                                                                ",
"                                                                                                                                ",
"                                                    m+[ *                                                                       ",
"                                                  } o+} : ] [                                                                   ",
"                                                  q+2 2 1 } m+                                                                  ",
"                                                  o+p+2 p+p+2 o+                                                                ",
"                                                  o+2 p+E.p+3 2 m+:                                                             ",
"                                                f+o+2 3 E.E.3 2 E.1 * _ 2                                                       ",
"                                              E.f+2 q+4 4 3 p+3 l+l+2 = * : n+o+f+< : : _                                       ",
"                                            m+E.f+l+p+3 E.l+4 q+l+l+l+3 } _ : m+f+E.p+o+= [ _                                   ",
"                              2 2 E.p+  p+p+q+f+f+l+4 3 3 4 4 E.4 l+l+l+q+} [ o+f+E.p+E.E.E.q+2                                 ",
"                            p+3 4 . . 4 2 1 2 f+f+f+l+E.3 q+3 4 4 . . . 4 p+E.3 f+f+3 2 2 p+q+2 o+                              ",
"                        1 2 o+p+l+. . . 3 p+l+. f+. . l+p+p+p+3 E.f+. . 4 E.l+q+f+. E.l+3 2 4 l+l+l+                            ",
"                      2 1 o+p+l+l+. . l+4 l+l+. . . . . f+E.3 l+. . . h+l+l+l+E.f+. . 4 4 l+4 l+. l+                            ",
"                      1 o+p+4 l+l+. . q+l+l+l+l+. . . . . l+4 f+. . . 0+3+l+. 4 f+. . . l+l+l+f+f+f+f+                          ",
"                      q+E.4 l+l+. . . 3 l+f+f+f+l+f+l+. . . f+f+. . 4 0+1+f+. . f+. . . l+. l+l+. l+f+f+                        ",
"                    l+. f+l+l+. . . . 4 f+. . . b+6+3 h+. q+f+f+l+h+8+b+6+. . . f+f+. . l+l+l+l+. f+f+.                         ",
"                    . . . . . . . . . l+. . . . f+z . l+a+0+b+0+j h+p+b+b+. . l+f+f+. . f+. l+l+l+. f+f+                        ",
"                    . . . . . . . . . . . . . . . 8+7+b+b+h+4 3 9+7+3 3 . . f+l+f+f+. . . . l+l+l+l+f+f+                        ",
"                  . . . . . . . . . . . . l+. . . . b+0+b+8+q+9+j q+2 9+b+f+f+l+. f+f+. . . . . l+. . .                         ",
"                  . . . . . . . . . . . l+l+f+. . . . 9+3 p+8+6+l+8+. E.l+f+l+E.E.f+. f+. . . . l+. . . .                       ",
"                  . . . . . . . . . . . . 4 l+. . . . b+h+. q+p+0+l+m+f+f+f+E.4 l+f+f+. . . . . l+. . . .                       ",
"                  . . . . . . . . . . . E.2 4 l+. . . . . . . f+l+l+f+f+. . . . . . l+. . f+. . l+. . . .                       ",
"                  . . . . . . . . . . . l+q+E.l+. . . . l+. . . b+b+l+. . . b+4   l+l+. . . . . . . . b+.                       ",
"                    . . . . . . . . . . . f+j . j b+. l+l+E.l+l+h+E.E.E.4 l+3 3 3 j . . . . . . . f+j 8+                        ",
"                    . . . . . . . . . . .         f+l+4 E.h+. . l+. . . b+E.7+2 l+    . E.j j b+p+2 h+8+2                       ",
"                    f+. . . . . . . b+h+          l+p+4 . p+7+h+l+E.= b+4 b+7+5+. 4   . 3 a+j h+8+8+h+0+l+                      ",
"                      . b+b+l+l+b+b+0+h+          l+6+o+4 9+0+7+q+9+h+7+8+b+q+5+b+q+  j . 2 2 h+a+4 2 9+7+                      ",
"                      0+0+j E.o+0+j 0+= l+        . . 6+. E.o+4 7+9+5+7+b+7+0+p+0+p+1   b+. 2 . 1 3 j o+p+6+                    ",
"                      1 0+= m+} 2 o+o+} p+7+        . q+3 q+E.0+6+q+b+E.1 E.E.E.q+2 q+= b+h+1 n+1 1 1 1 2 o+                    ",
"                      p+o+2 o+1 m+p+p+o+9+8+          5+0+l+l+E.|+7+2 m+l+p+8+p+E.2 1 7+5+5+6+8+j 9+0+o+0+1 }                   ",
"                      h+2 1 o+1 q+l+= h 8+6+6+      1 8+9+7+l+4 8+6+2+E.o+5+3 p+q+o+7+7+3+6+8+1 o+2 0+2 8+p+5+                  ",
"                      8+0+6+o+4 [ p+= 3 5+o+1     2 6+7+2 l+a+9+0+0+9+8+p+h+7+p+0+8+0+7+7+8+4 4 4 l+3 q+8+8+7+                  ",
"                      a+8+7+1 4 [ p+E.o+2 1 p+l+  0+p+2 8+3+6+0+. 4 l+2 . E.7+a+E.2 E.0+4+7+4 3 p+. l+l+1 7+7+                  ",
"                      8+6+E.1 3 p+< . p+o+7+9+o+  0+1 8+7+5+8+7+l+p+E.2 . E.0+p+E.p+a+E.6+a+E.l+h+l+b+. l+h+9+                  ",
"                      q+0+a+o+3 3 _ l+p+0+n+n+2 1 E.E.8+7+9+p+2 l+3 4 E.0+  l+4 a+E.E.4 7+b+l+E.8+l+E.l+. . .                   ",
"                      0+0+}+l+m+l+o+1 1 7+h+m+2 E.3 l+7+9+7+p+E.l+            . . l+E.4 h+. E.9+7+b+j 9+l+. .                   ",
"                        0+o+7+7+} m+3 = = * 8+1 l+E.b+2 7+h+E.a+l+            . . . . l+4 . E.E.3+a+b+6+p+l+                    ",
"                        o+5+4+6+< n+n+: q+3+7+z l+E.E.0+8+p+l+E.l+          . . . . f+. l+l+h+0+7+0+. 8+3                       ",
"                      2 1 7+7+} 2 < o+[ 3 4+6+7+5+3 l+2 8+a+a+4 E.          . . . . . . f+4 l+3 h+8+. 9+9+                      ",
"                      p+m+6+7+5+l+= 2 = l+E.E.< 3 3 0+0+3 a+b+4             . . . . b+3 l+4 4 . 4 h+b+h+l+                      ",
"                      1 5+E.p+a+l+l+p+3 . E.l+: 1 2 2 h+a+E.a+l+            } h+1 9+1 4+= = 4   . . . l+                        ",
"                      p+q+} * l+. . l+3 l+j . < 2 p+2 E.a+0+4 E.            2 l+1 2 q+6+= 2 p+p+  . .                           ",
"                        q+q+: E.4 2 E.q+1     m+E.p+4 3 3 a+3 4             l+3 p+p+l+o+0+p+3 E.1                               ",
"                        = p+1 _   l+1 2 p+    = E.4 l+2 q+l+l+E.              l+E.p+E.} 1 1 m+< } 1                             ",
"                          p+3 n+_ l+l+l+l+    h+  2 q+3 2 l+l+4 .           f+l+4 3 3 l+q+3 4 = ^ : =                           ",
"                            l+4 2                 2 2 3 4 E.4 l+E.l+      f+l+l+E.. . . f+l+E.3 l+} m+                          ",
"                                                  p+p+3 = o+q+4 l+l+      l+4 . . . . . . . 4 q+4 4 2                           ",
"                                                  p+p+o+} 6+7+9+4 1         = . . . . . . . . E.E.4                             ",
"                                                  p+1 = = 7+o+2 2 =           4 . . . . . . . l+l+                              ",
"                                                  q+= 3 p+9+E.q+2 l+              . . . . . . l+                                ",
"                                                  4 3 3 2 = n+q+0+l+                      . .                                   ",
"                                                E.3 l+o+q+m+= 2 p+2 l+                                                          ",
"                                              2 4 E.q+< _ = 1 q+E.E.2 p+                                                        ",
"                                              2 p+o+} ^ _ } 3 q+p+3 E.[                                                         ",
"                                            4 n+o+n+: ^ : o+p+q+3 l+. o+_                                                       ",
"                                            4 2 n+< : { n+p+2 3 4 f+f+l+                                                        ",
"                                              2 < < _ { 1 2 p+E.f+l+l+                                                          ",
"                                                < < ] * 1 3 E.4 4 l+                                                            ",
"                                                      _ p+4 E.p+                                                                "};
