/* XPM */
static char * die1A_xpm[] = {
"64 64 257 2",
"  	c None",
". 	c #000000",
"+ 	c #0000A8",
"@ 	c #00A800",
"# 	c #00A8A8",
"$ 	c #A80000",
"% 	c #A800A8",
"& 	c #A85400",
"* 	c #A8A8A8",
"= 	c #545454",
"- 	c #5454FC",
"; 	c #54FC54",
"> 	c #54FCFC",
", 	c #FC5454",
"' 	c #FC54FC",
") 	c #FCFC54",
"! 	c #FCFCFC",
"~ 	c #ECECEC",
"{ 	c #DCDCDC",
"] 	c #D0D0D0",
"^ 	c #C0C0C0",
"/ 	c #B4B4B4",
"( 	c #A8A8A8",
"_ 	c #989898",
": 	c #8C8C8C",
"< 	c #7C7C7C",
"[ 	c #707070",
"} 	c #646464",
"| 	c #545454",
"1 	c #484848",
"2 	c #383838",
"3 	c #2C2C2C",
"4 	c #202020",
"5 	c #FC0000",
"6 	c #EC0000",
"7 	c #E00000",
"8 	c #D40000",
"9 	c #C80000",
"0 	c #BC0000",
"a 	c #B00000",
"b 	c #A40000",
"c 	c #980000",
"d 	c #880000",
"e 	c #7C0000",
"f 	c #700000",
"g 	c #640000",
"h 	c #580000",
"i 	c #4C0000",
"j 	c #400000",
"k 	c #FCD8D8",
"l 	c #FCB8B8",
"m 	c #FC9C9C",
"n 	c #FC7C7C",
"o 	c #FC5C5C",
"p 	c #FC4040",
"q 	c #FC2020",
"r 	c #FC0000",
"s 	c #FCA85C",
"t 	c #FC9840",
"u 	c #FC8820",
"v 	c #FC7800",
"w 	c #E46C00",
"x 	c #CC6000",
"y 	c #B45400",
"z 	c #9C4C00",
"A 	c #FCFCD8",
"B 	c #FCFCB8",
"C 	c #FCFC9C",
"D 	c #FCFC7C",
"E 	c #FCF85C",
"F 	c #FCF440",
"G 	c #FCF420",
"H 	c #FCF400",
"I 	c #E4D800",
"J 	c #CCC400",
"K 	c #B4AC00",
"L 	c #9C9C00",
"M 	c #848400",
"N 	c #706C00",
"O 	c #585400",
"P 	c #404000",
"Q 	c #D0FC5C",
"R 	c #C4FC40",
"S 	c #B4FC20",
"T 	c #A0FC00",
"U 	c #90E400",
"V 	c #80CC00",
"W 	c #74B400",
"X 	c #609C00",
"Y 	c #D8FCD8",
"Z 	c #BCFCB8",
"` 	c #9CFC9C",
" .	c #80FC7C",
"..	c #60FC5C",
"+.	c #40FC40",
"@.	c #20FC20",
"#.	c #00FC00",
"$.	c #00FC00",
"%.	c #00EC00",
"&.	c #00E000",
"*.	c #00D400",
"=.	c #04C800",
"-.	c #04BC00",
";.	c #04B000",
">.	c #04A400",
",.	c #049800",
"'.	c #048800",
").	c #047C00",
"!.	c #047000",
"~.	c #046400",
"{.	c #045800",
"].	c #044C00",
"^.	c #044000",
"/.	c #D8FCFC",
"(.	c #B8FCFC",
"_.	c #9CFCFC",
":.	c #7CFCF8",
"<.	c #5CFCFC",
"[.	c #40FCFC",
"}.	c #20FCFC",
"|.	c #00FCFC",
"1.	c #00E4E4",
"2.	c #00CCCC",
"3.	c #00B4B4",
"4.	c #009C9C",
"5.	c #008484",
"6.	c #007070",
"7.	c #005858",
"8.	c #004040",
"9.	c #5CBCFC",
"0.	c #40B0FC",
"a.	c #20A8FC",
"b.	c #009CFC",
"c.	c #008CE4",
"d.	c #007CCC",
"e.	c #006CB4",
"f.	c #005C9C",
"g.	c #D8D8FC",
"h.	c #B8BCFC",
"i.	c #9C9CFC",
"j.	c #7C80FC",
"k.	c #5C60FC",
"l.	c #4040FC",
"m.	c #2024FC",
"n.	c #0004FC",
"o.	c #0000FC",
"p.	c #0000EC",
"q.	c #0000E0",
"r.	c #0000D4",
"s.	c #0000C8",
"t.	c #0000BC",
"u.	c #0000B0",
"v.	c #0000A4",
"w.	c #000098",
"x.	c #000088",
"y.	c #00007C",
"z.	c #000070",
"A.	c #000064",
"B.	c #000058",
"C.	c #00004C",
"D.	c #000040",
"E.	c #282828",
"F.	c #FCE034",
"G.	c #FCD424",
"H.	c #FCCC18",
"I.	c #FCC008",
"J.	c #FCB400",
"K.	c #003800",
"L.	c #002800",
"M.	c #9800E4",
"N.	c #8000CC",
"O.	c #7400B4",
"P.	c #60009C",
"Q.	c #500084",
"R.	c #440070",
"S.	c #340058",
"T.	c #280040",
"U.	c #FCD8FC",
"V.	c #FCB8FC",
"W.	c #FC9CFC",
"X.	c #FC7CFC",
"Y.	c #FC5CFC",
"Z.	c #FC40FC",
"`.	c #FC20FC",
" +	c #FC00FC",
".+	c #E000E4",
"++	c #C800CC",
"@+	c #B400B4",
"#+	c #9C009C",
"$+	c #840084",
"%+	c #6C0070",
"&+	c #580058",
"*+	c #400040",
"=+	c #FCE8DC",
"-+	c #FCE0D0",
";+	c #FCD8C4",
">+	c #FCD4BC",
",+	c #FCCCB0",
"'+	c #FCC4A4",
")+	c #FCBC9C",
"!+	c #FCB890",
"~+	c #FCB080",
"{+	c #FCA470",
"]+	c #FC9C60",
"^+	c #F0945C",
"/+	c #E88C58",
"(+	c #DC8854",
"_+	c #D08050",
":+	c #C87C4C",
"<+	c #BC7848",
"[+	c #B47044",
"}+	c #A86840",
"|+	c #A0643C",
"1+	c #9C6038",
"2+	c #905C34",
"3+	c #885830",
"4+	c #80502C",
"5+	c #744C28",
"6+	c #6C4824",
"7+	c #5C4020",
"8+	c #543C1C",
"9+	c #483818",
"0+	c #403018",
"a+	c #382C14",
"b+	c #28200C",
"c+	c #600064",
"d+	c #006464",
"e+	c #006060",
"f+	c #00001C",
"g+	c #00002C",
"h+	c #302410",
"i+	c #480048",
"j+	c #500050",
"k+	c #000034",
"l+	c #1C1C1C",
"m+	c #4C4C4C",
"n+	c #5C5C5C",
"o+	c #404040",
"p+	c #303030",
"q+	c #343434",
"r+	c #D8F4F4",
"s+	c #B8E8E8",
"t+	c #9CDCDC",
"u+	c #74C8C8",
"v+	c #48C0C0",
"w+	c #20B4B4",
"x+	c #20B0B0",
"y+	c #00A4A4",
"z+	c #009898",
"A+	c #008C8C",
"B+	c #008484",
"C+	c #007C7C",
"D+	c #007878",
"E+	c #007474",
"F+	c #007070",
"G+	c #006C6C",
"H+	c #980088",
"                                                                                                                                ",
"                                                                                                                                ",
"                                                                                                                                ",
"                                                                                                                                ",
"                                                                                                                                ",
"                                                                                                                                ",
"                                                                                                                                ",
"                                                                                                                                ",
"                                                                                                                                ",
"                                                                                                                                ",
"                                                                                                                                ",
"                                                                                                                                ",
"                                                        n+< _ [                                                                 ",
"                                                      o+n+[ < ^                                                                 ",
"                                                      p+= < < ] [                                                               ",
"                                                    l+2 = [ < ^ : o+1 1                                                         ",
"                                                    4 o+o+} [ _ _ m+1 1 q+4                                                     ",
"                                              o+2 3 E.o+2 m+n+} } 2 q+2 1 1 q+3 4                                               ",
"                                            o+1 p+4 p+o+2 1 1 1 1 2 2 q+1 1 m+q+p+2                                             ",
"                                      q+o+1 o+2 o+f+o+o+p+2 o+2 q+3 m+p+2 1 1 = n+q+2 o+                                        ",
"                                4 3 q+p+o+2 p+2 2 f+1 o+3 p+2 4 E.E.2 1 l+l+o+= [ < } 2 4 [ [ n+                                ",
"                      [ m+m+= } = 1 . l+q+p+1 2 l+f+m+o+q+p+2 4 p+E.2 1 l+f+f+= = / ^ o+. / ] ] ^ :                             ",
"                      p+o+o+1 m+E.. . 1 1 2 o+E.f+f+1 o+2 p+q+l+4 4 q+2 l+l+l+E.o+n+* } f+l+_ / ] ] ^ ^                         ",
"                    3 p+q+2 1 1 . . . [ 1 o+1 E.. f+4 m+q+q+2 E.4 4 q+3 l+f+l+E.E.o+1 p+f+f+n+} n+= < _ < 1                     ",
"                  m+m+2 2 2 2 l+. . n+p+E.p+4 . l+l+f+1 p+p+o+p+p+E.2 3 l+. 4 4 2 4 2 4 f+f+E.p+4 4 4 E.E.1 4                   ",
"                  4 o+1 2 q+E.f+. . E.4 3 q+4 l+l+l+f+2 p+4 3 3 p+p+2 2 l+. 4 4 4 p+q+3 f+f+l+q+2 2 3 p+o+o+1                   ",
"                l+4 p+2 o+2 l+. . . 4 E.E.4 f+4 . f+f+4 3 l+4 4 4 4 p+2 l+. 4 4 l+l+p+E.l+f+l+2 2 2 2 2 E.l+4                   ",
"                l+l+4 p+1 1 . . . . . 4 4 . . f+f+. f+l+3 l+l+l+4 l+4 E.f+. 8+l+4 f+l+E.f+f+. E.E.3 E.4 4 4 4 l+                ",
"                f+l+l+4 p+f+. . . . . . . . . . . . f+f+l+p+E.4 4 l+4 f+. . 7+= f+. . l+f+f+. . l+4 4 4 l+. f+f+                ",
"                . f+l+4 E.. . . . . . . . . . . . . f+f+. . E.q+p+E.4 f+. . 8+m+. . . l+f+l+. . l+l+l+4 f+f+f+f+                ",
"                  . f+l+l+. . . . . . . . . . . . = . . . . 4 4 E.E.l+f+. 4 j 0+. . . f+f+f+. . l+l+l+f+f+f+f+f+                ",
"                    f+f+l+f+f+. . . . . . . . . . 2 . . . . l+l+l+f+. . l+a+b+b+. . . f+f+l+. . . . l+l+f+f+f+. .               ",
"                      f+f+. . . . . 4 . l+. . . . . 6+0+j . . . . f+. l+a+j j . . f+l+f+f+f+. . . f+l+l+l+f+l+. .               ",
"                      o+. . f+f+. l+E.E.4 l+. . . . h+0+b+h+b+. . l+l+l+h+b+h+f+l+f+f+f+f+f+. . . l+l+l+l+l+l+. .               ",
"                    p+p+. . f+l+f+l+j . l+4 . . . . . a+j l+j . l+b+l+j a+h+0+f+l+f+. . f+f+. . . l+l+l+l+l+l+. .               ",
"                  2 o+2 q+l+f+l+b+l+. 4 l+j . . . . . . j 4 b+0+a+0+0+0+p+4 E.. . . E.l+f+f+. . . f+. . l+l+f+. .               ",
"                  E.2 o+E.4 3 h+2 p+4 3 4         h+l+. j 4 4 7+o+a+h+j 3 . . b+7+4 3 4 . l+f+. . . . . l+. . . .               ",
"                  q+4 2 o+< q+o+l+q+1 4 j         4 p+l+. h+b+. . . . 4 l+. l+l+= E.4 l+. . . . . . . . l+f+l+4                 ",
"                6+= } E.3 9+p+1 o+= p+E.2         E.p+q+4 . 8+0+l+b+8+o+2 b+l+l+4 4 8+l+. . b+. . . . . l+b+j l+                ",
"                0+2 2 m+n+3 o+l+l+o+l+4 E.      4 2 3 0+p+h+p+7+0+0+h+l+4 3 l+4 E.4 b+f+. . . 4 b+. j b+. b+j h+l+              ",
"              1 h+3 2 3 o+1 } E.l+E.4 4 4       p+1 p+9+a+5+h+4 2 0+l+E.l+l+8+4 4 4 4 . l+4 l+. 4 4 0+4 4 l+b+6+7+              ",
"              h+8+p+m+2 E.m+q+m+o+m+7+p+l+      3 q+6+E.q+q+b+h+a+E.4 b+l+E.3 p+b+b+b+= m+o+. . . l+b+l+4 4 4 7+3+6+            ",
"                h+h+= q+3 4 4 b+4+6+p+q+l+      l+h+8+4 q+4 b+b+l+4 8+a+l+l+l+0+p+E.8+6+o+2 l+. l+. . 4 l+4 l+0+m+7+            ",
"                0+4 q+p+l+o+p+0+b+a+l+l+l+      4 4 4 9+a+4 4 4 4 . 4 b+l+l+l+l+p+E.o+m+b+b+E.. . . . l+4 4 0+0+E.1             ",
"              4+l+q+. 2 . o+0+4 l+h+l+l+l+      3 4 l+h+4 4 4 4 l+l+l+3 . l+f+3 3 4 E.3 4 3 E.j 4 4 E.4 4 4 0+6+4 o+3+          ",
"              8+4 q+. 1 . 2 a+l+j l+j l+l+      p+l+h+4 4 l+4 b+j j l+j   l+f+4 l+l+m+3 E.4 h+h+4 4 p+h+8+l+. E.8+3 5+          ",
"              p+E.3 1 p+l+4 4 h+l+h+h+4           4 . l+4 4 4 l+4 l+0+4   2 . . . l+3 1 E.4 l+9+a+a+E.h+8+a+4 3 2 0+o+          ",
"            5+7+E.E.1 4 l+4 4 a+8+E.4 l+          l+b+l+4 . l+l+h+4 8+h+    . . . l+l+4 l+f+f+8+9+9+9+p+l+3 o+p+b+7+2 4+        ",
"            0+1 l+p+1 l+l+l+h+9+1 E.l+            . . l+l+l+4 . j 4 h+j       . . . 4 f+l+f+f+4 8+q+8+9+q+4 . . 2 p+0+5+        ",
"          m+8+7+E.1 l+. 4 l+4 b+4 4               . . l+. . . . . 4 4           . l+l+4 l+. f+8+7+8+7+0+p+E.l+l+o+o+h+6+        ",
"          p+5+8+l+< . . 4 . j a+2 E.              . . l+4 l+. . . a+8+            l+l+l+f+. l+  h+o+7+9+0+2 1 m+p+2 8+6+        ",
"        2 3+1 7+p+2 . 4 b+0+9+0+0+3               . . l+4 f+. . h+4 .                 l+l+f+l+    8+0+3 9+h+2 q+l+a+o+4         ",
"        p+3 4+1 2 4 . 3 0+7+j a+0+4               . . l+4 . . . 9+4 6+a+                4 l+      0+9+h+4 b+E.l+l+3 o+l+        ",
"        3 n+3+2 = l+p+E.8+h+8+l+4 E.              . . . 4 l+. 4 6+a+5+2                             h+a+4 . 4 2 1 3 l+.         ",
"        E.n+4 } 4 3 4 l+a+3 h+l+4 q+              . . l+o+0+7+E.|+l+3 1 p+                            b+4 . l+l+4 l+l+.         ",
"        q+2 o+p+l+2 l+b+6+0+9+2 p+4               4 q+q+1 7+2 5+8+l+b+6+2                             . l+l+l+l+l+l+. b+        ",
"        m+2 5+m+p+3     l+1 4 . 4               4 a+l+2 q+6+n+5+4 q+0+0+1 4                             . . . 4 l+l+. .         ",
"        o+5+2 q+1 l+    m+n+4 3 b+            2 b+4 q+< : n+1 9+l+4 2 3 6+2+6+                          . . . . . . . l+        ",
"        o+= 1 q+p+l+    o+4 . E.              2 p+o+} ^ : } 7+8+p+4 4 } 9+6+7+                              . . j j . l+        ",
"        p+m+2 o+l+      n+4 l+p+            4 n+o+n+< ^ : q+7+0+E.l+l+2 4+0+o+                              p+. l+b+. 4         ",
"          3 . q+      < o+l+4               4 2 n+< < ^ n+p+3 E.4 f+l+l+                                          j .           ",
"            l+        1 l+                    o+[ < _ ^ m+2 3 4 f+l+l+                                                          ",
"                    1 E.l+                        < ^ / 1 4 E.l+4 l+                                                            ",
"                                                      : 3 4 E.4                                                                 "};
