/* XPM */
static char * die2A_xpm[] = {
"64 64 257 2",
"  	c None",
". 	c #000000",
"+ 	c #0000A8",
"@ 	c #00A800",
"# 	c #00A8A8",
"$ 	c #A80000",
"% 	c #A800A8",
"& 	c #A85400",
"* 	c #A8A8A8",
"= 	c #545454",
"- 	c #5454FC",
"; 	c #54FC54",
"> 	c #54FCFC",
", 	c #FC5454",
"' 	c #FC54FC",
") 	c #FCFC54",
"! 	c #FCFCFC",
"~ 	c #ECECEC",
"{ 	c #DCDCDC",
"] 	c #D0D0D0",
"^ 	c #C0C0C0",
"/ 	c #B4B4B4",
"( 	c #A8A8A8",
"_ 	c #989898",
": 	c #8C8C8C",
"< 	c #7C7C7C",
"[ 	c #707070",
"} 	c #646464",
"| 	c #545454",
"1 	c #484848",
"2 	c #383838",
"3 	c #2C2C2C",
"4 	c #202020",
"5 	c #FC0000",
"6 	c #EC0000",
"7 	c #E00000",
"8 	c #D40000",
"9 	c #C80000",
"0 	c #BC0000",
"a 	c #B00000",
"b 	c #A40000",
"c 	c #980000",
"d 	c #880000",
"e 	c #7C0000",
"f 	c #700000",
"g 	c #640000",
"h 	c #580000",
"i 	c #4C0000",
"j 	c #400000",
"k 	c #FCD8D8",
"l 	c #FCB8B8",
"m 	c #FC9C9C",
"n 	c #FC7C7C",
"o 	c #FC5C5C",
"p 	c #FC4040",
"q 	c #FC2020",
"r 	c #FC0000",
"s 	c #FCA85C",
"t 	c #FC9840",
"u 	c #FC8820",
"v 	c #FC7800",
"w 	c #E46C00",
"x 	c #CC6000",
"y 	c #B45400",
"z 	c #9C4C00",
"A 	c #FCFCD8",
"B 	c #FCFCB8",
"C 	c #FCFC9C",
"D 	c #FCFC7C",
"E 	c #FCF85C",
"F 	c #FCF440",
"G 	c #FCF420",
"H 	c #FCF400",
"I 	c #E4D800",
"J 	c #CCC400",
"K 	c #B4AC00",
"L 	c #9C9C00",
"M 	c #848400",
"N 	c #706C00",
"O 	c #585400",
"P 	c #404000",
"Q 	c #D0FC5C",
"R 	c #C4FC40",
"S 	c #B4FC20",
"T 	c #A0FC00",
"U 	c #90E400",
"V 	c #80CC00",
"W 	c #74B400",
"X 	c #609C00",
"Y 	c #D8FCD8",
"Z 	c #BCFCB8",
"` 	c #9CFC9C",
" .	c #80FC7C",
"..	c #60FC5C",
"+.	c #40FC40",
"@.	c #20FC20",
"#.	c #00FC00",
"$.	c #00FC00",
"%.	c #00EC00",
"&.	c #00E000",
"*.	c #00D400",
"=.	c #04C800",
"-.	c #04BC00",
";.	c #04B000",
">.	c #04A400",
",.	c #049800",
"'.	c #048800",
").	c #047C00",
"!.	c #047000",
"~.	c #046400",
"{.	c #045800",
"].	c #044C00",
"^.	c #044000",
"/.	c #D8FCFC",
"(.	c #B8FCFC",
"_.	c #9CFCFC",
":.	c #7CFCF8",
"<.	c #5CFCFC",
"[.	c #40FCFC",
"}.	c #20FCFC",
"|.	c #00FCFC",
"1.	c #00E4E4",
"2.	c #00CCCC",
"3.	c #00B4B4",
"4.	c #009C9C",
"5.	c #008484",
"6.	c #007070",
"7.	c #005858",
"8.	c #004040",
"9.	c #5CBCFC",
"0.	c #40B0FC",
"a.	c #20A8FC",
"b.	c #009CFC",
"c.	c #008CE4",
"d.	c #007CCC",
"e.	c #006CB4",
"f.	c #005C9C",
"g.	c #D8D8FC",
"h.	c #B8BCFC",
"i.	c #9C9CFC",
"j.	c #7C80FC",
"k.	c #5C60FC",
"l.	c #4040FC",
"m.	c #2024FC",
"n.	c #0004FC",
"o.	c #0000FC",
"p.	c #0000EC",
"q.	c #0000E0",
"r.	c #0000D4",
"s.	c #0000C8",
"t.	c #0000BC",
"u.	c #0000B0",
"v.	c #0000A4",
"w.	c #000098",
"x.	c #000088",
"y.	c #00007C",
"z.	c #000070",
"A.	c #000064",
"B.	c #000058",
"C.	c #00004C",
"D.	c #000040",
"E.	c #282828",
"F.	c #FCE034",
"G.	c #FCD424",
"H.	c #FCCC18",
"I.	c #FCC008",
"J.	c #FCB400",
"K.	c #003800",
"L.	c #002800",
"M.	c #9800E4",
"N.	c #8000CC",
"O.	c #7400B4",
"P.	c #60009C",
"Q.	c #500084",
"R.	c #440070",
"S.	c #340058",
"T.	c #280040",
"U.	c #FCD8FC",
"V.	c #FCB8FC",
"W.	c #FC9CFC",
"X.	c #FC7CFC",
"Y.	c #FC5CFC",
"Z.	c #FC40FC",
"`.	c #FC20FC",
" +	c #FC00FC",
".+	c #E000E4",
"++	c #C800CC",
"@+	c #B400B4",
"#+	c #9C009C",
"$+	c #840084",
"%+	c #6C0070",
"&+	c #580058",
"*+	c #400040",
"=+	c #FCE8DC",
"-+	c #FCE0D0",
";+	c #FCD8C4",
">+	c #FCD4BC",
",+	c #FCCCB0",
"'+	c #FCC4A4",
")+	c #FCBC9C",
"!+	c #FCB890",
"~+	c #FCB080",
"{+	c #FCA470",
"]+	c #FC9C60",
"^+	c #F0945C",
"/+	c #E88C58",
"(+	c #DC8854",
"_+	c #D08050",
":+	c #C87C4C",
"<+	c #BC7848",
"[+	c #B47044",
"}+	c #A86840",
"|+	c #A0643C",
"1+	c #9C6038",
"2+	c #905C34",
"3+	c #885830",
"4+	c #80502C",
"5+	c #744C28",
"6+	c #6C4824",
"7+	c #5C4020",
"8+	c #543C1C",
"9+	c #483818",
"0+	c #403018",
"a+	c #382C14",
"b+	c #28200C",
"c+	c #600064",
"d+	c #006464",
"e+	c #006060",
"f+	c #00001C",
"g+	c #00002C",
"h+	c #302410",
"i+	c #480048",
"j+	c #500050",
"k+	c #000034",
"l+	c #1C1C1C",
"m+	c #4C4C4C",
"n+	c #5C5C5C",
"o+	c #404040",
"p+	c #303030",
"q+	c #343434",
"r+	c #D8F4F4",
"s+	c #B8E8E8",
"t+	c #9CDCDC",
"u+	c #74C8C8",
"v+	c #48C0C0",
"w+	c #20B4B4",
"x+	c #20B0B0",
"y+	c #00A4A4",
"z+	c #009898",
"A+	c #008C8C",
"B+	c #008484",
"C+	c #007C7C",
"D+	c #007878",
"E+	c #007474",
"F+	c #007070",
"G+	c #006C6C",
"H+	c #980088",
"                                                                                                                                ",
"                                                                                                                                ",
"                                                                                                                                ",
"                                                                                                                                ",
"                                                                                                                                ",
"                                                                                                                                ",
"                                                                                                                                ",
"                                                                                                                                ",
"                                                                                                                                ",
"                                                                                                                                ",
"                                                                                                                                ",
"                                                                                                                                ",
"                                                                                                                                ",
"                                                                                                                                ",
"                                                                                                                                ",
"                                                                                                                                ",
"                                                                                                                                ",
"                                                                                                                                ",
"                                                                                                                                ",
"                                                                                                                                ",
"                                                                                                                                ",
"                                                                                                                                ",
"                                                                                                                                ",
"                                                                                                                                ",
"                                                                                                                                ",
"                                                                                                                                ",
"                                                                                                                                ",
"                                                                                                                                ",
"                                                                                                                                ",
"                                                                                                                                ",
"                                                                                                                                ",
"                                                          2 m+m+m+o+p+2                                                         ",
"                                                        4 o+1 = = = q+2 2 .                                                     ",
"                                                      4 4 p+1 2 < } = 3 p+2 .                                                   ",
"                                                2 E.3 o+3 p+o+m+: _ [ 2 l+q+E.. . .                                             ",
"                                            o+q+p+o+m+2 E.o+2 = * * < 1 . l+p+2 4 l+l+.                                         ",
"                                      2 2 2 2 2 1 1 q+3 o+2 1 } * / * } 3 l+E.p+o+2 p+3 l+l+l+                                  ",
"                        3 f+f+4     2 2 o+2 o+o+2 2 p+4 n+2 = [ _ / { : o+4 4 p+p+o+q+p+2 o+3 4 l+                              ",
"                      2 q+2 3 l+4 2 p+2 2 n+1 m+2 2 . o+o+o+n+[ < _ { ^ } f+4 p+p+2 o+2 2 2 o+o+4 4                             ",
"                    } = 1 1 o+p+p+3 p+1 m+1 1 1 2 4 . < 2 o+} [ < _ { { < l+f+4 2 2 2 2 o+o+l+2 2 o+o+q+                        ",
"                  2 p+o+1 = n+1 o+2 p+E.1 o+m+2 4 . . < 2 o+= [ < _ { { _ . . l+3 2 2 2 2 m+. o+= = m+1 o+3 o+                  ",
"                  2 2 q+o+o+o+= n+1 2 l+= m+= 2 . . . [ q+2 n+< < _ { { _ . . l+l+p+m+o+1 m+. [ { ] * < _ * } E.                ",
"                = : E.2 o+1 1 o+1 m+4 2 = 2 p+2 . . . m+2 o+= < < < * ^ : . . l+l+4 3 m+= = . . / / * / ] { ] } 4               ",
"              l+o+} p+q+2 m+n+= = 4 . n+= m+q+2 . . . 2 2 o+m+[ < < < * < . . . l+E.p+o+= = . . : * ^ { ] : [ o+o+              ",
"              l+l+o+E.p+2 1 n+} } l+. E.3 4 4 o+2 . . E.2 1 1 } < [ [ [ n+. . l+p+4 4 4 q+3 . . : _ : } o+3 3 o+p+2             ",
"              l+f+l+= q+p+2 1 = . . . l+4 4 E.3 1 3 . p+2 2 o+= } n+= m+4 . . 4 4 4 4 p+4 E.l+. 3 q+E.4 p+q+2 E.4 l+            ",
"              l+l+l+4 o+q+2 2 l+l+. . l+3 p+E.l+p+3 . q+q+2 o+= } = m+o+4 . . 4 4 4 2 E.E.p+l+. . 4 p+p+q+2 E.4 4 l+            ",
"                . 4 l+o+q+q+p+l+f+. . l+4 l+l+l+l+l+f+4 2 2 2 m+m+1 2 q+. . l+4 E.q+E.l+l+E.l+. . 2 q+q+3 4 4 l+l+. f+          ",
"              E.q+3 4 4 1 q+. . . . . . . . . f+l+l+4 l+p+q+q+2 2 2 q+4 . . 0+5+E.4 l+. . l+. . . l+3 4 4 l+l+. . f+.           ",
"              4 4 3 l+4 2 m+l+. . . . . . . . . l+n+4 4 o+m+q+o+o+3 p+4 . . 9+_ _ . . . . 4 . . f+. 4 4 l+l+f+. f+. .           ",
"            m+p+b+E.E.l+4 . l+f+. l+E.l+. . . . . o+. E.1 = o+2 3 4 E.4 l+l+6+< . . . . . . . . . . l+l+l+l+l+l+. . .           ",
"            E.E.j l+. . . . . . . . l+E.. . . . . l+l+. . . . l+4 4 4 4 . 0+7+0+. . . . f+. f+. . . . l+f+l+l+. . . .           ",
"            m+b+E.4 l+l+l+2 E.l+l+4 . .     . . . . 8+i . . . 4 p+E.4 E.l+. 7+. . . . l+l+. f+f+. . . . l+l+l+f+. l+            ",
"            l+9+l+l+3 . l+b+h+q+E.l+.             . 4 b+h+0+b+. 4 4 b+b+h+h+h+4 4 l+l+l+. f+. f+. . . . . . l+l+l+1             ",
"            E.= l+3 o+. . . . . j l+              p+l+b+. p+. f+l+. j l+. 0+  4 4 E.4 . .   0+. . . . . . . b+j 4 2             ",
"            p+0+E.2 . . . . . l+b+4             l+l+o+b+a+j l+a+0+a+b+b+h+j     4 l+E.l+.   0+. . . . . . 4 l+a+E.2             ",
"            4 o+o+4 . . l+b+j . l+b+        = o+4 E.4 l+E.a+E.0+a+l+3 E.h+j         4 4       0+b+. . l+b+b+l+h+a+9+            ",
"            l+2 m+l+l+. 4 . j l+4         2 3 E.m+= 4 p+3 7+1 o+l+b+0+l+f+                      4 l+l+b+b+4 . b+4 q+            ",
"              = 4 . . j h+b+. l+l+        4 o+< [ q+p+o+2 n+= o+E.. . a+f+                      8+4 4 4 4 4 l+l+E.l+            ",
"              3 l+l+    n+2 . l+            2 = p+2 2 2 2 4+2 l+l+. j 4 = [                       l+4 l+l+l+. . p+4             ",
"                2 .   } 2 . .               l+E.q+p+q+3 3 2 4 l+a+. 4 4 l+h+                        j b+b+l+4 4 . 4             ",
"                                            l+2 2 p+E.E.p+4 l+l+0+. j 8+                              j b+. . l+4 .             ",
"                                              2 p+p+l+3 E.l+. . .                                       . . l+l+. .             ",
"                                                  4 4 3 4 f+. .                                           . . . .               "};
