/* XPM */
static char * front2A_xpm[] = {
"64 64 257 2",
"  	c None",
". 	c #000000",
"+ 	c #0000A8",
"@ 	c #00A800",
"# 	c #00A8A8",
"$ 	c #A80000",
"% 	c #A800A8",
"& 	c #A85400",
"* 	c #A8A8A8",
"= 	c #545454",
"- 	c #5454FC",
"; 	c #54FC54",
"> 	c #54FCFC",
", 	c #FC5454",
"' 	c #FC54FC",
") 	c #FCFC54",
"! 	c #FCFCFC",
"~ 	c #ECECEC",
"{ 	c #DCDCDC",
"] 	c #D0D0D0",
"^ 	c #C0C0C0",
"/ 	c #B4B4B4",
"( 	c #A8A8A8",
"_ 	c #989898",
": 	c #8C8C8C",
"< 	c #7C7C7C",
"[ 	c #707070",
"} 	c #646464",
"| 	c #545454",
"1 	c #484848",
"2 	c #383838",
"3 	c #2C2C2C",
"4 	c #202020",
"5 	c #FC0000",
"6 	c #EC0000",
"7 	c #E00000",
"8 	c #D40000",
"9 	c #C80000",
"0 	c #BC0000",
"a 	c #B00000",
"b 	c #A40000",
"c 	c #980000",
"d 	c #880000",
"e 	c #7C0000",
"f 	c #700000",
"g 	c #640000",
"h 	c #580000",
"i 	c #4C0000",
"j 	c #400000",
"k 	c #FCD8D8",
"l 	c #FCB8B8",
"m 	c #FC9C9C",
"n 	c #FC7C7C",
"o 	c #FC5C5C",
"p 	c #FC4040",
"q 	c #FC2020",
"r 	c #FC0000",
"s 	c #FCA85C",
"t 	c #FC9840",
"u 	c #FC8820",
"v 	c #FC7800",
"w 	c #E46C00",
"x 	c #CC6000",
"y 	c #B45400",
"z 	c #9C4C00",
"A 	c #FCFCD8",
"B 	c #FCFCB8",
"C 	c #FCFC9C",
"D 	c #FCFC7C",
"E 	c #FCF85C",
"F 	c #FCF440",
"G 	c #FCF420",
"H 	c #FCF400",
"I 	c #E4D800",
"J 	c #CCC400",
"K 	c #B4AC00",
"L 	c #9C9C00",
"M 	c #848400",
"N 	c #706C00",
"O 	c #585400",
"P 	c #404000",
"Q 	c #D0FC5C",
"R 	c #C4FC40",
"S 	c #B4FC20",
"T 	c #A0FC00",
"U 	c #90E400",
"V 	c #80CC00",
"W 	c #74B400",
"X 	c #609C00",
"Y 	c #D8FCD8",
"Z 	c #BCFCB8",
"` 	c #9CFC9C",
" .	c #80FC7C",
"..	c #60FC5C",
"+.	c #40FC40",
"@.	c #20FC20",
"#.	c #00FC00",
"$.	c #00FC00",
"%.	c #00EC00",
"&.	c #00E000",
"*.	c #00D400",
"=.	c #04C800",
"-.	c #04BC00",
";.	c #04B000",
">.	c #04A400",
",.	c #049800",
"'.	c #048800",
").	c #047C00",
"!.	c #047000",
"~.	c #046400",
"{.	c #045800",
"].	c #044C00",
"^.	c #044000",
"/.	c #D8FCFC",
"(.	c #B8FCFC",
"_.	c #9CFCFC",
":.	c #7CFCF8",
"<.	c #5CFCFC",
"[.	c #40FCFC",
"}.	c #20FCFC",
"|.	c #00FCFC",
"1.	c #00E4E4",
"2.	c #00CCCC",
"3.	c #00B4B4",
"4.	c #009C9C",
"5.	c #008484",
"6.	c #007070",
"7.	c #005858",
"8.	c #004040",
"9.	c #5CBCFC",
"0.	c #40B0FC",
"a.	c #20A8FC",
"b.	c #009CFC",
"c.	c #008CE4",
"d.	c #007CCC",
"e.	c #006CB4",
"f.	c #005C9C",
"g.	c #D8D8FC",
"h.	c #B8BCFC",
"i.	c #9C9CFC",
"j.	c #7C80FC",
"k.	c #5C60FC",
"l.	c #4040FC",
"m.	c #2024FC",
"n.	c #0004FC",
"o.	c #0000FC",
"p.	c #0000EC",
"q.	c #0000E0",
"r.	c #0000D4",
"s.	c #0000C8",
"t.	c #0000BC",
"u.	c #0000B0",
"v.	c #0000A4",
"w.	c #000098",
"x.	c #000088",
"y.	c #00007C",
"z.	c #000070",
"A.	c #000064",
"B.	c #000058",
"C.	c #00004C",
"D.	c #000040",
"E.	c #282828",
"F.	c #FCE034",
"G.	c #FCD424",
"H.	c #FCCC18",
"I.	c #FCC008",
"J.	c #FCB400",
"K.	c #003800",
"L.	c #002800",
"M.	c #9800E4",
"N.	c #8000CC",
"O.	c #7400B4",
"P.	c #60009C",
"Q.	c #500084",
"R.	c #440070",
"S.	c #340058",
"T.	c #280040",
"U.	c #FCD8FC",
"V.	c #FCB8FC",
"W.	c #FC9CFC",
"X.	c #FC7CFC",
"Y.	c #FC5CFC",
"Z.	c #FC40FC",
"`.	c #FC20FC",
" +	c #FC00FC",
".+	c #E000E4",
"++	c #C800CC",
"@+	c #B400B4",
"#+	c #9C009C",
"$+	c #840084",
"%+	c #6C0070",
"&+	c #580058",
"*+	c #400040",
"=+	c #FCE8DC",
"-+	c #FCE0D0",
";+	c #FCD8C4",
">+	c #FCD4BC",
",+	c #FCCCB0",
"'+	c #FCC4A4",
")+	c #FCBC9C",
"!+	c #FCB890",
"~+	c #FCB080",
"{+	c #FCA470",
"]+	c #FC9C60",
"^+	c #F0945C",
"/+	c #E88C58",
"(+	c #DC8854",
"_+	c #D08050",
":+	c #C87C4C",
"<+	c #BC7848",
"[+	c #B47044",
"}+	c #A86840",
"|+	c #A0643C",
"1+	c #9C6038",
"2+	c #905C34",
"3+	c #885830",
"4+	c #80502C",
"5+	c #744C28",
"6+	c #6C4824",
"7+	c #5C4020",
"8+	c #543C1C",
"9+	c #483818",
"0+	c #403018",
"a+	c #382C14",
"b+	c #28200C",
"c+	c #600064",
"d+	c #006464",
"e+	c #006060",
"f+	c #00001C",
"g+	c #00002C",
"h+	c #302410",
"i+	c #480048",
"j+	c #500050",
"k+	c #000034",
"l+	c #1C1C1C",
"m+	c #4C4C4C",
"n+	c #5C5C5C",
"o+	c #404040",
"p+	c #303030",
"q+	c #343434",
"r+	c #D8F4F4",
"s+	c #B8E8E8",
"t+	c #9CDCDC",
"u+	c #74C8C8",
"v+	c #48C0C0",
"w+	c #20B4B4",
"x+	c #20B0B0",
"y+	c #00A4A4",
"z+	c #009898",
"A+	c #008C8C",
"B+	c #008484",
"C+	c #007C7C",
"D+	c #007878",
"E+	c #007474",
"F+	c #007070",
"G+	c #006C6C",
"H+	c #980088",
"                                                                                                                                ",
"                                                                                                                                ",
"                                                                E.p+p+p+p+                                                      ",
"                                                              p+3 4 E.3 3 2                                                     ",
"                                                            . l+E.E.l+l+f+l+l+                                                  ",
"                                                          . . f+4 f+f+f+f+. . E.        . f+3 4 p+2 p+                          ",
"                                                          . . . . f+f+l+. . . l+      . . . l+l+l+E.q+2                         ",
"                                                        . 0+a+b+b+l+l+l+a+4 9+. l+  . . . . . l+l+l+E.p+2                       ",
"                                        2 2 E.f+l+  o+l+. h+j 0+. c 5 c 0+j j . . l+p+1 . l+. f+l+l+4 l+4 E.                    ",
"                                  2 q+3 4 E.. f+l+E.p+l+. b+0+0+E.j 7+l+0+E.j 6+. 4 l+E.E.. . . l+l+f+f+l+f+                    ",
"                                2 p+E.l+4 . . . l+E.4 4 [+8+h+q+a+a+0+b+q+. h+6+[+l+l+l+4 f+. . . f+l+. f+f+f+                  ",
"                              p+E.E.l+l+4 . . 3 4 f+l+l+0+0+0+} _ . . . _ } 0+0+8+l+l+l+l+l+. . . . . . . . .                   ",
"                              l+l+4 4 l+l+. . l+f+f+f+f+l+h+a+0+= = a+= n+8+9+. l+l+f+f+l+l+f+. . . . . . . . .                 ",
"                            . . . . f+l+. . . . l+. f+f+f+j }+o+[+< 6+m+3+6+0+l+l+f+f+l+l+. f+. . . . . . . . .                 ",
"                          . . . . . f+. . . . f+. . . . f+l+. f+4 a+h+l+4 l+b+. . . . f+l+. . . . . . . . . . .                 ",
"                          . . . . . . . . . . f+f+. . . . f+. f+f+f+f+. f+f+. . . . . . . . . . . . . . . . . .                 ",
"                          . . . . . . . . . . . . . . . . . . l+4 b+l+l+l+4 . . . . . . . . . . . . . . . . . . .               ",
"                          . . . . . . . . . . . . . . . . f+E.0+7+E.E.2 9+E.b+l+. . . . . . . . . . . . . . . . .               ",
"                        . . . . . . . . . . . . . . . . p+l+j h+8+7+l+l+p+E.l+E.E.l+. . . 4 . . . . . . . . . . .               ",
"                        . . . . . . . . . f+. . . l+4 . p+4 0+0+7+7+4 0+8+E.0+E.E.. . . . h+f+f+. . . . . . . . .               ",
"                        . . . . . . . . . . . . . b+j l+l+4 7+7+7+3+h+3+8+7+0+l+l+h+j j j b+. . . . . . . l+4 0+                ",
"                        . . . . . . . . . . . h+E.h+j 0+9+9+7+6+3+9+l+0+3+7+8+2 7+0+j h+h+j . a+0+j j h+l+h+j 6+                ",
"                        . . . . . . . . . f+l+0+8+8+a+9+p+7+4+< l+m+E.= 9+[+5+7+0+9+E.0+7+  j b+7+0+j a+2 E.9+5+E.              ",
"                          0+0+b+j . 8+0+9+0+.   E.0+0+2 8+m+8+0+5+7+7+8+5+1 o+5+7+9+0+a+0+  j b+o+7+0+0+. j a+7+E.              ",
"                          6+9+3 q+8+0+a+8+j b+    E.j b+l+E.l+8+|+[+7+8+2+4+0+l+E.j j E.      j E.1 7+9+4 p+0+6+3               ",
"                        o+5+8+9+9+7+0+8+h+. j     l+l+l+E.4 j 7+_ [+= l+5+|+4 j h+l+l+l+      j l+l+h+p+9+. p+6+8+0+            ",
"                        o+5+8+E.. 7+0+8+h+.       o+3 E.8+0+4+6+6+8+7+8+0+7+1 7+8+p+3 p+      j . 0+o+7+7+6+o+9+0+o+            ",
"                        7+6+8+o+o+8+7+7+b+l+          3 7+1 p+a+l+l+l+l+l+l+h+E.o+0+o+        j j 7+1 7+7+. . . m+0+2           ",
"                      2 l+q+= 2 4 E.8+0+j j           2 1 3 h+E.4 0+l+l+a+2 h+b+n+o+o+        h+7+= 5+1 2 1 1 2 2 8+o+          ",
"                      E.. 7+E.p+o+n+= . b+          E.2 } a+|+|+0+7+. l+1 3+3+a+o+5+E.2       a+6+5+5+7+q+} 3 n+2 0+E.n+        ",
"                      q+3 o+} 2 1 < 2 q+3           f+5+1 l+0+5+7+6+l+4 4+3+7+4 4 m+. l+      a+5+2+3+5+m+l+. j o+1 E.7+        ",
"                    6+2 2 1 2 3 E._ o+n+o+          f+0+} . j . l+7+0+6+0+l+. . E.1+f+l+      0+5+4+7+7+9+o+o+8+9+8+p+7+        ",
"                  7+8+6+1 2 < p+1 3 1 = p+<         . h+3+2 3+5+1 b+0+7+a+6+4+7+p+3+. f+        7+6+6+m+h+l+E.p+E.2 8+7+        ",
"                  8+E.7+E.1 E.q+n+p+5+5+0+2         f+. l+b+E.} }+l+0+7+5+[ 1 E.j 4 p+2         8+6+6+8+E.E.E.4 . 2 9+7+        ",
"                  7+6+p+o+4 < q+[ E.5+7+7+q+        3 p+l+E.l+. 0+0+7+0+j 8+h+. 3 a+f+f+f+        7+7+E.4 E.h+. j l+p+j         ",
"                  7+6+p+[ 4 _ . m+p+q+0+2 E.      2 q+0+p+l+7+2 h+4 a+a+. 4 3 6+0+4 p+q+E.        8+0+h+l+. b+b+b+b+. .         ",
"                o+3 2 1 m+m+[ 4 o+p+1 p+2 l+    4 o+o+2 p+p+p+6+= o+l+l+l+7+6+5+b+8+2 7+2           b+. l+E.9+j l+b+l+.         ",
"                b+3+5+p+l+1 p+4 E.2 p+7+a+4     E.7+8+9+q+E.1 a+o+q+4 E.. 4 3 . 7+9+9+7+2           j . h+l+7+8+j 8+h+l+        ",
"                [ e m+. E.} l+4 o+o+2+7+E.2     m+a+7+E.p+7+5+9+. f+l+4 p+E.. 7+5+p+8+8+9+n+        j . 4 4 9+6+j 8+b+0+        ",
"                m+4+6+8+o+= . 2 b+0+o+n+2 4   o+3 l+0+a+a+1 8+0+4 l+E.4 3 E.l+3 7+7+9+8+3 q+          j 3 E.0+4+a+a+j           ",
"                p+q+7+1 n+: 2 2 4+c 0+m+3     2 b+0+E.a+7+8+p+E.j E.2 4 l+E.4 h+3 8+7+7+E.o+            3 h+h+0+j a+j           ",
"              m+o+7+6+[ q+p+[ p+m+[ 8+= 3     o+E.8+9+p+3 l+b+l+E.h+l+2   b+h+E.0+0+a+h+b+m+            j E.q+p+E.b+            ",
"            m+2 [ 2+[+[ [ = m+p+E.2+6+7+o+    l+h+a+9+l+a+j a+            l+h+. b+4 E.b+h+l+              E.h+4 . .             ",
"            } }+o+2 c 7+n+m+2 b+* [+h+4+l+    E.h+4 . . l+l+              . j h+E.0+h+E.l+o+                  h+j               ",
"            E.} : l+0+} 3 } 4 j 4+6+5+3+2   4 4 l+. . . . .               l+j b+h+3 E.0+4 q+                                    ",
"          m+4 < ] 3 j l+l+2 . . E.o+< E.o+  l+l+f+. f+. . .               l+l+b+j 4 h+E.j 2                                     ",
"          1 p+: _ l+  o+p+E.p+b+. = < 4 1   4 f+f+. . . . . .             E.. j l+4 E.4 h+l+                                    ",
"          l+3 2 _     l+p+l+l+l+  ! 2 2 1 4 E.. f+. . . . . .               . . b+. . f+f+                                      ",
"            2 3 <       . l+j   * m+3 2 a+l+q+1 9+1 9+E.l+l+o+              . . . . . f+f+.                                     ",
"            l+j 2             ] o+E.q+j   E.2 4 o+8+2 2 l+2 [             . . . . . . . f+f+.                                   ",
"                l+m+          p+h+l+j     q+l+q+0+E.E.p+E.l+o+            . . . . . . . f+. .                                   ",
"                                        h+E.2 2 4+n+3 3 E.. .             . . . 4 . 2 2 2 . . .                                 ",
"                                      [ m+n+E.3 l+. l+3 E.l+f+            . . 3 3 2 o+7+= 2 2 p+                                ",
"                                    [ : n+p+3 f+. f+. . . . l+l+          . 3 l+2 q+E.9+p+3 2 q+                                ",
"                                    : n+p+E.l+. . . . . . . . l+            E.l+0+q+n+= 2 3 3 4                                 ",
"                                    1 E.4 E.4 . . . . . . . . 2             l+2 p+2 = m+q+o+l+3 E.                              ",
"                                    l+E.E.l+l+. . . . . . . E.            p+2 E.E.q+1 = _ < q+E.4 2                             ",
"                                      E.l+4 f+. . . . .                   4 E.3 p+q+3 } _ ^ } o+p+2                             ",
"                                          l+l+. . .                     4 4 . l+3 q+p+o+: ^ : n+o+n+4                           ",
"                                                                        o+l+f+f+4 3 2 p+n+{ : < n+2 4                           ",
"                                                                            l+l+f+E.p+2 1 { _ < < 2                             ",
"                                                                              l+4 4 E.3 1 * ] < <                               ",
"                                                                                  p+E.4 4 4 < <                                 ",
"                                                                                                                                "};
