/* XPM */
static char * health_v1_xpm[] = {
"64 64 140 2",
"  	c None",
". 	c #000000",
"+ 	c #000053",
"@ 	c #00006B",
"# 	c #000083",
"$ 	c #0B0B0B",
"% 	c #00009B",
"& 	c #0000B3",
"* 	c #430000",
"= 	c #0000CB",
"- 	c #470000",
"; 	c #0000E3",
"> 	c #4F0000",
", 	c #0000FF",
"' 	c #131313",
") 	c #0B1707",
"! 	c #5B0000",
"~ 	c #670000",
"{ 	c #530707",
"] 	c #1F170B",
"^ 	c #730000",
"/ 	c #5B0707",
"( 	c #5F0707",
"_ 	c #1B1B1B",
": 	c #7F0000",
"< 	c #8B0000",
"[ 	c #13230B",
"} 	c #9B0000",
"| 	c #6B0F0F",
"1 	c #232323",
"2 	c #2B230F",
"3 	c #A70000",
"4 	c #B30000",
"5 	c #272727",
"6 	c #731313",
"7 	c #17330F",
"8 	c #332B13",
"9 	c #CB0000",
"0 	c #771717",
"a 	c #1B1BFF",
"b 	c #D70000",
"c 	c #2F2F2F",
"d 	c #7F1B1B",
"e 	c #E30000",
"f 	c #3F2F17",
"g 	c #EF0000",
"h 	c #831F1F",
"i 	c #43331B",
"j 	c #FF0000",
"k 	c #373737",
"l 	c #732B00",
"m 	c #1F4317",
"n 	c #8B2323",
"o 	c #4B371B",
"p 	c #3B3B3B",
"q 	c #373F27",
"r 	c #4F3B23",
"s 	c #8F2B2B",
"t 	c #533F1F",
"u 	c #434343",
"v 	c #3F472B",
"w 	c #972F2F",
"x 	c #3737FF",
"y 	c #27531B",
"z 	c #5F4323",
"A 	c #474747",
"B 	c #5B472B",
"C 	c #4B4B4B",
"D 	c #474F33",
"E 	c #6B4727",
"F 	c #874307",
"G 	c #FF1F1F",
"H 	c #4F4F4F",
"I 	c #2F6323",
"J 	c #53573B",
"K 	c #774F2B",
"L 	c #675333",
"M 	c #AF4300",
"N 	c #575757",
"O 	c #B74700",
"P 	c #7F532F",
"Q 	c #5B5B5B",
"R 	c #5B6347",
"S 	c #37732B",
"T 	c #775F3F",
"U 	c #C34F00",
"V 	c #636363",
"W 	c #9B5B13",
"X 	c #FF3F3F",
"Y 	c #676B4F",
"Z 	c #9C6038",
"` 	c #CB5707",
" .	c #6B6B6B",
"..	c #836B4B",
"+.	c #3F832F",
"@.	c #6F6F6F",
"#.	c #6F7357",
"$.	c #D75F0B",
"%.	c #777777",
"&.	c #8F7753",
"*.	c #DF670F",
"=.	c #439337",
"-.	c #7B7F63",
";.	c #7373FF",
">.	c #7F7F7F",
",.	c #AF7B1F",
"'.	c #FF5F5F",
").	c #EB6F0F",
"!.	c #838383",
"~.	c #4B9F3F",
"{.	c #9F8363",
"].	c #8B8B8B",
"^.	c #939393",
"/.	c #53AF47",
"(.	c #DC8854",
"_.	c #979797",
":.	c #C39B2F",
"<.	c #9F9F9F",
"[.	c #5BBF4F",
"}.	c #A7A7A7",
"|.	c #ABABAB",
"1.	c #FF9B9B",
"2.	c #ABABFF",
"3.	c #B3B3B3",
"4.	c #FCA85C",
"5.	c #B7B7B7",
"6.	c #D7BB43",
"7.	c #67DF5F",
"8.	c #BFBFBF",
"9.	c #FCB890",
"0.	c #C7C7C7",
"a.	c #00FFFF",
"b.	c #CBCBCB",
"c.	c #D3D3D3",
"d.	c #EBDB57",
"e.	c #77FF6F",
"f.	c #DFDFDF",
"g.	c #E7E7FF",
"h.	c #EFEFEF",
"i.	c #FFFF73",
"                                                                                                                                ",
"                                                                                                                                ",
"                                                                                                                                ",
"                                                                                                                                ",
"                                                                                                                                ",
"                                                                                                                                ",
"                                                                                                                                ",
"                                                                                                                                ",
"                                                                                                                                ",
"                                                                                                                                ",
"                                                                                                                                ",
"                                                                                                                                ",
"                                                                                                                                ",
"                                                                                                                                ",
"                                                                                                                                ",
"                                                                                                                                ",
"                                                                                                                                ",
"                                                                                                                                ",
"                                                                                                                                ",
"                                                                                                                                ",
"                                                                                                                                ",
"                                                                                                                                ",
"                                                                                                                                ",
"                                                                                                                                ",
"                                                                                                                                ",
"                                                                                                                                ",
"                                                                                                                                ",
"                                                                                                                                ",
"                                                                                                                                ",
"                                                                                                                                ",
"                                                                                                                                ",
"                                                                                                                                ",
"                                                                                                                                ",
"                                                                                                                                ",
"                                                                                                                                ",
"                                                                                                                                ",
"                                                                                                                                ",
"                                                                                                                                ",
"                                                                                                                                ",
"                                                                                                                                ",
"                                                                                                                                ",
"                                                                                                                                ",
"                                                                                                                                ",
"                                                                                                                                ",
"                                                          {.{.{.{.{.{.                                                          ",
"                                                  {.{.{.{.{.        {.{.{.{.{.                                                  ",
"                                            {.{.{.......{.            {.......{.{.{.                                            ",
"                                          {.{.....................................{.{.                                          ",
"                                          {.{.{.{.{.{.{.{.{.{.{.{.{.{.{.{.{.{.{.{.{.{.                                          ",
"                                          {.............................T ....T ..T {.                                          ",
"                                          {...................T ......T ............{.                                          ",
"                                          {.........T T T ..............T ..........{.                                          ",
"                                          {.{.{.{.{.{.{.{.{.T T T T {.{.{.{.{.{.{.{.{.                                          ",
"                                          i i i i i i i i i L ....L i i i i i i i i i                                           ",
"                                          ..T T ..T ........i i i i ..................                                          ",
"                                          ..T T T T T ....T ........T T ..T T T T T ..                                          ",
"                                          ..T T T T T T T ..].6 6 ]...T T T T T T T ..                                          ",
"                                          ..T T T T T T L ].].| | ].]...T T T T T T ..                                          ",
"                                          L T T T T T T L 6 6 ( ( 6 | L T T T T T ..L                                           ",
"                                          L ..T ..T ....L 6 | ( ( | | L T T T T T ..L                                           ",
"                                          L ..T T T T T L ].].6 | ].].L T ..T T T T L                                           ",
"                                          i ......T T T ..L ].| | ].i T T T T ....T i                                           ",
"                                          i ..........T T T i i i i T T ............i                                           ",
"                                            i i i i i i i i i i i i i i i i i i i i                                             "};
