/* XPM */
static char * TECH_3E_dark_xpm[] = {
"64 64 17 1",
" 	c #000000",
".	c #383E3F",
"+	c #2D3333",
"@	c #10100F",
"#	c #161616",
"$	c #212220",
"%	c #2D2326",
"&	c #4F6165",
"*	c #3C332D",
"=	c #1E120F",
"-	c #49150D",
";	c #971D0A",
">	c #6C580B",
",	c #A79302",
"'	c #434F51",
")	c #201B19",
"!	c #261612",
"                                                                ",
".............+.+.+.+++                    ++.+.+...........+.+..",
"++++++++++++++++++++++ @#@ @#@@@#@ @#@@@@ ++++++++++++++++++++++",
"++++++++++++++++++++++ #$@ $$##$$@ $$##$@ ++++++++++++++++++++++",
"++++++++++++++++%&.+++ #$#@$$##$$#@$$##$# ++%&.+++++++++++++++++",
"++++++++++++++++%..+++ #$@ $$##$$@ $$##$# ++%..+++++++++++++++++",
"++++++++%+++++++%%++++ #$#@$$##$$#@$$##$# ++%%%+++++++++++++++++",
"+++++++%@%++++++++++++ #$@ $$##$$@ $$##$# +++%%+++++++++++++++++",
".......***............ #$#@$$##$$#@$$##$# ...**.................",
"+++++++%%%++++.+.+++++ #$# $$##$$# $$##$# +++%++++++.+.+.+++++++",
".......**............. #$#@$$##$$#@$$##$# ....*.................",
".......***............ #$#@$$##$$#@$$##$# ...*..................",
".......**............. @$#@$$##$$#@$$##$# ......................",
".......**............. =$#@$$##$$#@$$##$# ......................",
"........*............. =$#@$$##$$#@$$##$# ......................",
".......**............. =##@$$##$$#@$$##$# ......................",
"........*.............  -#@$$##$$#@$$##$# ......................",
"........*............. @-@@#$##$$#@$$##$# ......................",
"...................... #@;@>###$$#@$$##$# ......................",
"........*............. #$ ;#,##$$#@$$##$# ..................+'..",
"...................... #$#=-,##$$#@$$##$# .................+&...",
"...................... #$#> ,@#$##@$$##$# .................'....",
"...................... #$#>#,-@#>#@$$##$# ...............+......",
"...................... #$#,#, ;;=,@$$##$@ ............+.+.......",
"...................... #$#,#@,@=-,-###@#= ...........+'+.+'.....",
"...................... ##, $# >> , ;;;;-  ..........+&+.+&......",
"...................... # ,@$$@ @# ,#@  #= .........+&..+'.......",
"...+..................  > @$$#@#$#,##@##= .........'..+.........",
"....+................. =##@$$##$$# ,###>  ......................",
"...++.................  ##@$$##$$#@@,,,@# ......................",
"..+++................. #$#@$$##$$#@#@  ## ......................",
"..++.................. #$#@$$##$$#@$###$# ......................",
"..+++................. #$#@$$##$$#@$$##$# ......................",
"...+............%&+... #$#@$$##$$#@$$##$# ..%&+.................",
"....+...........%++... #$#@$$##$$#@$$##$# ..%++.................",
"................%%.... #$#@$$##$$#@$$##$# ..%%..................",
"...................... #$#@$$##$$#@$$##$# ......................",
"&&&&&&&&&&&&&&&&&&&.&. )$#@$$##$$#@$$##$) .&.&&&&&&.&.&.&.&&&&&&",
"                       )$#@$$##$$#@$$##$)                       ",
"                      @$$#@$$##$$#@$$##$$@                      ",
"#@ @#@@@#@ @#@@@#@ @#@#$$#@$$##$$#@$$##$$# @#@@@#@ @#@@@#@ @#@@@",
"$@ $$#@$$@ $$#@$$@ $$##$$#@$$##$$#@$$##$$@ $$#@$$@ $$#@$$@ $$#@$",
"$@ $$##$$@ $$##$$@ $$##$$#@$$##$$#@$$##$$# $$##$$@ $$##$$@ $$##$",
"$@ $$##$$@ $$##$$@ $$##$$#@$$##$$#@$$##$$@ $$##$$@ $$##$$@ $$##$",
"$#@$$##$$#@$$##$$#@$$##$$#@$$##$$#@$$##$$#@$$##$$#@$$##$$#@$$##$",
"$@ $$##$$@ $$##$$@ $$##$$#@$$##$$#@$$##$$@ $$##$$@ $$##$$@ $$##$",
"$#@$$##$$#@$$##$$#@$$##$$#@$$##$$#@$$##$$#@$$##$$#@$$##$$#@$$##$",
"$# $$##$$# $$##$$# $$##$$#@$$##$$#@$$##$$# $$##$$# $$##$$# $$##$",
"$#@$$##$$#@$$##$$#@$$##$$#@$$##$$#@$$##$$#@$$##$$#@$$##$$#@$$##$",
"$#@$$##$$#@$$##$$#@$$##$$#@$$##$$#@$$##$$#@$$##$$#@$$##$$#@$$##$",
"$@@$$##$$@@$###$$@@$$##$$@@$###$$@@$$##$$@@$###$$@@$$##$$@@$###$",
"$#@$$##$$#@$$##$$#@$$##$$#@$$##$$#@$$##$$#@$$##$$#@$$##$$#@$$##$",
"#@ $###$#@ $###$#@ $###$#@ $###$#@ $###$#@ $###$#@ $###$#@ $###$",
"$@@#$##$$@@#$##$$@@#$##$$@@#$##$$@@#$##$$@@#$##$$@@#$##$$@@#$##$",
"#@ $##@$#@ $##@$#@ $##@$#@ $##@$#@ $##@$#@ $##@$#@ $##@$#@ $##@$",
"#  ##@ ##  ##@ ##  ##@ ##  ##@ ##  ##@ ##  ##@ ##  ##@ ##  ##@ #",
"&&&&&&&&&'&&&&'&'&'&'&''''''&'&'&'&&&&&&&&&&&&&&&&&&&&&&&'&&&&'&",
"........+................+......+.......+.......+.+.....+.......",
".+.....+...............++..............***.......+.....+........",
"+..&+......&+......&+..+..*&+......&+.*.*..&+...+..&+......&+...",
"..%++.....%++.....%++.+.+.%++..+..%++..*..%++..+..%++.....%++..+",
"+.%%......%%......%%...+..%%*.....%%..*...%%..++..%%......%%..+.",
"......................+....**........*........+..............+.+",
"%!!!!!!%!%!%%%%%%%!%!%@%@%@@@@%@%%%%%%%%!%!%%!%!%!!!!!!%!%!%%%%%"};
