/* XPM */
static char * TECH_0D_png_xpm[] = {
"64 64 11 1",
" 	c #000000",
".	c #464D4F",
"+	c #383F40",
"@	c #382B2F",
"#	c #4B3F38",
"$	c #536265",
"%	c #62797E",
"&	c #1C1C1B",
"*	c #141413",
"=	c #292A28",
"-	c #2F1C17",
"                                                                ",
".............+.+..........+.+.+............................+.+..",
"++++++++++++++++++++++++++++++++++++++++++++++++++++++++++++++++",
"++++++++++++++++++++++++++++++++++++++++++++++++++++++++++++++++",
"++++++++++++++++++++++++++++++++++++++++++++++++++++++++++++++++",
"++++++++++++++++++++++++++++++++++++++++++++++++++++++++++++++++",
"++++++++++++++++++++++++++++++++++++++++++++++++++++++++++++++++",
"++++++++++++++++++++++++++++++++++++++++++++++++++++++++++++++++",
"................................................................",
"++++++++++++++++++++++++++++++++++++++++++++++++++++++++++++++++",
"................................................................",
"................................................................",
"................................................................",
"................................................................",
"................................................................",
"..............................................+@@@..............",
".............................................+@##++.............",
"............................................+@##..+$............",
"............................................@##.#..$............",
"............................................@+##..%$............",
".............................................$..%%$.............",
"..............................................%%$...@+..........",
"...................................................@#.$.........",
"...................................................+.%$.........",
"....................................................$...........",
"................................................................",
"................................................................",
"................................................................",
"................................................................",
"................................................................",
"................................................................",
"................................................................",
"................................................................",
"................................................................",
"................................................................",
"................................................................",
"................................................................",
"%%%%%%%%%%%%%%%%%%%%%%%%%%%%.%.%%%%.%%%%%%%.%%%%%%%.%.%.%.%%%%%%",
"                                                                ",
"                                                                ",
"&* *&***&* *&***&* *&***&* *&***&* *&***&* *&***&* *&***&* *&***",
"=* ==&*==* ==&*==* ==&*==* ==&*==* ==&*==* ==&*==* ==&*==* ==&*=",
"=* ==&&==* ==&&==* ==&&==* ==&&==* ==&&==* ==&&==* ==&&==* ==&&=",
"=* ==&&==* ==&&==* ==&&==* ==&&==* ==&&==* ==&&==* ==&&==* ==&&=",
"=&*==&&==&*==&&==&*==&&==&*==&&==&*==&&==&*==&&==&*==&&==&*==&&=",
"=* ==&&==* ==&&==* ==&&==* ==&&==* ==&&==* ==&&==* ==&&==* ==&&=",
"=&*==&&==&*==&&==&*==&&==&*==&&==&*==&&==&*==&&==&*==&&==&*==&&=",
"=& ==&&==& ==&&==& ==&&==& ==&&==& ==&&==& ==&&==& ==&&==& ==&&=",
"=&*==&&==&*==&&==&*==&&==&*==&&==&*==&&==&*==&&==&*==&&==&*==&&=",
"=&*==&&==&*==&&==&*==&&==&*==&&==&*==&&==&*==&&==&*==&&==&*==&&=",
"=**==&&==**=&&&==**==&&==**=&&&==**==&&==**=&&&==**==&&==**=&&&=",
"=&*==&&==&*==&&==&*==&&==&*==&&==&*==&&==&*==&&==&*==&&==&*==&&=",
"&* =&&&=&* =&&&=&* =&&&=&* =&&&=&* =&&&=&* =&&&=&* =&&&=&* =&&&=",
"=**&=&&==**&=&&==**&=&&==**&=&&==**&=&&==**&=&&==**&=&&==**&=&&=",
"&* =&&*=&* =&&*=&* =&&*=&* =&&*=&* =&&*=&* =&&*=&* =&&*=&* =&&*=",
"&  &&* &&  &&* &&  &&* &&  &&* &&  &&* &&  &&* &&  &&* &&  &&* &",
"%%%%%%%%%$%%%%$%$%$%$%$$$$$$%$%$%$%%%%%%%%%%%%%%%%%%%%%%%$%%%%$%",
"........+................+.............+.+......+.+.....+.......",
".+.....+...............++...............+........+.....+........",
"+..%+......%+......%+..+...%+......%+..+...%+...+..%+......%+...",
"..@++.....@++.....@++.+.+.@++.....@++.....@++..+..@++.....@++..+",
"+.@@......@@......@@...+..@@......@@......@@..++..@@......@@..+.",
"......................+.............+.........+..............+.+",
"@------@-@-@@@@@@@-@-@*@*@****@*@@@@@@@@-@-@@-@-@------@-@-@@@@@"};
