/* XPM */
static char * attack2A_xpm[] = {
"64 64 57 1",
" 	c None",
".	c #282828",
"+	c #303030",
"@	c #2C2C2C",
"#	c #202020",
"$	c #383838",
"%	c #000000",
"&	c #1C1C1C",
"*	c #00001C",
"=	c #404040",
"-	c #403018",
";	c #382C14",
">	c #28200C",
",	c #483818",
"'	c #302410",
")	c #400000",
"!	c #980000",
"~	c #FC0000",
"{	c #5C4020",
"]	c #6C4824",
"^	c #343434",
"/	c #B47044",
"(	c #543C1C",
"_	c #A86840",
":	c #A8A8A8",
"<	c #7C7C7C",
"[	c #707070",
"}	c #646464",
"|	c #4C4C4C",
"1	c #484848",
"2	c #744C28",
"3	c #545454",
"4	c #5C5C5C",
"5	c #80502C",
"6	c #885830",
"7	c #9C9C00",
"8	c #706C00",
"9	c #A0643C",
"0	c #FCB400",
"a	c #CCC400",
"b	c #FCFCD8",
"c	c #BC7848",
"d	c #FC9840",
"e	c #FCF85C",
"f	c #905C34",
"g	c #FCF420",
"h	c #FCF400",
"i	c #FCFC9C",
"j	c #FCFCB8",
"k	c #FCFC7C",
"l	c #9C6038",
"m	c #9C4C00",
"n	c #989898",
"o	c #C0C0C0",
"p	c #8C8C8C",
"q	c #DCDCDC",
"r	c #D0D0D0",
"                                                                ",
"                                                                ",
"                                 .++++                          ",
"                                +@#.@@$                         ",
"                               %&..&&*&&                        ",
"                              %%*#****%%.  ####%                ",
"                      &&+.+&  %%%%**&%%%& %%&%%*&&              ",
"                     &@$##+=&%-;>>&&&;#,%&%%&&%%%%%             ",
"                    &#$.#@#+&%')-%!~!-))%%%%%%%%%%%%            ",
"                   &&$$&&#+.&%>--.){&-.)]%%%%%%%%%%%            ",
"                  ##++%%%&.^#/('^;;->;^']/@%%%%%%%%%%           ",
"                  &#%%%%%%#@$+'_:<%%%<:_'{%%%%%%%%%%%           ",
"                 &+%%%%%%%*#$+--%%%%%%%-{,%%%&%%%%%%%           ",
"                 &%%%%%%%%&&##&[}|-}-|}[{%%%%.#%%%%%%%          ",
"                 %%%%%%%%%&*#&#%%-{({&#&(>%%%$$%%%%%%%          ",
"                 %%%%%%%%%&&#&&%%%#>+&&&&%%%%%$%%%%%%%          ",
"                 %%%%%%%%%%&&.&%%%#&&&&%%%%%%%=$%%%%%%          ",
"                 %%%%%%%%%%&&&#%%%%#&&%%%%%%%%+1%%%%*           ",
"                 %%%%%%%%%%**&&%%%%%&%%%%%%%%%.$%%%%'#          ",
"                 %%%%%%%%%%%&&%&%%%%%%%%%%%%%&;$%%#2&3          ",
"                 %%%%%%%%']2-(%%%%%%%%%%%%+%&'>1%>4,-&]         ",
"                 %%%%%%..{]52,>%%%&#->&@{.)#@,%&';@',(|         ",
"                  %%%-,3[]]6]-%))&]^{%>$(($@{%%#{##=|5,         ",
"                  %%-({%),]72)>&#@(({%2{{({(#%&211[}|+,[        ",
"                  &%]{(1|{878>#{{,](&#5]]2>>&)]|](3&-1$]        ",
"                   &95]]&@707-^|56+^+#=]{-&& $]1{(]=|$={3       ",
"                   #^44+$3aaa(-{1@{{(-](>,#@ '(^^-@@##+({       ",
"                    2$4##/abac1$4]_9]]52&1$+  ,{{;##&#&#&       ",
"                   {($$%cdebbd_|$=_f66='%]&   -${@##$&%%%       ",
"                   ;2.$cdgbbehec6;((]]+>>|@+   -,'&%%)&>%%      ",
"                   ,2$cdeebbiibec=|]2]-(-{3}    '%%%&')-%#      ",
"                   {|)degibbiiihc}$,232_{-(5&    %%&#(%{(%      ",
"                   -7aaebbbiiiiiaa783$&;;%&&'    %%#>{''.'      ",
"                 7 70abebbbbbbibba078+&&&&5%      &&)&'%]       ",
"                   '77aebbbbbbjgaa78.,-%%+2%       %#%-%-       ",
"                   @__deeibbbkggc%&-')>%%.$.          %)        ",
"                   1#&cdehbibeedl%3]''&({%+++                   ",
"                   @%%@cdebieedc)>>&%%'{{$+^$                   ",
"                    %%%%ccabad_)|1{&&&;$$^$(1$                  ",
"                      %%%_aaa_m$63|.&&{$$^++#3                  ",
"                        =m707@'#.&#$.).'@({{.=                  ",
"                        =.(78@&>&.'&$&>&@+,(.=                  ",
"                       $&';7&;);      ;);&,;'&$                 ",
"                       =&.'-.')%      %)'.-'.&=                 ",
"                       ^#-.@'>)&      &)>'@.-#                  ",
"                       $).'#)>&&       &#)>&.+                  ",
"                       &'#.#&)%.       %%>%%**%                 ",
"                        +.&>)#&        %%%%%**%                 ",
"                        **%%>%%       %%%%%%%**%                ",
"                       %**%%%%%       %%%%%%%*%%                ",
"                      %**%%%%%%%      %%%#%$$$%%%               ",
"                      %%*%%%%%%%      %%@@$={3$$+               ",
"                     %%%$$$%#%%%      %@&$^.,+@$^               ",
"                     +$$3{=$@@%%       .&-^43$@@#               ",
"                     ^$@+,.^$&@%       &$+$3|^=&@.              ",
"                     #@@$34^-&.       +$..^13n<^.#$             ",
"                    .@&=^|3$+$&       #.@+^@}no}=+$             ",
"                   $#.^<n31^..$+     ##%&@^+=pop4=4#            ",
"                   $+=}on}@^+@.#     =&**#@$+4qp<4$#            ",
"                  #4=4pop=+^@&%##      &&*.+$1qn<<$             ",
"                  #$4<pq4+$@#**&=       &##.@1:r<<              ",
"                   $<<nq1$+.*&&           +.###<<               ",
"                    <<r:1@.##&                                  ",
"                     <<###.+                                    "};
