/* XPM */
static char *bricks[] = {
/* columns rows colors chars-per-pixel */
"128 128 39 1 ",
"  c #5F3529",
". c #62362A",
"X c #65392C",
"o c #6C3C2E",
"O c #703D2F",
"+ c #6F3E30",
"@ c #713E31",
"# c #744032",
"$ c #7C4536",
"% c #7D5F56",
"& c #7F6058",
"* c #814737",
"= c #844937",
"- c #814738",
"; c #864A3A",
": c #8C4D3C",
"> c #92513F",
", c #955240",
"< c #A75D48",
"1 c #AA5E4A",
"2 c #83655C",
"3 c #86685F",
"4 c #876960",
"5 c #896B62",
"6 c #A27467",
"7 c #A57669",
"8 c #A7786B",
"9 c #AA7B6E",
"0 c #AD7E71",
"q c #AF8073",
"w c #9D8A84",
"e c #9F8D88",
"r c #A18E89",
"t c #A4928C",
"y c #A8968F",
"u c #A99690",
"i c #AC9A94",
"p c #B19F98",
"a c #B5A39D",
/* pixels */
"11111111111111111111111111117ww61111111111111111111111111111111111111111111111111111111111116ww6<<111111111111111111111111111111",
"11111111111111111111111111117ww61111111111111111111111111111111111111111111111111111111111116ww6<<111111111111111111111111111111",
"11111111111111111111111<11116ww6111111111111111111111111111111111111111111111111111<111111116ww611111111111111111111111111111111",
"11111111111<11111111111<11<$6we7111111111111111111111111111111111111111<11111111111<111111116ww611111111111111111111111111111111",
">>>>>>>>>>>>>>>>,>>>>>>>>,# qaaq1111>>>>>,,,>>,>>>>>>>>>,>>>,>,,>>>>>>>>>>>>,>>>,,,,,,,,,,, 6eeq1111,,,,>>>>>>>>>>>>>>>>>>>,>>>>",
"$$$$$$$$$$$$$$$$$$$$$$$$$$  5aaq1111>$$$$;;$$$$$$$$$$$$$$$$$$;;$$$$$$$$$$$$$$$$$$$#$#$$$$$X &wpq1111,$$$$$$$$$$$$$$$$$$$$$;*$$$$",
"$$$$$$$$$$$$$$$$$$$$$$$$$#  5aaq111<>$$;;;;;$$$$$$$$$$$$$$$$;;;;$$$$$$$$$$$$$$$$$$$$$$$$$#  &taq1111>=$%$$$$$$$$$$$$$$$$*;;;*$$$",
"$$$$$$$$$$$$$$$$$$$$$$$$$#  5aaq111<>$;;;;;;$$$$$$$$$$$$$$$$;;;:;$$$$$$$$$$$$$$$$$$$$$$$$#  &paq1111,===$$$$$$$$$$$$$$$$*;;;$$$$",
"$$$$$$$$$$$$$$$$$$$$$$$$$   5aaq1111>$;;;:;;$$$$$$$$$$$$$$$;;;;;;$$$$$$$$$$$$$$$$$$$$$$$$$  5aaq1111,;;;;;*$$$$$$$$$$$$$$**$$$$$",
"$$$$$$$$$$$$$$$$$$$$$$$$$   5aaq1111>;;;;;$=$$$$$$$$$$$$$;;;;;;;$$$$$$$$$$$$$$$$$$$$$$$$$#  5aaq1111>;;;;:;*$$$$;;;$$$$$$$$$$$$$",
"$$$$$$$$$$$$$$$$$$$$$$$$#   5aaq1111>;;;;$$$$$$$$$$$$;;;;;;;;;;;;$$$$$$$$$$$$$$$$$$$$$$$$#  5aaq1111>*;;;;;$$$$;;;;$$$$$$$$$$$$$",
"$$$$$$$$$$$$$$$$$$$$$$$$#   5aaq1111>;;;;$$$$$$$$$$;;;;;:;;;;:;;*$$$$;;;$$$$$$$$$$$$$$$$$#  5aaq1111>$**;;;$$*;;;;;$$$$$$$$$$$$$",
"$$$$$$;=$$$$$$$$$$$$$$$$#   5aaq1111>;;;;$$$$$$$$;;;;;:;;;;:;;:*$$$$$:;;;;;;$$$$$$$$$$$$$#  5aaq1111>*$$$**$$=;;;;*$$$$$$$$$$$$$",
"$$$$$;;;;$$$$$$$$$$$$$$$    5aaq1111,;;:=$$$$$$$;;:;;;;;;;;;;;;$$$$$$;;;;;;;$$$$$#$$$$$$$#  5aaq1111>*$$$$$$;;;;;*$$$$$$$$$$$$$$",
"$$$$*;;;;*$$$$$$$$$$$$$$    5aaq1111,$;$$$$$$$$$;;;;;;;;;;;;;$$$$$$$;;;;;;;$$$$$$$$$$$$$##  5aaq1111>$$$$$$*;;;;*$$$$$$$$$$$$$$$",
"$$$$$;;;;;*$$$$$$$#$$$$#    5aaq1111>$$$$$$$$$$$;;;;;;;:;;$$$$$$$$$$$$$$;;;$$$$$$$$$$$$$$#  5aaq1111>$$$$$$=;;;;$$$$$$$$$$$$$$$$",
"$$$$$$;;;;;*$$$$$$$$$$$#    5aaq1111>$$$$$$$$$$$;;;;;$$$$$$$$$$$$$$$$$$$$$$$$$$$$$$$$$$$$#  5aaq1111>$$$$$$;;;;$$$$$$$$$$*;;;;$$",
"$$$$$$$;;;;;*$$$$$$$$$$#    5aaq1111>$$$$$$$$$$;;;;$$$$$$$$$$$$$$$$$$$$$$$$$$$$$$$$$$$$$##  5aaq1111>$$$$$;;;;=$$$$$$*;;;;;;;;;$",
"$$$$$$$$;;;;;$$$$$$$$$$#    5aaq1111>$$$$$$$$$$;;;:$$$$$$$$$$$$$$$$$$$$$$$$$$$$$$$$$$$$$$#  5aaq1111>$$$$$;;:;$$$$$$;;;;;;;;;;;$",
"$$$$$$$$*;;;;;$$$$$$$$$$    5aaq1111>$$$$$$$$$$$;:;$$$$$$$$$$$$$$$$$$$$$$$$$$$$$$$$$$$$$$   &aaq11<<>$$$$$;;:$$$$$$;;;;;;;;:;;$$",
"$$$$$$$$$*;;;;;$$$$$$$$$    5aaq1111>$$$$$$$$$;;;;;;;$$$$$$$$;;$$$$$$$$$$$$$$$$$$$$$$$$$$#  5aaq1111>$$$$*;;;$$$$$;;;;;=;;*$$$$$",
"$$$$$$$$$$-;;;;=$$$$$$$$    5aaq1111>$;$$$$$$$;:;;;;;;;$$$$$;;:;$$$$$$$$$$$$$$$$$$$$$$$$$X  5aaq1111>$$$$=;;=$$$$;;;;;$$$$$$$$$$",
"$$$$$$$$$$$;;;;;$$$$$$$$X   5aaq1111,;=;;$$$$$;::;:;;::$$$$$:;;:;;$$$$$$$$$$$$$$$$$$$#$$$   5aaq1111>$$$$;;;:$$$*;;;;*$$$$$$$$$$",
"$$$$$;$****$;;;;;$$$$$$$#   5aaq1111>;:==$$$$$$$$$;$;;;:$$$$$$;$$#X#XXXXXXXXoX#o$$$$$$$$$   5aaq1111,$$$$;;:;$$$;;;;;$$$##$$$$$$",
"#$$$;;;;,$%==;;;;*$$$$$$#   &aaq1111>:$$$$$$$$$#$$#$$$;;$###XX  .                 X###$##   5aaq1111,$$$#=;$$$####          .X##",
" .o#$;;;$$*=;;=*###o#XX.    5ap6111<### XXX #X#X### # #                                #X   5aaq1111,$$$###X                    ",
"      ..    .               5ay611<#                                                        5aaq111<#                           ",
"                            5pw6<<<                                                         5aaq111$                            ",
"%&%%&%%%%%%%&&&&&&&&&&&&&55&5tw65q5q5%%%&&%%%%%%&&&&&%%%&&&&&&%%&&&&&&%%%%%%%%%%&&&&&55555555aaqqqqqq&&&&&&&&&&&%%%%%%%%%%%%&&%%",
"wwwwwwwwwwwwqwwewwwqwwwwaaaapwwwwwewewwwewwwwwwwqwwwqwwwwwqeweqrwwwewwwwwwwwwwwwwwwwpaaaaaaaaaaaaaaywwwqwwwwqwwwwwwwwwwwwwwwwwww",
"wwwwwwwwwwwwwwwwwewwewwwiaaaewwwqweqewwwwwwwwwwwwwewwwwwwwwwwwwwwrqwwwwwwwwwwwwwwwwtaaaaaaaaaaaaaaywwewwwwwwwwwwwwwwwwwwwwwwwwww",
"6666666666666666666666668qq86666q5q65q6666666666q56856q566666ww666666666666666666669qqqqqqqqqqqqqq6665q56856q5666665666666666ww6",
"<<11111111111111111111111111111111111111111111111111111111116ww611111111111111111111111111111111<<111111111111111111111111116ww6",
"<<11111111111111111111111111111111111111111111111111111111116ww611111111111111111111111111111111<<111111111111111111111111116ww6",
"11111111111111111111111111111111111111111111111111<<111111116ww611111111111111111111111111111111<111111111<<11111111111111116ww6",
"1111111111111111111111111111111111111111111111111<<<111111116we51111111111111111111111111111111<1111111111<<11111111111<11116we6",
"1111,,,,>>>,,>>>>>>>>>>,>>>>>>>>>>,,>>>,,,>,>>>>,,,,,,,,,,##qqwq1111>>>>,>>>,,>,,,,,,,,,,,>>,,,,>>,,,,,>,,,,,,,,,,,,,,,,>>=o6ww6",
"1111>$$$$$$$$$$$$$$$$$$$$$$$$$$$$$$$$$;;;;*$$$$$$$#$$$#$$#  %ww51111>$$$$$$$$$$$$::$;;$$$$$$$$$$$$$$$$$$$$$$$$$$$$$$$#$#$#  &we6",
"1111>$$$$$$$$$$$$$$$$$$$$$$$$$$$$$$$$;;;;;$$$$$$$$$$$$$$$X  %wwq1111>$$$$$$$$$;;:;$:;;$$$$$$$$$$$$$$$;;;;$$$$$$$$$$$$$$$$.  &ww6",
"1111,$$$$$$$$$$$$$$$$$$$$$$$$$$$$$$$*;;;;;$$$$$$$$$$$$$$$.  %ww51111>$$$$$$$;;;;$:$:;;;$$$$$$$$$$$$$$$;;$$$$$$$$$$$$$$$$#  .&ww6",
"1111,;:;$$$$$;;;;;;$*$$$$$$$$$;;;;;;;;;;;$$$$$$$$$$$$$$$$X  %ww61111>$$$$$;;;:;;:$::$$:$$$$$$$$$$$;;;;;;;$$$$$$$$$$$$$$$o   %ww6",
"1111,;;;$$$$;;;;;;;;:;;$$$$$:;;;;;:;;;;;$$$$$$$$$#$$$$$$$   %ww61111>$$$$:;;;;;:$$$$$$$$$$$$$$$;;;;;;;;;;$$$$$$$$$$$$$$$.   %wr6",
"1111,;;;$$$$$;;;:;;;;;;;$$;;;;;;;;;;;;;$$$$$$$$$$$$$$$$$$X  %ww61111>$$$$:;;;:$$$$$$$$$$$$$$$;;;;;;;;;;;$$$$$$$$$$$$$$$#    &wq6",
"1111,;;;$$$$$;;;;;;;;;;$$;;;;;;:;;;;;;$$$$$$$$$$$$$$$$$$##  %ww61111>$$$$$;;$$$$$$$$$$$$$$$;:;:;;;;;;:;;$$$$$$$$$$$$$$*O    &ww6",
"1111,;:;$$$$$$$$$$$*$;;$;;;;;;;;:;;;;$$$$$$$$$$$$$$$$$$$$X  &ww61111>$$$$$;$$$$$$$$$$$$$$$$;;;;:;$$$::;;$$$;;$$$$$$$$$$O    &ww6",
"1111,;;;$$$$$$$$$$$$$$$$;;;;:;;;;;:;$$$$$$$$$$$$$$$$$$$$$   &ww61111>$$$$$$$$$$$:;;$$$$$$$:;;:$$$$$$;;;:$$$;;;;$$$$$$$$O    &ww6",
"1111,;;;$$$$$$$$$$$$$$$$$;;;;;;;;;;$$$$$$$$$$$$$$$$$$$$$$   &ww61111>$$$$$$$$$$:;;:;;$$$$:;;;;$$$$$$;;;;$$:;;;$$$$$$$$$#    2ww6",
"1111,;;;;$$$$$$$$$$$$$$$$$$;;;;;;;;$$$$$$$$$$$$$$$$$$$$##   &ww6111<>$$$$$$$$:;;;:$:;$$$;;;;;$$$$$$$;;;$$$;;;:;$$$$$$$$$.   %ww6",
"1111,;;;=$$$$$$$$$$;;;$$$$$$;;;;;;$$$$$$$$$$:;$$$$$$$$$$    &ww61111>$$$$$$;;;;;:$::;;$:$$:$$$$$$$$$$$$$$$:$$::$;*$$$$$$+   &ww6",
"1111>;;;:$$$$==;;:;;;;;$$$$$;;;;$$$$$$$$$$$;;;;;$$$$$$$#    &ww61111>$$$$$$;;;:;$$$:;;:$:::$$$$$$$$$$$$$$$$:::$:;;=*$$$$#   &wr6",
"1111>*;;$$$$$:=:;;;;;;$$$$$$;;;;$$$$$$$$$$$;;;;;;$$$$$$X    &wtq1111>$$$$$;:;:$$$$$:;:;::;$$$$$$$$$$$$$$$$$$$::;;;;;$$$$$   &ww6",
"1111>$$$$$$$$$;;;;:;;;;$$$$$$;;$$$$$$$$$$$$$;;;;$$$$$$$.    &waq1111>$$$$$;;;;$$$$$$:$;;$;;:$$$$$$$$$$$$$$$$$$$$;;;;$$$$#   &qr6",
"1111>$$$$$$$$$;$;;;$$$$$$$$$$$$$$$$$$$$$$$$$$$:$$$$$$$$.    &paq1111,$$$$;;;;$$$$$$$$:$::;;;;;$$$$$$$$$$$$$$$$$$;;;;-$$$#   %ww6",
"1111>$$$$$$$$$$$;;;$$$$$$#$$$$$$$$$$$$$$$$$$$$$$$$$$$$$.    &aaq1111,$$$;;;;$$$$$$$$$$$$;;;;$:,$$$$$$$$$$$$$$$$$*;;;*$$$#   %ww6",
"1111>$$$$$$$$$#$:;#########$$$$$$$$$$$$$$$$$$$$$$$$$$$$X    5aaq1111>$$$;;;;$$$$$$$$$$$::;;::$$$$$$$$$$$##$$#$$$*;;;$$$$X   %ww6",
"1111>$$$$=$$###X              ##$$$$$$$$$$$$$$$$$$$$$$$#    5aaq1111>$$$;;:;$$$$$$$$$;::$:;$$,$$$$$$$$$#########$;**$$$$X   %ww6",
"1111>$####                        X##$$$$#$$$$$$$$$###oX    5aa61111,$$#;;;=$$$$$$$$:$:$:$$$$$$$$###                XXX     &ww6",
"1111;                                  X##X#X#X .           5at6111<#XX #####$$$$#$$$,$$$$$$##X                             &ww6",
"1111#                                                       5yw611<$           # X#X#####X.                                 &ww6",
"1111#                                                  .    &ww611<X                                                        &ww6",
"66666&&&&&&&555555555555555555555555555555555555555555555555&ww6q6666%%%&&&&&%%%%%%%%%%%&&&&&%%%%%%%&&&&&55&%%%%&&%%&&&%&&&&&ww6",
"wwwwwwwwwqwwtpaaaaaaaaaaaaaaaaaaapaaaaaaaaaaaaaaaaaaaaaaaaaewwwwewwwwwwwqwwwqwwwwwwwwwwwewwqwwwwwwwwwwiaaaaewwwweewwwwqwwwwwwwww",
"wwwwwwwwwwweweppaaaaaaaaaaaaaaaaaaaaaaaaaaaaaaaaaaaaaaaaaatwwwwwwwwwwwwwwwwweewwqwwewwqwwqwwewwwwwqwweaaaaiwwwwwwwwwwwwwwwwwwwww",
"666666665q56666qqqqqqqqqqqqqqaaqqqqqqqqqqqqqqqqqqqqqqqqqq966666666666666q56665q566q5q5q5qq5q5wwq&q6q6qqqqqq6q5666666666666665666",
"1111111111111111111111111111qitq11111111111111111111111111111111<<<<1111111111111111111111116ww6<<111111111111111111111111111111",
"111111111111111111111111111<qwwq11111111111111111111111111111111<<111111111111111111111111116ww6<<111111111111111111111111111111",
"11111111111111111111111111<<&wwq111111<1111111111111111111111111111111<<1111111111<<111111116we611111111111111111111111111111111",
"1111111111111111111111111<$ qwq5111111<<111111<<1111111<1111111<111111<<111111111<<<111111116wwq11111111111111111111111111111111",
">>>>>>>,>>>>>>>>>>>>>>>>2#  5eeq1111:,,,,,,:,,,>,>>>,,>>,>>>,,>>,,,,,,,,,,,,,,,,,,,,,,,,,,##6taq1111,,,,,>>>>>>>>>,,,,,,>>>>>>>>",
"$$$$$;$$$$$$$$$$$;;;==$$$   %wqq1111,$#$$$$$$$$$$$$$:$$$$$$$$$$$$$$$$$$$#$$$$$$$$$$$#$#$$X  &aaq1111,$#$;$$$$$$$$*;;;:;;$$$$$$$$",
"$$$$;;;;$$$$$$$$$;;;;;=$#   %ww61111,$$$$$$$$$$$$$$:;;$$$$$$$$$$$$$$$$$$$$$$$$$$$$$$$$$$$   5aaq1111>$$%;;;$$$$$$*;;;;;;$$$$$$$$",
"$$$$;;;;$$$$$$$$=;;:;:=$$#  %ww61111,$$$$$$$$$$$$$;;:;;$$$$$$;;;$$$$$$$#$$$$$$$$$$$$$$$$#   5aaq111<>$**;;;$$$$$$$;;;;;;;$$$$$$$",
"$$$;;;;;;;$$$$$$==;;;:;$$#  %ww61111,$$$$$$$$$$$$:;;;;$$$$$$$:;;;;;;$$$$$$$,$,$$$$$$$$$$#   5aaq1111>*;;;=$$$$$$$$$$$;;;;$$$$$$$",
"$$$;;;;;;;;$$$$$$$$$$$$$$X  %ww61111,$$$$$$$$$$$$;;;;$$$$$$$$:;;;;;;$$$$$$$,:$$$$$$$$$$$#   5aaq1111>;;:;$$$;;:;$$$$$;;;;$$$$$$$",
"$$=;;;;;;;;;=$$$$$$$$$$$$.  %ww61111,$$$$$$$$$$$;;;:$$$$$$$$$;:;;;;;;$$$$$,$;:$$$$$$$$$$X   5aaq1111>;;;;$$$$;;;$$$$$;:;;$$$$$$$",
"$$;;;;=*;;:;$$$$$$$$$$$$#   %ww61111,$$$$$$$$$$$;;;;$$$$$$$$$$$$$;;:$$$$::$:;;$$$$$$$$$$X   5aaq1111>:;;;$$$;;;:$$$$$$$$$$$$$$$$",
"$$;;;;$$;;;:$$$$$$$$$$$$#   %ww61111,$$$$$$$$$$$;;;;;$$$$$$$$$$$$$$$$$$$$$$$$$$$$$$$$$$$    5aaq1111>=:=;*$$;;;;;$$$$$$$$$$$$$$$",
"$;;;;;$$;;;$$$$$$$$$$$$$.   %ww6111<,#$$$$$;:;:;;;;;:$$$$$$$$$$$$$$$$$$$$$$$$$$$$$$$$$$$    5aaq1111>*;;;=$$;;;;$$$$$$$$$$$$$$$$",
"*;;;;$$;;;=$$$$$$$$$$$$$    %ww611<<,$$$$;;;;;;;;;;:;=$$$$$$$$$$$$$$$$$$$$$$$$$$$$$$$$$$X   5aaq1111>$=;;;;$*;;;$$$$$$$$$$$$$$$$",
"$$;;*$*;;:=$$$$$$$$$$$$$    %ww611<<,$$$$;;;;;:;;;;;;;;$$$$$$$$$$$$$$$$$$$$$$$$$$$$$$$$$X   5aaq1111>$*;;;;$;;;;$$$$$$$$$$$$$$$$",
"$$$$$$;;;;*$$$$$$$$$$$$#    %ww51111,#$$$%;;;==*$:::$:$$$$$$$$$$:;;$$$$$$$$$$$$$$$$$$$$$#   &aaq1111>$$$;;;;;;;;$$$$$$$$$$;$$$$$",
"$$$$$$;;;;$$$$$$$::$$$$#    %ewq1111,$$$**;;$$$$$$:$$::$$$$$$$$$;;;;$$$$$$$$$$$$$$$$$$#%$   5aaq1111>$$$;;;;;;;;$$$$$$$$;;;;$$$$",
"$$$$$;;;;*$$$$$$:$$:$$$#    %ee51111,$$$=;;;$$$$$$$:::$:$$$$$$$$;;;;$$$$$$$$$$$$$$$$$$$$$X  5aaq1111>$$$$:;;;;;$$$$$$$$$$;;;$$$$",
"$$$$*;;;;$$$$$*;$:::$$$#    %qe61111,$$$;;;;$$$$$$:::$,$$$$$$$$$;;;;$$$$$$$$$$$$$$$$$$$=$   5aaq1111>$$$$$;;:;:;$$$$$$$$$:;;;$$$",
"$$$$*:;;*$$$$=;;:$:$$$##    &wwq1111,$$$;;;=$$$$$$$$$:::$$$$$$$$$$$$$$$$$$$$$$$$$$$$$$$$$#  5aaq1111>$$$$$$;;;;$$$$$$$$$$;;$$$$$",
"$$$$;;;;$$$$*;;;$:$$$$$#    &wtq1111,$$$;;;=$$$$$$$:::$$:$$$$$$$$$$$$$$$$$$$$$$$$$$$$$$$$   5aaq1111>$$$$$$$;;;$$$$$$$$$$$$$$$$$",
"$$$*;;;;$$$*;;;;$$$$$$##    &wpq1111,$$$:;=*$#$$$$$$$,$$$$$$$#$$$$$$$$$$$$$$$$$$$$$$$$$$$   5aaq1111>$$$$$$;;;$$$$$$$$$$$$$$$$$$",
"$$$*;;;$$$*;;;;;$$$$$$##    %yaq1111,$$$;*$##o#XXXX     X XX###$$$$$$$$$$$$$$$$$$$$$$$$$$X X5aaq1111>$$$$$$$$$$X#Xooo# XXXooo###",
"   XXX  XXXXoXXX            &aaq1111;#                          #####$$$$#$$$$$$$#$$#$###   5aaq111<#                           ",
"         .                  &aaq1111#                                 XX##X##XXX#  #  #     5aaq111$                            ",
"                            5aaq11<1X                                                       5aaq111X                            ",
"                            5aaq11<<#                                                       5aaq111$                            ",
"&&&&%%%%%%%%&&&&%%%%%%%%&&&55aaqqqqq5&&&&&&&&&&&&&&%&&&&%%%%%%%%%%&&&&%%&&%%%%%%&3555555&5555aaqqq666&&&%%%%%%%%%%%%&&&%%%%%&&&&",
"wwwwwwwwwwwwwwwqwewwwwwweeaaaaaaaaewwwewwwwwwwwwwwqeqwwwwwwweqwwwwwwwqwwwwwwwwwiaaaaaaaaaaaaaaaapwwwwwwwwwwwwwwwwwwwwwqwwwwwwwwq",
"wwwwwwwwwwwwwwwwqewewwqwepaaaaappewwwwwwwqewwqwreewqwwwwwqwweewwwwwwwwwwwwwwwwypaaaaaaaaaaaaaaaaiwwwwwwwwwwwwwwwwwwwwweewwwwwwww",
"66666666q566666665q5q56qqqqqqqqq666666666666666655qq5q5q5q5q5ww65866q56666666qqqqqqqqqqqqqqqqqqq6q6666666666q566665q6665q5666ww6",
"<<1111111111111111111111111111111111111111111111111111111111qqw611111111111111111111111111111111<<111111111111111111111111116ww6",
"<<1111111111111111111111111111111111111111111111111111111111qww611111111111111111111111111111111<<111111111111111111111111116ww6",
"<111111111111111111111111111111111<<1111111111<<1111111111<<5wwq111111111111111111111111111111<1<1111111111111111111111111116ww6",
"11111111111111111111111111111111111<1111111111<<111111111<<<6ww5111111111111111111111111111111<<<1111111111111111111111111116we6",
"1111,,,,>>>>>>>>>>>>>,,,>,>>,,>>,,,,,,,,,,,,,,,,,,,,,,,,;:$#qetq1111>>>>>>,>>>>>>,,,>>>>>>>>:>>>>>>>>>>>>>>>>>>>>>>>>>>>>>$ 6ew6",
"1111,$;$;*$$$$$$$$*;;;;:;;;;$$$$$$$$$$$$$$$$$#$$#$#$$$$$%+  %aaq1111>$$$$:;;$$$$$$:;:$$$$$$$$$$$$$$$$$$$$$$$$$$$$$$$$$$$$#  &tw6",
"1111,$;;;$$$$$$*=;;;;;;;;::;;;;*$$$$$$$$$$$$$$$$$$$$$$$$#   &aaq1111>$$$$;;;=$$$$;;;;$$$$$$$$$$$$$$$$$$$$$$$$$$$$$$$$$$$$   5pw6",
"1111,$$,:$$$$$;;;;:;;;;;;;;;;;;;;$$$$$$$$$$$$$$$$$$$$$$$+  X&aaq1111,$$$;;;:$$$$$;;;=$$$$$$$$$$$$$$$$$$$$$$$$$$$$$$$$$$$#   5ay6",
"1111,;;;;$$$;;;;;;;;;;;;;;;;;;;;$,$$$$$$$$$$$$$$$$$$$$$$    5aaq1111>$$$$$:;$$$$$:;;$$$$$$$$$$$$$$$$$$$$$$$$$$$$$$$$$$$$X   5aa6",
"1111,;;;$$$$;;;;;;;;$;:;;;:;;;;;:$:$:$$$$$$$$$$$$$$$$$$#    5aaq1111>$$$$$$$$$$$=;;;$$$$$$$$$$$$$$$$$$$$$$$$$$$$$$$$$$$#    5apq",
"1111,;;;;$$$$;:;;$$$$$$$;;;;;;;;$,:$:$$$$$$$$$$$$$$$$$$X    5aaq1111>$$$$$$$$$$$;;;;$$$$$$$$$$$$$$$$$$$$$$$$$$$$$$$$#$$#    &apq",
"1111,:;;$$$$$*;$$$$$$$$$;;;;;;;::$::$,$$$$$$$$$$$$$$$$$     5aaq1111>$$$$$$$$$$$;;;;$$$$$$$$$$$$$$$$$$$$$$$$$;>$$$$$$$##    5aa6",
"1111,:;;$$$$$$$$$$$$$$$$;;;;;;;;$,$::::$$$$$$$$$$$$$$$$     &aaq1111>$$$$:;;;$$;;;;;>;$$$$$$$$$$$$$$$$$;;:;;;;;$$$$$$$$X    5aaq",
"1111,;;:$$$$$$$$$$$$$$$;;;:;;;;;:$:$$$:;$$$$$$$$$$$$$$$     qaaq1111>$$$$;;;;:;;;;;;;;=$$$$$$$$$$$$$;$;;;;;;;;;;$$$$$$$X    5ay6",
"1111,$;$$$$$$$$$$$$$$$$$;;;;;;;;::$::$:$$$$$$$$$$$$$$$$     &aaq1111>$$$;:;;;;;;;:;;;;$$$$$$$$$$$$$$;;;;;;;:;:;$$$$$$$##    &aw6",
"1111,$$$$$$$$$$$$$$$$$$,;;;;;;;:$::$:::$$$$$$$$$$$$$$$$     &aaq1111>$$$$$;;:;;;;;;;:=;$$$$$$$$$$$$$;;;;;;$;$$$$$$$$$$$#  ..5tw6",
"1111>$$$$$$-;;;;;;;$$$;;;;;;;;;;>$::$:$$$$$$$$$$$$$$$$$X    5aaq1111>$$$$$$$$;:;:=$$$$$$$$$$$$$$$$$$$$$$$$$$$$$$$$$$$$$#    &te6",
"1111>$$$$;;;;;;:;;;;$$;;;;;;;;$,$::$$$$$$$$$$$$$$$$$$$$+    5aaq1111>$$$$$$$$:;;=$$$$$$$$$$$$$$$$$$$$$$$$$$$$$$$$$$$$$$$X   5yw6",
"1111>$=;;;;;;;;;;;;;$$$;;;;;;;;;$$$$$$$$$$$$$$$$$$$$$$$#    5aaq1111>$$$$$$$;;;;$$$$$$$$$$$$$$$$$$$$$$$$$$$$$$$$$$$$$$$$#   &ew6",
"1111,;;;;;;;;;;;;;;;;$$;;;;;;;;;$$$$$$$$$:$$$$$$$$$$$$$$    5aaq1111>$$$$$$;;;;=$$$$$$$$$$$$$$$$$$$$$$$$$$$$$$$$$$$$$$$$X   5tw6",
"1111,;;;;;;;;;;;;;;;$$$;$;$$$$$$$$$$$$$$$:$$$$$$$$$$$$$$X   5aaq1111>$$$$;;;;;:$$$$$$$$$$$$$$$$$$$$$$$$$$$$$$$$$$$$$$$$$#   5yeq",
"1111,;;;;;;;;;;;;;;;:$$$$$$$$$$$$$$$$$$$:$::;$$$$$$$$$$$XX  5aaq1111>$$$$=;;;;$$$$$$$$$$$$$$$$$$$$$$$$$$$$$$$$$$$$#$$$$$#   5pw5",
"1111,;;;;;;;;;;;;;;;$$$$$$$$$$$$$$$$$$$$$;;$;$$$$$$$$$$$X   5apq1111>$$$$$;:=$$$$$$$$$$$$$$$$$$$$$$$$$$$$$$$$$$$$$$$$$$$    5iw6",
"1111,$$-----*=@@#oX         XX##$$$$$$$$$:;:$$$$$$$$$$$$+   &aaq1111>$$$$$;$;;;==$$$$$$#$$$$$$$$$$$$$$$$$$$$$$$$$$$$$$$$X   5pw6",
"1111>$$$@@OX..                     ###$$$$%$$$#+$$$###++    &apq1111,#XX###$;;;;$$%$$$##$$$$$$#+$###X#XX       XXXXXXX      5aw6",
"1111>o..  ..                            X  XXXX             &aiq111<$    X     #  ######+XXXX                               5aw6",
"1111$ .                                                     qapq11<<#                                                       5at6",
"1111@      .                                                &eeq11<<#                                                       &yw6",
"66666%%%%2%%%%%2&&&%%%2%%&&&&&&&%%%%%%%%&&%%%%%%%%%%&%%%%%%%%ww6q6666%%%&&&&&&&%%%%%&&%%&&&&%%%%%%%%&&%%%%%%%%%%&&%%%%%%%%%%&wwq",
"wwwwwwwwwwwwwwqwewwwwrqwwwwwwwwwwwwwwwwwqeewwwwwwwwweewwwwwwwwwwewwwwwwwqwwwwwwqwwwwqweeeewewwwwwwwwewwwwwwwwwwwewwwwewwwwwewwwq",
"wwwwwwrqwwwwwwrwrwwwwwwwwwrqwrwwwwwqwwqwwqwwqwwqwwwwwqwwwwwqwwwwwwwwwwwwwwwwwewwqwwwewqewqwwqwwwwwqqwqwwqwwwwwqqwwwweqwqwwqeweww",
"66666666666666666666666666666ww6q&qq&qq&qq5qq&qq5q5q5q5q65q6q566666666665q6665q5q5q&qq5q5q5qqwwq&qq5q5qq5q5qq5q5q&qq5q5q5q65q55q"
};