/* XPM */
static char * die3_xpm[] = {
"64 64 257 2",
"  	c None",
". 	c #000000",
"+ 	c #0000A8",
"@ 	c #00A800",
"# 	c #00A8A8",
"$ 	c #A80000",
"% 	c #A800A8",
"& 	c #A85400",
"* 	c #A8A8A8",
"= 	c #545454",
"- 	c #5454FC",
"; 	c #54FC54",
"> 	c #54FCFC",
", 	c #FC5454",
"' 	c #FC54FC",
") 	c #FCFC54",
"! 	c #FCFCFC",
"~ 	c #ECECEC",
"{ 	c #DCDCDC",
"] 	c #D0D0D0",
"^ 	c #C0C0C0",
"/ 	c #B4B4B4",
"( 	c #A8A8A8",
"_ 	c #989898",
": 	c #8C8C8C",
"< 	c #7C7C7C",
"[ 	c #707070",
"} 	c #646464",
"| 	c #545454",
"1 	c #484848",
"2 	c #383838",
"3 	c #2C2C2C",
"4 	c #202020",
"5 	c #FC0000",
"6 	c #EC0000",
"7 	c #E00000",
"8 	c #D40000",
"9 	c #C80000",
"0 	c #BC0000",
"a 	c #B00000",
"b 	c #A40000",
"c 	c #980000",
"d 	c #880000",
"e 	c #7C0000",
"f 	c #700000",
"g 	c #640000",
"h 	c #580000",
"i 	c #4C0000",
"j 	c #400000",
"k 	c #FCD8D8",
"l 	c #FCB8B8",
"m 	c #FC9C9C",
"n 	c #FC7C7C",
"o 	c #FC5C5C",
"p 	c #FC4040",
"q 	c #FC2020",
"r 	c #FC0000",
"s 	c #FCA85C",
"t 	c #FC9840",
"u 	c #FC8820",
"v 	c #FC7800",
"w 	c #E46C00",
"x 	c #CC6000",
"y 	c #B45400",
"z 	c #9C4C00",
"A 	c #FCFCD8",
"B 	c #FCFCB8",
"C 	c #FCFC9C",
"D 	c #FCFC7C",
"E 	c #FCF85C",
"F 	c #FCF440",
"G 	c #FCF420",
"H 	c #FCF400",
"I 	c #E4D800",
"J 	c #CCC400",
"K 	c #B4AC00",
"L 	c #9C9C00",
"M 	c #848400",
"N 	c #706C00",
"O 	c #585400",
"P 	c #404000",
"Q 	c #D0FC5C",
"R 	c #C4FC40",
"S 	c #B4FC20",
"T 	c #A0FC00",
"U 	c #90E400",
"V 	c #80CC00",
"W 	c #74B400",
"X 	c #609C00",
"Y 	c #D8FCD8",
"Z 	c #BCFCB8",
"` 	c #9CFC9C",
" .	c #80FC7C",
"..	c #60FC5C",
"+.	c #40FC40",
"@.	c #20FC20",
"#.	c #00FC00",
"$.	c #00FC00",
"%.	c #00EC00",
"&.	c #00E000",
"*.	c #00D400",
"=.	c #04C800",
"-.	c #04BC00",
";.	c #04B000",
">.	c #04A400",
",.	c #049800",
"'.	c #048800",
").	c #047C00",
"!.	c #047000",
"~.	c #046400",
"{.	c #045800",
"].	c #044C00",
"^.	c #044000",
"/.	c #D8FCFC",
"(.	c #B8FCFC",
"_.	c #9CFCFC",
":.	c #7CFCF8",
"<.	c #5CFCFC",
"[.	c #40FCFC",
"}.	c #20FCFC",
"|.	c #00FCFC",
"1.	c #00E4E4",
"2.	c #00CCCC",
"3.	c #00B4B4",
"4.	c #009C9C",
"5.	c #008484",
"6.	c #007070",
"7.	c #005858",
"8.	c #004040",
"9.	c #5CBCFC",
"0.	c #40B0FC",
"a.	c #20A8FC",
"b.	c #009CFC",
"c.	c #008CE4",
"d.	c #007CCC",
"e.	c #006CB4",
"f.	c #005C9C",
"g.	c #D8D8FC",
"h.	c #B8BCFC",
"i.	c #9C9CFC",
"j.	c #7C80FC",
"k.	c #5C60FC",
"l.	c #4040FC",
"m.	c #2024FC",
"n.	c #0004FC",
"o.	c #0000FC",
"p.	c #0000EC",
"q.	c #0000E0",
"r.	c #0000D4",
"s.	c #0000C8",
"t.	c #0000BC",
"u.	c #0000B0",
"v.	c #0000A4",
"w.	c #000098",
"x.	c #000088",
"y.	c #00007C",
"z.	c #000070",
"A.	c #000064",
"B.	c #000058",
"C.	c #00004C",
"D.	c #000040",
"E.	c #282828",
"F.	c #FCE034",
"G.	c #FCD424",
"H.	c #FCCC18",
"I.	c #FCC008",
"J.	c #FCB400",
"K.	c #B420FC",
"L.	c #A800FC",
"M.	c #9800E4",
"N.	c #8000CC",
"O.	c #7400B4",
"P.	c #60009C",
"Q.	c #500084",
"R.	c #440070",
"S.	c #340058",
"T.	c #280040",
"U.	c #FCD8FC",
"V.	c #FCB8FC",
"W.	c #FC9CFC",
"X.	c #FC7CFC",
"Y.	c #FC5CFC",
"Z.	c #FC40FC",
"`.	c #FC20FC",
" +	c #FC00FC",
".+	c #E000E4",
"++	c #C800CC",
"@+	c #B400B4",
"#+	c #9C009C",
"$+	c #840084",
"%+	c #6C0070",
"&+	c #580058",
"*+	c #400040",
"=+	c #FCE8DC",
"-+	c #FCE0D0",
";+	c #FCD8C4",
">+	c #FCD4BC",
",+	c #FCCCB0",
"'+	c #FCC4A4",
")+	c #FCBC9C",
"!+	c #FCB890",
"~+	c #FCB080",
"{+	c #FCA470",
"]+	c #FC9C60",
"^+	c #F0945C",
"/+	c #E88C58",
"(+	c #DC8854",
"_+	c #D08050",
":+	c #C87C4C",
"<+	c #BC7848",
"[+	c #B47044",
"}+	c #A86840",
"|+	c #A0643C",
"1+	c #9C6038",
"2+	c #905C34",
"3+	c #885830",
"4+	c #80502C",
"5+	c #744C28",
"6+	c #6C4824",
"7+	c #5C4020",
"8+	c #543C1C",
"9+	c #483818",
"0+	c #403018",
"a+	c #382C14",
"b+	c #28200C",
"c+	c #600064",
"d+	c #006464",
"e+	c #006060",
"f+	c #00001C",
"g+	c #00002C",
"h+	c #302410",
"i+	c #480048",
"j+	c #500050",
"k+	c #000034",
"l+	c #1C1C1C",
"m+	c #4C4C4C",
"n+	c #5C5C5C",
"o+	c #404040",
"p+	c #303030",
"q+	c #343434",
"r+	c #D8F4F4",
"s+	c #B8E8E8",
"t+	c #9CDCDC",
"u+	c #74C8C8",
"v+	c #48C0C0",
"w+	c #20B4B4",
"x+	c #20B0B0",
"y+	c #00A4A4",
"z+	c #009898",
"A+	c #008C8C",
"B+	c #008484",
"C+	c #007C7C",
"D+	c #007878",
"E+	c #007474",
"F+	c #007070",
"G+	c #006C6C",
"H+	c #980088",
"                                                                                                                                ",
"                                                                                                                                ",
"                                                                                                                                ",
"                                                                                                                                ",
"                                                                                                                                ",
"                                                                                                                                ",
"                                                                                                                                ",
"                                                  *                                                                             ",
"                                                  ^                                                                             ",
"                                                  ]                                                                             ",
"                                                  {                                                                             ",
"                                                  ~                                                                             ",
"                                                  ~                                                                             ",
"                                                  ^ =                                                                           ",
"                                                  * n+=                                                                         ",
"                                                  < n+[                                                                         ",
"                                                  o+2 o+                                                                        ",
"                                                  < 1 1                                                                         ",
"                                              < / ] } <                                                                         ",
"                                                1 [ o+/                                                                         ",
"                                                : * 3 ^                                                                         ",
"                                              o+* * 3 *                       2 = 1 o+                                          ",
"                                                  _ 3 :                     } < _ : < =                                         ",
"                                                  _ 4 :                     _ $ < $ 9 <                                         ",
"                                                  _ 4 <                     : < } [ : [                                         ",
"                                                  } = [                     } 7+7+7+[ }                                         ",
"                                                  } [ ] _ n+o+        o+      < 1 n+<                                           ",
"                                                    m+< o+_ ] ^     2 1   p+  = 1 n+n+                                          ",
"                                                      o+f+4 n+* < } = 1 2 2 = = m+= 2                                           ",
"                                                      n+f+f+4 1 < m+1 m+n+= < : [ } m+2 = [ < : =                               ",
"                                                            } = : / } 1 } < 2 } [ [ [ [ [ _ n+[ [ n+                            ",
"                                                                ~ ~ < 1 [ _ * n+= [ [ < < < < 1 1 =                             ",
"                                            =                   ] ~ * 1 [ * * [ 4 o+< < < : : < } 1                             ",
"                                      } / } ^ / : 4             [ * n+o+= _ } 1 4 4 n+: : : : : n+*                             ",
"                                      _ < } n+* / [ <             : 2 m+1 3 3 = p+m+n+} : : : : _ ~                             ",
"                                        m+n+} [ 1 = ] _       } = 1 p+n+[ } o+q+[ n+[ l+= : : : [ }                             ",
"                                      : E.n+1 l+4 4 } [ [ : : < [ ] [ n+= 1 2 1 = }       : } < :                               ",
"                                      / 1 o+m+f+. 2 2 o+= } : < = / } m+o+E.4 2 _ ~         = =                                 ",
"                                      : l+l+E.= : 1 } < 1 = = < ] / E.p+n+[ [ } 1 ^                                             ",
"                                    n+= 1 E.4       E.= 1 o+m+= < } E.: _ [ : ] [ 4                                             ",
"                                      3 2 o+            2 o+1 2   3 l+: _ n+= * [                                               ",
"                                      } l+p+E.            p+o+    1 n+n+n+2 n+{ [                                               ",
"                                      = 2 1                       n+= n+o+o+^ ]                                                 ",
"                                      : 1 o+                      < m+< 1 * ] 1 = =                                             ",
"                                      [ 4 4                       _ n+2 2 _ _                                                   ",
"                                      p+2 n+                  } [ < : : o+o+1 1                                                 ",
"                                      o+} n+                  2 o+1 o+} } 4                                                     ",
"                                  2 2 } 2 n+                    o+1 o+1                                                         ",
"                                4 2 n+= m+1                       } 1                                                           ",
"                              l+3 q+1 m+2 =                   4 2 = o+*                                                         ",
"                            4 2 1 o+n+: o+                    4 l+l+4 }                                                         ",
"                            f+f+4 l+}                         l+E.l+l+3                                                         ",
"                                                                = l+l+n+                                                        ",
"                                                              4 3 l+4                                                           ",
"                                                              . l+f+                                                            ",
"                                                                E.l+  p+                                                        ",
"                                                              2 4 2 }                                                           ",
"                                                              [ q+n+                                                            ",
"                                                              = m+=                                                             ",
"                                                            } m+n+1                                                             ",
"                                                            } = : [                                                             ",
"                                                          = 1 [ q+m+                                                            ",
"                                                        f+o+p+o+[ l+                                                            ",
"                                                      . E.= 2 n+4 4                                                             "};
