/* XPM */
static char * DOOR_4B_xpm[] = {
"64 64 14 1",
" 	c #4F4C3F",
".	c #373C2C",
"+	c #322E1D",
"@	c #1C1C1B",
"#	c #66684C",
"$	c #818556",
"%	c #382B2F",
"&	c #44402F",
"*	c #655B3C",
"=	c #2B1F23",
"-	c #7E6F4C",
";	c #958E57",
">	c #434436",
",	c #141413",
"               . . .            .                          . .  ",
"................................................................",
"................................................................",
"...+@@@@@@+@+@++++.....@@@@@@@@@@@@@@@+@+@+@++++++++++..........",
"...@..................@...................................@. ...",
"...@.............#...@...............................#...@.. ...",
"...@............#...@...............................#...@... ...",
"   +           $   +                               #   +    #   ",
"...@..........$...@...............................$...@..... ...",
"   +         $   +                               $   +      #   ",
"   +        $   +                   #           #   +       $   ",
"   .       $   +                   #.          $   +        #   ",
"   +      $   +                   $%&         $   +         $   ",
"   .     $   +                   #%&&        $   +          $   ",
"   .    $   +                     &&        $   +           $   ",
"   .   $   .                      &&&      $   .            $   ",
"   .  $   .                       &&      $   .             $   ",
"   . #                            &&     $                 #$   ",
"          ############$#$#$$$$$$******$$#     ##$#$$$$$$$$$$    ",
"                                 &&&&&                          ",
"                                  &&&&                          ",
"                                  &&&&                          ",
"    +++++++++++++++++++.+.+.+.++++==+=++++++++++++.+..          ",
"   +.                             && &&                   . #   ",
"   +                              &  &               #   .  #   ",
"   +  -;;;;;;;;;;->               && &              #   .   #   ",
"   +  ;;.,..;,;.;;.  &      +     && &             #   .    #   ",
"   +  ;;;;;;;;;;;;.         &     &               #   .     #   ",
"   +  ;;.;,,..;;;;.         &     && &           $   +      #   ",
"   +  -;;;;;;;;;;-.               &             $   +       $   ",
"   .  >...........>         &      &           $   +        #   ",
"   +                              &           $   +         $   ",
"   .      -;;;;;;->                          $   +          $   ",
"   .      ;;,.;.;;.  &      &     &         $   .           $   ",
"   .      -;;;;;;-.                        $   .            $   ",
"   .      >.......>               &       $   .             $   ",
"                                         $                 #$   ",
"     ######$#$#$$$$$$$$$$$$$$$$$$#$#$#$$#     ###$#$#$$$$$$$    ",
"                                                                ",
"                                                                ",
"                                                                ",
"    ++++++.+.+....     .++++++++++++++++++++++++.+.+.......     ",
"   +.                 +                                         ",
"   +             #   +                         .+++         #   ",
"   +            #   +                         .+&&..        #   ",
"   +           $   +                         .+&&  .#       $   ",
"   +          $   +                          +&& &  #       #   ",
"   +         $   +                           +.&&  $#       $   ",
"&  +        $   +                             #  $$#        #   ",
"   .       $   +                               $$#   +.     $   ",
"&  +      $   +                                     +& #    $   ",
"   .     $   +                                      . $#    $   ",
"&  .    $   +                                        ##     $   ",
"&  .   $   .                                                $  &",
"&& .  $   .                                                 $   ",
"&  . #            ++...&                                   #$  &",
"&&        #######.&&& & $#$$$$$$$$$$#$$$$$$$$$$$#$#$$$$$$$$$  & ",
"&                 #####$                                       &",
"&&     &                                                      &&",
"&& &                                                      & & &&",
"++++.+.......................................+.........+.+.+..+@",
"@+++++...+...+........+.+....................++......+.++.+++.++",
"@+@@+++.++++.++.+.++++.+.+.+..............+.++@++.+.+.++.++@@++@",
"@@@@@@@+@+@+++++@@@,,,,@,,,,+,++++++++++@+@++@@@+@@@@@@+@+@+@@@@"};
