/* XPM */
static char * DOOR_1F_xpm[] = {
"64 64 17 1",
" 	c #464D4F",
".	c #383F40",
"+	c #911C1B",
"@	c #792429",
"#	c #141413",
"$	c #000000",
"%	c #621823",
"&	c #2F1C17",
"*	c #382B2F",
"=	c #536265",
"-	c #28221F",
";	c #C02200",
">	c #62797E",
",	c #4B3F38",
"'	c #AE260B",
")	c #693837",
"!	c #6C5256",
"                 .    .+@@@#$++++                          . .  ",
".......................@@@@#$+@@@...............................",
".......................@@@%#$+@@@...............................",
"....&&&&&&*&*******....@@@@#$+@@@...&&&&&&&&&&&&*&****&&&**.....",
"...&*..................@@@%#$+@@@..&*...........................",
"...&................ ..@@@%#$+@@@..&........................ ...",
"...&................ ..@@@%#$+@@@..&........................ ...",
"   *                =  +++@-#;+++  *                        =   ",
"...&................ ..@@@%#$+@@@..&........................ ...",
"   *                =  +++@-#;+++  .                        =   ",
"   *                >  +++@#$;+++  .                        >   ",
"   *        .       =  +++@#$;+++                           =   ",
"   *       .>       >  +++@-#;+++    ===>=>>>>=             >   ",
"   *      *=        >  +++@-#;+++              =            >   ",
"   *     *=         >  +++@-#;+++               =           >   ",
"   .    *,          >  +++@##'+++++++++++++++)   =          >   ",
"   .    ,,          >  +++@-#;+++++++++++++++++   =         >   ",
"        ,,         =>  ++++##'+++++++++++++++++)   =       =>   ",
"     ====!>=>=>>>>>>   +++@-#''''''''+'+'+++++++    =>>>>>>>    ",
"        ,               '++----------#-###$@++++                ",
"        ,,            .'+++@--------#-#-###$ + +                ",
"    ****&&*.*......   =+++++++++++++++   .#$  ++   ****....     ",
"   *.   ,,          .  )+++++++++++++ +   #$   +  *             ",
"   *     ,       . .    ++++++++++++++ + .#$= +   *         =   ",
"   *    ,       .=. .=   )+++++++++++++   #$=  +  *         =   ",
"   *     ,     .>. .> =               ++ .#$= +   *         =   ",
"   .          .>  .=   =              +  .#$>  +  *         >   ",
"   *     ,    =  .      .******...     + .#$> +   *.        =   ",
"   .                                  +  .#$>     *=        >   ",
"   *                               =     .##=    .          >   ",
"   .                               =  +  .-#>   .>*         >   ",
"   *                               =     .#-=   =.     .>   >   ",
"   *                               =     .-#=   .>.   .=    =   ",
"   *                               >      #-=   = .  *=     >   ",
"   *               .***            >  +  .-#=  +  . *,      >   ",
"   *              .*,,..          =>      #-=     . ,,      >   ",
"   *             .*,,  .=>>>>>>>>>>   + + --=  +  . ,       >   ",
"   .            >*,, ,  =              +  #-=     .  ,      >   ",
"   *           > *.,,  >=       '.    + + --   +  . ,       >   ",
"   .          >   )  );'+++++++'%@++++ +  #-  +   .         >   ",
"   .         >   +;;;'+++++++';$%++++++   -- + +  .         >   ",
"            >   )++++++++++';$##@+++++ +  #-' ++           =>   ",
"     ==>>>>>    +++++++'';;$#-#-#@@+'++  .--'+++    ===>>>>>    ",
"                ++++@##--#---#-#-$$$$$##----++++                ",
"                ++++#$#-#---#-#-#######-#--@++++                ",
"    ****....    ++++#$++++++++++++++++++++++++++    ***....     ",
"   *.           +++@#$+++++++++++++++++++++++++)   *            ",
"   *         =  ++++#$'++++++++++++++++++++++++   *         =   ",
"   *     *.  =  +++@#$+++++++++++++++++++++++)   *          =   ",
"   *    *, = =  +++@#$'+++                      *           =   ",
"   .    . >= >  +++@#$;+++                     .            >   ",
"   *     =   >  +++@-#;+++   **********.*......             =   ",
"   .         >  +++@#$;+++  *.                              >   ",
"   .         >  +++@-#'+++  *                               >   ",
"   .         >  +++@#$;+++  *                               >   ",
"   *         =  +++%-#++++  *                               >   ",
"   .         >  +++@-#'+++  .                               >   ",
"   .         >  +++%-#++++  .                               >   ",
"   .         >  +++%##++++  .                               >   ",
"            =>  +++%-#++++                                 =>   ",
"     ====>>>>   +++%##++++    ======>>>>>=>=>>>>>>>>>>>>>>>>    ",
"                +++%-#++++                                      ",
"                +++%--++++                                      ",
"*&&&&&&*&*&*****&&&####&####*#**********&*&**&*&*&&&&&&*&*&*****"};
