/* XPM */
static char * DOOR_2C_xpm[] = {
"64 64 53 1",
" 	c #000000",
".	c #414849",
"+	c #464D4F",
"@	c #383F40",
"#	c #42494B",
"$	c #313738",
"%	c #313838",
"&	c #313839",
"*	c #382B2F",
"=	c #2F1C17",
"-	c #536265",
";	c #404749",
">	c #62797E",
",	c #41484A",
"'	c #394041",
")	c #394042",
"!	c #3A4142",
"~	c #8C948F",
"{	c #9FA7A1",
"]	c #3F4748",
"^	c #889C9E",
"/	c #404748",
"(	c #3A4143",
"_	c #141413",
":	c #242A2B",
"<	c #191B1D",
"[	c #3B4243",
"}	c #0C3A00",
"|	c #238F00",
"1	c #AE260B",
"2	c #BD541F",
"3	c #3C4344",
"4	c #792429",
"5	c #66A916",
"6	c #146836",
"7	c #3C4345",
"8	c #3D4345",
"9	c #3D4445",
"0	c #3D4446",
"a	c #3E4546",
"b	c #6F5734",
"c	c #9F7315",
"d	c #744000",
"e	c #B08A2E",
"f	c #7D5F2E",
"g	c #715833",
"h	c #735A33",
"i	c #C1B339",
"j	c #7E602E",
"k	c #745B32",
"l	c #3E4547",
"m	c #42494A",
"n	c #382E31",
"                                                                ",
".++++++++++++++@+@+@++++++++++++@++++++++++++++++++++++++++@+@+#",
"$@@@@@@@@@@@@@@@@@@@@@@@@@@@@@@@@@@@@@@@@@@@@@@@@@@@@@@@@@@@@@@%",
"$@@@@@@@@@@@@@@@@@@@@@@@@@@@@@@@@@@@@@@@@@@@@@@@@@@@@@@@@@@@@@@&",
"%@@*======*=*=****@@@@@===============*=*=*=**********@@@@@@@@@$",
"%@@=@@@@@@@@@@@@@@@@@@=@@@@@@@@@@@@@@@@@@@@@@@@@@@@@@@@@@@=@+@@%",
"&@@=@@@@@@@@@@@@@-@@@=@@@@@@@@@@@@@@@@@@@@@@@@@@@@@@@-@@@=@@+@@&",
"&@@=@@@@@@@@@@@@-@@@=@@@@@@@@@@@@@@@@@@@@@@@@@@@@@@@-@@@=@@@+@@$",
";++*+++++++++++>+++*+++++++++++++++++++++++++++++++-+++*++++-++,",
"&@@=@@@@@@@@@@>@@@=@@@@@@@@@@@@@@@@@@@@@@@@@@@@@@@>@@@=@@@@@+@@&",
"'++*++++++++>+++*+++++++++++++++++++++++++++++++-+++*+++++++>++,",
"'++@+++++++>+++*+++++++++++++++++++++++++++++++>+++*++++++++-++,",
"'++*++++++>+++*+++++++++++++++++++++++++++++++>+++*+++++++++>++,",
"'++@+++++>+++*+++++++++++++++++++++++++++++++>+++*++++++++++>++.",
"'++@++++>+++*+++++++++++++++++++++++++++++++>+++*+++++++++++>++.",
"'++@+++>+++@+++++++++++++++++++++++++++++++>+++@++++++++++++>++.",
"'++@++-+++@+++++++++++++++++++++++++++++++>+++@+++++++++++++>++.",
"'++@+-+++++++++++++++++++++++++++++++++++>+++++++++++++++++->++;",
")+++++++++------------>->->>>>>>>>>>>>>>-+++++-->->>>>>>>>>>+++;",
"!++++++++++++++++++++++++++++++++++++++++++++++++++++++++++++++;",
"!++++++++++++++++++++++++++++++++++++++++++++++++++++++++++++++;",
"!++++++++++++++++++++++++++++++++++++++++++++++++++++++++++++++;",
"!+++*******************@*@*@*@********************@*@@+++++++++;",
"!++*@+++++++++++++++++++++++++++++++++++++++++++++++++++++@+-++;",
"!++*+++++++++++++++++++++++++++++++++++++++++++++++++-+++@++-++;",
"!++*++~{{{{{{{{{{~]++-^^>>>--@-+++++++++++++++++++++-+++@+++-++/",
"(++*++{{@_@@{_{@{{@++^+++++++_+@+++++++++++++++++++-+++@++++-++/",
"(++*++{{{{{{{{{{{{@++^+:<<_<+_+@++++++++++++++++++-+++@+++++-++/",
"[++*++{{@{__@@{{{{@++>+<<}|_+<+@+++++++++++++++++>+++*++++++-++/",
"[++*++~{{{{{{{{{{~@++>+<___<+_+@++++++++++++++++>+++*+++++++>++/",
"[++@++]@@@@@@@@@@@]++>+++++++<+*+++++++++++++++>+++*++++++++-++/",
"[++*+++++++++++++++++-+1+1+2+<+@++++++++++++++>+++*+++++++++>++/",
"[++@++~{{{{{{~]++++++>+++++++:+*+++++++++++++>+++*++++++++++>++/",
"3++@++{{_@{@{{@++++++-+4+5+6+:+*++++++++++++>+++@+++++++++++>++/",
"3++@++~{{{{{{~@++++++-+++++++<+*+++++++++++>+++@++++++++++++>++/",
"3++@++]@@@@@@@]+++++++@@*****=*@++++++++++>+++@+++++++++++++>++/",
"3++++++++++++++++++++++++++++++++++++++++>+++++++++++++++++->++/",
"7++++------>->->>>>>>>>>>>>>>>>>>->->->>-+++++--->->->>>>>>>+++/",
"8++++++++++++++++++++++++++++++++++++++++++++++++++++++++++++++/",
"9++++++++++++++++++++++++++++++++++++++++++++++++++++++++++++++/",
"0++++++++++++++++++++++++++++++++++++++++++++++++++++++++++++++/",
"0+++******@*@*@@@@+++++@************************@*@*@@@@@@@++++/",
"a++*@+++++++++++++++++*++++++++++++++++++++++++++++++++++++++++/",
"bccdcccccccccccccecccdcccccccccccccccccccccccccccccccccccccceccf",
"gccdccccccccccccecccdccccccccccccccccccccccccccccccccccccccceccf",
"hccdcccccccccccicccdcccccccccccccccccccccccccccccccccccccccciccj",
"kccdccccccccccicccdccccccccccccccccccccccccccccccccccccccccceccj",
"l++*+++++++++>+++*++++++++++++++++++++++++++++++++++++++++++>++;",
"a++*++++++++>+++*+++++++++++++++++++++++++++++++++++++++++++-++;",
"9++@+++++++>+++*++++++++++++++++++++++++++++++++++++++++++++>++;",
"7++*++++++>+++*+++++++++++++++++++++++++++++++++++++++++++++>++;",
"7++@+++++>+++*++++++++++++++++++++++++++++++++++++++++++++++>++.",
"l++@++++>+++*+++++++++++++++++++++++++++++++++++++++++++++++>++.",
";++@+++>+++@++++++++++++++++++++++++++++++++++++++++++++++++>++.",
";++@++>+++@+++++++++++++++++++++++++++++++++++++++++++++++++>++.",
".++@+-+++++++++++++++++++++++++++++++++++++++++++++++++++++->++,",
".+++++++++------------>->->>>>>>>>>>>>>>>>>>>>>>->->>>>>>>>>+++,",
"m++++++++++++++++++++++++++++++++++++++++++++++++++++++++++++++,",
"m++++++++++++++++++++++++++++++++++++++++++++++++++++++++++++++,",
"#++++++++++++++++++++++++++++++++++++++++++++++++++++++++++++++,",
"@@@@@@@@@@@@@@@@@@@@@@@@@@@@@@@@@@@@@@@@@@@@@@@@@@@@@@@@@@@@@@@@",
"@@@@@@@@@@@@@@@@@@@@@@@@@@@@@@@@@@@@@@@@@@@@@@@@@@@@@@@@@@@@@@@@",
"@@@@@@@@@@@@@@@@@@@@@@@@@@@@@@@@@@@@@@@@@@@@@@@@@@@@@@@@@@@@@@@@",
"n======*=*=*****===____=____*_**********=*=**=*=*======*=*=*****"};
