/* XPM */
static char * Explosion7_xpm[] = {
"32 32 2 1",
" 	c None",
".	c #29141C",
"         ....                   ",
"       ....      ... ..         ",
"       ..       ..    ..  .     ",
"      ..              ...  ..   ",
"   ...    ...        . .    ..  ",
"  ..      .. .      ... .    .  ",
"  .         . .      . .   ..   ",
"  .        ...             ...  ",
"          ...       ..     ...  ",
"         ...        ...     ..  ",
"        .. . ...     ..       . ",
"        . . .... .    .       ..",
" .       ...... .     .        .",
"..      . .... . .             .",
"..       . . .  ....            ",
" .    . . . .  ....             ",
" ..   .    .   .  . .      .    ",
"  .   ..  .      . .      ..    ",
"      .. ..       .       .     ",
".      .. ..                 .  ",
" .      .....                .. ",
".        .....         .     .. ",
"       .  ..  ..      ..     .. ",
"       ..  ..    ..  ..     ..  ",
" . .    . .....  .         ..   ",
"  .         ..             .    ",
"     .          ..              ",
"     ..         ...             ",
"      ..         ...        .   ",
"                          ..    ",
"            ...       .....     ",
"             ....       ..      "};
