/* XPM */
static char * Explosion3_xpm[] = {
"64 64 5 1",
" 	c None",
".	c #FF0036",
"+	c #FFBA00",
"@	c #29141C",
"#	c #FEFF27",
"                                                                ",
"                                                                ",
"                                                                ",
"                                                                ",
"                                                                ",
"                                                                ",
"                                                                ",
"                                                                ",
"                                                                ",
"                                                                ",
"                                                                ",
"                                                                ",
"                                                                ",
"                                                                ",
"                                                                ",
"                                                                ",
"                                                                ",
"                                                                ",
"                                                                ",
"                                                                ",
"                                                                ",
"                                                                ",
"                                                                ",
"                                                                ",
"                                                                ",
"                                                                ",
"                                                                ",
"                                                                ",
"                                                                ",
"                                                                ",
"                                                                ",
"                                                                ",
"                                                                ",
"                                                                ",
"                                                                ",
"                              ....                              ",
"                           +++++...@                            ",
"                         ++###+++.@@@@..                        ",
"                        ++#####++@@..@@..                       ",
"                       ++#######+.....@@..                      ",
"                      .++#######..++..@@.+.                     ",
"                      .++#######.++++.@@.++.                    ",
"                      .++######+++++.@@..+++.                   ",
"                     @..+++##+##++......++++.                   ",
"                     @..++##+####++...+++##++                   ",
"                    @@..++##+####++++++#####+.                  ",
"                    @..+++++++###++#++######+.                  ",
"                    ..+++++++++#++##########++                  ",
"                   ..++##+++++##++###+#####+++                  ",
"                   ..+##+++++####+##++#####+++                  ",
"                   ..###+++++########++###++++                  ",
"                   ..###++###+#######+##++.+++                  ",
"                    .##+.+####+#########++.+++                  ",
"                    .##+.+##############+..++.                  ",
"                     .#+..+####+#######++..+..                  ",
"                     ..#+..++++++#####++..+..                   ",
"                      ..#......+++++++++....                    ",
"                          ....+###+++++..                       ",
"                            ..+##+++++..                        ",
"                            ....+++....                         ",
"                             ++++....                           ",
"                                ..                              ",
"                                                                ",
"                                                                "};
