/* XPM */
static char * Explosion2_xpm[] = {
"64 64 5 1",
" 	c None",
".	c #FF0036",
"+	c #FFBA00",
"@	c #FEFF27",
"#	c #FFF3E8",
"                                                                ",
"                                                                ",
"                                                                ",
"                                                                ",
"                                                                ",
"                                                                ",
"                                                                ",
"                                                                ",
"                                                                ",
"                                                                ",
"                                                                ",
"                                                                ",
"                                                                ",
"                                                                ",
"                                                                ",
"                                                                ",
"                                                                ",
"                                                                ",
"                                                                ",
"                                                                ",
"                                                                ",
"                                                                ",
"                                                                ",
"                                                                ",
"                                                                ",
"                                                                ",
"                                                                ",
"                                                                ",
"                                                                ",
"                                                                ",
"                                                                ",
"                                                                ",
"                                                                ",
"                                                                ",
"                                                                ",
"                                                                ",
"                                                                ",
"                                                                ",
"                            ..+++++..                           ",
"                           .+++++@@@+..                         ",
"                          @@@@@+@@@@++++                        ",
"                         @@@@@@@+@@+@@@++                       ",
"                        +@@#####@@@###@@@.                      ",
"                        +@@#####@@@####@@..                     ",
"                       .+@@#####@@@####@++.                     ",
"                       .+@@#####@@@####@++.                     ",
"                       .++@####@@@@@@@@@+++                     ",
"                       ..++@@@@@@@+@@@@++.+                     ",
"                      +..++++@@@@@+++++++.+                     ",
"                      ++.++@@###@@@+++@++.                      ",
"                      +++@##@###@@@@@@#@+.                      ",
"                       ++@###@@@@@@@###@+.                      ",
"                       ++@##@@@@@@@@###@+.                      ",
"                       .++@@@@@@@@@@@@@@++                      ",
"                         .+@@@++@@@@+++..                       ",
"                          .++++@@@@@++..                        ",
"                           ..+++@@@+++.                         ",
"                               ..+++                            ",
"                                                                ",
"                                                                ",
"                                                                ",
"                                                                ",
"                                                                ",
"                                                                "};
