/* XPM */
static char * Explosion6_xpm[] = {
"32 32 3 1",
" 	c None",
".	c #FF0036",
"+	c #29141C",
"         ..++++..+              ",
"        ..+++..++++++ ++        ",
"      +.++++..++++     ++       ",
"     ++++ ++++            +++   ",
"  .. +++ +++     +++       ++.  ",
" ..+++  ++         ++        +. ",
" .++         +++              ++",
" +++        ..+++   ++      +.++",
"  +       +..++++    ++    ++.. ",
"  +      +..++..  +..++    +++. ",
" +++  ++ +.++..+  ++..+    ++++ ",
" +++ ++  +++..+++++++.+     +++ ",
".+++ ++  +++..+++++++.   +    ++",
".++  +++.++++.+++++.     ++   ++",
"++  ++++.+  +++++++. ++ +++   + ",
"++  ++++..  ++.++++ +++ +++     ",
" +   +++..  ++..++  ++ +++   +  ",
"     ++++..  ++..      ++   ++  ",
"      ++++.. ++++++         + + ",
"+   + ++++++++++++   ++       ++",
"+   ++ +.++  ++++  +++++     +++",
"++   ++ ..++   +++  +++..    ++.",
" ++  ++++...++        ..    ++ .",
" +  + ++++                     +",
"    +     +++               +.. ",
"    ++     ++++            +..+ ",
"    .+ +++        ++       +++  ",
"     . +.++++  +++++      +++   ",
"         ..+++++++.     +  .    ",
"       +++++++++..    +.+++.    ",
"        ++  +++     +..+++.     ",
"                ++++++          "};
