/* XPM */
static char * Explosion5_xpm[] = {
"64 64 4 1",
" 	c None",
".	c #FF0036",
"+	c #29141C",
"@	c #FFBA00",
"                                                                ",
"                                                                ",
"                                                                ",
"                                                                ",
"                                                                ",
"                                                                ",
"                                                                ",
"                                                                ",
"                                                                ",
"                                                                ",
"                                                                ",
"                                                                ",
"                                                                ",
"                                                                ",
"                                                                ",
"                                                                ",
"                                                                ",
"                                                                ",
"                                                                ",
"                                                                ",
"                                                                ",
"                                                                ",
"                                                                ",
"                                                                ",
"                                                                ",
"                                                                ",
"                                                                ",
"                                                                ",
"                                                                ",
"                                                                ",
"                                                                ",
"                                                                ",
"                                                                ",
"                           ...   +...                           ",
"                         ..@@@...+++...                         ",
"                        @.@@@..+++++++..++                      ",
"                       @@@@@..+++  +++++++++.                   ",
"                     .@@.@..+++  ++  +++ +++..                  ",
"                    ..@....++++  +    ++  +++.                  ",
"                    .+@+..++++..+          +++                  ",
"                    .+++++ ++...++          .                   ",
"                    +++ ++  +.++++          ..                  ",
"                    +   +  ++++..+...++   ++..                  ",
"                   ..      ++....@@@@.+  ++++.@                 ",
"                   .+      .+.@@..@@@@   ++++.@                 ",
"                  ..+   +  .+@@@....@.     .++@@                ",
"                 +.+   ++ ..+@@..+..++    ..+++@                ",
"                 +++   +++.@++++++..+..   ..++++                ",
"                 ++  + +++.@.++++....@...    +++                ",
"                 +.  + ++++@@.+++...@@...    +++                ",
"                  .  +++++++@@++...@@..@@   ++.+                ",
"                  +   + +.+++++@@@....@@@ ++++.+                ",
"                      +  ..++++ @@@@..@@ +++++.+                ",
"                    +     ..+++  .. +@@  ++++..                 ",
"                    +++  ++..           +++++.                  ",
"                    .++  ++++          +++++.@                  ",
"                    .@++  +++  +++     ++  +@@                  ",
"                     @.++  .  +++++       ++@                   ",
"                      @++  ...++++       ++                     ",
"                            ...++   +++    .                    ",
"                        ++   .     ++++.@ ..                    ",
"                         ++     +++++.@@ ..                     ",
"                                   ...                          ",
"                                                                "};
