/* XPM */
static char * Explosion1_xpm[] = {
"64 64 4 1",
" 	c None",
".	c #FEFF27",
"+	c #FFBA00",
"@	c #FFF3E8",
"                                                                ",
"                                                                ",
"                                                                ",
"                                                                ",
"                                                                ",
"                                                                ",
"                                                                ",
"                                                                ",
"                                                                ",
"                                                                ",
"                                                                ",
"                                                                ",
"                                                                ",
"                                                                ",
"                                                                ",
"                                                                ",
"                                                                ",
"                                                                ",
"                                                                ",
"                                                                ",
"                                                                ",
"                                                                ",
"                                                                ",
"                                                                ",
"                                                                ",
"                                                                ",
"                                                                ",
"                                                                ",
"                                                                ",
"                                                                ",
"                                                                ",
"                                                                ",
"                                                                ",
"                                                                ",
"                                                                ",
"                                                                ",
"                                                                ",
"                                                                ",
"                                                                ",
"                                                                ",
"                                                                ",
"                           ...++                                ",
"                          .@@@@++@@@.                           ",
"                         .@@@@@@@@@@@.                          ",
"                         .@@@@@@@@@@..+                         ",
"                         +@@@@@@@@@@..+                         ",
"                         +.@@@@@@@@@.++                         ",
"                         ++..@@@@@..++                          ",
"                        +++..@@@@....+                          ",
"                        ++....@@@....++                         ",
"                        ++....@@@....++                         ",
"                         ++....++...+++                         ",
"                         +++..++++++++                          ",
"                          ++++   ++++                           ",
"                                                                ",
"                                                                ",
"                                                                ",
"                                                                ",
"                                                                ",
"                                                                ",
"                                                                ",
"                                                                ",
"                                                                ",
"                                                                "};
