/* XPM */
static char * FENCE_1B_xpm[] = {
"64 80 18 1",
" 	c None",
".	c #2A2E31",
"+	c #3B454A",
"@	c #191716",
"#	c #495960",
"$	c #34393C",
"%	c #5C625E",
"&	c #8C948F",
"*	c #855A00",
"=	c #9F7315",
"-	c #7D8376",
";	c #9FA7A1",
">	c #383F40",
",	c #141413",
"'	c #503C42",
")	c #584415",
"!	c #B08A2E",
"~	c #151515",
".     .+.     .+.     .+.     .+.     .+.     .+.     .+.     .+",
"@     +.@     +.@     +.@     +.@     +.@     +.@     +.@     +.",
".#   #.@.#   #.@.#   #.@.#   #.@.#   #.@.#   #.@.#   #.@.#   #.@",
"@.# #.@ @.# #.@ @.# #.@ @.# #.@ @.# #.@ @.# #.@ @.# #.@ @.# #.@ ",
" @.#.@   @.#.@   @.#.@   @.#.@   @.#.@   @.#.@   @.#.@   @.#.@  ",
"  .+.     .+.     .+.     .+.     .+.     .+.     .+.     .+.   ",
"  +.@     +.@     +.@     +.@     +.@     +.@     +.@     +.@   ",
" #.@.#   #.@.#   #.@.#   #.@.#   #.@.#   #.@.#   #.@.#   #.@.#  ",
"#.@ @.# #.@ @.# #.@ @.# #.@ @.# #.@ @.# #.@ @.# #.@ @.# #.@ @.# ",
".@   @.#.@   @.#.@   @.#.@   @.#.@   @.#.@   @.#.@   @.#.@   @.#",
".     .+.     .+.     .+.     .+.     .+.     .+.     .+.     .+",
"@     +.@     +.@     +.@     +.@     +.@     +.@     +.@     +.",
".#   #.@.#   #.@.#   #.@.#   #.@.#   #. .#   #.@.#   $.@.#   #.@",
"@.# #.@ @.# #.@ @.# #.@ @.# #.@ @.# #.@ @.# #.@ @.# #.@ @.# #.@ ",
" @.#.@   @.#.@   @.#.@   @.#.@   @.#.@   @.#.@   @.#.@   @.#.@  ",
"  .+.     .+.     .+.     .+.     .+.     .+.     .+.     .+.   ",
"  +.@     +.@     +.@     +.@     +.@     +.@     +.@     +.@   ",
" #.@.#   #.@.#   #.@.#   #.@.#   #.@.#   #.@.#   #.@.#   #.@.#  ",
"#.@ @.# #.@%&&&&&&&&&&&&&&&&&&&&&&&&%# *============*.# #.@ @.# ",
".@   @.#.@ &#&&&&&&&&&&&&&&&&&&&-&&#&.#==============@.#.@   @.#",
".     .+.  &-&&&&&&&&&&&&&&&&&&;#&&-&.+============== .+.     .+",
"@     +.@  &-&>>,>,&,>&,,>&&&&;'-&&-&+.======,,,===== +.@     +.",
".#   #.@.# &&&&&&&&&&&&&&&&&&&#--&&-&. =====),,======#.@.#   #.@",
"@.# #.@ @.#&&&,>&>>,>&&&&&&&&&&-&&&&&@ =!#==,,=======.@ @.# #.@ ",
" @.#.@   @.&&&&&&&&&&&&&&&&&&&&--&&-&  ='*=),,,,)====@   @.#.@  ",
"  .+.     .&&&&&&&&&&&&&&&&&&&&-&&&&&  =**====),=====     .+.   ",
"  +.@     +&&&&&&&&&&&&&&&&&&&&&-&&&&  =*=====,======     +.@   ",
" #.@.#   #.&&&,,>,&,&&&&&&&&&&&-&&&&&  ==*===,,,=====#   #.@.#  ",
"#.@ @.# #.@&&&&&&&&&&&&&&&&&&&&&&&&&&# =*=====,======.# #.@ @.# ",
".@   @.#.@ &&&,&>&&&&&&&&&&&&&&-&&&&&.#==============@.#.@   @.#",
".     .+.  &#&&&&&&&&&&&&&&&&&&&&&&#&.+=*============ .+.     .+",
"@     +.@  %&&&&&&&&&&&&&&&&&&&&&&&&%+.*============* +.@     +.",
".#   #.@.#   $@~@$   $@~@$   $@~@$   $.@@$   $@~@$   #.@.#   #.@",
"@.# #.@ @.# #.@ @.# #.@ @.# #.@ @.# #.@ @.# #.@ @.# #.@ @.# #.@ ",
" @.#.@   @.#.@   @.#.@   @.#.@   @.#.@   @.#.@   @.#.@   @.#.@  ",
"  .+.     .+.     .+.     .+.     .+.     .+.     .+.     .+.   ",
"  +.@     +.@     +.@     +.@     +.@     +.@     +.@     +.@   ",
" #.@.#   #.@.#   #.@.#   #.@.#   #.@.#   #.@.#   #.@.#   #.@.#  ",
"#.@ @.# #.@ @.# #.@ @.# #.@ @.# #.@ @.# #.@ @.# #.@ @.# #.@ @.# ",
".@   @.#.@   @.#.@   @.#.@   @.#.@   @.#.@   @.#.@   @.#.@   @.#",
".     .+.     .+.     .+.     .+.     .+.     .+.     .+.     .+",
"@     +.@     +.@     +.@     +.@     +.@     +.@     +.@     +.",
".#   #.@.#   #.@.#   #.@.#   #.@.#   #.@.#   #.@.#   #.@.#   #.@",
"@.# #.@ @.# #.@ @.# #.@ @.# #.@ @.# #.@ @.# #.@ @.# #.@ @.# #.@ ",
" @.#.@   @.#.@   @.#.@   @.#.@   @.#.@   @.#.@   @.#.@   @.#.@  ",
"  .+.     .+.     .+.     .+.     .+.     .+.     .+.     .+.   ",
"  +.@     +.@     +.@     +.@     +.@     +.@     +.@     +.@   ",
" #.@.#   #.@.#   #.@.#   #.@.#   #.@.#   #.@.#   #.@.#   #.@.#  ",
"#.@ @.# #.@ @.# #.@ @.# #.@ @.# #.@ @.# #.@ @.# #.@ @.# #.@ @.# ",
".@   @.#.@   @.#.@   @.#.@   @.#.@   @.#.@   @.#.@   @.#.@   @.#",
".     .+.     .+.     .+.     .+.     .+.     .+.     .+.     .+",
"@     +.@     +.@     +.@     +.@     +.@     +.@     +.@     +.",
".#   #.@.#   #.@.#   #.@.#   #.@.#   #.@.#   #.@.#   #.@.#   #.@",
"@.# #.@ @.# #.@ @.# #.@ @.# #.@ @.# #.@ @.# #.@ @.# #.@ @.# #.@ ",
" @.#.@   @.#.@   @.#.@   @.#.@   @.#.@   @.#.@   @.#.@   @.#.@  ",
"  .+.     .+.     .+.     .+.     .+.     .+.     .+.     .+.   ",
"  +.@     +.@     +.@     +.@     +.@     +.@     +.@     +.@   ",
" #.@.#   #.@.#   #.@.#   #.@.#   #.@.#   #.@.#   #.@.#   #.@.#  ",
"#.@ @.# #.@ @.# #.@ @.# #.@ @.# #.@ @.# #.@ @.# #.@ @.# #.@ @.# ",
".@   @.#.@   @.#.@   @.#.@   @.#.@   @.#.@   @.#.@   @.#.@   @.#",
".     .+.     .+.     .+.     .+.     .+.     .+.     .+.     .+",
"@     +.@     +.@     +.@     +.@     +.@     +.@     +.@     +.",
".#   #.@.#   #.@.#   #.@.#   #.@.#   #.@.#   #.@.#   #.@.#   #.@",
"@.# #.@ @.# #.@ @.# #.@ @.# #.@ @.# #.@ @.# #.@ @.# #.@ @.# #.@ ",
" @.#.@   @.#.@   @.#.@   @.#.@   @.#.@   @.#.@   @.#.@   @.#.@  ",
"  .+.     .+.     .+.     .+.     .+.     .+.     .+.     .+.   ",
"  +.@     +.@     +.@     +.@     +.@     +.@     +.@     +.@   ",
" #.@.#   #.@.#   #.@.#   #.@.#   #.@.#   #.@.#   #.@.#   #.@.#  ",
"#.@ @.# #.@ @.# #.@ @.# #.@ @.# #.@ @.# #.@ @.# #.@ @.# #.@ @.# ",
".@   @.#.@   @.#.@   @.#.@   @.#.@   @.#.@   @.#.@   @.#.@   @.#",
".     .+.     .+.     .+.     .+.     .+.     .+.     .+.     .+",
"@     +.@     +.@     +.@     +.@     +.@     +.@     +.@     +.",
".#   #.@.#   #.@.#   #.@.#   #.@.#   #.@.#   #.@.#   #.@.#   #.@",
"@.# #.@ @.# #.@ @.# #.@ @.# #.@ @.# #.@ @.# #.@ @.# #.@ @.# #.@ ",
" @.#.@   @.#.@   @.#.@   @.#.@   @.#.@   @.#.@   @.#.@   @.#.@  ",
"  .+.     .+.     .+.     .+.     .+.     .+.     .+.     .+.   ",
"  +.@     +.@     +.@     +.@     +.@     +.@     +.@     +.@   ",
" #.@.#   #.@.#   #.@.#   #.@.#   #.@.#   #.@.#   #.@.#   #.@.#  ",
"#.@ @.# #.@ @.# #.@ @.# #.@ @.# #.@ @.# #.@ @.# #.@ @.# #.@ @.# ",
".@   @.#.@   @.#.@   @.#.@   @.#.@   @.#.@   @.#.@   @.#.@   @.#"};
