/* XPM */
static char * FLOOR_2C_xpm[] = {
"64 64 11 1",
" 	c #382B2F",
".	c #2F1C17",
"+	c #141413",
"@	c #383F40",
"#	c #62797E",
"$	c #536265",
"%	c #4B3F38",
"&	c #889C9E",
"*	c #28221F",
"=	c #464D4F",
"-	c #000000",
" .+@#$#$#$$$%$%%&####$#$#$$+*  * .+@#$#$#$$$%$%%&####$#$#$$+*  *",
".*.$=========== #=====@% % *..**.*.$=========== #=====@% % *..**",
"*.+$=====%=%%==%#====@% % +..*.**.+$=====%=%%==%#====@% % +..*.*",
".+-#===@==%%#== $==#===%  +.*.**.+-#===@==%%#== $==#===%  +.*.**",
"*+$=== ==== %== #= =====% -+.*. *+$=== ==== %== #= =====% -+.*. ",
"*+$== $@=@====  $=======@= -....*+$== $@=@====  $=======@= -....",
"+$==@#@@@$=== -+ $=======@=@+** +$==@#@@@$=== -+ $=======@=@+** ",
"#==@$== $===%-+.+-$=====@= $$+--#==@$== $===%-+.+-$=====@= $$+--",
"$=====*#====%+. .+#====@=*#==$$=$=====*#====%+. .+#====@=*#==$$=",
"$==== #==%===%+.*.#@==@@ #===@=.$==== #==%===%+.*.#@==@@ #===@=.",
"%===@$==%%==@=  .*$====@$====== %===@$==%%==@=  .*$====@$====== ",
"$======%%===== +*.+$==@========.$======%%===== +*.+$==@========.",
"%==#===%=%==#= .**+#=@======#== %==#===%=%==#= .**+#=@======#== ",
"%= ===%=%== = +...*#======= ===.%= ===%=%== = +...*#======= ===.",
"%=========== +.*.**#===========.%=========== +.*.**#===========.",
"% %     . ....*.++-=   . . .....% %     . ....*.++-=   . . .....",
"&####$#$#$$% +*+-$###$#$#$$$%%%%&####$#$#$$% +*+-$###$#$#$$$%%%%",
"#=====@=====%+.*$=%===@======== #=====@=====%+.*$=%===@======== ",
"#====@======= ++#%===@=========%#====@======= ++#%===@=========%",
"$==#========#= -$==#========#== $==#========#= -$==#========#== ",
"#= ======== === #= ======== %%=.#= ======== === #= ======== %%=.",
"$======= $===== $======= $==%== $======= $===== $======= $==%== ",
"#==== $ #=====@ #====@=*$==@=%=.#==== $ #=====@ #====@=*$==@=%=.",
"$===*# #=====@=.$=====*#==@=%== $===*# #=====@=.$=====*#==@=%== ",
"$== #@$===== =@ $==== #== =====.$== #@$===== =@ $==== #== =====.",
"$%@$======= $==.$===@$==@$*====.$%@$======= $==.$===@$==@$*====.",
"= %=%===== $===.$==@===@=@# ===.= %=%===== $===.$==@===@=@# ===.",
"+ %%=%====$====.$=======@==$===.+ %%=%====$====.$=======@==$===.",
"*+...@==@===#==.%==#=@=@====#= .*+...@==@===#==.%==#=@=@====#= .",
"..++- =@=== ===.$= ==$ ==== = -*..++- =@=== ===.$= ==$ ==== = -*",
".*.*. @========.%====@$ ==== +. .*.*. @========.%====@$ ==== +. ",
"..*.*+  . ......% % % @=*  .+..*..*.*+  . ......% % % @=*  .+..*",
" .+@#$#$#$$$%$%%&####$#$#$$+*  * .+@#$#$#$$$%$%%&####$#$#$$+*  *",
".*.$=========== #=====@% % *..**.*.$=========== #=====@% % *..**",
"*.+$=====%=%%==%#====@% % +..*.**.+$=====%=%%==%#====@% % +..*.*",
".+-#===@==%%#== $==#===%  +.*.**.+-#===@==%%#== $==#===%  +.*.**",
"*+$=== ==== %== #= =====% -+.*. *+$=== ==== %== #= =====% -+.*. ",
"*+$== $@=@====  $=======@= -....*+$== $@=@====  $=======@= -....",
"+$==@#@@@$=== -+ $=======@=@+** +$==@#@@@$=== -+ $=======@=@+** ",
"#==@$== $===%-+.+-$=====@= $$+--#==@$== $===%-+.+-$=====@= $$+--",
"$=====*#====%+. .+#====@=*#==$$=$=====*#====%+. .+#====@=*#==$$=",
"$==== #==%===%+.*.#@==@@ #===@=.$==== #==%===%+.*.#@==@@ #===@=.",
"%===@$==%%==@=  .*$====@$====== %===@$==%%==@=  .*$====@$====== ",
"$======%%===== +*.+$==@========.$======%%===== +*.+$==@========.",
"%==#===%=%==#= .**+#=@======#== %==#===%=%==#= .**+#=@======#== ",
"%= ===%=%== = +...*#======= ===.%= ===%=%== = +...*#======= ===.",
"%=========== +.*.**#===========.%=========== +.*.**#===========.",
"% %     . ....*.++-=   . . .....% %     . ....*.++-=   . . .....",
"&####$#$#$$% +*+-$###$#$#$$$%%%%&####$#$#$$% +*+-$###$#$#$$$%%%%",
"#=====@=====%+.*$=%===@======== #=====@=====%+.*$=%===@======== ",
"#====@======= ++#%===@=========%#====@======= ++#%===@=========%",
"$==#========#= -$==#========#== $==#========#= -$==#========#== ",
"#= ======== === #= ======== %%=.#= ======== === #= ======== %%=.",
"$======= $===== $======= $==%== $======= $===== $======= $==%== ",
"#==== $ #=====@ #====@=*$==@=%=.#==== $ #=====@ #====@=*$==@=%=.",
"$===*# #=====@=.$=====*#==@=%== $===*# #=====@=.$=====*#==@=%== ",
"$== #@$===== =@ $==== #== =====.$== #@$===== =@ $==== #== =====.",
"$%@$======= $==.$===@$==@$*====.$%@$======= $==.$===@$==@$*====.",
"= %=%===== $===.$==@===@=@# ===.= %=%===== $===.$==@===@=@# ===.",
"+ %%=%====$====.$=======@==$===.+ %%=%====$====.$=======@==$===.",
"*+...@==@===#==.%==#=@=@====#= .*+...@==@===#==.%==#=@=@====#= .",
"..++- =@=== ===.$= ==$ ==== = -*..++- =@=== ===.$= ==$ ==== = -*",
".*.*. @========.%====@$ ==== +. .*.*. @========.%====@$ ==== +. ",
"..*.*+  . ......% % % @=*  .+..*..*.*+  . ......% % % @=*  .+..*"};
