/* XPM */
static char * FLOOR_3C_xpm[] = {
"64 64 11 1",
" 	c #4F4C3F",
".	c #353929",
"+	c #28261F",
"@	c #1E1E17",
"#	c #141413",
"$	c #303126",
"%	c #000000",
"&	c #28221F",
"*	c #181817",
"=	c #1C1C1B",
"-	c #211F1D",
"  ........+ ..@@  ...... +..@.@@  ........+ ..@@  ...... +..@.@@",
" +++++++++.++++# +++++@++$#++++# +++++++++.++++# +++++@++$#++++#",
".++++++++++++++@.++++@++++$++++@.++++++++++++++@.++++@++++$++++@",
".++.+++@++++.++#.++.++++++++.++#.++.+++@++++.++#.++.++++++++.++#",
".+#+++#++++#+++#.+#++++++++#+++#.+#+++#++++#+++#.+#++++++++#+++#",
".++++#$@+@+++++#.+++++++#$+++++#.++++#$@+@+++++#.+++++++#$+++++#",
".+++@.@@@$+$#+@#.++++@+#.+++++@#.+++@.@@@$+$#+@#.++++@+#.+++++@#",
".++@$++#.+++$@+%.+++&.@$+++++@+%.++@$++#.+++$@+%.+++&.@$+++++@+%",
".+++++&.++@+++@#.++#.@++++++&$@#.+++++&.++@+++@#.++#.@++++++&$@#",
".++++#$++@+++#$%.+@$+$#++++#.++%.++++#$++@+++#$%.+@$+$#++++#.++%",
"@+++@$++++++@$+#.@++++$@++@$+++%@+++@$++++++@$+#.@++++$@++@$+++%",
".++++++$#++++++%.++++++$++$++++%.++++++$#++++++%.++++++$++$++++%",
"@++.++++.#++.++%@++.++++@+++.++%@++.++++.#++.++%@++.++++@+++.++%",
"@+#++++++$+#+++%.+#++++@.++#+++%@+#++++++$+#+++%.+#++++@.++#+++%",
"@++++++++++++++%@+++++@++++++++%@++++++++++++++%@+++++@++++++++%",
"@#@#####%#%%%%%%@#@#####%#%%%%%%@#@#####%#%%%%%%@#@#####%#%%%%%%",
"  .......+...@@@  .....+ ...@@@@%%%%%#%#%####**#  .....+ ...@@@@",
" +++++++@$+++++# +++++#$+++++++#%=&=*=====#===&= +++++#$+++++++#",
".++++++@.++++++@.++++@$++++++++@%*=#*===*&===-=#.++++@$++++++++@",
".++.++@.++++.++#.++.++++++++.++#%=&=#&=#&===&==*.++.++++++++.++#",
".+#+++$++++#+++@.+#++++++++#+++%#=-====&-==&==-*.+#++++++++#+++%",
".++$#++++++++++#.+++++++#$+++++#%==#==&=&=-====*.+++++++#$+++++#",
".#+@.#+++@+@$++#.++++@+&.++@+++%#=&=*&=&&&==#==#.++++@+&.++@+++%",
"+.+++.++@+#$+++#.+++++&.++@++++##===-=&-#==&=*&#.+++++&.++@++++#",
" +++++$@+&.+++@#.++++#.++#+++++*#==&&#=&&======*.++++#.++#+++++&",
".+++++@@#.+++@+%.+++@$++@$&+++#+#&==&====-===&=*.+++@$++@$&+++#+",
".++++++@$++++++#.++@+++@+@.#+#.###=&===-===-===*.++@+++@+@.#+#.#",
"@+++++@++++++++%.+++++++@++.+++%*=*#&===#==*==&#.+++++++@++.+++%",
".++.+@++++++.++#@++.+@+@++++$++%#====&=&==#&=-=*@++.+@+@++++$++%",
"@+#+++$#+++#+++%.+#++.#++++#+++%*=#=&=&==&&=&==#.+#++.#++++#+++%",
"@++++++$&++++++%@++++@$#+++++++%#-===#=====-===*@++++@$#+++++++%",
"@#@####%+&#%%%%%@#@#@#@+&##%%%%%*=-=&=====*==#=#@#@#@#@+&##%%%%%",
"%%%%#%#####*#***  ...... +..@.@@#===-=#=====-===#****#**##%#%#%%",
"*==&===*=&=&==&# +++++@++$#++++##==&===*=&=&==&&=**===&=======*#",
"=-=&#===&=&#===*.++++@++++$++++@#-=&#===&=&#=====-=#=&=&#&===-&=",
"==&*==&#=&=====*.++.++++++++.++##=&*==&#=&==========&=&*&-=*#===",
"======&===#==&=*.+#++++++++#+++##=====&===#==&===&=*=====#==&=#=",
"===#-&===&=====#.+++++++#$+++++##==#-&===&=====#-====&#=&====&==",
"==**&===&=-===&*.++++@+#.+++++@##=**&===&=-===&==-====&*====&=-*",
"#==&=-#&=&==#&=#.+++&.@$+++++@+%#==&=-#&=&==#&=&===*=&=====&====",
"==-=&===*==-&=**.++#.@++++++&$@#*=-=&===*==-&=*=====&&-==#&*-===",
"===-===-===&&&=#.+@$+$#++++#.++%*==-===-===&&&=#*==&#&=====&===*",
"*=&#-===*===&==*.@++++$@++@$+++%#=&#-===*===&=====-=&&==*=&-=#&=",
"=&#&====#==&#&**.++++++$++$++++%*&#&====#==&#&*==*=&=====&=-==*=",
"&=========&-&-=*@++.++++@+++.++%#=========&-&-=====&==-#=&======",
"==#===*==&*&&=##.+#++++@.++#+++%*=#===*==&*&&=#&===============&",
"=&*===#=&=#====#@+++++@++++++++%*&*===#=&=#====-=&===*===*===-&=",
"====&-=&=======*@#@#####%#%%%%%%*===&-=&========&==#==&==&#&==#=",
"#==#======*====#*#*#*###**#*#*#*#==#======*====*=-=*=&#-==&=-=&=",
"==&=*=====#===&==#==&====&&=======&=*=====#===&==#==&====&&=====",
"=*=#*===*&===-=#=&#&==&===&&&====*=#*===*&===-=#=&#&==&===&&&===",
"&=&=#&=#&===&=====&&&===*==&=#==&=&=#&=#&===&=====&&&===*==&=#==",
"*=-====&-==&==-=-&=&=&===*&==*=-*=-====&-==&==-=-&=&=&===*&==*=-",
"===#==&=&=-=====&=&#=====&*#&======#==&=&=-=====&=&#=====&*#&===",
"*=&=*&=&&&==#==#=*===-=#====&-==*=&=*&=&&&==#==#=*===-=#====&-==",
"====-=&-#==&=*&&========&==&===-====-=&-#==&=*&&========&==&===-",
"===&&#=&&=======-==#====&=&=&#&====&&#=&&=======-==#====&=&=&#&=",
"=&==&====-===&====&==-=&*-=&&&*==&==&====-===&====&==-=&*-=&&&*=",
"=#=&===-===-======#&==&=&-&#&====#=&===-===-======#&==&=&-&#&===",
"==*#&===#==*==&#=====#*&=&=&===-==*#&===#==*==&#=====#*&=&=&===-",
"=====&=&==#&=-========#===*==#=======&=&==#&=-========#===*==#==",
"==#=&=&==&&=&==&#===-&=&=&==&=-===#=&=&==&&=&==&#===-&=&=&==&=-=",
"=-===#=====-======&#=-==*-=======-===#=====-======&#=-==*-======",
"==-=&=====*==#=*=&====-=#=====&===-=&=====*==#=*=&====-=#=====&="};
