/* XPM */
static char * GRASS_1A_xpm[] = {
"64 64 4 1",
" 	c #0B280F",
".	c #2E4D17",
"+	c #1A3612",
"@	c #2F4911",
" . .++    +@@           . .   +++      ++. .++@  +. .   + +  @@ ",
"@ @++. .   ++ . .++. .+@ @     ++. .   ++ @ @+   @ @+    + +  ++",
" @++  @ @    @ @++@ @ @ @       @ @        @      @++  . .+  +++",
"       @ @  @ @ ++ @   @++       @+++. .   +++          @ @ . . ",
"++. . + @    @          ++  . .    +@ @     +++ . .+   ++@ @+@ @",
"@++@ @ + @       . .+++    ++@ @   @ @+  . . ++@ @+ +   ++@   @ ",
"  ++. .     . .   @ @+  . .++ @ @++ @++ ++@ @ + @  . .   ++   +@",
"     @   + + . +  +@ + @ @++   @ +       ++@        @ @    . .+ ",
" .    . + +   + + ++    @      ++. .      ++   . .   @ + +@ @+ .",
"@ @+   + + . . +  . .      . .  @ @  +++   . .  . +   + +  @    ",
" @ ++   + @ @+     @ @++  @ @+++ @  +. .    @ @  +. .+ . .      ",
"   +. .    .+  + +  @ @    @  +++  +++@ @  ++@   @ @  + @ @ +++ ",
".  @ @   +++  . .++ +@    +++ . .+ ++  @ @+++     @      @ @++. ",
"  . .    ++  @ @ ++   @ + ++ @ @++  . .+@ ++     ++. .    @ +@ @",
"++ @   . .  . .++ . .   ++  @ @    @ @+  @    . . ++@ @   ++  @ ",
" +.+    @ @  @++   @ @  . .  @      @+       @ @   ++@ @        ",
"  ++     @  +++   ++@  @ @  @ +          + +@ @+. . ++@   . .++ ",
"       +++  ++     +++  @    + +. . +++ + +  @ + @ @   @   @ @++",
" . .    +++ . .     ++        +  @ @++  . . @   ++@         @ ++",
"@ @+++. .+++ @ @     . . +++      @ +  @ @      +++   +. .+ +   ",
" .+++@ @  . . . .   @ @ +++. .    ++  @ @ ++    . .  +@ @  + +  ",
" +++. .    @ @ @  +@ @ +++  @ @   . .  @+ . .+   @ @++ @    + + ",
".++  @+++   . +++   @+ ++    @ @ @ @ +@+ @ @+     @ @+   . . +. ",
"     ++. .   +++    +++  . .  @ + @  ++   @  . .++ @    @ @  @ @",
" . . ++ @ @ +++    . .+   @ @+++              @ @   @++@ @  @ @ ",
"++@ @    . .++. .+@ @      @ ++ +. . . .     ++@   +++  @+ + @ +",
"+++.      @  @ @++ @        ++ +@ @ ++@ @    ++    ++  @+ +     ",
" +++      ++. .++   +++. .     + @ +++ @ @        . .  + + . .  ",
" . .   . . + @  . .+++@ @ +++      ++   @ + . .  ++@ @  +   @ @ ",
"  @ @ ++@ @ +++  @ @+@ @   +..  ++  . .  ++@ @++  ++@ @    ++@ @",
"   . .++ .   . .  @   @         +  @ @    @ @ ++. .++@  . .++ @ ",
"    @ +     @ @        +++   @ @  @ @+     @   @ @  ++@++@ @   @",
" .  ++ . .++ @ +++    ++. .   @ @  @+++   @ +   @       ++@  + +",
"@ @   @ @++   +++. . ++@ @     @  @  ++  + +    +++  . . ++ + + ",
" @   . .++    ++  @ @++ @  . .  @+++ . .+ +  . .++  @ @    +. . ",
" +++  @++   . .    @ @    @ @  . .+ @ @  +   +@ @  @ @++   @ @  ",
"  +++.     @ @  +++ @    @ @   +@ @  @    . .++@ @  @++   @ @   ",
" . .++ +++. .+   +++ @    @    ++@    +++@ @    @  ++. .   @ + +",
"+ @ @+ .+  @+ + . .++    @  ++. .      +@ @+++     +@ @  +++  + ",
"+  . .    .  +   @ @+   +++  @ @   +++   @   ++      @    + +. .",
"    @   + + . .   .      +++@ @+  . .       . .  + +     . .+ @ ",
"+  + . + +   @ @ +++   . .++ @   ++@ @       @ @+ + . .+@ @   +@",
" .+ + + +     . +++     @ @++   +++ @  +++    @  + @ @+  @   + +",
"@ @+  . . . .   ++ . .++ @ @            +. .+ +   @ @  + +  + + ",
" @   @ @   @ @+   @ @++   @     + +     @ @+ + +   @+   + . .+  ",
" +++. .     . .+ . .++   +++   + +. .  @ @++  + + @+ +. .  @ @  ",
"  ++ @  +++  @ ++ @++ . . +++ . .  @ @  @      +    +@ @    @ + ",
".. +++ +++    .++    @ @   ++@ @    @ @    + +. .     @    +++ .",
"@   . .          +++  @     @ @+++   @    + +@ @++            @ ",
"  +@ @   . . +  ..+        + @  . .   @    +@ @ . .  . .   + @ @",
"    @+  @ @ +     @  + +    +++@ @+ +  + +   @ @ @+ @ @   + + @ ",
"    +++. . +     @ @  + + . .++ @+ +. . + +     @  @ @+. . +    ",
"+. . ++ @   . .++ @    + + @ @    +@ @   +. . +++   @+  @ @   ++",
"  @ @      @ @++    ++. .+  @ @   @ @+    +@ @++   @+    @ @ . .",
"@ +@ @      @++    ++@ @     @ ++  @+ +     @ @   +    +++@ + @ ",
"   +@  . .+ ++     +@ @      + +     + . .   @     . .  +++  + @",
"    ++ +@ @  . .     @   . .+ +. .+   @ @ + + @     @ @  +. .   ",
". .    ++@  @ @ +++ @   @ @  +@ @+ + @ @   ++        @   @ @    ",
" @         @ @    ++   @ @+    @  +   @    . .   . .    @ @ ++. ",
"     . .    @    . .    @+             + +@ @   @ @   ++ @   @ @",
"+   @ @    @++    @ @ +++       . .   + +  @   @ @   + +  +++ @ ",
"   @ @      +. .  +@ @++  +. .   @ @   +        @   + . .   ++ +",
"    @    . . +@ @+++@    +++@ @   @ @    +++. .++    + @ @ . .  ",
"   @     +@ @ +@ ++      ++  @ +   @    . .  @ @   . . +@   @ @ "};
