/* XPM */
static char * health1bis_xpm[] = {
"280 31 5 1",
" 	c None",
".	c #262626",
"+	c #000000",
"@	c #8D000A",
"#	c #2F2F2F",
"                                                                                                                                                                                                                                                                                        ",
"                                                                                                                                                                                                                                                                                        ",
"  ....................................................................................................................................................................................................................................................................................  ",
"  ....................................................................................................................................................................................................................................................................................  ",
"  ....................................................................................................................................................................................................................................................................................  ",
"  ...++++++++++++++++++++++++++++++++++++++++++++++++++++++++++++++++++..++++++++++++++++++++++++++++++++++++++++++++++++++++++++++++++++++..++++++++++++++++++++++++++++++++++++++++++++++++++++++++++++++++++..++++++++++++++++++++++++++++++++++++++++++++++++++++++++++++++++++...  ",
"  ...++++++++++++++++++++++++++++++++++++++++++++++++++++++++++++++++++..++++++++++++++++++++++++++++++++++++++++++++++++++++++++++++++++++..++++++++++++++++++++++++++++++++++++++++++++++++++++++++++++++++++..++++++++++++++++++++++++++++++++++++++++++++++++++++++++++++++++++...  ",
"  ...++@@@@@@@@@@@@@@@@@@@@@@@@@@@@@@@@@@@@@@@@@@@@@@@@@@@@@@@@@@@@@@++..++##############################################################++..++##############################################################++..++##############################################################++...  ",
"  ...++@@@@@@@@@@@@@@@@@@@@@@@@@@@@@@@@@@@@@@@@@@@@@@@@@@@@@@@@@@@@@@++..++##############################################################++..++##############################################################++..++##############################################################++...  ",
"  ...++@@@@@@@@@@@@@@@@@@@@@@@@@@@@@@@@@@@@@@@@@@@@@@@@@@@@@@@@@@@@@@++..++##############################################################++..++##############################################################++..++##############################################################++...  ",
"  ...++@@@@@@@@@@@@@@@@@@@@@@@@@@@@@@@@@@@@@@@@@@@@@@@@@@@@@@@@@@@@@@++..++##############################################################++..++##############################################################++..++##############################################################++...  ",
"  ...++@@@@@@@@@@@@@@@@@@@@@@@@@@@@@@@@@@@@@@@@@@@@@@@@@@@@@@@@@@@@@@++..++##############################################################++..++##############################################################++..++##############################################################++...  ",
"  ...++@@@@@@@@@@@@@@@@@@@@@@@@@@@@@@@@@@@@@@@@@@@@@@@@@@@@@@@@@@@@@@++..++##############################################################++..++##############################################################++..++##############################################################++...  ",
"  ...++@@@@@@@@@@@@@@@@@@@@@@@@@@@@@@@@@@@@@@@@@@@@@@@@@@@@@@@@@@@@@@++..++##############################################################++..++##############################################################++..++##############################################################++...  ",
"  ...++@@@@@@@@@@@@@@@@@@@@@@@@@@@@@@@@@@@@@@@@@@@@@@@@@@@@@@@@@@@@@@++..++##############################################################++..++##############################################################++..++##############################################################++...  ",
"  ...++@@@@@@@@@@@@@@@@@@@@@@@@@@@@@@@@@@@@@@@@@@@@@@@@@@@@@@@@@@@@@@++..++##############################################################++..++##############################################################++..++##############################################################++...  ",
"  ...++@@@@@@@@@@@@@@@@@@@@@@@@@@@@@@@@@@@@@@@@@@@@@@@@@@@@@@@@@@@@@@++..++##############################################################++..++##############################################################++..++##############################################################++...  ",
"  ...++@@@@@@@@@@@@@@@@@@@@@@@@@@@@@@@@@@@@@@@@@@@@@@@@@@@@@@@@@@@@@@++..++##############################################################++..++##############################################################++..++##############################################################++...  ",
"  ...++@@@@@@@@@@@@@@@@@@@@@@@@@@@@@@@@@@@@@@@@@@@@@@@@@@@@@@@@@@@@@@++..++##############################################################++..++##############################################################++..++##############################################################++...  ",
"  ...++@@@@@@@@@@@@@@@@@@@@@@@@@@@@@@@@@@@@@@@@@@@@@@@@@@@@@@@@@@@@@@++..++##############################################################++..++##############################################################++..++##############################################################++...  ",
"  ...++@@@@@@@@@@@@@@@@@@@@@@@@@@@@@@@@@@@@@@@@@@@@@@@@@@@@@@@@@@@@@@++..++##############################################################++..++##############################################################++..++##############################################################++...  ",
"  ...++@@@@@@@@@@@@@@@@@@@@@@@@@@@@@@@@@@@@@@@@@@@@@@@@@@@@@@@@@@@@@@++..++##############################################################++..++##############################################################++..++##############################################################++...  ",
"  ...++@@@@@@@@@@@@@@@@@@@@@@@@@@@@@@@@@@@@@@@@@@@@@@@@@@@@@@@@@@@@@@++..++##############################################################++..++##############################################################++..++##############################################################++...  ",
"  ...++@@@@@@@@@@@@@@@@@@@@@@@@@@@@@@@@@@@@@@@@@@@@@@@@@@@@@@@@@@@@@@++..++##############################################################++..++##############################################################++..++##############################################################++...  ",
"  ...++++++++++++++++++++++++++++++++++++++++++++++++++++++++++++++++++..++++++++++++++++++++++++++++++++++++++++++++++++++++++++++++++++++..++++++++++++++++++++++++++++++++++++++++++++++++++++++++++++++++++..++++++++++++++++++++++++++++++++++++++++++++++++++++++++++++++++++...  ",
"  ...++++++++++++++++++++++++++++++++++++++++++++++++++++++++++++++++++..++++++++++++++++++++++++++++++++++++++++++++++++++++++++++++++++++..++++++++++++++++++++++++++++++++++++++++++++++++++++++++++++++++++..++++++++++++++++++++++++++++++++++++++++++++++++++++++++++++++++++...  ",
"  ....................................................................................................................................................................................................................................................................................  ",
"  ....................................................................................................................................................................................................................................................................................  ",
"  ....................................................................................................................................................................................................................................................................................  ",
"                                                                                                                                                                                                                                                                                        ",
"                                                                                                                                                                                                                                                                                        "};
