/* XPM */
static char * health2_xpm[] = {
"280 31 5 1",
" 	c None",
".	c #262626",
"+	c #000000",
"@	c #AC212B",
"#	c #2F2F2F",
"                                                                                                                                                                                                                                                                                        ",
"                                                                                                                                                                                                                                                                                        ",
"  ....................................................................................................................................................................................................................................................................................  ",
"  ....................................................................................................................................................................................................................................................................................  ",
"  ....................................................................................................................................................................................................................................................................................  ",
"  ...++++++++++++++++++++++++++++++++++++++++++++++++++++++++++++++++++..++++++++++++++++++++++++++++++++++++++++++++++++++++++++++++++++++..++++++++++++++++++++++++++++++++++++++++++++++++++++++++++++++++++..++++++++++++++++++++++++++++++++++++++++++++++++++++++++++++++++++...  ",
"  ...++++++++++++++++++++++++++++++++++++++++++++++++++++++++++++++++++..++++++++++++++++++++++++++++++++++++++++++++++++++++++++++++++++++..++++++++++++++++++++++++++++++++++++++++++++++++++++++++++++++++++..++++++++++++++++++++++++++++++++++++++++++++++++++++++++++++++++++...  ",
"  ...++@@@@@@@@@@@@@@@@@@@@@@@@@@@@@@@@@@@@@@@@@@@@@@@@@@@@@@@@@@@@@@++..++@@@@@@@@@@@@@@@@@@@@@@@@@@@@@@@@@@@@@@@@@@@@@@@@@@@@@@@@@@@@@@++..++##############################################################++..++##############################################################++...  ",
"  ...++@@@@@@@@@@@@@@@@@@@@@@@@@@@@@@@@@@@@@@@@@@@@@@@@@@@@@@@@@@@@@@++..++@@@@@@@@@@@@@@@@@@@@@@@@@@@@@@@@@@@@@@@@@@@@@@@@@@@@@@@@@@@@@@++..++##############################################################++..++##############################################################++...  ",
"  ...++@@@@@@@@@@@@@@@@@@@@@@@@@@@@@@@@@@@@@@@@@@@@@@@@@@@@@@@@@@@@@@++..++@@@@@@@@@@@@@@@@@@@@@@@@@@@@@@@@@@@@@@@@@@@@@@@@@@@@@@@@@@@@@@++..++##############################################################++..++##############################################################++...  ",
"  ...++@@@@@@@@@@@@@@@@@@@@@@@@@@@@@@@@@@@@@@@@@@@@@@@@@@@@@@@@@@@@@@++..++@@@@@@@@@@@@@@@@@@@@@@@@@@@@@@@@@@@@@@@@@@@@@@@@@@@@@@@@@@@@@@++..++##############################################################++..++##############################################################++...  ",
"  ...++@@@@@@@@@@@@@@@@@@@@@@@@@@@@@@@@@@@@@@@@@@@@@@@@@@@@@@@@@@@@@@++..++@@@@@@@@@@@@@@@@@@@@@@@@@@@@@@@@@@@@@@@@@@@@@@@@@@@@@@@@@@@@@@++..++##############################################################++..++##############################################################++...  ",
"  ...++@@@@@@@@@@@@@@@@@@@@@@@@@@@@@@@@@@@@@@@@@@@@@@@@@@@@@@@@@@@@@@++..++@@@@@@@@@@@@@@@@@@@@@@@@@@@@@@@@@@@@@@@@@@@@@@@@@@@@@@@@@@@@@@++..++##############################################################++..++##############################################################++...  ",
"  ...++@@@@@@@@@@@@@@@@@@@@@@@@@@@@@@@@@@@@@@@@@@@@@@@@@@@@@@@@@@@@@@++..++@@@@@@@@@@@@@@@@@@@@@@@@@@@@@@@@@@@@@@@@@@@@@@@@@@@@@@@@@@@@@@++..++##############################################################++..++##############################################################++...  ",
"  ...++@@@@@@@@@@@@@@@@@@@@@@@@@@@@@@@@@@@@@@@@@@@@@@@@@@@@@@@@@@@@@@++..++@@@@@@@@@@@@@@@@@@@@@@@@@@@@@@@@@@@@@@@@@@@@@@@@@@@@@@@@@@@@@@++..++##############################################################++..++##############################################################++...  ",
"  ...++@@@@@@@@@@@@@@@@@@@@@@@@@@@@@@@@@@@@@@@@@@@@@@@@@@@@@@@@@@@@@@++..++@@@@@@@@@@@@@@@@@@@@@@@@@@@@@@@@@@@@@@@@@@@@@@@@@@@@@@@@@@@@@@++..++##############################################################++..++##############################################################++...  ",
"  ...++@@@@@@@@@@@@@@@@@@@@@@@@@@@@@@@@@@@@@@@@@@@@@@@@@@@@@@@@@@@@@@++..++@@@@@@@@@@@@@@@@@@@@@@@@@@@@@@@@@@@@@@@@@@@@@@@@@@@@@@@@@@@@@@++..++##############################################################++..++##############################################################++...  ",
"  ...++@@@@@@@@@@@@@@@@@@@@@@@@@@@@@@@@@@@@@@@@@@@@@@@@@@@@@@@@@@@@@@++..++@@@@@@@@@@@@@@@@@@@@@@@@@@@@@@@@@@@@@@@@@@@@@@@@@@@@@@@@@@@@@@++..++##############################################################++..++##############################################################++...  ",
"  ...++@@@@@@@@@@@@@@@@@@@@@@@@@@@@@@@@@@@@@@@@@@@@@@@@@@@@@@@@@@@@@@++..++@@@@@@@@@@@@@@@@@@@@@@@@@@@@@@@@@@@@@@@@@@@@@@@@@@@@@@@@@@@@@@++..++##############################################################++..++##############################################################++...  ",
"  ...++@@@@@@@@@@@@@@@@@@@@@@@@@@@@@@@@@@@@@@@@@@@@@@@@@@@@@@@@@@@@@@++..++@@@@@@@@@@@@@@@@@@@@@@@@@@@@@@@@@@@@@@@@@@@@@@@@@@@@@@@@@@@@@@++..++##############################################################++..++##############################################################++...  ",
"  ...++@@@@@@@@@@@@@@@@@@@@@@@@@@@@@@@@@@@@@@@@@@@@@@@@@@@@@@@@@@@@@@++..++@@@@@@@@@@@@@@@@@@@@@@@@@@@@@@@@@@@@@@@@@@@@@@@@@@@@@@@@@@@@@@++..++##############################################################++..++##############################################################++...  ",
"  ...++@@@@@@@@@@@@@@@@@@@@@@@@@@@@@@@@@@@@@@@@@@@@@@@@@@@@@@@@@@@@@@++..++@@@@@@@@@@@@@@@@@@@@@@@@@@@@@@@@@@@@@@@@@@@@@@@@@@@@@@@@@@@@@@++..++##############################################################++..++##############################################################++...  ",
"  ...++@@@@@@@@@@@@@@@@@@@@@@@@@@@@@@@@@@@@@@@@@@@@@@@@@@@@@@@@@@@@@@++..++@@@@@@@@@@@@@@@@@@@@@@@@@@@@@@@@@@@@@@@@@@@@@@@@@@@@@@@@@@@@@@++..++##############################################################++..++##############################################################++...  ",
"  ...++@@@@@@@@@@@@@@@@@@@@@@@@@@@@@@@@@@@@@@@@@@@@@@@@@@@@@@@@@@@@@@++..++@@@@@@@@@@@@@@@@@@@@@@@@@@@@@@@@@@@@@@@@@@@@@@@@@@@@@@@@@@@@@@++..++##############################################################++..++##############################################################++...  ",
"  ...++++++++++++++++++++++++++++++++++++++++++++++++++++++++++++++++++..++++++++++++++++++++++++++++++++++++++++++++++++++++++++++++++++++..++++++++++++++++++++++++++++++++++++++++++++++++++++++++++++++++++..++++++++++++++++++++++++++++++++++++++++++++++++++++++++++++++++++...  ",
"  ...++++++++++++++++++++++++++++++++++++++++++++++++++++++++++++++++++..++++++++++++++++++++++++++++++++++++++++++++++++++++++++++++++++++..++++++++++++++++++++++++++++++++++++++++++++++++++++++++++++++++++..++++++++++++++++++++++++++++++++++++++++++++++++++++++++++++++++++...  ",
"  ....................................................................................................................................................................................................................................................................................  ",
"  ....................................................................................................................................................................................................................................................................................  ",
"  ....................................................................................................................................................................................................................................................................................  ",
"                                                                                                                                                                                                                                                                                        ",
"                                                                                                                                                                                                                                                                                        "};
