/* XPM */
static char * heart_xpm[] = {
"35 35 5 1",
" 	c None",
".	c #000000",
"+	c #FF0000",
"@	c #E0E0E0",
"#	c #D70000",
"                                   ",
"                                   ",
"      ..........   ..........      ",
"      ..........   ..........      ",
"      ..........   ..........      ",
"    ..++++++++++...++++++++++..    ",
"    ..++++++++++...++++++++++..    ",
"    ..++++++++++...++++++++++..    ",
"    ..++++++++++...++++++++++..    ",
"....++++++@@+++++++++++++++++##....",
"....++++++@@+++++++++++++++++##....",
"....++@@@@@@+++++++++++++######....",
"....++@@@@@@+++++++++++++######....",
"....++@@@@@@+++++++++++++######....",
"....++@@@@@@+++++++++++++######....",
"....++++++++++++++++++#########....",
"....++++++++++++++++++#########....",
"    ..+++++++++++++##########..    ",
"    ..+++++++++++++##########..    ",
"    ..+++++++++++++##########..    ",
"    ..+++++++++++++##########..    ",
"      ....++++++#########....      ",
"      ....++++++#########....      ",
"      ....++++++#########....      ",
"          ..##########...          ",
"          ..##########...          ",
"          ..##########...          ",
"            ....###...             ",
"            ....###...             ",
"            ....###...             ",
"                ...                ",
"                ...                ",
"                ...                ",
"                ...                ",
"                                   "};
