/* XPM */
static char * LAB_3B_xpm[] = {
"64 64 23 1",
" 	c #000000",
".	c #322E1D",
"+	c #818556",
"@	c #4F4C3F",
"#	c #373C2C",
"$	c #1C1C1B",
"%	c #66684C",
"&	c #28221F",
"*	c #44402F",
"=	c #434436",
"-	c #382B2F",
";	c #3F3C2C",
">	c #3E462F",
",	c #075929",
"'	c #289237",
")	c #91BA00",
"!	c #141413",
"~	c #353929",
"{	c #28271F",
"]	c #28261F",
"^	c #1E1E17",
"/	c #181817",
"(	c #2F2717",
"                         .+@##$                                 ",
"@@@@@@@@@@@@@#@#@@@@@@@@@.+@@.$##@@.@...@@@@@@@@@@@@@@@@@@@#@#@@",
"#########################.+@##$..####.#.########################",
"#########################.+@@.$..####..#########################",
"#########################.+@##$..####..#########################",
"#########################.+@@.$..####..#########################",
"#########################.%@##$..####..#########################",
"#########################.+@@.$..####..#########################",
"@@@@@@@@@@@@@@@@@@@@@@@@@.%@##&##@@@@**@@@@@@@@@@@@@@@@@@@@@@@@@",
"#########################.+@@.$..####..#########################",
"@@@@@@@@@@@@@@@@@@@@@@@@@.+@##&##@@@@**@@@@@@@@@@@@@@@@@@@@@@@@@",
"@@@@@@@@@@@@@@@@@@@@@@@@@.+@@.&##@@@@**@@@@@@@@@@@@@@@@@@@@@@@@@",
"@@@@@@@@@@@@@@@@@@@@@@@@@.+@##&##@@@@@*@@@@@@@@@@@@@@@@@@@@@@@@@",
"@@@@@@@@@@@@@@@@@@@%@@@@@&...&$##@@@@*@@@@@@@@@@@@@@@@@@@@@@@@@@",
"@@@@@@@@@@@@@@@@@@%#@@@@.+%%@##&#=@@@@*@@@@@@@@@@@@@@@@@@@@@@@@@",
"@@@@@@@@@@@@@@@@@+-*@@@@&...&&&$##@@@@@@@@@@@@@@@@@@@@@@@@@@@@@@",
"@@@@@@@@@@@@@@@@%-**@@@@$&...&&$##@@@@*@@@@@@@@@%@@@@@@@@@@@@@@@",
"@@@@@@@@@@@@@@@@@**@@@@@.%@@@##&##@@@@@@@@@@@@@+#@@@@@@@@@@@@@@@",
"@@@@@@@@@@@@@@@@@***@@@@@&....$###@@@@@@@@@@@@%-*@@@@@@@@@@@@@@@",
"@@@@@@@@@@@@@@@@@**@@@@@@.@@@.&##=@@@@@@@@@@@@@**@@@@@@@@@@@@@@@",
"@@@@@@@@@@@@@@@@@**@@@@@@.%@##&##@@@@@@@@@@@@@@*@@@@@@@@@@@@@@@@",
"@@@@@@@@@@@@@@@@@***@@@@@.%@@.&##@@@@@@@@@@@@@@**@@@@@@@@@@@@@@@",
"@@@@@@@@@@@@@@@@@**@@@@@@.+@##&##@@@@@@@@@@@@@@**@@@@@@@@@@@@@@@",
"@@@@@@@@@@@@@@@@@***@@@@@.+@@.&##@@@@@@@@@@@@@@*@@@@@@@@@@@@@@@@",
"@@@@@@@@@@@@@@@@@**@@@@@@.+@##&.#@@@@@@@@@@@@@@**@@@@@@@@@@@@@@@",
"@@@@@@@@@@@@@@@@@*@*@@@@@.+@@##&&..................;@@@@@@@@@@@@",
"@@@@@@@@@@@@@@@@@**@@@@@@.%@#@@%%+++++++++++++++++%@.@@@@@@@@@@@",
"@@@@@@@@@@@@@@@@@*@@@@@@@;@@@@@@@@@@@@@@@@@@@@@@@@@@@.@@@@@@@@@@",
"@@@@@@@@@@@@@@@@@**@@@@@@@.#@#@#@#@#@#@#@#@#@#@#@#@@#.#@@@@@@@@@",
"@@@@@@@@@@@@@@@@@**@@@@@@@>&##.#.#.#.#.#.#.#.#.#.@#@@.&#@@@@@@@@",
"@@@@@@@@@@@@@@@@@*@@@@@@@@>,.&&&$&$&$$$$$$$$$$$$$#@@##&#=@@@@@@@",
"@@@@@@@@@@@@@@@@@**@@@@@@@@>'''#################.$%@@.&##@@@@@@@",
"@@@@@@@@@@@@@@@@@*@@@@@@@@@>>)=##################&%@##&##@@@@@@@",
"@@@@@@@@@@@@@@@@@@*@@@@@@@@@>>@@@@@@;............#%@#.&##@@@@@@@",
"@@@@@@@@@@@@@@@@@*@@@@@@@@@@>>@@@@@.%++++++++++++%@#@#&##@@@@@@@",
"@@@@@@@@@@@@@@@@@@@@@@@@@@@@>>@@@@.+@@@@@@@@@@@@@@#@#..##@@@@@@@",
"@@@@@@@@@@@@@@@@@*@@@@@@@@@@>>@@@;%@@#@#@#@#@#@#@#@#.&###@@@@@@@",
"@@@@@@@@@@@@@@@@@@@@@@@@@@@@>>@@@.+@#@##.#.#.#.#.#..&###=@@@@@@@",
"@@@@@@@@@@@@@@@@@*@@@@@@@@@@@>@@@.+@##.$$$$$$&$&&&&.####@@@@@@@@",
"@@@@@@@@@@@@@@@@@@@@@@@@@@@@>@@@@.+@@.$################=@@@@@@@@",
"@@@@@@@@@@@@@@@@@@@@@@@@@@@@@>@@@.+@##&##############=@@@@@@@@@@",
"@@@@@@@@@@@@@@@@@@@@@@@@@@@@>@@@@&....$##@@@@@@@@@@@@@@@@@@@@@@@",
"@@@@@@@@@@@@@@@@@@@@@@@@@@@@@>@@.+%%@##&#=@@@@@@@@@@@@@@@@@@@@@@",
"@@@@@@@@@@@@@@@@@@@@@@@@@@@@@@@@&...&&&$##@@@@@@@@@@@@@@@@@@@@@@",
"@@@@@@@@@@@@@@@@@@@@@@@@@@@@@>@@$&...&&$##@@@@@@@@@@@@@@@@@@@@@@",
"@@@@@@@@@@@@@@@@@@@@@@@@@@@@@@@@.%@@@##&##@@@@@@@@@@@@@@@@@@@@@@",
"@@@@@@@@@@@@@@@@@@@@@@@@@@@@@>@@@&....$###@@@@@@@@@@@@@@@@@@@@@@",
"@@@@@@@@@@@@@@@@@@@@@@@@@@@@@@@@@.@@@.&##=@@@@@@@@@@@@@@@@@@@@@@",
"@@@@@@@@@@@@@@@@@@@@@@@@@@@@@@@@@.%@##&##@@@@@@@@@@@@@@@@@@@@@@@",
"@@@@@@@@@@@@@@@@@@@@@@@@@@@@@@@@@.%@@.&##@@@@@@@@@@@@@@@@@@@@@@@",
"@@@@@@@@@@@@@@@@@@@@@@@@@@@@@@@@@.+@##&##@@@@@@@@@@@@@@@@@@@@@@@",
"@@@@@@@@@@@@@@@@@@@@@@@@@@@@@@@@@.+@@.$##@@@@@@@@@@@@@@@@@@@@@@@",
"@@@@@@@@@@@@@@@@@@@@@@@@@@@@@@@@@.%@##&##@@@@@@@@@@@@@@@@@@@@@@@",
"%%%%%%%%%%@%@@@%@%%%%%%%%%%%%%%%%.+@@.$##%%@%@%@%%%@%@%@%@%%%%%%",
"                               ! .%@##$                         ",
"$  $$! $$  $$! $$  $$! $$  $$! $ .+@@.$    $$! $$  $$! $$  $$! $",
"~~~~~~~~~{~~~~{~{~{~{~{{{{{{~{~{~.+@##$]]~~~~~~~~~~~~~~~~{~~~~{~",
"^^^^^^^^/^^^^^^^^^^^^^^^^/^^^^^^/.+@@.$! ^^^^^^^/^/^^^^^/^^^^^^^",
"^/^^^^^/^^^^^^^^^^^^^^^//^^^^^^^^.+@##$^^]^^^^^^^/^^^^^/^^^^^^^^",
"/^^~!^^^^^^~!^^^^^^~!^^/^^]~!^^^^.+@@.$!^^^~!^^^/^^~!^^^^^^~!^^^",
"^^/ !^^^^^/ !^^^^^/ !^/^/^/ !^^/^.+@##$^!^/ !^^/^^/ !^^^^^/ !^^/",
"/^//^^^^^^//^^^^^^//^^^/^^//]^^^^.+@@.$!!^//^^//^^//^^^^^^//^^/^",
"^^^^^^^^^^^^^^^^^^^^^^/^^^^]]^^^^.%@##$!!^^^^^/^^^^^^^^^^^^^^/^/",
"!//////!/!/!!!!!!!/!/! ! !    ! !(+@@.$!!!/!!/!/!//////!/!/!!!!!"};
