/* XPM */
static char * LEDGE_1A_xpm[] = {
"64 32 63 1",
" 	c #141413",
".	c #1C1C1B",
"+	c #181817",
"@	c #211F1D",
"#	c #28221F",
"$	c #1D1F1B",
"%	c #29241F",
"&	c #181A17",
"*	c #141513",
"=	c #23221D",
"-	c #1E221B",
";	c #2C291F",
">	c #151813",
",	c #191C17",
"'	c #20241B",
")	c #161A13",
"!	c #27291D",
"~	c #2F2B1F",
"{	c #21271B",
"]	c #1C2217",
"^	c #30301F",
"/	c #282B1D",
"(	c #191E13",
"_	c #232A1B",
":	c #33321F",
"<	c #292E1D",
"[	c #1D2417",
"}	c #242D1B",
"|	c #2C321D",
"1	c #35361F",
"2	c #1E2717",
"3	c #1B2013",
"4	c #29361B",
"5	c #303C1D",
"6	c #3A401F",
"7	c #1C2613",
"8	c #212D17",
"9	c #253617",
"0	c #2D411B",
"a	c #424D1F",
"b	c #202E13",
"c	c #37471D",
"d	c #324C1B",
"e	c #495A1F",
"f	c #233513",
"g	c #294017",
"h	c #3C531D",
"i	c #4F681F",
"j	c #37571B",
"k	c #42601D",
"l	c #273F13",
"m	c #3C631B",
"n	c #2C4713",
"o	c #335617",
"p	c #57771F",
"q	c #42711B",
"r	c #61871F",
"s	c #376217",
"t	c #2F5013",
"u	c #4F7C1D",
"v	c #49821B",
"w	c #69991F",
"x	c #578E1D",
" .. ......+....+.@.+.# @..#.@.#. .. ......+....+.@.+.# @..#.@.#.",
"..#.+..... ...#.. ..#....##.......#.+..... ...#.. ..#....##.....",
".+. +...+#...@. .# #..#...###....+. +...+#...@. .# #..#...###...",
"#.#. #. #...#.....###...+..#. ..#.#. #. #...#.....###...+..#. ..",
"+.@....#@..#..@.@#.#.#...+#..+.@+.@....#@..#..@.@#.#.#...+#..+.@",
"... ..#.#.@.....#.# .....#+ #...... ..#.#.@.....#.# .....#+ #...",
"+.#.+#.###.. .. .+...@. ....#@..+.#.+#.###.. .. .+...@. ....#@..",
"....@.#@ ..#.+##........#..#...@....@.#@ ..#.+##........#..#...@",
"...## .##.......@.. ....#.#.# #....## .##.......@.. ....#.#.# #.",
".#..#....@...#....#..@.#+@.###+..#..#....@...#....#..@.#+@.###+.",
". .#...@...@...... #..#.#@# #.... .#...@...@...... #..#.#@# #...",
"..+ #... ..+..# ..... +#.#.#...@..+ #... ..+..# ..... +#.#.#...@",
".....#.#.. #.@........ ...+.. .......#.#.. #.@........ ...+.. ..",
".. .#.#..##.#..# ...@#.#.#..#.@... .#.#..##.#..# ...@#.#.#..#.@.",
".@... .....@......# .@..+@.......@... .....@......# .@..+@......",
"..@.#.....+.. .+.#....@. .....#...@.#.....+.. .+.#....@. .....#.",
" ...@. .....@...#....@..+ ....@. ...@. .....@...#....@..+ ....@.",
"+..#...+.#.#..##.++...#.......+ +..#...+.#.#..##.++...#.......+ ",
".@.# ...#.# .....@. .#.# #...@#..@.# ...#.# .....@. .#.# #...@#.",
"$$%&$$%*$%$$$$$$$$$$%$%&%=$&*$$$$$%&$$%*$%$$$$$$$$$$%$%&%=$&*$$$",
"------;--->--;---;-,----->--;->-------;--->--;---;-,----->--;->-",
"''')!~'''~''''')!''''~)'~''''~''''')!~'''~''''')!''''~)'~''''~''",
"{{]]^{{{^{/{{{^{{/{{{{^]{{{{^{/]{{]]^{{{^{/{{{^{{/{{{{^]{{{{^{/]",
"(__:_<(:_:__(:_:___[_:_____:____(__:_<(:_:__(:_:___[_:_____:____",
"}}|}1}}}2}}|1}2}}}}}11|}}312|}}}}}|}1}}}2}}|1}2}}}}}11|}}312|}}}",
"4445444544466647844676444446444844454445444666478446764444464448",
"90abc0009000a00000c0aa0090ac0ba090abc0009000a00000c0aa0090ac0ba0",
"defeddddfddefegddgdedddddedhddgddefeddddfddefegddgdedddddedhddgd",
"ijjjjjjjjjikikjjjjjijjkljijjjjjjijjjjjjjjjikikjjjjjijjkljijjjjjj",
"mmnmmmommpoppmnpmmmmmmmmmmmmmmmpmmnmmmommpoppmnpmmmmmmmmmmmmmmmp",
"qrsqqqtqrqtqqqquqrqqqsqqqsqqqurqqrsqqqtqrqtqqqquqrqqqsqqqsqqqurq",
"vvvvwxvwvvvvvvvvwvvvvvwvvwvwvvvvvvvvwxvwvvvvvvvvwvvvvvwvvwvwvvvv"};
