/* XPM */
static char * LIGHT_1C_png_xpm[] = {
"64 64 10 1",
" 	c #141413",
".	c #1C1C1B",
"+	c #211F1D",
"@	c #28221F",
"#	c #181817",
"$	c #2B2D37",
"%	c #009DEB",
"&	c #09E4FC",
"*	c #C6F6FF",
"=	c #F5F9ED",
" ...+. .....+...@....+..# ....+. ...+. .....+...@....+..# ....+.",
"#..@...#.@.@..@@.##...@.......# #..@...#.@.@..@@.##...@.......# ",
".+.@ @@@$@$@@@@@@@@@@$@$@$@..+@..+.@ @@@$@$@@@@@@@@@@$@$@$@..+@.",
"..@#$                      @......@#$                      @....",
"...@                        $. ....@                        $. .",
"..@   %&&&&&&&&&&&&&&&&&&%   $....@   %&&&&&&&&&&&&&&&&&&%   $..",
"..@  %&&&&&&&&&&&&&&&&&&&&%  $+#..@  %&&&&&&&&&&&&&&&&&&&&%  $+#",
" .@  &&*================*&&  @.. .@  &&*================*&&  @..",
"..@  &&*================*&&  $....@  &&*================*&&  $..",
"..@  %&&&&&&&&&&&&&&&&&&&&%  @.#..@  %&&&&&&&&&&&&&&&&&&&&%  @.#",
"#.$   %&&&&&&&&&&&&&&&&&&%   @@.#.$   %&&&&&&&&&&&&&&&&&&%   @@.",
".@@                          $#..@@                          $#.",
"@.@                          @..@.@                          @..",
"..@   %&&&&&&&&&&&&&&&&&&%   $.@..@   %&&&&&&&&&&&&&&&&&&%   $.@",
".@@  %&&&&&&&&&&&&&&&&&&&&%  $@..@@  %&&&&&&&&&&&&&&&&&&&&%  $@.",
"..@  &&*================*&&  $ ...@  &&*================*&&  $ .",
" .@  &&*================*&&  $@. .@  &&*================*&&  $@.",
"..$  %&&&&&&&&&&&&&&&&&&&&%  $....$  %&&&&&&&&&&&&&&&&&&&&%  $..",
".#$   %&&&&&&&&&&&&&&&&&&%   @...#$   %&&&&&&&&&&&&&&&&&&%   @..",
"@.$                          @..@.$                          @..",
"#.@                          @.+#.@                          @.+",
"..@   %&&&&&&&&&&&&&&&&&&%   @....@   %&&&&&&&&&&&&&&&&&&%   @..",
"#.$  %&&&&&&&&&&&&&&&&&&&&%  @..#.$  %&&&&&&&&&&&&&&&&&&&&%  @..",
"..@  &&*================*&&  $.+..@  &&*================*&&  $.+",
"..$  &&*================*&&  $@...$  &&*================*&&  $@.",
".@@  %&&&&&&&&&&&&&&&&&&&&%  $#..@@  %&&&&&&&&&&&&&&&&&&&&%  $#.",
". $   %&&&&&&&&&&&&&&&&&&%   $... $   %&&&&&&&&&&&&&&&&&&%   $..",
"..#$                        $..+..#$                        $..+",
"....@                      @. ......@                      @. ..",
".. .@@$@@$$@$@@$@$$$@@@$@$@.@.+... .@@$@@$$@$@@$@$$$@@@$@$@.@.+.",
".+... .....+......@ .+..#+.......+... .....+......@ .+..#+......",
"..+.@.....#.. .#.@....+. .....@...+.@.....#.. .#.@....+. .....@.",
" ...+. .....+...@....+..# ....+. ...+. .....+...@....+..# ....+.",
"#..@...#.@.@..@@.##...@.......# #..@...#.@.@..@@.##...@.......# ",
".+.@ @@@$@$@@@@@@@@@@$@$@$@..+@..+.@ @@@$@$@@@@@@@@@@$@$@$@..+@.",
"..@#$                      @......@#$                      @....",
"...@                        $. ....@                        $. .",
"..@   %&&&&&&&&&&&&&&&&&&%   $....@   %&&&&&&&&&&&&&&&&&&%   $..",
"..@  %&&&&&&&&&&&&&&&&&&&&%  $+#..@  %&&&&&&&&&&&&&&&&&&&&%  $+#",
" .@  &&*================*&&  @.. .@  &&*================*&&  @..",
"..@  &&*================*&&  $....@  &&*================*&&  $..",
"..@  %&&&&&&&&&&&&&&&&&&&&%  @.#..@  %&&&&&&&&&&&&&&&&&&&&%  @.#",
"#.$   %&&&&&&&&&&&&&&&&&&%   @@.#.$   %&&&&&&&&&&&&&&&&&&%   @@.",
".@@                          $#..@@                          $#.",
"@.@                          @..@.@                          @..",
"..@   %&&&&&&&&&&&&&&&&&&%   $.@..@   %&&&&&&&&&&&&&&&&&&%   $.@",
".@@  %&&&&&&&&&&&&&&&&&&&&%  $@..@@  %&&&&&&&&&&&&&&&&&&&&%  $@.",
"..@  &&*================*&&  $ ...@  &&*================*&&  $ .",
" .@  &&*================*&&  $@. .@  &&*================*&&  $@.",
"..$  %&&&&&&&&&&&&&&&&&&&&%  $....$  %&&&&&&&&&&&&&&&&&&&&%  $..",
".#$   %&&&&&&&&&&&&&&&&&&%   @...#$   %&&&&&&&&&&&&&&&&&&%   @..",
"@.$                          @..@.$                          @..",
"#.@                          @.+#.@                          @.+",
"..@   %&&&&&&&&&&&&&&&&&&%   @....@   %&&&&&&&&&&&&&&&&&&%   @..",
"#.$  %&&&&&&&&&&&&&&&&&&&&%  @..#.$  %&&&&&&&&&&&&&&&&&&&&%  @..",
"..@  &&*================*&&  $.+..@  &&*================*&&  $.+",
"..$  &&*================*&&  $@...$  &&*================*&&  $@.",
".@@  %&&&&&&&&&&&&&&&&&&&&%  $#..@@  %&&&&&&&&&&&&&&&&&&&&%  $#.",
". $   %&&&&&&&&&&&&&&&&&&%   $... $   %&&&&&&&&&&&&&&&&&&%   $..",
"..#$                        $..+..#$                        $..+",
"....@                      @. ......@                      @. ..",
".. .@@$@@$$@$@@$@$$$@@@$@$@.@.+... .@@$@@$$@$@@$@$$$@@@$@$@.@.+.",
".+... .....+......@ .+..#+.......+... .....+......@ .+..#+......",
"..+.@.....#.. .#.@....+. .....@...+.@.....#.. .#.@....+. .....@."};
