/* XPM */
static char *result[] = {
/* columns rows colors chars-per-pixel */
"128 128 60 1 ",
"  c #53573B",
". c #3F472B",
"X c #474F33",
"o c #5B6347",
"O c #373F27",
"+ c #332B13",
"@ c #6F7357",
"# c #676B4F",
"$ c #2F371F",
"% c #7B7F63",
"& c #2F2F2F",
"* c #1F170B",
"= c #434343",
"- c gray28",
"; c #1B1B1B",
": c #232323",
"> c #2B230F",
", c #67533F",
"< c #272727",
"1 c #533F2F",
"2 c #373737",
"3 c #131313",
"4 c #836B57",
"5 c #232B0F",
"6 c #775F4B",
"7 c #43331B",
"8 c gray34",
"9 c gray31",
"0 c #574333",
"q c #170F07",
"w c #3F2F17",
"e c #473323",
"r c #0F1700",
"t c #171F07",
"y c #4B4B4B",
"u c #13230B",
"i c gray39",
"p c black",
"a c #4F3B2B",
"s c #17330F",
"d c #5F4B37",
"f c gray23",
"g c #0B0B0B",
"h c #9F876F",
"j c #1F4317",
"k c #4F3B23",
"l c #836B4B",
"z c #4B371B",
"x c #6F5743",
"c c #9B7F6B",
"v c #070707",
"b c #5B5B5B",
"n c #4F3B27",
"m c #372313",
"M c #27531B",
"N c #8B8B8B",
"B c #8B735B",
"V c #777777",
"C c #937B63",
"Z c gray50",
/* pixels */
"XXXXX.OOj5++O77++X..Oa..X.XXXX00..OO.0X0XX....Xf..........aX++..++5+>5++O.O22OOOOX.&2O.++...++O..2+<OO.fOO5O...OOOO++OOOO.O++...",
"$$$$$;>;tggqt**335$;t;$$$$$$$$$$m$;;t$$5$;$$$5$555;t;5;t;;;3qp;;3ppg3pppt55tqqt55;qgg;<:3q$;gqq5;qq3qg;5>vgt555;;tttqt;;tqqqt;;;",
"X..XX..O&&+<OOe7+OX.O.XXXXXXXXXXXX.X..XXOOXX.X..XO.+O..O.+O+.&&&&++&+;;;+.O5+++OO+O2+O.OOX.+5++2OO.O<+fX$r5O...OOOOO.OOOO<O.O2O.",
"o o#oo  .=-+O.*.7s ...%@@%6@%%@@o4o@ o@@ooo o@@   @. o.  .+++.+*+.&:$XO$+..q++u++..*+ ++$XXXXX+& o# <+  $;5.o OX.>Oo.  .O+.  .. ",
"o#,ooo## .+&.X.1.9..+ X@%@@@@@oXX  XX ho%@oo@@@62o %%  . :+>*&=.&+.&OX yX$*+$X.= o%u+==OOo X  X** o .+=o=;5.#+sX.O$ oooo>&.&.++X",
" #@,o###o=..&.=. ..o ..@  @%@#oXX.+9.XX ooo@@@o.o. o  X XO+>q+ o.= 2&fo  .3$Xo@o%@o 8= = %   oy:2 oo    $;5OMX*.o **2 oXo &+&+.X",
" o. %@##.o-+..+-  . . .o X@##o@o XO$OX.X Xo@@oo. o XXX %  X+3+ .o%o.92 #o OX   %#o@h@..X o o@#o+ oo%@#oX>;q+jM+. .vv  oXo@ +&-.X",
"X *o@#oo.  .=+- . .   o.&oX,@@@.@% $rX  XXX@   7 X+. Xo%##%+++*.oo  o. o%#o%@# oo o%@ X    o@%o  Xo@%%@oO;q+sj*:++3*..iX   ==...",
" X+@oo#@&. ..X  . .   o.+. 6@@#.%@.XXX#% XX@ oo8OO.OO %%%%o.*+.O..++O.o#%%%%%@ X ++o@oo Xy  oo8i  o@%%%@X;q+ss*33**+2o9O.   ....",
"   ooooo+..+ XXoo  -   .sX@@@%@ooXo#o@%@#XX@XoX..o o+X%%%%oyOOXX ...Xy#%%%@@@% :+.Xo@# XX=+ =2o.7 ##@@%%X;t2&+:3u+O< =oO.o +...X",
"   o@oo 8..+. X ooo .X .. %@o@@ oXXo##%#oo.. oO+ooo+=.o%oo yfy. o X yb%%o#oooo Oq*.o@o &.+*...=+Xo#o #%@ ;g5*&+**.O+o  s.XO+. XX",
"  ooo@#o ..:..XX o   .+Xoo@@@%@@@X$O.X@@o XO.9. X.$r+ oo Xo.:  oo  #%% @% XXXXXX..... o ++.&<*<y #o XXX O;<<+&&+&8..o .u...++.  ",
" o@ oo%o,o ..  XX o X$. @o@@%@@#o.OO$O.X.O5$ o2XO$r:.   X  .+.. oo%o   o# .$O$$X o  % oo.. =:2X #%#o XX.O;;..+.=-iXX..u:..-&+&O.",
"2.oooo@ooo ..9o X   +..oho@@@@#o  XO5OOO$55$ X.O$5&+Xo ..o=++    oo X<.o#+.=:*OX  ooo#@#oo 9o89b#%@44   $;;.&:..  X..s+<...&+.O.",
"ooooo#@oooo,1 @X.   oXXo@oo@###ooo X.O$$$5t5$.$r5r2. o X..  . oooo  .+.oo.  O+ -X   =o###@##%%b8i@@Vci 2+3;O:&   .Xoj>>&.2.++-..",
"o#oo##@o#oo   # XX o#X  o####@@oo6ooooooo.rr$55rOO. oo . ooooolloX oo+3+o #@o   ..   oo@@##oo y9i##@%oo $;t&< XX XXos>>&  X o . ",
"###o##@o#@#o 6##o XXXX  o#@#####@#o@@@@oo 5rrt5$. .  oo###@##x##%  %o**O #@@#  oooo  oooo%      o##oo@@o$;tO. X..XX.s&=>.X  X. o",
"#@#o###o#@#oo####o  OX#oo@@@@##o#ooo@@@#o.$trt$XX  ,o##@@@@@#ooo.  o .+.o@C4oo oooo ooo#oo  oo  o##oh%ooX;;.. X.XXoojO+ .O.XX.oo",
"###@ooo6#@@##o#@##oXen,ooo#####o#oo@6@@ooX$tr5$Xooooo#@@@@%Bo   o    ..Xo%%@@ooooo . oooo 99oo8#8o#%%44@=;$.   XXXXo@o  .$.   oo",
"#@@#oX @@#@@#6#@#@o e+ #o####o o#@o@@@@o# O$5>>. oooo#@%%%%%#o       XX #%@#@o  o .. oooo9 oo  o  o%%@%% ;5.oo  XXXo@oo X..XX   ",
"#@@#..o#@#@@#o#@#@##.+X#oo##@ooo@@6o6@@o@ .$OOOO ooo6#@%%%%%@o .XXX  . o#%#o  . 9.&.oo#ooooooo oo %@@@%% ;$X@@ .  XX#oo  XO$OX  ",
" #@oOX  XXo#6@@#####.n0#####@  @@@@o6@6oo $OO.O.X oox#@%%%%@@#o  ###oXl#%#   *q o=O- #9oo8ooo    o%@%%%h ;$X%%o  . .X  X.O$+$OX ",
"O o.O #o@6  d6####X+en,###oo XXoooo@oo@o $55.X XXXo  @@@%%%@@####4@@%64@%o  o.+ o8 o   8oooiio   X%@#%hh ;$X4%4oX..XXXXXX.$++$OO",
"$1XOXo# @o.Xd6x,Xew+++#oooooo   @o6@8 oXO5r5. o XX   o@@%@6#### ##@@%%%@o .<1@o  . o -.. +&& f=X X1o y#@ ;$X#oo X..Xo o  .+>>>>>",
"*$$X ooo6 ,@ooo X+++++,  X #o##o  ooo XOrtr5Oooo XX o o@%@o#ooooXo#@%%%#XXO3+2@9... o.+.=&&.= =.:...X. o.;5&  X.Xo    8 XO>>55**",
"*$ oo66ooooo ooXO+++we..X.X o#ooo o.@ Orrr5$X oooo    o@@@##o##o  oo@%%#oX.O++X o o##o ,o   oOOOOOOO.....;;OXX$OX. o XXX&$++++++",
"$X##.%o# .*.@oXe++*z..+&- .o o8+. o% .O*:3*:o @#o9 .= o#@%#####o  ###@@@o     XX o4#@oo o@o...&.O.&&$$.#X;;..$$O.   XXX.O+++.+:&",
"O @#@@oo++=.-XO++**wz.+.+3oio. .  @o.&:3:+*=&. # . .X  o @##oo@oo  @o#@@#o #@@oXXoo@@o o . ..++X +..+$X .;tO>$$...1  ....++. &++",
" o@%4%@ - o.+*:*=:+&*:*-+3o*.&&+. o *qu33.@XO+OX XX.OX  o###oo%oo..oo#@@@o #@ooXXO. %o   XX+OOO..+..+..XO;tOO.O$O.11 +$..+..++:*",
"+ @oo   8oo. <::i=.+.=+3.*.:::...o . :33+o@ $>>$Xy. ..   o##oX@@ .Xo##@@oo  oo XoXO.   oo .+....+..= =$$$;tO.1 OO....*+ .2..+::*",
"8*#oo.. o o89&u.- .:-=. @@82<>> oo +.&++O.@X$>>$X .o .   o##.  oo  ooo##o  XX  oo $...Xo .++&....=-- =O$$3t. o..$.O +u&.&+.2+&++",
"<    -9 oooo .*.o  ....o@@8f$O=o@o .O$>OXX X $>$...X .X o o##   o  #o oo   X.X @@oX.$5O. X:+....  .1 -.++;;. XXO$==.++..++..-++.",
"* o    @@oooo+3:o.  = o@@o X. o oooXOOO.%o XX.$$$$.oX.X o  ###   1 @oo oo X.X Xo4# X.$$.  :++.=....  X..$;tO XXO.-.- ........++.",
"& . oo o% .8 *3:oo   o@@@ X  oo oooXO$X@oo .  X.X..X.XX    o##o XXo@oooo o X o. @#o XOO  .:+..  =--  X.X$;;O.XX.XXX.X. o +++2+. ",
"+= o oo@@=&&+u*+   @@o@@o  o ooooo ..O o .o . o0.X ..Xo .  o## X ooooo oo@#XXo  oo  XO.  &+.    8      XO;;.XXoo o XXXXXO.++*+..",
"= oX oo@  ... +& .o@@ X oo   oooo9 XXX      .  o X.OOX  .XX oo    ooo  o@@oXXXooo . XX.o .+..o@    oooXXO;$.XX#oo#o o  O.X.:3*+.",
"     o@oo -.oo==o @@@ X o@  ooooo  XXXX    XX.oo X....  X. oo oo  @oo  #@oo   oo .18  .X  ...oo  oooo XX.;;..X ####o,ooX  .+:*+.",
"   o  @ o@@ oo oo@@%@#oo#o o##o@o XXX.X   o X oooX .OO.oXXoo.oooooo@@o o@oooXoX o1 o XOXo  =.ooX     XX .;;OXXX #@##ooo    &*<&&",
"  o oo o&.@  + #o@@%%@#%#o oooooooX....X  o   @#o oX.OOOXX@o  o Xo#@@#oo@  XX o  .X  XOX     o ooX...OO.O;;.  XXo@@### o  o.+++.",
".o   i@oo< =2X oo@%@@% Xoo @o## #  o XX.X oo X,X oo XX$$$OXXX       #@ooooX$.XX ..X o OOXXX oooX.OO.XXXXO;;.##XX #@##ooo   ...+.",
"--..O@o## 8&. i  @@@%@o    ooooooooo  .X.  8 .. oo@ X.$$+$$O...X.O.XX    X$>>OXXXX    O$O.XXX..O$$$.@##oX;5X#@o Xo@##o#o   ...+.",
"...  @@@o  . o X @%@@%@o X o o ooo@  o XO.o... @#o@oXX$$$$++++$$$OX@XXX..O$$OX @o   X O5$+$$$$...O.X@%##X;5X#@# X ##  #o  .o +. ",
"&.= @%@ooo8  ooXXo@@@%@@o XX.XoX  o,oo@ ....XXo#oo# oXX$+$$$>>>$$X o XX.$>$$Xoo#o    XO$55++$.X XX..o%@#X;m.#@# X@o# ###X. o ..X",
". oo@@ooo@o9  oo. #%%@@@o oX.XXXX #@o@%,..OOX o# # ooX.>>>..$$$O.ooooo#.O...XX ##o X.$5ttt+$. o#ooXX @@@X;$.#@# XOX o#o X    .  ",
" ooo@#ooooo  o@@X o%@%@#o oXXXX  o@@@@, X.O. oo#ooo XX.$>>O#XOO..X#o#o XXXXXXXX #o#X$5ttt$#####@@# X. #@X;$X#6oXO$OX ooXXX,  XX ",
"  ooo@oo#oooo@@@ Xo@@%@o oXXXo   o@o#oX.X... @oo#o ..XXO>>+.o XXXX o  XX oooo    ## +ttt$OOX ###@@oX>.@@X;$X#oX.$>$XooX.OX X  . ",
" oooooo#oooooo%@ X %%%@o XXooooo   o .XXX.O.o@-  ..XXooX$+>O o@# XX  .O.o   oo  Xo##.t5$.$.XXo@o ,oX.. oX;5. X>OO$>.oOO>O ...+. ",
"*@,    o o.oo8@ooX @@6@6 XX o66%o o  X .X OOX o#  o  @o O$$$. o #o@oo X.XX .XXXXX ## XXXXX =.oo    X.o oO;;OX.$.XO>$..&.O8.+ +.o",
"+&   .Xo OXooo#o# X @o@%XX o6@%@###o XX X OO$Oo#o%oo.oo X....XX o. o  X..XX.7.XOX ####o 0#          Xoo6X;;O....X.$$.++X   XoO+ ",
" +X*o. o.*oX@ o@o@XXX@  X o@@@@%@##%%o XXO$+$OXo  o# ooXXXXXXXX.   ooo X. X ...X o####o0aX  oooo X,, oo@X;;.o66ooX$+OOO..+.+O$<.",
"+++.  .o .@   @@o oXX X. @o4o@@%%@6%@@%XO$>>$O..X. o # X      XXX  o . -X.. .XX oo#X # e7.X ooo#o  XooooX*5. o@@#X.+....+..<<:;3",
"**:: .     o26@@@oo@X.OOXX oo@@@@@@@%@X O+>+O.OO.X   @  oo o  X..X   . .X..      X.$.  k7.X  oooo  # oooX;5O o@%#X++&....=O$<::<",
"q*.q+..+ o .o.o@@@ooXO$OX9 Xoo@#@%@  @..O$+O .ooX X oo ooo@# oXX.X     . X  oX.e0.$t$X a7..,o    XX oo oX;5OXo#4o.:+.... -.O$::;",
"33*u<3&OXX o .oo X.X.O$OX X #o@o@%@X o.X.OOX -oXX   oo  o@@ooX XXX   o    ##.XO+e+5t$OXaa.   ooo ++.ooooX;5. o@#o&:++.=.. ..O$;;",
"+33:33.3 .+o 7   O...X.O>. %@.@@@@%o&.oXX . .  XXoo @ooo#@oo  o XXX   ooo# XXXO++++55+.X X o ooo 77OXo6oX;m.o o@o.:+..  =X.OOO<;",
"*3u3333qOO.o 8oo  XX o .. .@%.#@@6% +.XO.O. . o0yo X#@@#    oooo    XXX   XO..O+5+++++O o   1ooo ..  o6@X;5.o  o#.+.    8.XX..O$",
"$***33*3+o o..XoX   #@%X.#oXoo@%@@@Xs.O$O$. oo o    ###@ XX     XX...X  . X$+ .+++++O+# #o 11  ,o .  oo6X;5aoo  X.+..o@  o@  X.O",
"OO +*:+:=+ooo+.X  .oo#@XXXX       XOOO$O$.ooo oo   o@#o XXX XXXX .XXX   X O+<. a++O.X#  #o ..       ooo6X;5.o6# X....oo  @@  .. ",
"O.oX.+. +3<.   9 o  o@oXO$. @X.OOO$$$$$OO.Xo Xoo X o#ooooo## XXOXX XX   X.+++e  e.XX oooo X.=,, ,-1  ,o@X;5.oo@@XO =.ooX ooo ...",
"..  ++o .:+*.= oXX...@ O$+$..$.OOOO.OO$OX.XXO.@   oo @ ooo@@# X$O.      XX7>+70@d #    o XX-. .. 1X ooooX;>.oo@@X..  o oo, oo ..",
"O.Xo:+@ X+&:.   ..+8  .>+>>$OO.O.XXXXXXX  XXX o# ooo  XX@ooo@oX$$.  o  X0aaee0 @##o XOX     O..7.1X  o@oX;>.oo4o... ooo@@o  ooX.",
".  .. oo .2&   X.. .oXO>>>$OXXXXoooo@   oo  X o# oo###XX o@  @ O$$X    +ea00 ###oo#oXOX   o o.7+..   oooX;;.oo@o...X #@oo#@ +<..",
"     .ooo .O o X.Xo..O$$$OOX0 o@####o   #o  X X.X ooo# OX@o  # X.$.  X 7+e0o##oo o#oXOX oo,o@..&&&.X. ooX;5.oooo...X,@@o###@ +<.",
" o ooooo  . oo X$XX.$+>OOXooo@####@#o  o#o oo X>OX  ooX..@o    @...X  XO+70###o0  oo .X oooo@..:+.+<O.oo.;5.#@o..  X #o#@oooo.+.",
".  ooooooX..X XXo.O$+>$OXooo###oo#@@oo###o o##XO>X    XOO ooX ooo.XX XXOOX oooo Xa0  X  o@@4#= +++u*.+ o.;5.o@ X ,+$.###4ooX oX.",
".X   oo@o XXX  oXO$+>+wOO. o  oo###ooo#@##o##@o XXXX.XX.XX   @ooooXX   O        0ea.XX  o@@%# ..+:++:+...;5.o@oX.  .>#@@@66  oo.",
"XXoo ooooooo@ooo .$>$OOO$O.   @@#### #@@##o@#@oo#oXXXXXOXX o@@o,o XXo X #o     XXX.OOX  o@@@@ ..+++&<:..$;;.@@ XO 6 o#@#@@@9= -.",
"ooXooooo6oooo@oo X$$.X.OO$OX @ oo,   #@#o#@@#@-  oooo   XXoo#oooo  X.XX  X o    .OOOX  ooo@6o ..+++&<:..$;;.@@ X$Xo o#@#@%% . 9.",
"@@o#.%o###oo#ooo X.X  XOO..XX oo@@###@@@#o.:.X +o@@@o@d,. @o@@ @o X.OO.X.  # o@ .++X  o%   oo# 9$>>>>+.o0;$Xoo#X$. o@oo@@@@@#o o",
"@o@#@@ooo## o.. XXXo@@ XXXXX oo@@o@oo@@@@ &.@o# @o#@o@@,  @@@%o@@oXO+++OX  . .oo.+OXoooX X oo#X.O$>>>>OXX;5.@o X..o oo#o #@@o  o",
" #@%4%@ 9o@o ....  oo#o   oo@@oo o@ X@@o .1o@@@Xoo@@@@@  o%@o44@@oXO$>.....o..XX.>. ##o X.XXXXXXX..OO$$OO;5.%o XOXo  o@o #@oo oo",
" o@oo   #@%o+>..oooo@@%###o%%%oo@#@@ooo .   @@@.oX@@@@o X    @@#oXO.O.+..- Xo.XX.X %@@oX..XXX..y.    O+>$;tO@@XXXo#   XXXX  XXo ",
"  #oo.. #%4.*> .o@@@@o@%%#X%%@ o%@@4%%o X. o@o.-@#@@@@@@@ X %o  XX. .2 o. . .oXX. #%%# X...oX.OX.o 1 O+>+3tO   . oo XXXX  o@ooo ",
" o   -9 #% *. +.@@@@@@@%%%ooo X %%4@4c@ 1.1@@.oo#@@@@@@@@oX....XO.X+ . ooo X  XX o%ooo XX+.ooXOO.X  XO$>+3tO     X XX      oo#@o",
"o o    @@@ +. . @@@oo@@%%%%%oO$Xoo@@%%17 .OooO  @o@@@@@@@@X..X #...&&.oo.oo.  ..oo##oo X ..ooX..$OX O$$$$rt. X 1XXXXXXo o   Xo4#",
"o . oo o%@ +O.   %%o@@@@%%4%4 .XX  o@o. .+... . @@@@@@@@@#1XXX %XX2+-XXXXo o  XXXo##o#o. ..X XX...O$$$$O$r;O...X  oo   oo  o. @#",
"   o oo@@%.+OO.o o@o@@@@%%4@@o @oo   XXXX+ +.8oo@@@@@@@@@  @o    X = X..  ooXXX  #%%%#  ..=1oXXX XO$>$. $;;O.O ooooo  o@#  o  oo",
"  oX oo@o%o++77..Xoo@o#@%%%@ooo%@@%@X. XX.o   o#@@#@@#@@@@oo  @o    . X  X o..Xoo#4@@# X X o OOXoX$$$O.XO;$.X.XX  o   @@o XX oo ",
"     o@o#%o<...7O  o@oo@@%@@oo@@ooo@o  .XX.XX #@@#@@@@@@@@@#  @ Xoo  o #oXXXOO #@##@%o XX oooO.X X$.o.X..;5.X  XX    X o XXXXo .",
"   o  @ #@X*.o.++. oo@@@@#@#o@@   o@X......X. ##@#@##@#l@@@o o Xoooooo o XO.>O #o###@@o X o#oXXX ... XXXX;t.Xo     X X.XXXXX.XXX",
"  o oo ofo+*.  +++Xoo@%%o o ooo Xooo.2o8...XX ###@#@#@@@o@ o@@oo@@@o@o @XO$>>. X#@  o@#oXX#@@ X X..XoXX X;;.X Xo##o X..O.XXXX. .",
".o   i@oo#..O8o+.o.@ o%@oo@ Xo@#.+ o . o X..X-##o#o@@o@oX..o@@@oo4@o@oX Xw+>$.ooX#XX #o XO oo...XO XXX oX;;.X  o### X.XXXX oo ..",
"--..O@o#@N@-+.  o%%.XXo##@#XXo#@o.+.o .X  XXX ##@o####@ O$> #@@@@@@@oooo w>>OX#@oX XXX XXOO   X.Xo oX.XXX;5O. o#@# . XX  @oooo  ",
"...  @@@@c%.. o. @h@+. #@@o.. @@ ..-oo..  X.. #####o#o O>>$Xo#oo@@o@@o  Xw>OX #4@@X.$O XXo Xo@oo  o o .X.;;O. oo  XXX.XX @# o@o ",
" .= @%@o#%@.X @  o@@ .  oo O. #@.*<. o    ..X ooo@#@@o .$>$Xo#o@o@o@o@XXO++. #@@##@XOOXXXo   #oo#  o oXXO;;OX o X  o X. o##oo#o ",
". oo@@oo#%@#  X@o  o# XXXXO.. o@+*..    XX .Xo  oo###ooXO+OX #@@o@#.@ OO$+OXo@##@@@ OX...#   # #@  ooo X.;;O oXX ooooXX o#@oo@@o",
" ooo@#oo#@@#oXo%o  o#o .$$$$OXo#+&@ . X .. XXXX ooooo@oX.wOX ooo   @ XO$OOO @oo@o@ ..7O.Ooo   ooooooooo O;tO#oX.X   XX  oo   o#o",
"  ooo@oo#@#o oo@X o# o@.>>$+$OX@.O      .   XX oo@oooo +k...     X7+O.$OOOX,o@@o@@o@@oXXXo#o XXoooooooooO;tOXX oooooo   oo#oooo ",
" oo  oo###o  .  O  o###.>>>>+$e@o    oo-  o XX         &OO.X     X++..O$$OXo@@#.%o#@%# XX #o X ooooooooo.;3OOXoooo oo    ooo o  ",
"        oo66o Xoo @@# ..O$++$$wX.X o   . ....1  XXXXXX.O$$$OX   X.OO. X<;*+ o@#@@ooX## X..o  XX@@oo#####X;tO  oo@@@@  o@o X.XX. ",
"  X X,,ooo@@o  o6X ooX+O.O$$OOO..1      .-.+.11 ++..+..++:*$XXXX.OOO. &<:*+.o@%4%@ 9o# X..=  XX ###@@@@@X;3Oo@ X@@o .1o@@8.XXXXX",
" X  X  ooooo,XXooX @X.+....OOX=X=.-. oo 1 ......*+ .2..+::*+. +.O7O...+++*qOXooo   #@%o++..oooXX#%4%%@@@X;;X#@@ooo .   @@  ....X",
"X  X.   oooooX. oX @X++&....O-- =...X o o   .O +u&.&+.2+&+++o:O*77O. ++++:*2X oo.. #%4.*+ .o@@ X#@%%%%@@.;5X@@4%%o X. o@o+..XX.X",
"X   ..    XXX..X X o.:+.....O.1 -.+  oo oo--==.++..++..-++.1 +.:.O.. ..:3:&<X   -9 #% *. +.@@@o #@%%%%%#.;5X%4@4c@ 1.1@@....oo..",
" oo ..XX  X..O.oXX.X&:++.=.XX.  X.. #oo o   -.- ........++.. .* o .2  &**&&* o    @@@ +. . @@@#o#@%%%%# O;$,%@@%%17 .OooO=& o..8",
"oooXOOO.,6ooo6oo.XXX$$+..   o-  X.  oo.oo  o.O X. o +++2+. ...+ +*.o#X*+z.O& . oo o%@ +O.   %%o@@@@%%4 X$;$X%@@@o. .+... -.  X o",
"oooX>. ,o6@oooooXX%XOO.    8##     ooooo6oo#o     , .++*+... o..+*.oo ++z..+= o oo@@%.+OO.o o@o@@@@%%oO.$;$.@%o.  o.+ +.8 ..   X",
"  ,o .  oo6ooo XX %d>+..o@ o##ooooooo@o#o#oo#o oo   X.:3*+.   ..X+.  =.+++.= oX oo@o%o++77..Xoo@o#@%#X$O.;$X@%@XXX +.o    ..   .",
"       ooo66@oX. o#,....oo  ###### o, #####o##o,ooo X.+:*+..-.....  .2.o.:.     o@o#%o<...7O  o@oo@oX.$OO;$X#o@ XX..oo..+X...   ",
",, ,-1  ,o@@@ Oooo@ . =.ooX o##@@#oo o###@##@##oooo .$&*<&&&.  ...  ..  .+.   o  @ #@X*.o.++. oo@@#X$$>OO;;.oo X....oo...o@  XX ",
" .. 1X oooooo... o@.+   o ooo6@@@##ooo#o#@##@@###oo .O.+++.+.. X=...++.&.&   o oo ofo+*.  +++X#o@# .>OXXX;;.ooo.2o8..o &=@@  .. ",
"..7.1X  o@o X$>OXoo..X ooo@@#o%%@##oo####@o#@@##@#o XX...+.1  X .+...+&+& o.o   i@oo#..O8o+.o.@ #oX..X@#X;$.+ o . o X  .-##@ +<.",
".7+..   o   O>>+. o..1  #@oo6#%%@@ooo@##@ #@@@##@# XX ...+.  XX..++.--&+ @o--..O@o#@N@-+.  o%%..XXX @@#@ ;$..+.o .X   .. oooo.+.",
"..&&&.X. >. oX..OX...o ,@@o##@%%%%######@ o@@##@#o X .oX.. X X oo.++..==   ...  @@@@c%.* o. @h@+$.@#@@@@ ;$...-oo..   .. ooX oX.",
"..:+.+<O..X o XX XX.  -o#o#@@@@%%%#@@#o#@oo@@###o #   oX..X  X o# +2...   .&.= @%@o#%@..o@  o@@.>O @4@o@X;$O*<. o    ...X66  oo.",
"= +++u*.. o o X   X ,+.o###4@@@%%@%@@@o#@oo####o   o   X.  X   o@o.....+ o.. oo@@oo#%@# +X@o. XO>$.#%@@@ ;$O*..    XX  @o@@9= -.",
"...$$++:+.. oo  XO$.0  o#@@@@@@%%%@@####6#o###o X ooo  XXX   oooo ..X .+OX. ooo@#oo#@@#oX %o  X>+$. #o@4 ;$O&@ . X ..  @@%% . 9.",
"+..OOO$<:...X  X>O$. 6 o#@#@@@@@@@@#####ooo oo Xoooooo    oooooo     .++...  ooo@oo#@#o o @X+o.$$ .Xoo##X;$. o@o , o@o@ooooo ##o",
"oXX....XXXX    XOXX#o#oo@oo@@@%@###o4#@@o o o o  o######o ##### @o  + o*.o  oooo#o###o  .+ O+ 77$>$X  o#X;$X#oo      o@@o oooo##",
"oo  XXXX     o X.Xo  @o  o##@@%@#o oo@@ooo . oo o###@#@#o##@@@#o@@o:o2 ...  . .o###@@@# X . o@7kO>::.X, X;$X#o       o X o ,oo6@",
"o#o X.O. o Xoooo.OX..ooo o##@@@#o oo. %o   XX   oo##@@@o  o####4@@o&&+......o.. o#@%%%@o  o o kOO:*&&Xo X;$X##   X,,oXXXXo oo66o",
"##oy.       oo.X.O..Xo#o. o#@@@oo o    oooo XX   o##@@@XX  o  @@#o.@+-.+..- Xo.  #@%%@@@  o.#X*.O+-f.  oX;$X##o  X   X.XX,oooo@@",
"@4  .o 1    oo..O..  ooo  o#%@@@ooo   .ooo .XX . o#@@@@ @@#o %o#o O  .2 o. . .o-.@%@%%#@ . .o%.X.&+. ##oX;>X##  X. XX.X.Xoo  o@%",
"@@o1.X  X o X   .XX  #o  oo#@%@ o@@o   o . XXX  o##@@@@ #@@# ooooo+X+ . ooo X  .*##%%%#o. +.oo=.>...X###X*$X#    ...X   ooooo4@4",
"@#o +oo   o X oo   1 @ooo##@%@# Xo4#X    .  XX  o##@@@@##@#@ #@o# o.&&.oo.oo.   Oo@@%@#o. ..o +.>+-OO##@ ;5.#o XX.$X ooooooo##@@",
"##o . oo     oooo  Xo@oo##@%%@#o. @#o X    .XX  o@@@@@@ooo#1ooo@%.92+-.XXXo o @ooo#%Z%@o. ..X -+>O .>Xo#X;;.oXX.OO7X o6ooo6o##@@",
"#xyX   oo .   @o X oooo#@@%@%@#o  oo  X    &.X  o#@@@@@o.   @ oo@ o = X O  oo@X*oo#%%%@o ..=1o +$OX.OX#oX;;OX.>o .OX,o6@ooooo#@%",
"oo Xo . o .XX @o d  oo##@@@@@##Xooo .    o ..X o##@#@@##X @ooo#@# #  . @  o o@@#%o#4@@#o  X o  .$$...XXoX;;OXXo,oXX  oo6ooo,o#@%",
"#o X ...ooXw oo d   ######@##oo#oo .18  oo   X ####@@@@@ o#@# %@@@d.  oo#oo  o@##@##@%o oX ooo  $$O.XXOX.;;O.   XXX ooo66@o o6@@",
"oooX  .. o Xoo.   X #### o@oooooX o1 o  . o XX #######@##o#@@@@@@4,  oo@o@o X oo#o#o#@@o X o#oX.O$..XX.O$;5OX,, X.X  ,o@@@o oo@@",
"@#o oo1-ooX @ X   Xo#@@#oo@  oo o  .Xo  .Xo XX #####@#@@@o@@@@@@o@@#  o@@@o XX oX#@o o@#oX #@@  ...o,X.+$;tOX .. XX oooooo,ooo@@",
"o#oooo  oX.o@ 00   o#@#@oooooo oo ... o .. ..X ####o@@o@@#@@@@@@oo4#o  @@oo##@@@oX# X #o Xoo@oo9..Xoo .$$;;O2..O.XX  o@ooo,ooo4o",
"o##o@o o  o@o 10   o###oooo@@@oooo       ..X X ##@o####@o##@@@@@@@@@o   . #####@@oX XXo X o#@o@ 1..ooXX$$;;.X.7+..   ooooo ooo@o",
"o@#o@oo oo  d1w..1d o#oooooo@@# o@o   X   .. XXo####o#@#@@#o@@oX. @o@o  X #@o#oo##@X..O X o@@o#  O$.....O;5XoXO&&&.X. oooooooooo",
"o#oo#ooo o 001.OO0d ooooooo####oo#o       X..XX o#@#@@ooo@@o@o#op<.o@o@@XX #@oX.X##XOO XXXXo@o# .++>+OXX.;$XoX.$+.$$OXoo ooo#@o.",
"o# #@oooo 1e$1Oww oooooo#oo@@@@oo@@o  o X  X.XXX oo###ooo##o ##.pp<#.@ X.. o@ XpX@o.<$X  <pO@ooX$+>+>>X#X;$XoX.+++u$..Xo oo o@ X",
"o#oooooo 1e$>$wwXo###o#o#@o#oo@#oo#oo  #  .X  X o oooo@o    oo#.:<. @X.O>.@ XXO. o <p:.OXOO.oo .$>$.O+XoX;$. X.O$+++$$.. oo o XO",
"oo#oooo .ww>+wwO o#o  oooooo#@#ooooo#oo#oo   X  oooo  o  XX    X$ X7+$>>$.  .O.. @ $pp.oX   ooXO$OXO$.X#.;5.X...$++&+O...XXX XO*"
};