/* XPM */
static char *result[] = {
/* columns rows colors chars-per-pixel */
"128 128 75 1 ",
"  c #5B6347",
". c #53573B",
"X c #474F33",
"o c #6F7357",
"O c #2F371F",
"+ c #1F170B",
"@ c #373F27",
"# c #533F2F",
"$ c #676B4F",
"% c #3F472B",
"& c #7B7F63",
"* c #332B13",
"= c #232B0F",
"- c #170F07",
"; c #836B57",
": c #B79F87",
"> c #5F4B37",
", c #2F1B0B",
"< c #937B63",
"1 c #372313",
"2 c #3F2B1B",
"3 c #A78F77",
"4 c #473323",
"5 c #775F4B",
"6 c #2B230F",
"7 c #67533F",
"8 c #4F3B2B",
"9 c #131313",
"0 c black",
"q c #232323",
"w c #BFA78F",
"e c #9F876F",
"r c #574333",
"t c #774F2B",
"y c #2F2F2F",
"u c #4F3B23",
"i c #1B1B1B",
"p c #8F7753",
"a c #AF977F",
"s c gray23",
"d c #434343",
"f c #6B4727",
"g c gray28",
"h c #838383",
"j c #43331B",
"k c #8B735B",
"l c #430000",
"z c #7B634F",
"x c #6F5743",
"c c gray34",
"v c #070707",
"b c #5F4323",
"n c #13230B",
"m c #272727",
"M c gray31",
"N c #4F3B27",
"B c #9B7F6B",
"V c #4B371B",
"C c #373737",
"Z c #171F07",
"A c #4B4B4B",
"S c #836B4B",
"D c #1F4317",
"F c #17330F",
"G c #3F2F17",
"H c #27531B",
"J c gray39",
"K c #8B8B8B",
"L c #775F3F",
"P c #432F1B",
"I c #FFCFB3",
"U c #0F1700",
"Y c #5B5B5B",
"T c #530707",
"R c #777777",
/* pixels */
"l44%XX%%%s%%%%%%%XXX%XXXXXXXX.>>XX%%X>X>XXXXXXXgXX%XXXXXXXXX%%XX%%s%@s%sXX%dddds%.XsdXX%%XXX%%%XXd%s%%Xg%%XXX..X..XXgXXX%X%84444",
"ll4%>.>XXss%XXXss. .X.          7 ..X  . .   . ...XX..XX...d%sAMssssdyysX..XX.....%%%AYcd% X%%%..%%d%sA.%s.......   Xx  X%44444l",
"lllll14Xyy+q@@uj+%o.%.&o&&$$o&oooo $. &oXX&o o .oX +% .% +X*.yyyy**y*000+ %n++*%@*%d+%.%%o +9**gX%.%q*co@*. ...%Xoo&;K.#2llllll+",
"lllllll4%dg*@%+%jF.%%%&oo&5o&&oo ; o. oo   . oo...o%. %..%***%*+*%yqn9-9*%%-00n**%%+*.*-qRod%y*y. $.m*..%X   .@X.   %>4,llllll,O",
"+llllllll2*y%X%#%M%%*.Xo&ooooo XX..XX.e &o  ooo5C .....%.qq++yd%y*%y+qqn9n+009%d M*n*ddq9%%%..%++..*q*d c.  $*FX  g.8,llll1lll,=",
"66ll,Nllll,%y%d%.%% .%%o..o&o$ XX%*M%XX.   ooo % %. .*%%*-%+-*. %d.Cyyy@g@900qo M  .cd.dq99q.o%qC%**yqD.m  @HX+% .++llll,26ll,O=",
"**lll24,llll2%*g..%.%.% .Xo$$ o .X@O@X%X.X oo  %. .XX===mn+99*.% & %M%q%.===-y .M oeo%%%*q%.o @*.%qqq*nD-%*+DH*%.%,llll*8#lll2O6",
"**,,,==*1l1l,,O2%.%... %y X7ooo%o&.OUX..XXXo...j.=%$Xo#@=q99**+%  .. %++=@.  X%* . &o.Xg@*@co.% .%j.G9n**%**FD+q*1,,,28X.*,,,==+",
"*6*,,,*=4u2,,1,=88rrOO==8$;#oo$%&o%XXX$&.XXo. =.X  oo oX@%n9+*%@%%**@%y%@Xo oo  X.= o  o.*# .%cJ%j*===r@8==OOrr11,,1=4@u4,,,2=6+",
"=6*,,,2248r811111888.XxK%O&&#&7;.r $ o&o$XXoX=@.$$$ooop X X+9y. .%%qqMX X pooo$$$.@=o$%*.d*.dC=xX;==%$$OX xX.811118888r84,,,226+",
"=O**,,,288@@>81222.<33<&  o;p<; * o;r$&$  %==*#$$$ ooox>r211llllllll,112r>7ooo $$$#*= .y%*+%%x  * o<p;o  &<35bV227>>>@@81,,jj**6",
"OO==111N#Xr%X>#1124V7<33<<k<<&;o$;oo;&<xr.X@X#   o.>4N44444211lllll11244444N4>.o   #X. .=55$;oo;$o;&<<k<<3;bbV45>>>>X%r4111@@=*6",
"OO*42111r7757..7rV2112 &&.# &;<<e3&<3<o*.@=XX o.>2242444244221,lll,1224424442422>.o XX  .*o<3<&3e<<;& #.&z2211 ;57..757211NNN*=6",
"iO@+O,,187X..75.x7#bb#b&< OX $o<<oo3:3@*OX@@X#44121111118XX#@XXX XXX@#XX41111112444#X@@XO*@3:3oo<<o$ XO bNb#bzk;x.57..#21144=+O+",
"O@%OO*,,1@=OXXX>$5 xb###5:<  o.# o &:pX#..@24uuu2214%.  .  XO### ###OX  .  >#1128uuu42@..#Xp:& o #.o  <;###z<& 5$>XXXO,114OO=OO+",
"OXX@O@1,1=6=O%XX...o;xbbt53h3&< . X   ...>424u8u4#.   $.#ooXXX# o #XXXoo#.$   .Xuu8u424>...   X . <&;x55bbz<;o...XX%O=,,1O@@OOO+",
"66VOOOO111>X%XX%@@XXo;7V>f7<<3e:33& X& uu>44>>. X    $oX$h.@Xo     oX@.h$Xo$    X .r>44>uu &X &33:e;tt7f>;;;oXX@@%XX%111%@@OO=@+",
"66666OO,,,OX%X>X. $  o@=O48f>z;33::X z8>8uu.         po o$## &oX Xo& ##$o op         .uu8>8z X::3<5>>f8XO=@o  $ .X>X%1,,O=OOO**+",
"OXGG66=6,,,O.%@@X  oo&$ X.4>uu $o$$ot>>u8.  oooooo o&oooo XoooooooooooX oooo&o oooooo  >8u>>to$$z>>uu>X X $&oo  X@@%1,,==6=6**%+",
"OXo%OOO@11,2XO==%.oooo& oo$>24u8 .$tf7>7 $ o& o&&&&o<;$;    ; $ooo$ ;    ;$;<o&&&&o &o $  >7ft7u>8u4#$$oo &oooo.%==O1,,@@@===XO+",
"=@X%OOOOO11,%266@.$o  $  o&o.u28>87t>7zpo$ &&o&&&&&;;oooXo&$ . o$o . $&oXooo;;&&&&&o&& $op&7>t78>8#.oo&o  $  o$.@66,1,O%@O==@@=+",
"=O@@@%OO@*11@XOO%@X OO .  oo$o78u55x;;&&&  <&;o;;;;&&oo$ o$    ooo    $o $oo&&;;;;o;&<  &&&<5x55u &o$oo  . OO X@%OO111X@@O=*O+++",
"=OO*O%@O=O,,,O%@%.$.##sO.$O= o u75>tz&&&oo&&&;;&o;&&&&o  $o oo o;o oo o$  o&&&&;o&;;&&&oo&z77t>57u o =O$.Os##.$.%@1,,=OO==O*+O++",
"OO%@*@@O6=,,,2OO%%.o$..XX@+@X@2;5>7f7t;&o<<o;<<<&;;<o .Xooooo&;;<;;&oooooX. o<;;&<<<;o<<ozft7f&o5;2@X@+@XX..$o.%%O,,,OO=6%*++6++",
"jO%X866=2==,,,22%%X $  $.#X#247;&;;77757 3<;;<<&;&<;  Xo&o;o$;<<<<<;$o;o&oX  ;<&;&<<;;<;8757z&3;&;742#X#.$  $ X%%,,,=2==2=+6==++",
"O%X%@6*6=2=,,,+=%%#X. ...X$2,>5&o<<;77t77;<p3<<<<<&$   ooo&&&&3<<<3&&&&ooo   $&<<<<<3pS577t&&&<<o&5>,2$X... .X#%j,,,22=2=6*6*+++",
"OXo.%@@O==6*,,,26O .X.XXX.>227&$;<<<<zffttL<<<<<3&Xo  $o;&&&3333<3333&&&;o$  oX&3<<<kttttf;<<<<<;$&722>.XXX.X. O,,,+**6==i+q9*ii",
"O%o$  .%@*=*,,,=8O#O+O.. u,4o&X$<<;<;<;$5fttS<<<&    oo;&<<<3<33<33<3<<<&;oo    &<<;5ttf;$;<;<;<<$X&74,u ..O+O#O,,,==6%66**%.y6+",
"OXo&;&o.r@*=*,,,Os##O+O.o118oX@:< <$;&&3kS5t5t X o o;;<;k<<33333333333<<k;<;;o o X8t5t5<<3&&;$< <:@Xo811o.O+O##,,,666*6%%*%%**i+",
"+%o  ...c#@==,,,=Os#OOO#4,1$$+o:Xo< 3;<3<3<5t>4 o$oo;k<<<<<3:<33333<:3<<<<<k;oo$ 84>tk33<3<;3 <oX:o+$.1,,#OOO#4,,,6%%+*+%C%%*qi+",
"m+$  %%. . cM=,,,+O##sO,2,O$@+::#& ;:;<<<33;>428> o;;;;<<33a3<:333:<3a33<<;;;;o7>824$<33<<<;:; &#3:+@$O,,,Os##,,,6@.*ny%y*%C*y6+",
"9@...gM.    .%,,,*6OXX,1u+##+.e@o$V:<<<<33<<X@8>>>$&<;<<<<aa<<a:3:a<<aa<<<<;<z>>>> @X<<33<<<<:V$o@e.+##+,1,XXO,,,6d%**%%**%%g*6=",
"+@ ....oo    *9lll=*@1,,$#OO##**;@o:<<<33<< XX.>>>7>z&<3<3:3<aa333aa<3:3<3<;7>7>> $XX <<33<<<:o@;**##OO##,,1@,,l@g%g.%%%%%%%%*6=",
"i@%.  . &.%c.+9lll2.O,,,.$.X#OOX+;3<&;33e< #X ooz7777z3<<:3;3:3a<a3:3;3:<<S7777zooo X# <e33;&<3;+XOO#X.$#,,,OlllXXX%X%. .***C*OO",
"+y. .  oodyy*n+*lll4,,,##@.o#O#O@<33 3:33o#X  oo<;7fftt;3:&3:3a333a3:3&:<Lttffz<<oo  X#o33:3 33<@O#O#o.@##,,,llO. .XXXXX@%**+*O=",
"q@ X.  o..%%%.*ylllll,=*XOO&X.XX3&<3$e333.O .  o&&&zttft<3<3:333a333:3<5;tftS$&&&o  . O.333e$3<&3XX.X&OOX*=,lllr $ . ..@%X%q9+6=",
"O@... o  .g%  dd2lllllX0*XO XX o3&<<;<<3&O#$$ $o&;o<kff55t<3:33a3a33:<tt55f;3<o;&o$ $$#O&3<<;<<&3o XX OX*01lll4$$$$ 7  X..%*q+6=",
"O@. ..o. oo.  . 4llll4 i+#o$OX &po<k<<3e.OX   oo&$&a<p;55t5<33a333a3k55t5<<p<a&$&oo   XO.e3<<k<op& XO$o#+i2llll#$o$$   ....y+mqi",
"O@ .  . y%o..*.$#llllr$@#@@ &# p &X&&&&oX@ $ $<o.<:;X;a<ff555B3333B5555;;aa;X;:<.o<$ $ @Xo&&&&X& p #& @@#@llllll>oo$$$. .. %**6=",
"=%...Jo  m.dCX..*llllO.=X##.o@ X& @;&3o#XXXX &pX;a<  3:3;;5555<3<5555k3;;3:3  <a;Xp& XXXX#o3&;@ &X @o.##X=llllll2$o$$   ...%%%6=",
"qy%%@o $$.cy%..8llllll8=+.$$.=XX$O#o3$##.   o @$a:XX3:3&&&k555555555B33&&e:3;XX:a$@ o   .##$3o#O$XX=.$$.+,ll42lll>o$$ $ ...%%%6=",
"=O%..ooo ..%. .*llllll# -O.w.-=@ +#:oX# ooopo*@3:&@ ::3;;<ekk555555<33e<;<::$ @&:3@*opooo #Xo:#+ @=-.w.O-lll#>lll2$$..$ ..% .*OO",
"iOd.o&o   c.. 8lll42lll8+OX3 +-@.#$e.# 3<poo#@ ::@@;::;o<<e<5555555k<3e<<<:3XX &:: @#oop<3 #.e$#.@-+ 3XO,ll4$o*lll>$.$$$X%. .%O=",
"=@  oo   o M..4lll>>lll# O#X.X O#$ ..o3&3oXo3<:wX+X<::&o<<<5t55<<55tt<<;$e:<+X:<<3o$&oooo$#++X:X+#X+ooOolll>$o8lll8. $ .X....%@O",
"O%  o$     ..r1ll6>&Oll,+#@#XO#..#X o&&&p<33&&:w$+ 3wa<$<55;5t<33<5tt5;  ::##:3;;<<33 $o$$#.OOo#=XX@o.-,ll4$$5>6ll2X.  XXX7..XOO",
"O@   o  $    #lll4 o7ll,==X@.X@XXX  o&&<<<3oo&:w&X.<::<$f555<3333<ktt5t8;:& 3:<<;;<<:oX .#+oeOO$o X* $#-ll>$$ X6lll#  X%@X.X..OO",
"O%     $    .4lllX.&&8l,lXXXOX###$..$3&<3<$o o3333o&:e5f>t5<&w<3:<3;;5f>5; &:3<o$$;;&o.#X++ wos&.&&X.$u-l4  .X62lll4 @@6@.%%%*OO",
"+X7.... . % .*lllX.oo5lllXX.-X.O..#. 3o oo $o&&p::&p<;55>p3 ;w;<3o3;.<8t;7><33<o  o&  $ #+*#&ho#.ho .$1-l8XXX%Oj,ll2%%y%@c%*.*OO",
"+q...%X .@X 8lll6.X.o Nl,,. -O#..O. $3oX ;&;&3< &3kf5;55<&.@aw;<3$3:XX<k;t75;;;<<<<&&oooXO#OX&3#oo@XX8-l4.XX%%%%2lllj**X.... %6O",
"O6X+ %. %+ XPlll#oXXXo.,-2XX#O# #$ @oXXoo& &&;3a<;fft5<<33<p3; 3;@;;<<<<;57>>5k<33<& XXX .##o$X#@OOO@-ll# .. 55 #lll2@@%%*%%  O=",
"+6*%..% .%o.6lll>. XX.X=,22OOO#$XX; OO ..XX X;<35588t3<3a<<33.@<;@o<33<<<< u75t<<<&@=XO@X.+@&..O*@@O,-l4 7  . oo>6ll6%%%*%%%  O=",
"++qq.%.....8lll*o  oX%@i-,,+O.@X$O33+OOOO+++@.;5ttf o<33:33:3X@3o#;&33<;;; ;5tt5t$X-+**X#+O$Xh$qO@O+-,l#   X. o&$2lll4%%%dy. %Om",
"-+%-*%%*. .%lllOoo  X@O--,,+=.#@o@.w$O#O+O+0+,85tt<  o<:33333.X:;Xo<<33pp  <<;5t>4O+++@.O*.OcB.OsOO,-l4    XX $; 4lll4%%.g%..X@O",
"99+nm9y@XX.8lllN.X%X%@O-+21,+@ .$X+3w@+OOqq21247z&<$X p33333& Xw3@ ;3<<; X$3<<<84212qqOO+@+$&OO@.**+llr     . o$ ylll4d%%.%%..@=",
"+99q99%9.%*2lll#.@%%%X%=-2ll,+.oO33+ 96.Oq2882+ o&&<XO &&<;$;XO:<X o<<&oXXp&&& @+2882qO.69&ssX* .jlll45   5  . o %lll4..d.%%..@=",
"+9n9999-@@%6lll#..XX. .%=4ll,-.oOowOi9Oou+1>>.O#o&&3 +#oo&$$;@*<o@Xo&; o@# p& X*O.>>1+uoO9qOz+O .2lllr5o     .. $%,ll2..cX%%%.@O",
"9+++99+9* 8lll6 X...$o&X%$4l--X. Xoo+-+>>2,.&o O$o &&+* ooX &@O&$+X&&o$ *@ o$ @+ o&.,2>>+-O& -O7#lll4  5   7  ..X%1ll6r.. o..XOO",
"+6.*+q*qd*4lll*X..%  $oXXX=,,,OOooO.#-,>kx9=hoo=X  o&+-...X.o@+$#+Xo$$$#+# X..+*ooh=9xk>,-3<@-*OOlllr  55o . 5$.X%2lll#..oo..%OO",
"9O X%*%.*91lll8M. .. o ==+iO,,,9<wqOb4->:wX0oh&-# . o=vX##X. O+oO- o   +-.XX.@-.&ho0Xw:>-4x1.Ov+,1,4.7 ooo .  ooX@2lll#X.   .%OO",
"+O..** .%q1lll8 XX%%%o.+-@@X11,+o:*fxf1+h3w$i#.+9O.O@++#O6q#.99.+0O@X.#9-OO.@vOo.#i$w3h+1f,44OOO,1,O      7   ooX%jlll#  7.  .Oq",
"+6d q*o.X*1lll8.%%*c..%+iO#X 1,,5f14;@oOO.o:pX+O9qOOO-Oo#+iOO-9O9-O=O@OO+iO#+-OO+Xp:o.OOo@1211,,,1@@. o   7   ; %%jlllroo ..  OO",
"=@.%%.  .%2lll8X%%.% X=9OOX$$2,,4f4,w@@#&&X ;o-O+O+OOvqo#q++q+O#+9666+O.O++6++ p-o; X&&#@@X#41,,,1O+.     .   o %%jlll>  $o.*mO=",
"O@...%   .4lll8X%X %%@+i#X.$$.,,2N#+XoO* <&o Oi#cqq+##O###66qq..O+#OOqX$+qOqO6&aiO o&< *Oo&$o1,,12@+O.          %%4lll> $$$o.*i=",
"O%.     ..4lll4XOXX%O**OO.$ .11,15&@oo+ ..;X+$q$$+OO#h$O.$$OqO#$#O##$.O#O#.OOX#$$#$ *#O+oo.3 X,,111@X%  .   $o %%.4lll>$o    %6=",
"O@.      X4lll4X %@O*6+=X$ 2141114$.ok0X:o $o&&@+#O#&$ o:<@O@#o 7#O$h&oooo#OOXX eoX#  o -X33o,,14224,=. .  . o.X.7*lll>$;  X. O=",
"O%...  o .4lll# X@O*6*=0+r#,4NX4-N<O$e#O#X3;&:$OX9i .Ooooh<@+.h&6=o3&&o.#o#+@#X$3w3@+O@++33& -,27>42-,j%.  . o X%.4lll7oo55.. %=",
"O@  .     #lll# .%O6O@=--4f,Noo.-47+9k3$ $; p:o++=*#+X$.3:<@+X$ OO&<&ooo#sO-.:@ <3w3X#X=ow$31-1>o& ,-lll4X. oo.X@.#lll7$oooMd.y=",
"O%      5 rlll# .XOO%O1l-,f@X&o@12f.-O..@Xo ww$Oi#@++X#&e3&X* &X+.&&3&.$ +-=wo@&.&:33o..e<&71,2&&o@-=llll4. oo.XOX#lll7$o&&.%.C=",
"OXo$%& $$$>lll# .X%X4llll,X<o&&@$44f#Oq+.3& :a..O#.9++#<<<:&O :$O.e&&w&q.--XX &# &&3:3&&h& 1,1 ew -=6*llll1r  $XO%2lll>ooooo$ @O",
"O%o$oo   $>lll4.XXX1llll4@=@o#O@@111X&$&&:#-: 0o OgO-+  ;<:eXX3XX$;33<3@0 o@o-O@ 3$$3<o;;&*,12 ww-=666@1llll4r.X%%2lll# .$oo .@O",
"OXo&;&o.M o,ll2%%*llll6#..=+@@#O*O411X#o&o-+&+0<w9.o-+X$<<3<X eXX&3333o=*@@aa0-+&<. <<Xo< 111r;wX-%@@OO@2llll14X@X2ll,r .$o  .%O",
"+%o  ...$o&Olll2lllll*7$$$%-+@@*O@221.##.#X#Oi+o3OXo+v#$<<3:  <XX3<:ah$+o#Ow30+ o@  X @ o 1,1@.:+v...@*6O%2llll2X ,ll2XXXX..XX%O",
"m+$  %%.$&;%lllllll27 o&&$X=-O@.@##15>O## :X#o6$k.@o@v# &<3:o 3X ;ow:$OX O.hX0.wX+&#$oX@&8,,@*X 0=.#.@*6*O%4lllll2lll2XX.. o  %O",
"9@...gM.$&.+lllll2# ooo&&& ===X.oO#-x>+.#X&O$$Oog$ $g0X $<3<ooo &o<:3 +oOOo#X9Xo6 o.oo@@@,12@OO+6X..X@O66O%X.4lllllll8.....  $XO",
"+@ ....ooo.1llllV>   oo&&&&$ @OX O-O21+O$oO##6.;#+ooo0+$ o<<<;. 3&::$.e++&@X#oo+O O0&:@ u1l# X%%O@X.@OOOO6% .X4llllll4 . ...X rO",
"i@%.  . .72llll2.$& oooo&&;&;.%XX++o2,1++<.q+#.;o9.h;0-X p&e<;Xo3;33Xo$0 :#oO.o-.&--w Oo424#.XX%%%@OOOO@@6XX%%%44lllll#  .. %.XO",
"+y. .  XOlllllll. o oooo&&;oo .o=+O.#,220@oOO.#o$@ <o00O pp<;$X&<ow;$o90h3 .# #+ .-i$O@721@= XXX.X@O6O%.%%.X%@. 8llllllr$.. ..%O",
"q@ X. r*lll,*lll%X  o $o&&&o   &=+s#O+220*@@@XX .X <o000#&;<<XO3&&:ooO0-&&&...@OOO+++Osuu1+X.@@X XOOO@%XX.o X%XX4llllllll8XX. %O",
"O@..#*llll*m%lll2.. o  oo&oo  oo=O.O9921++-OXO#$ o &o-0v-X&<:X+3:33<O00-.3oX X@O-+##+X,,>#OX @%X.XO% %X%.  .X..X2lll42lllljXX @=",
"O@.OlllllPX+%6ll,%.  oooo$o$ oo.+*@<#02u-+q9O++  o3&X099-0#&IX03w&&X--90O3& o#+9s6+OOO,14@@=.XXX.%%%.XXX  %.X ..,ll4.X2lllll4XO=",
"Oj2llll1s *+%@lll*X%%o&& . .   .OOOo -O,-,O-+q6# o&3.-+q-vO$I#0&w&oO9qi0@3&o&+-O#q+O+,,,Oo+=%.X.X%%X XX.o ..X.X8lll8X%%22llll2@=",
"+lllllT48#%%@4lll2%X@%.X%%X@O%XX@O#OsOO,,,i-+--#$o&:o+9++-+XwO0.ao ++q+-.wo$ ++#O+9qO,1,Oo0=88444444448#>r884882lll24444j1lllll=",
"llllllllllllllllllllllllllllllll,,1,,,,,,,,----,8>7571++,,1,41-114>-+,,1>;>72-21,,,,,,1,,,,,llllllllllllllllllllllllllllllllllll",
"llllllllllllllllllllllllllllllll,-12,1,,,,------>7>552+,,,1,22--2>2,,,,275>>1-2,--,,,,,,,,,,llllllllllllllllllllllllllllllllllll",
"llllllllllllllllllllllllllllll,,,1,,1,,,,--,--,-17>7;7,-12,8x+-->7,,1,185758-1+---,,,,,12,,,-,llllllllllllllllllllllllllllllllll",
"=@#r>>>r>77>#88#lll###84XX@%%.=+#oXO:.-OO--,v-@-+oo<:3O9O#9.oiO-okiOO+#o&&oO+.90-0-,,,X o.O#O+=8>######8884484lll4##8448#>>##>4*",
"O%  o$  $oo$ X >lll#$ .%OOOO@X+=X  @o.+#O0-,,-#O0X&&3a#++.+X3++-&&+#OO o&;&OO.O+90-,,#$$ .##XO+X       .X %X$4lll...XX..  ... XO",
"O@   o  $o$ .  o4lllr o%66O*O==X &&#@+O.+0-,,9.#0X;p&3XqOg+.&O+-&$+.O*o;&< 9Og#+i0-,,O 3o$ #.#9X        X@%XXlll#    ...  $   %O",
"O%     $$$ ..%..@lll#$$%6666*+@Xo3oo.O#.900+,+.O0X;$&3.6O.O#o+++e.O.+O&3&oX9O.O+9--++O$ppoX ..+.        .%O@2lll  .  ....   . %O",
"O@......  55 .X  8lll.%%@O**O+# o&o$.gOO-00-,,#+-#ooo:.+#$#@$O+O&X@.9.3&oo#+O #+9--+O.& o&..$X-.o  $$$$$$%%%lll#oooo.. o .X%XXOO",
"O@..X77   oo .. 5X4lll*@%@OO@-#$oeo#$$Oq00---1,+XO$rr&3o+@O@o@=.o# -Xwpi6o@X@X.9---9#$oX.;o.X.-X$$$ooooo XOlll*Xoo .%# ooc%XXXO=",
"O%..X..     7XX  X#lll*%%%%@@=# o:o+ o#+00---,-+p r-  ew.-+.o@*#&.0Ow&X *Xo.OOO-----#$$ooo&#X +X$&;&&ooo X2lll7   .%...oo..%%%O=",
"O@.X%...     X%. X.#llly%%%%@*@ .:eO#k +-0--++-,: -@ose:.OO &@0.:X+ewXX3*X:sO+-----O.$ooo$ #XX+X$o&&&&oo.8lll>;&& .X%. o *%%XXO=",
"O@..%%....XXX%%X.X. 4lll%%%%@OO.@o:o o.O+-09+--,$$+O#Xo$oo.o&@O&oXoa$#o3O h+++9----O$$&h$$## @*.$o&&&&&$.lll2;o;Bo.#%#oo%%%%  O=",
"O% .%%XX..X%%@% XX%Xylll2d%XX+OoOO<&ooX$O00ii0,11sO#+#o o& ooX$o o& #.&hOo$-++,--0+X$$&&& OX.O$ $o&&&&$.4lllxoo&&#j.%@  @dy. %Om",
"O% X@@@%75   5  %XXXOOlll4.. g=#.++<3 . .-0o#01u,++=-+&o@@@ &$+Oo$.O=&3Oi++Os047--O$$&3& +*XO& oooo&&;.4lll7&ooo %.%*%%%.g%..X@O",
"O% X6%.7 5o     XX&X@@2lll8c$$.=@@- :; $o+-w#0#u,1@X-+@ #+X&3 +sooo=#:q9OO+o#-8Bv-#o$&ee#-+@ o oooo&& 4lll> o& %.. %*.*%c.%%..@=",
"O@7 .%..  5   .XX.&>6*%jlll#$$ X=@v@:3o $+swO0O>11Oo+-q.+-  & -Oo$ -$$0q.@O39->:#9#$oe3o+0@%X  o $o&$#lll>$oo&oXXX.*% ....%%..@=",
"O@.....   55o X%. $7%%%%4lll>$$$.O+i&:&oXiow@0i.u21:#0gei0X*#@-OqqO+# +-o#.o--xw#v.&$3:X0@j@.. o  o Xlll4 o$$ o.XX%%  %%*X%%%.@O",
"*4.7g#..7 ooo.@   o.%.d%#lll2>$oo.=0@<3oX+Bw.0-+uu2&o0X:#0$o.6+q# g9O<O-o  q-,ow 0#$o::+0=**%.  oo$X2lllX...  .X%%%%  %%% o..XOO",
"OO%.#X.      %%%. o%*... #llll>oo$.=-X:e#OawOOO992-2aO+:$Oko&o0$3&o+ e+$.#.,-1:aoOXo3:.0=.***X$ o$#llll# .X.   %C c%% .ydoo..%OO",
"=Oj%#X.. o .XO6@X  %%X.   rllll7 $$X-@wa* wwX+.q+1-1B#-:oX3ohoOoo&o+&&+&+O$,-u::o*X&3:+-c *% %o.$#llll>$o$$.*. .%. .X..%g$$o.*i=",
"=**%%... ...@66*%. %%#..$o #llll>  .++w:+ :&o+OO+o++>X0e&X:o&o#&o&h-:$i$0X8--o3: + &:<0=%.. &&%%4llll>$o&oo.%*% .%X...%%.    %6=",
"=Oyyy%X%.6%. X%%@X%%% .7oo $>4lllr>$=+ww@@.oeO9O+$u11#0o<X:ooo.&o3oO:O-+@o1-2eo O@<&w ++. %.oe>*lll4>ooo&o$.%%g  %%...%%.  X. O=",
"=Oq*%*m@%%X. .XX.XX%..g $ $oo >llll8=+:w;+= &o+9iO$,,,0@oX3.o&$oo< #ovO .1-, o.+- e<:@O% o.. >llll4 ;o ooo$X+m%. ....%%%X55.. %=",
"q@***n+%%. . .X...X.7*% $$$;ooo7llll*X:3eiv#oeX9#-+,11.$+vp#$#O$. +O##$#X,-,oX+0owp33*=.*Xo 4llllO%$&ooo&o$%+%%....XX..o ooMd.y=",
"=O%OO**q*%%.  ..X@O%r.. $oooooo&7lll,1z$eq-.$eX-o*++,1,:.=kX.+-$$$qok$.O,,-.$$+-3e :<*$ X.>2llll*O%.$ o;&o$Xyo.%.X.%%..oo&&.%.C=",
"+O%@@@Omq%%%X..X6@O%.5. $o$ooooooorl,V2+&O0$@oO+<X+-,,,&oO::&@Ow3osek.Oi,,-#.$+-woX:3O . #llll2OO.%X  $$oo$.. o .7. o o     .$XO",
"OOX%%%%XXXX....X@XX$ $  o  ooo&o$$$=,b,,bgvOO*+ $.#99,,1oO&3<.#:ko#ooO--110O# +-3XOw&#.4llll14jjO6OX.. $$$$$$  ...... oo .    XO",
"O@XXXXXX..... .X%X ..o .. $$oo&o$ .=O:,-22,6-O $X#$#i,,,o@Xp3#O3&.@$O-q,21+9OO0o.-Ow;*lllll4roju@6qq%X7.$$$$$ ....... .X. .7  #O",
"O%jXX%@%. .X    %@X%%   . $$ooo$ . O0X ,-,,,1,X#*@.$. ,,,O+@X+-X.O+-*$2,,+#o@Oo&-- 21,lll1#r .u@@q+yyX .$$$$$$...X77 XXXX .  5#O",
"=@XA%.......  %X%@%%X $ %. $ooo  . =0O  --,,,,,,,@$Oqh2,,+OOO+OO=++.  1,,69O@##+-,,1,,l14#X%$X+%@*gs%..  $$$$$ ..X...X%XX7    XO",
"O8..% .#....  %%@%%..   .. $&ooo   .++@#O+-,,,,,,,,,v $,2,X.+OoXOOee#,,1 ++9+,,,,,,1,,#r.%.% &%X%y*%.$$   7$$$..X%.XX%X%X  .. X@",
"O%X#%X..X. .X...%XX..$ ..  $o&o. oo .=+#O+++qq,,,,,,,,,,12#33* w&6<$O,,2,,,,,,,,,,,@+=$ %.*%  d%6%%%X$$$ 7o$$....%%%X...     5Xj",
"OOX.*  ... .X.  ...#.o   $$o&o$.X ;$X.=O+++O+qOg.,,,1,,-,1,,1,,2,,1,,,,1,,,,,,,,=-i+=o$ %.%% .*%6*g@@$$o&.  $ .XX%OX.         XO",
"OOX.%.  .....    ..X o  $$o&&o$ %.o$ .X.=q+O+O$o$O-O1,,,,1,,,,,,,,,,212,,,,11 XO+9= $&o %.%%X.g*6@.%6X $o .. XX%@@jX. 5   5   XO",
"OjAX...  .%...o .X.    $oo&o&o$ ..  ..X...+q+O$&h#6#@X$ r1,,,,,,,,,2211,XOOk3o#i+% &&&o .%%d# .*O@X%@X$  oXXX%6 .%@X7 5o      X@",
"O%.X .%. .%XX.o ....  $$ooooo$$X   .%.... =+9O#$:$XO+.#.o2,1#..oo #V2,+#*+#kB$+-=.$;oo$ ..X. ..%OO%%%XX   .XXX 7 XX..  5   7  X@",
"O%.X.%%%  X%.  .  ..$$$$$$o$$  $  .%#c..  .=-*@ oe O@@X#or111$o&o 121@@@O+#B3X-=.o$$o& . X.   ..OO@%XX@X. .@%...XXX.   55o . 5XO",
"O% X..%%. .X  %     $$$$. o     X. #. ..%. .++O*.&3.-+@X.$121>&o r11,+XO+-.:&++X$ $ $oo .X. $ X%@O%%XX%@%X %X77.X%X..7 ooo .  XO",
"OX .  #g  X.o .. .X $oo$  o..  . ..%X ..%X .X=@+*@ Br0-X #O,,4 o.,,,O. o0iB$i.  X$o . o$ X.$oo..%%% 7X%*O@%%X.%%.XX.      7   XO",
"OX    .. X% o X.... $o$o      .  .%%%. .%%.%%X==@OOXo+#oo$#,,,>o#,,, o .is%O.ooo X$.X.$ .X  o  M%%X  .%OO@XXC%%@%XX.. o   7   rO",
"OX$ o . .. o   ... $$$$    ooo    .......%%X.X...%XX.=Oo $$#ll1#1llro   i+=.$oooo X.XX .X. $o o.#%%  XXOO@X..X@*%%...     .   XO",
"OX$ o  .  ..   .%.  $$      oo$. o ...X...%%.XX $$$  %%$oo$>1ll2ll1 ooo$ . o oo$;ooX%%@.X$ oo $..@O%%%%%X.   X%yyy%X%.        %O",
"OX  $   . ..   .X.         $$$$  $ .......X%%XX. $o$oo   oo #lllllr o ooooooooooo$$oX@.XXo  o $.%**6*6XX. $$ X%O*%OO@X  .   $o%=",
"OX.$o        $  .       $  oooo  oo .. .X..X%XXX.  $$$   oo r1lll1>$%oo$oo oooo$$ooo.@X..$$.o  XO*6*66X$$ $ .X%***nO%%X .  . o@=",
"OXOOOOOOOOOOOOOOOOOOOOOOOOOOOOOOOOOOO==O========O=OOOOOOOOOO*6lll6O=OOOOOOOOOOOOOOO===6=OOOOOO==Z+Z==+=OOOOOO===Z+++ZZ===OO=O===",
"ZZZZZZZZZZZZZZZZZZZZZZZZZZZZZZZZZZZZZZZZZZZZZZZZZZZZZZZZZZZZZ++l++Z++ZZZZZZZ+ZZZZZZZZZZZZZZZZZZZZZZZZ+ZZZZZZZ+ZZZ++9+ZZZZZZZZZZ+"
};