/* XPM */
static char * PIPES_1A_xpm[] = {
"64 64 4 1",
" 	c #000000",
".	c #1C1C1B",
"+	c #242729",
"@	c #141413",
"                 .++++.@                      .@@.              ",
"......@@@@ @ @   .+++++......................@+..+@.............",
"+++....@@@@ @ @  .+++++++++++++++++++++++++++.+..+.+++++++++++++",
"++++...@@@@ @ @  @+++++++++++++++++++++++++++.+..+.+++++++++++++",
"++++...@@@@ @ @   .++++++++++++++++++++++++++.+..+.+++++++++++++",
"+++....@@@@ @ @    .+++++++++++++++++++++++++.+..+.+++++++++++++",
"......@@@@ @ @      @........................@+..+@.............",
"                                              .@@.              ",
"                                                                ",
"...........................................@      @ @ @@@@......",
"++++++++++++++++++++++++++++++++++++++++++++.    @ @ @@@@....+++",
"+++++++++++++++++++++++++++++++++++++++++++++.   @ @ @@@@...++++",
"++++++++++++++++++++++++++++++++++++++++++++++@  @ @ @@@@...++++",
"++++++++++++++++++++++++++++++++++++++++++++++.  @ @ @@@@....+++",
".........................................+++++.   @ @ @@@@......",
"                                        @.++++.                 ",
"              .@@.                       .++++.                 ",
".............@+..+@...........@@@@ @ @   .++++.   @ @ @@@@......",
"+++++++++++++.+..+.++++++++....@@@@ @ @  .++++.  @ @ @@@@....+++",
"+++++++++++++.+..+.+++++++++...@@@@ @ @  .++++.  @ @ @@@@...++++",
"+++++++++++++.+..+.+++++++++...@@@@ @ @  .++++.  @ @ @@@@...++++",
"+++++++++++++.+..+.++++++++....@@@@ @ @  .++++.  @ @ @@@@....+++",
".............@+..+@...........@@@@ @ @   .++++.   @ @ @@@@......",
"              .@@.                       .++++.                 ",
"              .@@.                       .++++.@      .@@.      ",
".............@+..+@...........@@@@ @ @   .+++++......@+..+@.....",
"+++++++++++++.+..+.++++++++....@@@@ @ @  .+++++++++++.+..+.+++++",
"+++++++++++++.+..+.+++++++++...@@@@ @ @  @+++++++++++.+..+.+++++",
"+++++++++++++.+..+.+++++++++...@@@@ @ @   .++++++++++.+..+.+++++",
"+++++++++++++.+..+.++++++++....@@@@ @ @    .+++++++++.+..+.+++++",
".............@+..+@...........@@@@ @ @      @........@+..+@.....",
"              .@@.                                    .@@.      ",
"                                                      .@@.      ",
".....................................................@+..+@.....",
"+++++++++++++++++++++++++++++++++++++++++++++++++++++.+..+.+++++",
"+++++++++++++++++++++++++++++++++++++++++++++++++++++.+..+.+++++",
"+++++++++++++++++++++++++++++++++++++++++++++++++++++.+..+.+++++",
"+++++++++++++++++++++++++++++++++++++++++++++++++++++.+..+.+++++",
".....................................................@+..+@.....",
"                                                      .@@.      ",
"                                      .@@.                      ",
"..............@@@@ @ @      @........@+..+@.....................",
"+++++++++++....@@@@ @ @    .+++++++++.+..+.+++++++++++++++++++++",
"++++++++++++...@@@@ @ @   .++++++++++.+..+.+++++++++++++++++++++",
"++++++++++++...@@@@ @ @  @+++++++++++.+..+.+++++++++++++++++++++",
"+++++++++++....@@@@ @ @  .+++++++++++.+..+.+++++++++++++++++++++",
"..............@@@@ @ @   .+++++......@+..+@.....................",
"                         .++++.@      .@@.                      ",
"              .@@.      @.++++.                                 ",
".............@+..+@......+++++.   @ @ @@@@......................",
"+++++++++++++.+..+.+++++++++++.  @ @ @@@@....+++++++++++++++++++",
"+++++++++++++.+..+.+++++++++++@  @ @ @@@@...++++++++++++++++++++",
"+++++++++++++.+..+.++++++++++.   @ @ @@@@...++++++++++++++++++++",
"+++++++++++++.+..+.+++++++++.    @ @ @@@@....+++++++++++++++++++",
".............@+..+@........@      @ @ @@@@......................",
"              .@@.                                              ",
"                                              .@@.              ",
"...................@      @ @ @@@@...........@+..+@.............",
"++++++++++++++++++++.    @ @ @@@@....++++++++.+..+.+++++++++++++",
"+++++++++++++++++++++.   @ @ @@@@...+++++++++.+..+.+++++++++++++",
"++++++++++++++++++++++@  @ @ @@@@...+++++++++.+..+.+++++++++++++",
"++++++++++++++++++++++.  @ @ @@@@....++++++++.+..+.+++++++++++++",
".................+++++.   @ @ @@@@...........@+..+@.............",
"                @.++++.                       .@@.              "};
