/* XPM */
static char * RIVET_2A_xpm[] = {
"64 64 6 1",
" 	c #1C1C1B",
".	c #141413",
"+	c #181817",
"@	c #28221F",
"#	c #382B2F",
"$	c #10100F",
"            .   +@           +@+            .   +@           +@+",
"         + .@  .@     +     +@           + .@  .@     +     +@  ",
"        + +@   @     + . +    +         + +@   @     + . +    + ",
"   #+  + + #+      #+ . +  #+      #+  + + #+      #+ . +  #+   ",
"  $++ +   $++     $++     $++ +   $++ +   $++     $++     $++ + ",
"  $$ +@  +$$   +  $$      $$ +    $$ +@  +$$   +  $$      $$ +  ",
"    +@  +     +       +     +@      +@  +     +       +     +@  ",
"   .@+   .@  + .@    +     .@      .@+   .@  + .@    +     .@   ",
"   @+   +@  + .@    +++@  .@+      @+   +@  + .@    +++@  .@+   ",
"   +    @  +++@      .@   @+       +    @  +++@      .@   @+    ",
"  + +       +       +@    +       + +       +       +@    +     ",
" + #+      #++     #+    + #+    + #+      #++     #+    + #+   ",
"+ $++     $++     $++     $++   + $++     $++     $++     $++   ",
"  $$     +$$      $$      $$   +  $$     +$$      $$      $$   +",
"        +      + +            +         +      + +            + ",
"    +@          +     +@   +        +@          +     +@   +    ",
"   .@          .@    +@   +        .@          .@    +@   +     ",
"  .@      +   .@    +    ++       .@      +   .@    +    ++     ",
" + +     +   +@    +      + +    + +     +   +@    +      + +   ",
"+  #+   +  #+      #+      #+   +  #+   +  #+      #+      #+   ",
"  $++  +@ $++    +$++     $++     $++  +@ $++    +$++     $++   ",
"  $$  .@+ $$    +@$$     +$$      $$  .@+ $$    +@$$     +$$    ",
"     .@+++     .@           +@       .@+++     .@           +@  ",
"    +@+ +     +@           .@  +    +@+ +     +@           .@  +",
"   +++ +           +    + +@+ +    +++ +           +    + +@+ + ",
"    +             +    +++ ++.@     +             +    +++ ++.@ ",
"   +            @     .@+ + +@     +            @     .@+ + +@  ",
"   #+   +  #+ +@   #+.@+ + #+      #+   +  #+ +@   #+.@+ + #+   ",
"  $+++ +  $+++@   $++@+   $++     $+++ +  $+++@   $++@+   $++   ",
"  $$  .@  $$ @    $$ +   +$$      $$  .@  $$ @    $$ +   +$$    ",
"     .@    +      +     +      +     .@    +      +     +      +",
"+   +@           +            +@+   +@           +            +@",
"            .   +@           +@+            .   +@           +@+",
"         + .@  .@     +     +@           + .@  .@     +     +@  ",
"        + +@   @     + . +    +         + +@   @     + . +    + ",
"   #+  + + #+      #+ . +  #+      #+  + + #+      #+ . +  #+   ",
"  $++ +   $++     $++     $++ +   $++ +   $++     $++     $++ + ",
"  $$ +@  +$$   +  $$      $$ +    $$ +@  +$$   +  $$      $$ +  ",
"    +@  +     +       +     +@      +@  +     +       +     +@  ",
"   .@+   .@  + .@    +     .@      .@+   .@  + .@    +     .@   ",
"   @+   +@  + .@    +++@  .@+      @+   +@  + .@    +++@  .@+   ",
"   +    @  +++@      .@   @+       +    @  +++@      .@   @+    ",
"  + +       +       +@    +       + +       +       +@    +     ",
" + #+      #++     #+    + #+    + #+      #++     #+    + #+   ",
"+ $++     $++     $++     $++   + $++     $++     $++     $++   ",
"  $$     +$$      $$      $$   +  $$     +$$      $$      $$   +",
"        +      + +            +         +      + +            + ",
"    +@          +     +@   +        +@          +     +@   +    ",
"   .@          .@    +@   +        .@          .@    +@   +     ",
"  .@      +   .@    +    ++       .@      +   .@    +    ++     ",
" + +     +   +@    +      + +    + +     +   +@    +      + +   ",
"+  #+   +  #+      #+      #+   +  #+   +  #+      #+      #+   ",
"  $++  +@ $++    +$++     $++     $++  +@ $++    +$++     $++   ",
"  $$  .@+ $$    +@$$     +$$      $$  .@+ $$    +@$$     +$$    ",
"     .@+++     .@           +@       .@+++     .@           +@  ",
"    +@+ +     +@           .@  +    +@+ +     +@           .@  +",
"   +++ +           +    + +@+ +    +++ +           +    + +@+ + ",
"    +             +    +++ ++.@     +             +    +++ ++.@ ",
"   +            @     .@+ + +@     +            @     .@+ + +@  ",
"   #+   +  #+ +@   #+.@+ + #+      #+   +  #+ +@   #+.@+ + #+   ",
"  $+++ +  $+++@   $++@+   $++     $+++ +  $+++@   $++@+   $++   ",
"  $$  .@  $$ @    $$ +   +$$      $$  .@  $$ @    $$ +   +$$    ",
"     .@    +      +     +      +     .@    +      +     +      +",
"+   +@           +            +@+   +@           +            +@"};
