/* XPM */
static char * SAND_1A_xpm[] = {
"64 64 14 1",
" 	c #584F3D",
".	c #594939",
"+	c #4F4233",
"@	c #4F4133",
"#	c #44392D",
"$	c #463524",
"%	c #382B1E",
"&	c #6A5E4E",
"*	c #4F463B",
"=	c #7A6B56",
"-	c #333230",
";	c #86785B",
">	c #A09669",
",	c #7E7050",
" ...+. .....+...@....+..# ....+. ...+. @@...+...@....+..# ....+.",
"#..@...#.@.@..@@.##...@.......# #..@..@$%@.@..@@.##...@.......# ",
".+.@ ...@.@ .....+. .@.@ @...+@..+.@#$&%@@@ .....+. .@.@ @...+@.",
"..@#..@ .@..........@.@#@+.# .....@#.*% .@..........@.@#@+.# =#.",
"......=%.. ..@...@.#..... ..@. .......@..=#..@...@.#..... ..@# .",
"... +@#..@..... +....@ .@.*$.@..... +@...-..... +....@ .@....@..",
".&$#@...@.+@@@@..+....@#=#$.@.+#..##@...@.+...@..+....@#....@.+#",
" *%@.+ @.@.. @.@...#.@..#..@.... ..@.+ @.@.. @.@...#.@.....@....",
"..+.@...#..+@.#.....@@+.. @#+.....+.@...#..+@.#.....@@+.. @#+...",
"...+...+...@@@. #..@ @.....@...#...+...+...@@@. #.@@ @.....@...#",
"#.@ +...#...@.@.;*+.@@..#.@+. @.#.@ +...#...@@@..@>$@@..#.@+. @.",
".@ @.... ..@ @#.$-.@.....@.+..#..@ @.... ..@ @#@.#*%@....@.+..#.",
"@.........@+@+.....@..+ .@......@.........@+@+=#..@@..+ .@......",
".. ...#..@#@@. @...............@.. ...#..@#@@.#-...............@",
".@#... .@. ....+.@...#...#.&$+@..@#... .@. ...@+.@...#@@.#...+@.",
"....@+.@........@.. ..@..@ *%. .....@+.@........@.. .@=#.@ @.. .",
" .. ......#....#.+.#.@ +..@.+@@@ .. ......#....#.+.#.@#-*$@.+.@.",
"..@.#..... ...@.. ..@....@@@...%..@=%..... ...@.. ..@...$@@.....",
".#. #...#@...+. .@ @..@...@@@....#.%#...#@...+. .@ @..@...@@@...",
"@.@. @. @...@.....@@@...#..@. ..@.@. @. @...@.....@@@&;*#..@. ..",
"#.+....@+..@..+.+@.@.@...#@..#.+#.+....@+..@..+.+@.@*>$%&$@..#.+",
"... ..@.@.+.....@.@ ...@.@# @...... ..@.@.+.....@.@ .*%-*%# @...",
"#.@.#@.@@@.. .. .#...+. ....@+..#.@.#@.@@@.. .. .#...+. ....@+..",
"....+.@+ ..@.#@@........@..@...+....+.@+ ..@.#@@........@..@...+",
"...@@ .@@.......+.@ @...@.@.@ @....@@ .@@.......+.. ....@.@.@ @.",
".@..@....+...@....@=#+.@#+.@@@#..@..@....+...@....@..+.@#+.@@@#.",
". .@...+...+...... %@.@.@+*$@.... .@...+...+...... @..@.@+@ @...",
"..# ,*.. ..#..@ ...@. #@.@$@...+..# @.=% ..#..@ ..... #@.@.@...+",
"...&*&*@.. @.+........ %..#.. ...*$..@%@.. @.+........ ...#.. ..",
".. ;&$%..@@.@..@ ...+@.@.@..@.+..$ .@.@..@@.@..@ ...+@.@.@..@.+.",
".+.*$%-....+......@ .+..#+.......+... .....+......@ .+..#+......",
"..+.@-....#.. .#.@....+. @....@...+.@.....#.. .#.@....+. .....@.",
" ...+. .....+...@....+.@&$@...+. ...+. .....+...@....+..# ....+.",
"#..@...#.@.@..@@.##...@@*%@...# #..@...#.@.@..@@.##...@.......# ",
".+.@ ...@.@ .....+. .@.@ @...+@..+.@ ...@.@ .....+. .@.@ @...+@.",
"..@#..@ .@..........@.@#@+.# .....@#..@ .@..........@.@#@+.# ...",
"..$%..@... ..@...@.#..... ..@. .......@... ..@...@.#..... ..@. .",
"..% +@...@...@@ +....@ .@....@..... +@...@..... +....@ .$&...@..",
"..##@...@.+.@&$@.+....@#....@.+#..##@...@.+...*$.+....@#*-..@.+#",
" ..@.+ @.@.. *-@...#.@.....@.... ..@.+ @.@.. @$-...#.@.....@&$..",
"..+.@...#..+@@#@....@@+.. @#+.....+.@...#..+@.#.....@@+.. @#*%..",
"...+...+...@@@. #..@ @.....@...#...+...+...@@@. #..@ @.....@...#",
"#.@ +...#...@.....+.@@..#.@+. @.-.@ +...#.,%@.....+.@@..#.@+. @.",
".@ @.... ..@ @#..#.@.....@.+*.#-.@ @.... .%- @#..#.@...*.@.+..#.",
"@.........@+@+.....@..+ .@......@.........@+@+..-..@..+ .@......",
".. ...#..@#@@. @...............@.. ...#..@#@@. @..$............@",
".@#... .@. ....+.@...#...#...+@.&$#... .@. ....+.@...#...#...+@.",
"....@+.@........@.. ..@..@ @.. .*%..@+.@........@.. ..@..@ @.. .",
" .. ......#....#.+.#.@ +..@.+.@. .. ......#....#.+.#.@ +..@.+.@.",
"..@.#..... ...@.. ..@....@@.......@.#..... ...@.. ..@....@@.....",
".#. #...#@...+. .@ @..@...@@@....#. #...#@...+. .@ @..@...@@@...",
"@.@. @. @...@.....@@@...#..@. ..@.@. @. @...@.....@@@...#..@. ..",
"#.+....@+..@..+.+@.@.@...#@..#.+#.+....@+..@..+.+@.@.@...#@..#.+",
"... ..@.@.+.....@.@ .....@# @...... ..@.@.+.....@.@ .....@# @...",
"#.@.#@.@@@.. .. ,#...+. ....$&..#.@.#@.@@@.. .. .=#..+. ....@+..",
"....+.@+ ..@.#@@#.......@..@*%.+....+.@+ ..@.#@@.#......@..@...+",
"...@@ .@@....&$.+.. ....@*$.@ @....@@ .@@.......+.. .&$.@.@.@ @.",
".@..@....+...*%...@..+.@#$.@@@#..@..@*$..+...@....@..*%@#+.@@@#.",
". .@...+...+...... @..@.@+@ @.... .@.$.+...+...... @..@.@+@ @...",
".=# @... ..#..@ ..... #@.@.@..-+..# @.>;*..#..@ ..... #@.@.@...+",
".-...@.@.. @.+........ ...#.. .......,*&$. @.+........ ...#.. ..",
".. .@.@..@@.@..@ ...+@.@.@..@.+... .@*&$-@@.@..@ ...+@.@.@..@.+.",
".+... .....+......@ .+..#+.......+... *%...+......@ .+..#+......",
"..+.@.....#.. .#.@....+. .....@...+.@.....#.. .#.@....+. .....@."};
