/* XPM */
static char * wall_mid_6_xpm[] = {
"16 16 9 1",
" 	c #775C55",
".	c #222222",
"+	c #483B3A",
"@	c #417089",
"#	c #5698CC",
"$	c #4A89D4",
"%	c #4773A7",
"&	c #3F8ADA",
"*	c #3FA6DA",
"  .      .   .  ",
"++.++++++.+++.++",
"++.++.+++.++..++",
"................",
"   ...@@.@..    ",
"++++.@##@#@.++++",
"+++..$#####..+++",
"......$###@.....",
"  .    $#% .  ..",
"+++.+++$#@+.++.+",
"+++++.+$#@++++.+",
".......@%.......",
"  .     & ..    ",
"++.+++++&+.+++++",
"++.+++++&@.+++.+",
"......*###@@...."};
