/* XPM */
static char * STEP_1A_xpm[] = {
"64 16 17 1",
" 	c #463124",
".	c #3B2921",
"+	c #2E221C",
"@	c #79735E",
"#	c #67625C",
"$	c #5B5952",
"%	c #4F4C48",
"&	c #93968B",
"*	c #A1A9A3",
"=	c #89928C",
"-	c #807B6A",
";	c #383F40",
">	c #28221F",
",	c #666A62",
"'	c #9F9F8B",
")	c #756F64",
"!	c #000000",
" .++++.+.++++..+..++.+.   +.++.+..+.++++++.+..+.++++.    +.+.+. ",
"@@@@@@#$%+.&*=--@@@@@---$+$$#--------@#$;>.+*=&&@&@@@@@@#$#---,@",
"$##,#,#%#;.',####@@@,##$;--#,####@-####$#; -#@####,#,####%###-$$",
"#$,###$##;.-#@,#,#,,###;'###@,#########)%; -@####,#,##$#$##-)$#$",
"########$;.$-#######$#%-###,#,,#,#####)%%; $###,#####%%##,###$##",
"#######$$;.$#########$-###,#,,#,,####)%$%>.%######%#)%$#$###%#$#",
"$%#%#%$#%>.$%%#$;;;;%%##$%#$%%%######%%#%>.$%%%%$%#%#%%$##%#$#$$",
";>;;;;;>>+ +>>>>>;>;;;;>>>!!>>>;>;;;;;;>!!..>>>;>;>>;;;>;>>!>>>>",
" .++++.+.++++..+..++.+.   +.++.+..+.++++++.+..+.++++.    +.+.+. ",
"&@@@@@@#$#---,@@@@@@@#$%+.+*=&&@&@@@@@@#$#---,@@@@@@@#$%+.+*=&&@",
"#,#,####%###-$$$##,#,#%#;.-#@####,#,####%###-$$$##,#,#%#;.-#@###",
"#,###%###,$$#$#$########;.$-###,#,###%###,$$#$#$########;.$-###,",
"####%%##,###$##########$;.$###,#####%%##,###$##########$;.$###,#",
"#%#)%$#$###%#$########$$;.%######%#)%$#$###%#$########$$;.%#####",
"%#%#%%$##%#$#$$$%#%#%$#%>.$%%%%$%#%#%%$##%#$#$$$%#%#%$#%>.$%%%%$",
";>>;;;>;>>!>>>>;>;;;;;>>+ .>>>;>;>>;;;>;>>!>>>>;>;;;;;>>+ .>>>;>"};
