/* XPM */
static char * STEP_2A_xpm[] = {
"64 16 16 1",
" 	c #463124",
".	c #3B2921",
"+	c #2E221C",
"@	c #5B231E",
"#	c #4D1C1A",
"$	c #451816",
"%	c #3C1313",
"&	c #74362A",
"*	c #844241",
"=	c #7E3C34",
"-	c #612723",
";	c #2E0E0F",
">	c #200707",
",	c #4D1F1D",
"'	c #58221F",
")	c #000000",
" .++++.+.++++..+..++.+.   +.++.+..+.++++++.+..+.++++.    +.+.+. ",
"@@@@@@#$%+.&*=--@@@@@---$+$$#--------@#$;>.+*=&&@&@@@@@@#$#---,@",
"$##,#,#%#;.=,####@@@,##$;--#,####@-####$#; &#@####,#,####%###-$$",
"#$,###$##;.-#@,#,#,,###;=###@,#########'%; -@####,#,##$#$##-'$#$",
"########$;.$-#######$#%-###,#,,#,#####'%%; $###,#####%%##,###$##",
"#######$$;.$#########$-###,#,,#,,####'%$%>.%######%#'%$#$###%#$#",
"$%#%#%$#%>.$%%#$;;;;%%##$%#$%%%######%%#%>.$%%%%$%#%#%%$##%#$#$$",
";>;;;;;>>+ +>>>>>;>;;;;>>>))>>>;>;;;;;;>))..>>>;>;>>;;;>;>>)>>>>",
" .++++.+.++++..+..++.+.   +.++.+..+.++++++.+..+.++++.    +.+.+. ",
"&@@@@@@#$#---,@@@@@@@#$%+.+*=&&@&@@@@@@#$#---,@@@@@@@#$%+.+*=&&@",
"#,#,####%###-$$$##,#,#%#;.&#@####,#,####%###-$$$##,#,#%#;.&#@###",
"#,###%###,$$#$#$########;.&-###,#,###%###,$$#$#$########;.$-###,",
"####%%##,###$##########$;.$###,#####%%##,###$##########$;.$###,#",
"#%#'%$#$###%#$########$$;.%######%#'%$#$###%#$########$$;.%#####",
"%#%#%%$##%#$#$$$%#%#%$#%>.$%%%%$%#%#%%$##%#$#$$$%#%#%$#%>.$%%%%$",
";>>;;;>;>>)>>>>;>;;;;;>>+ .>>>;>;>>;;;>;>>)>>>>;>;;;;;>>+ .>>>;>"};
