/* XPM */
static char *result[] = {
/* columns rows colors chars-per-pixel */
"128 128 38 1 ",
"  c gray23",
". c #373F27",
"X c #373737",
"o c #2F2F2F",
"O c #434343",
"+ c #3F472B",
"@ c #474F33",
"# c #53573B",
"$ c #1B1B1B",
"% c #070707",
"& c #5B6347",
"* c #1F170B",
"= c gray28",
"- c #6F7357",
"; c #272727",
": c #17330F",
"> c #676B4F",
", c #13230B",
"< c #170F07",
"1 c #232323",
"2 c gray31",
"3 c #7B7F63",
"4 c #4B4B4B",
"5 c #43331B",
"6 c #131313",
"7 c #574333",
"8 c #1F4317",
"9 c #533F2F",
"0 c #4F3B23",
"q c #332B13",
"w c gray34",
"e c #2B230F",
"r c #5F4B37",
"t c #0B1707",
"y c #67533F",
"u c #5B472B",
"i c #5B5B5B",
"p c #6F5743",
/* pixels */
"  O     Xo161o   XoXXoXX  X  o OX=.XX..OOX;XOXOO+++++++   O  +O     O O X;161;   XXX oXX  X  o OX=.XX..O4XO@#@@#@+....@   O  +O ",
"  OO +O Xo161o   XXXX.o   OO X+OO=.XX..O..2=OOOO+++++++   O  +O   OOO O X;161;   XXX .o   OO X+OO=.XX..O4XO@#@@#@+++.+@=  O  +O ",
"  OO +O Xo1$1o   XX  o.X  OO  XOOO.XX..O.. XOOOO ++++++   O  +O    O    X;1$1;   XX  o.X  OO  XOOO.XX..O4XO@##@#@@++.+@4  O  +O ",
"  O   O Xoe$eo   X   ;oo  O  XXOOO.XX..O.. XOoOO+++++++   O  +O     O   X;e$e;   XX  ;oo  O  XXOOO.XX..O4XO@##@#@@+@++@4  O  +O ",
"  O  +OXXoe$eo       o.   O  XXOOO.XX..O.. XOOOO+++++++   O  +O        XX;e$e;    X  o.   O  XXOOO.XX..O4XO@####@@+@.+@4  O  +O ",
"     +OoXoe$eo       o.X  X  XXOOO.XX..O.. X.OOO+++++++   O  +O        oX;e$e;    X  o.X  X  XXOOO.XX..O4XO@####@@+@++@4  O  +O ",
"  +  +OXXoe$eo  XX   ooX  o  XXOOO.XX..O.. X.OO +++++++O  +  +OO       XX;e$e;  XXX  ooX  o  XXOOO.XX..O@XO@###w@@+@++@4  +  +OO",
" O    O Xoe$eoXXXX   ..X Oo   XOXO.XO..O.. X.OOO+++ +++O O+   OO O  O   X;e$e;XXXXX  ..X Oo   XOXO.XO..O@XO@####@@+2++@4 O+   OO",
" O+O OOXXoe$eoXX    X.+  OoO .+OX.XXO+.O.. X.=O +@+O+++O O+O OOO O+OO  XX;e$e;XX  X X.+  OoO .+OX.XXO+.O@XO@###w@@+2++@4 O+O OOO",
" O O   XXoe$eoX  o XXo.o OoO  XOO. OX..... O.O  +@+O+++O O+O   O O OO  XX;e$e;X  oXXXo.o OoO  XOO. OX...@X2@@#&#@@+2@+@4 O+O   O",
" OOO ++XXoe$eoX OXoXXooX OXO X+OXXXXO..... O.O  +@@@+++O OOO ++O OOO ++XXoe$eoX OXXXXooX OXO X+OXXXXO...+X2@@@&#@@+@@++4 OOO ++O",
" O    +Xooe$eoX  XoXXooo OXO XoXooXOX...;XXo..XX+@@@+++O OOO ++O O    +XX;e$e;X  XoXXooo OXO XoXooXOX...+X2@@@##@@+@@++O OOO ++O",
";oooooooooe$eoXo;;;;;;;;oXXoo;;;;;;;;;;;;;;;;;;;oXO  X   X  oooo;oooooooooe$eooo;;;;;;;;oXXoo;;;;;;;;;;Xoo1..++..  +...XXXXXXooo",
";;;;;;;;1111611111111111;;;;;11;1111111111111111;ooo;;;;1;;;;;;;;;;;;;;;1111611111111111;;;;;11;111111111111ooXooooooooo11111;;;",
"11$111$1$$6$6$$$$$$$$$$$11$111$1$$$$$$$$$$$$$$$$1;1;11;;11$111$111$111$1$$6$6$$$$$$$$$$$11$111$1$$$$$$$$111$oXo.1111111111$111$1",
"1;;;;;;;;11111111111111;;;;;;;;;;;;;;;;;;;;;;;;;XXXXXXooo;$1;;;o1;;;;;;>#>&##&>---11111;;;;;;;;;;;;--->>##&>#>XooooXXooXo1$11;;o",
"OOOOOOOO   7r7          OO OOO O               4#py#@4 XX;$1XOOOOOOOOO.o+@@-3@&-3&@# +##i##+=@@@+#@&3-&@3-@@+o.@###@@+@OX;$1XOOO",
"  o   +OXXo5.5.oXXoXXoo;  o  ooXooXOX.. XXXO..O=@yr@ ++OX1$1X +O  o  o+$>@&@-3@@&3&@..+#i#@=2@+O.@&3&@@3-@&@>$+o#@+@2@@=X1$1X +O",
"   O ++OX o5.5.XXXoX o.X OoO o+OXXOXX..O..OX..XX@r7@ ++OX1$1X++O   O***o$o+@&-3+@&3>#.+@&#@=2@+.#>3&@+3-&@+o$o***@+@2@#4X1$1X++O",
" O+O   OXXo505.XXXo  ;o  O+O ooOOO.XO..X..XX..XX@u7@  +OX1$1X++O O+o$****#&.o&33&+&&+++#&&&&&#+++&&+&33&o.&#****$o+@2@#4X1$1X++O",
" OXO O OXXo595X XXo O.oXoXoOOXoO X.O=..X..XO+XXX@u7@O++OX1$1X+ O   *o*$oo+%o.-3&3---#@+>-333->#+#---3&3-.o%+oo$*o*+@2@#4X1$1X+ O",
" O O  +OXXo505X  Xo  ooX O o XoO X.OO XO..XO.XXX@u7@+++OX1$1X+ O  *%*oo*o$@3&o@@333&++&-3&#&3-&++&333@@o&3@$o*oo*%*@@@#4X1$1X+ O",
" O + ++OXXo505X  XooXooXO=O  XoO X.XO XX..O...XX@u7+ ++OX1$qX++O  $%%%o**oooo$o&>-3-&+&3>>->>3&+&-3->&o$oooo**o%%%$@2@#4X1$qX++O",
"   +  +OXXo50+X   ..X.oX O=O XoO X.XO XX..O...XX@u7+ ++OX1$qX++O +%%%%%*$oo$.@#&-33->+&--+o+--&@>-33-&#@.$oo$*%%%%%+2@#OX1$qX++O",
"       OXX.505X XXoooo.X  o= . O X.XO . ..O...XX@u7+ ++OX1$qX++O *%%%%%$***+@#&&3>-3-@&-&###&-&@-3->3&&#@+***$%%%%%*2@#OX1$qX++O",
" OX    OXX.505X oo;o .XX Oo= . O XXXO X  .O...XX@u7+ ++OX1$qX+ O %%%%%%%**oo..@&@&&--&#-&>->&-#&--&&@&@..oo**%%%%%%%=@#OX1$qX+ O",
" O  OO OX o5.0X Xo;o o   O2= . O XXXO XO .O...XX@u7+O@+OX1$q O O*%;*%*$$$$;$%.+&#oo.&-@-&&&&&-@-&.oo#&+.%$;$$$$*%*;%*@#OX1$q O O",
" O+ OO  XXo579X  Xo.X.XX O=O   O XXXO..XO.O...XX@u7+OO+ X1$q O  %%%%$**<%;%%$oo>-#+.->+&-@&@-&+>-.+#->oo$%%;%<**$%%%%=#OX1$q O  ",
"  +  OO  Xo5.9X   .oXoXX  +O  OO XXOO..XO.O...XX@u7+ O@ X1$q OO %%%%%%<%%*%%*$@>33-3>@.+@.:.@+.@>3-33>@$*%%*%%<%%%%%%=#OX1$q OO ",
"     OO XXo509XX XooXoX   +O  OO XOXO..XO.O...XX@77+ @@OX1$q OO %%%%**%%$$%%*$&-----&@.:##*##:.@&----&&$*%%$$%%**%%%%O@OX1$q OO ",
"     OO XXo505X  Xo. oXX  ++  OO O.OO..XO.O...XX@77+ O@OX1$q OO %%%%**<%$%%%$oo%$o@&>@.:&.$.&:.@>&@o$%oo$%%%$%<**%%%%O@OX1$q OO ",
"     OO Xoo500X Xo.ooo   oo+ .OO oXXO..XO.O...XX@77+OO@O q$q OOO$%%%***<%%%%,:..;$$$*,o+o$;$o+o,*$$$;..:,%%%%<***%%%$=@= q$q OOO",
"     O OXoo57+XX o..X.   ++o  OO ooXO..XO.O...OX@+7+ @+O q$qXO O$*<<%*oo*%%,.+&@oo$%%%,,%:.:%,,%%%$oo@&+.<%%*oo*%<<*$2@= q$qXO O",
"  +  + OXoo5X0XoX...Xo X ooo  OOOO=OO..XO.O...XX@+7+ ++O q$qX  O%%%%%****%%:&@o%%#+o%%%%%@&@%%%%%o+#%%o@&:%%****%%%%%2#O q$qX  O",
"      OOXooXX+XXoo.oXX X ooo  OOXX.OOO.XOOO...XX@O7+OO@O q$qX OO%%%%%%%%%%%.-.%%*@..$%%%%+#+%%%%$..@*%%.-.%%%%%%%%%%%2#O q$qX OO",
"  +    OXooXo0X X..oXX X ooo  OOOX;XOO.XOOO...XX@O7+OO OXq$qX  O %%%%%%%%%%+..o%.*%%%%%%%#-#%%%%%%%*.%o..+%%%%%%%%%%%2#OXq$qX  O",
"     + OoooXo+X8..oo oX o++o XOO O=XO..XO.O...XX@ ++ O OXq$qX    %%%%%%%%%%*+&-&@o<$%%%%+-3-+%%%%$<o@&-&+:%%%%%%%%%%=2#OXq$qX   ",
"  +  + OXoo;o XXXo.oXoX  oo+ XOO X.XO..XO.O...XX@  + O+O q$qX  O %%%%%%%%.$*&@&-&.*$%$.+&-3-&+.$%$*.&-&@&,$O%%%%%%%%=2#= q$qX  O",
"     + OXooX. 8XXooXXoX  oo  XOO X.XO..XO.XX..XX+  + O+O q$1X  O %%%%%%%%.%o@&@++#####&&&-3-&&&####++@@&@o%O%%%%%%%%=2#4 q$1X  O",
"      OOXoo . 8XXoo  oX  oo  oOO X.OO..XO.XO..XX+  + O@O q$1X+OO $%%%%%%%.oo+o:+#-33-&&&&-3-&&&&-33-#+.++oOO%%%%%%%$22#4 q$1X+OO",
"  +  OOOooo . 8X oo O.XXoo+ O+OO X.OO..XO.XO+.XX+  +OO@O q$1X OO  %%%%%%%.o.*<:#&&--&@o@>-3->@o@&--&&#:,,.=O%%%%%%%@22#4 q$1X OO",
"X      O...X  8X ooX  X ooo  oOO XXXOO.XO.XX.;XX+ ++  @4 q$1X+OOXX%%%%%%%..X*$$+&&#o$$*->333>-*$$o#&&+,$*+= %%%%%%%@2w#4 q$1X+OO",
"        Xo..XXXX oooXXXX o+o  OO X.XOO.XOOO...XX+  +  @4 q$qX OO XX%%%%%%...;%$o@+o*$$+*t:.:t*+$$*o+@o$%;++ %%%%%%O=2w#4 q$qX OO",
"    XXXXo;o.XX8XXoooXXXX +oo  OO XXXOX.XOOO...XX+ ++  @O q$qXXOO   %%%%%%5..X$<*+o*%$+#.*%%%*.#+$%*o+*<$+..X%%%%%%OO44@O q$qXXOO",
"oooooooooo;;ooooo;;;ooooXoooXX  oooooo;oooo;;;oo+  +  O X1$qoooooooo%%%%oo55o%%%o*%%5....%%%....5%%*o%%%oo1..%%%%  +...XX1$qoooo",
";;;;;;;;11111:::111111111111;1;;1111111111111111;;;;;;;;;1$1;;;;;;;;;;;;11111:%%o$$%%5.@@$%$@@.5%%$$o%%11111ooXoooo+oo.o;1$1;;;;",
"$$$$1$116666$,,,66$6$$$$$$$$1$11$$$$$$$$$$$6$6$$11$1111;$$$$1$11$$$$1$116666$,%%$*$%%%%%%%%%%%%%%%$*$%%$111$oXo.;;; o1o1$$$$1$11",
";;1;;;;;1;161:::111111111111;1;;1111111111111111;;;;;;;X;;1;;;;;;;1;;;;;1;161::<%*$$*<%%%%%%%%%<*$$*%<111111oXXoooo+X..X;;1;;;;;",
"OO OOOOO ;161:8             O OO                @O####O... OO+OOOO OOOOO ;161:8$%**$,::,**%**,::,$**%$  w..+#@###++=@@@@.. OO+OO",
"  X     X;161:8XXoooXXXX +Xo    oo;oo..OOO ... O+ @@@+....O  +O   X O O X;161:8X%$*o++...,*,...++o*$%..O2.. @@=#@O. ==@O..O  +O ",
"  X X   X;161:XXXooooXXX oXo.   XooX...OOO....XX+ @@@+....O  +O   X O O X;161:XX%%o@#@+.:%%%:.+@#@o%%..O2...@@=#@O. O=@O..O  +O ",
"  X X X X;161:XX ;oooX o oX.o X OXX=...OOO....XX++@+@+....O X+O   X O O X;161:XX %*@@&&&##+###&&&@*%...O2...@@=#@++OO=+O..O X+O ",
"  X  O  X;161;X O.ooo O  oXX.O  XO=X...OOO...+ X+ @+@.X...O  +O   X O O X;161;X O.%..#&&-----&&#@.%X...O2...@@=#@O. OO+O..O  +O ",
" XX     X;161;   oooo  X oXX.   XXXX...OOO.O.. X+ @+@+....O  +O  XX O O X;161;   oX%.++@&&&&&@+..%XX...O2. .@@=#@O+ OO.O..O  +O ",
" XX X   X;161;X  o.XoXXX oXXo   XXXX...OOO.... X+.@+@+....O X+O  XX O O X;161;X  oXX%%.........%%XXX...O2. .@@+#@++OOO.O..O X+O ",
"  XXX   X;1$1;oXX.oXoXXX oXXo   OXXX...OOOO... O+.@+@++...OX +O   XXO O X;1$1;oXX.XX X%%%%%%%%% OXXX...O2.X.@@+#@++OOO+O..OX +O ",
"XXX XXX X;e$e;   XoXXoXX  X  o  X..XX..OOX;XOXOO++@+@++   O  +O XXX OXO X;e$e;   XXX o+O+=  .O  X..XX..O2X;X@@O#@+@+@++   O  +O ",
"X  X   XX;e$e;X  XXXX.o   == X+ O..XX..O.X2=OOOO++@++++   OO +O X  XO OXX;e$e;X  XXX . O+O O+   O..XX..O2X2=@@O#@+@++++   OO +O ",
" XXoX XoX;e$e;oXXXX  o.X  OO  X X..XX..O.X XOOOO++@++++   O  +O  XXoO OoX;e$e;oXXXX  o  .O O  X X..XX..O2X X@@O#@+@++++   O  +O ",
"XoX  X XX;e$e;oooX XX;oo  O  XX oo.XX..O.X XOoOO++@+@++   O  +O XoX   OXX;e$e;oooXXX ;  .O   XX oo.XX..O4X X@@O#@+@+@++   O  +O ",
"oo  XXX X;e$e;oXX Xooo.   O  XX oo.XX..O.X XO2=O++@+@++   O  +O oo  O O X;e$e;oXX Xo o O+    XX oo.XX..O4X X@@=#@+@+@++   O  +O ",
"XX XX XXX;e$e;o   oooo.X  X  XX =X.XX..O.X X.OOO++++@++   O  +O XX XO OXX;e$e;o   Xo o.X  X  XX =X.XX..O4X X#@O#@+++@++   O  +O ",
"  XX  oXX;e$e; XXX. XooX  o  XXO2=.XX..O.. X.OO +++++++O  O  +O   XX  OXX;e$e; XXXX  ooX  o  XXO2=.XX..O4X X#@O#@++++++O  O  +O ",
"XXXX O XXoe$eoX O XXXXXXXXXX X O=OX X..OXXO..XXXO++++++. .O X+O XXXX  OXXoe$eoX O XX XXXXXXX X O=OX X..O4XO #@X#@++++++. .O X+O ",
"    O O X;161;   XXX oXX  X  o OX=.XX..O4XO@#@@#@+....@   O  +O   O     Xo161o   XoXXoXX  X  o OX=.XX..OOX;XOXOO+++++++   O  +O ",
"  OOO O X;161;   XXX .o   OO X+OO=.XX..O4XO@#@@#@+++.+@=  O  +O   OO +O Xo161o   XXXX.o   OO X+OO=.XX..O..2=OOOO+++++++   O  +O ",
"   O    X;1$1;   XX  o.X  OO  XOOO.XX..O4XO@##@#@@++.+@4  O  +O   OO +O Xo1$1o   XX  o.X  OO  XOOO.XX..O.. XOOOO ++++++   O  +O ",
"    O   X;e$e;   XX  ;oo  O  XXOOO.XX..O4XO@##@#@@+@++@4  O  +O   O   O Xoe$eo   X   ;oo  O  XXOOO.XX..O.. XOoOO+++++++   O  +O ",
"       XX;e$e;    X  o.   O  XXOOO.XX..O4XO@####@@+@.+@4  O  +O   O  +OXXoe$eo       o.   O  XXOOO.XX..O.. XOOOO+++++++   O  +O ",
"       oX;e$e;    X  o.X  X  XXOOO.XX..O4XO@####@@+@++@4  O  +O      +OoXoe$eo       o.X  X  XXOOO.XX..O.. X.OOO+++++++   O  +O ",
"       XX;e$e;  XXX  ooX  o  XXOOO.XX..O@XO@###w@@+@++@4  +  +OO  +  +OXXoe$eo  XX   ooX  o  XXOOO.XX..O.. X.OO +++++++O  +  +OO",
" O  O   X;e$e;XXXXX  ..X Oo   XOXO.XO..O@XO@####@@+2++@4 O+   OO O    O Xoe$eoXXXX   ..X Oo   XOXO.XO..O.. X.OOO+++ +++O O+   OO",
" O+OO  XX;e$e;XX  X X.+  OoO .+OX.XXO+.O@XO@###w@@+2++@4 O+O OOO O+O OOXXoe$eoXX    X.+  OoO .+OX.XXO+.O.. X.=O +@+O+++O O+O OOO",
" O OO  XX;e$e;X  oXXXo.o OoO  XOO. OX...@X2@@#&#@@+2@+@4 O+O   O O O   XXoe$eoX  o XXo.o OoO  XOO. OX..... O.O  +@+O+++O O+O   O",
" OOO ++XXoe$eoX OXXXXooX OXO X+OXXXXO...+X2@@@&#@@+@@++4 OOO ++O OOO ++XXoe$eoX OXoXXooX OXO X+OXXXXO..... O.O  +@@@+++O OOO ++O",
" O    +XX;e$e;X  XoXXooo OXO XoXooXOX...+X2@@@##@@+@@++O OOO ++O O    +Xooe$eoX  XoXXooo OXO XoXooXOX...;XXo..XX+@@@+++O OOO ++O",
";oooooooooe$eooo;;;;;;;;oXXoo;;;;;;;;;;Xoo1..++..  +...XXXXXXooo;oooooooooe$eoXo;;;;;;;;oXXoo;;;;;;;;;;;;;;;;;;;oXO  X   X  oooo",
";;;;;;;;1111611111111111;;;;;11;111111111111ooXooooooooo11111;;;;;;;;;;;1111611111111111;;;;;11;1111111111111111;ooo;;;;1;;;;;;;",
"11$111$1$$6$6$$$$$$$$$$$11$111$1$$$$$$$$111$oXo.1111111111$111$111$111$1$$6$6$$$$$$$$$$$11$111$1$$$$$$$$$$$$$$$$1;1;11;;11$111$1",
"1;;;;;;>#>&##&>---11111;;;;;;;;;;;;--->>##&>#>XooooXXooXo1$11;;o1;;;;;;;;11111111111111;;;;;;;;;;;;;;;;;;;;;;;;;XXXXXXooo;$1;;;o",
"OOOOOO.o+@@-3@&-3&@# +##i##+=@@@+#@&3-&@3-@@+o.@###@@+@OX;$1XOOOOOOOOOOO   7r7          OO OOO O               4#py#@4 XX;$1XOOO",
"  o  o+$>@&@-3@@&3&@..+#i#@=2@+O.@&3&@@3-@&@>$+o#@+@2@@=X1$1X +O  o   +OXXo5.5.oXXoXXoo;  o  ooXooXOX.. XXXO..O=@yr@ ++OX1$1X +O",
"   O***o$o+@&-3+@&3>#.+@&#@=2@+.#>3&@+3-&@+o$o***@+@2@#4X1$1X++O   O ++OX o5.5.XXXoX o.X OoO o+OXXOXX..O..OX..XX@r7@ ++OX1$1X++O",
" O+o$****#&.o&33&+&&+++#&&&&&#+++&&+&33&o.&#****$o+@2@#4X1$1X++O O+O   OXXo505.XXXo  ;o  O+O ooOOO.XO..X..XX..XX@u7@  +OX1$1X++O",
"   *o*$oo+%o.-3&3---#@+>-333->#+#---3&3-.o%+oo$*o*+@2@#4X1$1X+ O OXO O OXXo595X XXo O.oXoXoOOXoO X.O=..X..XO+XXX@u7@O++OX1$1X+ O",
"  *%*oo*o$@3&o@@333&++&-3&#&3-&++&333@@o&3@$o*oo*%*@@@#4X1$1X+ O O O  +OXXo505X  Xo  ooX O o XoO X.OO XO..XO.XXX@u7@+++OX1$1X+ O",
"  $%%%o**oooo$o&>-3-&+&3>>->>3&+&-3->&o$oooo**o%%%$@2@#4X1$qX++O O + ++OXXo505X  XooXooXO=O  XoO X.XO XX..O...XX@u7+ ++OX1$qX++O",
" +%%%%%*$oo$.@#&-33->+&--+o+--&@>-33-&#@.$oo$*%%%%%+2@#OX1$qX++O   +  +OXXo50+X   ..X.oX O=O XoO X.XO XX..O...XX@u7+ ++OX1$qX++O",
" *%%%%%$***+@#&&3>-3-@&-&###&-&@-3->3&&#@+***$%%%%%*2@#OX1$qX++O       OXX.505X XXoooo.X  o= . O X.XO . ..O...XX@u7+ ++OX1$qX++O",
" %%%%%%%**oo..@&@&&--&#-&>->&-#&--&&@&@..oo**%%%%%%%=@#OX1$qX+ O OX    OXX.505X oo;o .XX Oo= . O XXXO X  .O...XX@u7+ ++OX1$qX+ O",
"*%;*%*$$$$;$%.+&#oo.&-@-&&&&&-@-&.oo#&+.%$;$$$$*%*;%*@#OX1$q O O O  OO OX o5.0X Xo;o o   O2= . O XXXO XO .O...XX@u7+O@+OX1$q O O",
"%%%%$**<%;%%$oo>-#+.->+&-@&@-&+>-.+#->oo$%%;%<**$%%%%=#OX1$q O   O+ OO  XXo579X  Xo.X.XX O=O   O XXXO..XO.O...XX@u7+OO+ X1$q O  ",
"%%%%%%<%%*%%*$@>33-3>@.+@.:.@+.@>3-33>@$*%%*%%<%%%%%%=#OX1$q OO   +  OO  Xo5.9X   .oXoXX  +O  OO XXOO..XO.O...XX@u7+ O@ X1$q OO ",
"%%%%**%%$$%%*$&-----&@.:##*##:.@&----&&$*%%$$%%**%%%%O@OX1$q OO      OO XXo509XX XooXoX   +O  OO XOXO..XO.O...XX@77+ @@OX1$q OO ",
"%%%%**<%$%%%$oo%$o@&>@.:&.$.&:.@>&@o$%oo$%%%$%<**%%%%O@OX1$q OO      OO XXo505X  Xo. oXX  ++  OO O.OO..XO.O...XX@77+ O@OX1$q OO ",
"$%%%***<%%%%,:..;$$$*,o+o$;$o+o,*$$$;..:,%%%%<***%%%$=@= q$q OOO     OO Xoo500X Xo.ooo   oo+ .OO oXXO..XO.O...XX@77+OO@O q$q OOO",
"$*<<%*oo*%%,.+&@oo$%%%,,%:.:%,,%%%$oo@&+.<%%*oo*%<<*$2@= q$qXO O     O OXoo57+XX o..X.   ++o  OO ooXO..XO.O...OX@+7+ @+O q$qXO O",
"%%%%%****%%:&@o%%#+o%%%%%@&@%%%%%o+#%%o@&:%%****%%%%%2#O q$qX  O  +  + OXoo5X0XoX...Xo X ooo  OOOO=OO..XO.O...XX@+7+ ++O q$qX  O",
"%%%%%%%%%%%.-.%%*@..$%%%%+#+%%%%$..@*%%.-.%%%%%%%%%%%2#O q$qX OO      OOXooXX+XXoo.oXX X ooo  OOXX.OOO.XOOO...XX@O7+OO@O q$qX OO",
" %%%%%%%%%%+..o%.*%%%%%%%#-#%%%%%%%*.%o..+%%%%%%%%%%%2#OXq$qX  O  +    OXooXo0X X..oXX X ooo  OOOX;XOO.XOOO...XX@O7+OO OXq$qX  O",
" %%%%%%%%%%*+&-&@o<$%%%%+-3-+%%%%$<o@&-&+:%%%%%%%%%%=2#OXq$qX        + OoooXo+X8..oo oX o++o XOO O=XO..XO.O...XX@ ++ O OXq$qX   ",
" %%%%%%%%.$*&@&-&.*$%$.+&-3-&+.$%$*.&-&@&,$O%%%%%%%%=2#= q$qX  O  +  + OXoo;o XXXo.oXoX  oo+ XOO X.XO..XO.O...XX@  + O+O q$qX  O",
" %%%%%%%%.%o@&@++#####&&&-3-&&&####++@@&@o%O%%%%%%%%=2#4 q$1X  O     + OXooX. 8XXooXXoX  oo  XOO X.XO..XO.XX..XX+  + O+O q$1X  O",
" $%%%%%%%.oo+o:+#-33-&&&&-3-&&&&-33-#+.++oOO%%%%%%%$22#4 q$1X+OO      OOXoo . 8XXoo  oX  oo  oOO X.OO..XO.XO..XX+  + O@O q$1X+OO",
"  %%%%%%%.o.*<:#&&--&@o@>-3->@o@&--&&#:,,.=O%%%%%%%@22#4 q$1X OO  +  OOOooo . 8X oo O.XXoo+ O+OO X.OO..XO.XO+.XX+  +OO@O q$1X OO",
"XX%%%%%%%..X*$$+&&#o$$*->333>-*$$o#&&+,$*+= %%%%%%%@2w#4 q$1X+OOX      O...X  8X ooX  X ooo  oOO XXXOO.XO.XX.;XX+ ++  @4 q$1X+OO",
" XX%%%%%%...;%$o@+o*$$+*t:.:t*+$$*o+@o$%;++ %%%%%%O=2w#4 q$qX OO        Xo..XXXX oooXXXX o+o  OO X.XOO.XOOO...XX+  +  @4 q$qX OO",
"   %%%%%%5..X$<*+o*%$+#.*%%%*.#+$%*o+*<$+..X%%%%%%OO44@O q$qXXOO    XXXXo;o.XX8XXoooXXXX +oo  OO XXXOX.XOOO...XX+ ++  @O q$qXXOO",
"oooo%%%%oo55o%%%o*%%5....%%%....5%%*o%%%oo1..%%%%  +...XX1$qoooooooooooooo;;ooooo;;;ooooXoooXX  oooooo;oooo;;;oo+  +  O X1$qoooo",
";;;;;;;;11111:%%o$$%%5.@@$%$@@.5%%$$o%%11111ooXoooo+oo.o;1$1;;;;;;;;;;;;11111:::111111111111;1;;1111111111111111;;;;;;;;;1$1;;;;",
"$$$$1$116666$,%%$*$%%%%%%%%%%%%%%%$*$%%$111$oXo.;;; o1o1$$$$1$11$$$$1$116666$,,,66$6$$$$$$$$1$11$$$$$$$$$$$6$6$$11$1111;$$$$1$11",
";;1;;;;;1;161::<%*$$*<%%%%%%%%%<*$$*%<111111oXXoooo+X..X;;1;;;;;;;1;;;;;1;161:::111111111111;1;;1111111111111111;;;;;;;X;;1;;;;;",
"OO OOOOO ;161:8$%**$,::,**%**,::,$**%$  w..+#@###++=@@@@.. OO+OOOO OOOOO ;161:8             O OO                @O####O... OO+OO",
"  X O O X;161:8X%$*o++...,*,...++o*$%..O2.. @@=#@O. ==@O..O  +O   X     X;161:8XXoooXXXX +Xo    oo;oo..OOO ... O+ @@@+....O  +O ",
"  X O O X;161:XX%%o@#@+.:%%%:.+@#@o%%..O2...@@=#@O. O=@O..O  +O   X X   X;161:XXXooooXXX oXo.   XooX...OOO....XX+ @@@+....O  +O ",
"  X O O X;161:XX %*@@&&&##+###&&&@*%...O2...@@=#@++OO=+O..O X+O   X X X X;161:XX ;oooX o oX.o X OXX=...OOO....XX++@+@+....O X+O ",
"  X O O X;161;X O.%..#&&-----&&#@.%X...O2...@@=#@O. OO+O..O  +O   X  O  X;161;X O.ooo O  oXX.O  XO=X...OOO...+ X+ @+@.X...O  +O ",
" XX O O X;161;   oX%.++@&&&&&@+..%XX...O2. .@@=#@O+ OO.O..O  +O  XX     X;161;   oooo  X oXX.   XXXX...OOO.O.. X+ @+@+....O  +O ",
" XX O O X;161;X  oXX%%.........%%XXX...O2. .@@+#@++OOO.O..O X+O  XX X   X;161;X  o.XoXXX oXXo   XXXX...OOO.... X+.@+@+....O X+O ",
"  XXO O X;1$1;oXX.XX X%%%%%%%%% OXXX...O2.X.@@+#@++OOO+O..OX +O   XXX   X;1$1;oXX.oXoXXX oXXo   OXXX...OOOO... O+.@+@++...OX +O ",
"XXX OXO X;e$e;   XXX o+O+=  .O  X..XX..O2X;X@@O#@+@+@++   O  +O XXX XXX X;e$e;   XoXXoXX  X  o  X..XX..OOX;XOXOO++@+@++   O  +O ",
"X  XO OXX;e$e;X  XXX . O+O O+   O..XX..O2X2=@@O#@+@++++   OO +O X  X   XX;e$e;X  XXXX.o   == X+ O..XX..O.X2=OOOO++@++++   OO +O ",
" XXoO OoX;e$e;oXXXX  o  .O O  X X..XX..O2X X@@O#@+@++++   O  +O  XXoX XoX;e$e;oXXXX  o.X  OO  X X..XX..O.X XOOOO++@++++   O  +O ",
"XoX   OXX;e$e;oooXXX ;  .O   XX oo.XX..O4X X@@O#@+@+@++   O  +O XoX  X XX;e$e;oooX XX;oo  O  XX oo.XX..O.X XOoOO++@+@++   O  +O ",
"oo  O O X;e$e;oXX Xo o O+    XX oo.XX..O4X X@@=#@+@+@++   O  +O oo  XXX X;e$e;oXX Xooo.   O  XX oo.XX..O.X XO2=O++@+@++   O  +O ",
"XX XO OXX;e$e;o   Xo o.X  X  XX =X.XX..O4X X#@O#@+++@++   O  +O XX XX XXX;e$e;o   oooo.X  X  XX =X.XX..O.X X.OOO++++@++   O  +O ",
"  XX  OXX;e$e; XXXX  ooX  o  XXO2=.XX..O4X X#@O#@++++++O  O  +O   XX  oXX;e$e; XXX. XooX  o  XXO2=.XX..O.. X.OO +++++++O  O  +O ",
"XXXX  OXXoe$eoX O XX XXXXXXX X O=OX X..O4XO #@X#@++++++. .O X+O XXXX O XXoe$eoX O XXXXXXXXXX X O=OX X..OXXO..XXXO++++++. .O X+O "
};