/* XPM */
static char * STUCCO_1D_xpm[] = {
"64 64 33 1",
" 	c #3B2921",
".	c #2E221C",
"+	c #463124",
"@	c #2D1B13",
"#	c #271810",
"$	c #2E271F",
"%	c #4F4133",
"&	c #594939",
"*	c #4F4233",
"=	c #44392D",
"-	c #584F3D",
";	c #5B231E",
">	c #4D1C1A",
",	c #451816",
"'	c #3C1313",
")	c #612723",
"!	c #844241",
"~	c #693433",
"{	c #713633",
"]	c #74362A",
"^	c #68312E",
"/	c #200707",
"(	c #7E3C34",
"_	c #4D1F1D",
":	c #68563A",
"<	c #2E0E0F",
"[	c #58221F",
"}	c #7E6C50",
"|	c #000000",
"1	c #491C19",
"2	c #321F14",
"3	c #3B2D1D",
"4	c #170606",
" .  ++ +    ..... . +++ +      @@#@#$%&&&%&&*&&&%&&&&*&&=-&&&&*&",
";>,''+)!~{{;;{));>,''+]!~{{;;,^^;>,''=&=%-&%&&%%&==&&&%&&&&&&&=-",
">,>,/ (_>>>>;)>>>,>,/ (_>>>;_^_>>,>,/.&=:&%-&&&&&*&-&%&%-%&&&*%&",
">>,>< )>>>>__>>>>>,><.)>>>;_>_>>>>,>< $:&%&&&&&&&&&&%&%=%*&=-&&&",
">>>>/ ',>>>['>>>>>>>/ ',>>>['>>>>>>>/.}&&&-&&%&&&%&=&&&&&-&&%&-&",
">>>,/ ,>>>>''>>>>>>,/ ,>>['''>>>>>>,/ :&&%&&&&&-*&&&&%-&%&&&&%&&",
"'>>'/ ,''>,<<>>''>>'| ,''''',>>''>>'/ :&%&*&&&%&&*&&&&%=&&&&%&*=",
"<<//<+'/////<<<<<</|<+|///</<||/<<//<=:%&%&&-%&%&&&=&%&&&&&%&&&&",
".. .  ..  . ...... .  .+.+ ....     =}*&=&&*%&=&&&&&%%*&&-%=*&&&",
")]))))')1''',,'+;);;;;<,,>>,'<< $}}::&-*&&&%%%&-=&&%-%&&&&&%&&&=",
"^_>>>>>;)>',,>/ )_,,,,,,,_,_,'|.}%&%*&&&=&&&%&&&&&*&%%&&=&%*&-%&",
")>>;>>>>>>>,>,/+;,,>,,,,,,,,,,/ }&%-&&&&-&&%-%=&&=&%&&&&&%&*&&=&",
"'>,>>>>,>>',>,< ;_,,,,,,<<<','| :=:&&&&&&&%*%*&&&&&%&&*-&%&&&&&&",
"',>,>,>>>,'>,>/ ',,,,,,''<,,''|+=:-&&&=&&%=%%&-%&&&&&&&&&&&&&&&%",
"'',>,>,>>,',,'/ <',<<<,<<,<',<| &%=&&&-&%&-&&&&*&%&&&=&&&=&&&*%&",
"'///<<<<<<<//|<+<|/|///|////||/=:&&&%*&%&&&&&&&&%&&-&&%&&%-%&&-&",
"..... . +++ +        . ....   =}*&&-&&&&&&=&&&&=&*&=&%-*&&%&*&%&",
">);;>,'<'+)!~{{;;,^^;>,'' =}:::&-&%&=&&&&&-&&&%&&-&&%&&&&%%&&&&&",
">;,,,','| (_>>>;_^_>>,>,/.}&%&&&&=&-=&&&=%&&&*&-&%-%&&%&&&%%%&&&",
"_,,,,,',/.)>>>;_>_>>>>,>< :%=-&&%&%&-%&-%&&&%&&&&&%%%&&&=&&%&-&&",
"<,,,,,,,| ',>>>['>>>>>>>/.:&&=&*=&*&&&&%*&&%&&*&*%&%&%&&&=%&&=&*",
"<,,,,,,'| ,>>['''>>>>>>,/ :&&&&&&&&-&&%&%&*&&&&&%&%-&&&&&%=-%&&&",
"/,,<<,,<| ,''''',>>''>>'/ $=&*&&=&%&=%&%%%&&-&&-&=&&&*&-&&&&%*&&",
"//////||/+'///</<||/<<//<+.$$$%&&&&&*&%*-&&%&=%%&&&&&&&&%&&%&&&*",
" .        .   ... .  ..  . ###=&&&&%%-&%%&&&&&&&*&&-&&&&%&%&%-%&",
"!]^^)^;;;;>,''+;,;;;;<;1<<<''<2&&%&&%&&&&*&&&%&&&&%&&*&%=*&%%%=&",
">>)_>__>>>_>,/ ^_,,,,,>;,<'',| :&-&%-&&*&&&*&&&&&&-%&&%&%*%-%&&&",
",>,>>>>>>_>>><+;,,>,,,,,,,','|+}&&=-%&&&-&&=&&%-&&&&&-=%&%&%&&&*",
">,>>>>[''',>,/.<,',,,,',,<','/ }&=-&&%&%&&-%&*&&&&&&&&-&&&=&&-&&",
",>,>>>','>>,,/ <',',',,,'<,',| }=:-&%&%&&%%&%&&%-&&&*%&%&%&&%&*&",
"',>,>>>'>',>'/.<<',',',,'<''<| $:*&&&-&&&&&*&&&&&&%-&*&&=*&&&&&&",
"///</<<<<<<//< <|||///////|||/$:&&*&%&&&&&=&&-&=&%&&&&*&-&&&&&%&",
".  ++ +    ..... . +++ +     =}*-&&&*&-&&&&&*&&&%&&&&*&&=-&&&&*&",
">,''+;()))>>);;>,'<<+:}::}:}}:&-=&&%&&&=&%&%&&%%&==&&&%&&&&&&&=-",
",>,/ )_,,,,>;,,,','| }&%-%&&&*%&&*&%-&&&%&%-&&&&&*&-&%&%-%&&&*%&",
">,>< ;,,,,__,,,,,',/.:%=%*&=-&&&&&%-&&%-&%&&&&&&&&&&%&%=%*&=-&&&",
">>>/ <',,,><,,,,,,,| :&&&-&&%&-&&=&&&&%&&&-&&%&&&%&=&&&&&-&&%&-&",
">>,/ ',,,,<<,,,,,,'| :&&&&&&&%&&=:&-*%&&&%&&&&&-*&&&&%-&%&&&&%&&",
">>'/ '<<,'//,,<<,,<| =&&&&&&%&*3}&==%&&&%&*&&&%&&*&&&&%=&&&&%&*=",
"<//<+<|||||//////||/+#$$3$3$33$&%&&%&*-%&%&&-%&%&&&=&%&&&&&%&&&&",
"... .  ..  . ...... .  #2#2@####=&=&%&&&=&&*%-=&&&&&%%*&&-%=*&&&",
"+)]))))')1''',,'+)]))))'>>;;>,''@&-*&&&*&&&%-%&-=&&%-%&&&&&%&&&=",
" ^_>>>>>;)>',,>/ ^_>>>>>>>_>_>,/.:&-*&&&=&=-%&&&&&*&%%&&=&%*&-%&",
"+)>>;>>>>>>>,>,/+)>>;>>>>>>>>>>< :-%&&&&-=-%-%=&&=&%&&&&&%&*&&=&",
".'>,>>>>,>>',>,< )_>>>>>>''',>,/ }&&&&&&=:%*%*&&&&&%&&*-&%&&&&&&",
" ',>,>,>>>,'>,>/ ,>>>>>>,,'>>,,/+:&&&&-=:%=%-&-%&&&&&&&&&&&&&&&%",
".'',>,>,>>,',,'/ ',>'''>''>',>'/ $=&&&3}%&=-&&&*&%&&&=&&&=&&&*%&",
" '///<<<<<<<//|<+'/</<<</<<<<//<+.$$3$:&&=-&&&&&%&&-&&%&&%-%&&-&",
".. . +++ +        . ....     .....@#@#=&=:=&&&&=&*&=&%-*&&%&*&%&",
");>,',+)!~{{;;,^^;>,'' )!~]];;;;;;>,''+$:&-&&&%&&-&&%&&&&%%&&&&&",
">>,>,/ (_>>>;_^_>>,>,/.(_>>>;__>>>_>,/ :=%&&&*&-&%-%&&%&&&%%%&&&",
">>>,><.)>>>;_>_>>>>,>< )>>>;_>>>>_>>><+}%&&&%&&&&&%%%&&&=&&%&-&&",
">>>>>/ ',>>>['>>>>>>>/.)>>)>>_[''',>,/.}*&&%&&*&*%&%&%&&&=%&&=&*",
">>>>,/ ,>>['''>>>>>>,/ ,>>[''>','>>,,/.}%&*&&&&&%&%-&&&&&%=-%&&&",
"''>>'| ,''''',>>''>>'/ ,'''',>>'>',>'/.:%%&&-&&-&=&&&*&-&&&&%*&&",
"<<</|<+'///</<||/<<//<+'///<<<<<<<<//<=:-&&%&=%%&&&&&&&&%&&%&&&*",
"    ..... .  .. .        .   ... .  .=}*%&&&&&&&*&&-&&&&%&%&%-%&",
"((^))11''',,'+)!]^^)^;;;;>,''+$=%}}}}:&-&*&&&%&&&&%&&*&%=*&%%%=&",
";;>>;)>>',>'/+]>>)_>__>>>_>,/ =}:-&%&&&*&%-*&&&&&&-%&&%&%*%-%&&&",
";>_;>>>>>>>'/ ,,>,>>>>>>_>>><+}&%&=-%&&&%-&=&&%-&&&&&-=%&%&%&&&*",
"_>_>>>>>,>>,/.'>,>>>>[''',>,/.&&&&&&&%&=&&-%&*&&&&&&&&-&&&=&&-&&",
">_>>,>>,>>>><.',>,>>>','>>,,/ :&&&&&&&=:&&%&%&&%-&&&*%&%&%&&%&*&",
">>>'>>>>>>>>/.'',>,>>>'>',>'/.$=&&&&&3}*=&&*&&&&&&%-&*&&=*&&&&&&",
"</<</<4<<//|<.'///</<<<<<<//< .$$333$&&&&&=&&-&=&%&&&&*&-&&&&&%&"};
