/* XPM */
static char * SUPPORT_5C_xpm[] = {
"64 64 14 1",
" 	c #000000",
".	c #4F4C3F",
"+	c #373C2C",
"@	c #322E1D",
"#	c #66684C",
"$	c #1C1C1B",
"%	c #818556",
"&	c #44402F",
"*	c #141413",
"=	c #353929",
"-	c #28271F",
";	c #1E1E17",
">	c #181817",
",	c #28261F",
"                                                                ",
"......+.+.+.+++@......+.+.+.+++@......+.+.+.+++@......+.+.+.+++@",
".++++++++++++++@.++++++++++++++@.++++++++++++++@.++++++++++++++@",
".+#++++++++++#+@.+#++++++++++#+@.+#++++++++++#+@.+#++++++++++#+@",
".@++++++++++@++@.@++++++++++@++@.@++++++++++@++@.@++++++++++@++@",
".++++++++++++++@.++++++++++++++@.++++++++++++++@.++++++++++++++@",
".++++++++++++++@.++++++++++++++@.++++++++++++++@.++++++++++++++@",
".++++++++++++++@.++++++++++++++@.++++++++++++++@.++++++++++++++@",
".++++++++++++++@.++++++@$$$++++@.++++++++++++++@.++++++++++++++@",
".++++++++++++++@.+++++@$@@@@+++@.++++++++++++++@.++++++++++++++@",
"%..............+%....+@&&..+#..+%..............+%..............+",
".++++++++++++++@.++++$@@+@++.++@.++++++++++++++@.++++++++++++++@",
"%..............+%....@+&&..%#..+%..............+%..............+",
"%..............@%.....#..%%#...@%..............@%..............@",
"%..............+%......%%#.....+%..............+%..............+",
"%..............@%..............@%..............@%..............@",
"%..............+%....@+........+%..............+%......+@@@....+",
"%..............+%...@&.#.......+%..............+%.....+@&&++...+",
"%..............+%...+.%#.......+%..............+%....+@&&..+#..+",
"%..............+%....##........+%..............+%....@&&.&..#..+",
"%...............%...............%...............%....@+&&..%#...",
"#..............+#..............+#..............+#.....#..%%#...+",
"%...............%...............%...............%......%%#......",
"#..............+#..............+#..............+#..............+",
"%......+@@@.....%...............%...............%....@+.........",
"#.....+@&&++...+#..............+#..............+#...@&.#.......+",
"#....+@&&..+#..+#..............+#..............+#...+.%#.......+",
"#....@&&.&..#..+#..............+#..............+#....##........+",
"#....@+&&..%#..@#..............@#..............@#..............@",
"#.....#..%%#...+#..............+#..............+#..............+",
"#......%%#.....@#..............@#..............@#..............@",
"#..............+#..............+#..............+#..............+",
"#....@+........@#..............@#......+@@@....@#..............@",
"#...@&.#.......@#..............@#.....+@&&++...@#..............@",
"#...+.%#.......@#..............@#....+@&&..+#..@#..............@",
"#....##........@#..............@#....@&&.&..#..@#..............@",
"#..............@#..............@#....@+&&..%#..@#..............@",
"#..............@#..............@#.....#..%%#...@#..............@",
"#..............@#..............@#......%%#.....@#..............@",
"#..............@#..............@#..............@#..............@",
"#..............@#..............@#....@+........@#..............@",
"#..............@#..............@#...@&.#.......@#..............@",
"...............@...............@....+.%#.......@...............@",
"#..............@#..............@#....##........@#..............@",
"...............@...............@...............@...............@",
"#..............@#..............@#..............@#..............@",
"...............@...............@...............@...............@",
"#..............@#..............@#..............@#..............@",
"...............@...............@...............@...............@",
"...............@...............@...............@...............@",
"...............@...............@...............@...............@",
"..#..........#.@..#..........#.@..#..........#.@..#..........#.@",
".@..........@..@.@..........@..@.@..........@..@.@..........@..@",
".###########.#.@.###########.#.@.###########.#.@.###########.#.@",
"                               *$*                              ",
"$  $$* $$  $$* $$  $$* $$  $$* $$  $$* $$  $$* $$  $$* $$  $$* $",
"=========-====-=-=-=-=------=-=-=-=======================-====-=",
";;;;;;;;>;;;;;;;;;;;;;;;;>;;;;;;>;;;;;;;>;;;;;;;>;>;;;;;>;;;;;;;",
";>;;;;;>;;;;;;;;;;;;;;;>>;;;;;;;;;;;;;;,,,;;;;;;;>;;;;;>;;;;;;;;",
">;;=*;;;;;;=*;;;;;;=*;;>;;,=*;;;;;;=*;,;,;;=*;;;>;;=*;;;;;;=*;;;",
";;> *;;;;;> *;;;;;> *;>;>;> *;;>;;> *;;,;;> *;;>;;> *;;;;;> *;;>",
">;>>;;;;;;>>;;;;;;>>;;;>;;>>,;;;;;>>;;,;;;>>;;>>;;>>;;;;;;>>;;>;",
";;;;;;;;;;;;;;;;;;;;;;>;;;;,,;;;;;;;;,;;;;;;;;>;;;;;;;;;;;;;;>;>",
"*>>>>>>*>*>*******>*>* * *    * ********>*>**>*>*>>>>>>*>*>*****"};
