/* XPM */
static char * TECH_1C_xpm[] = {
"64 64 35 1",
" 	c #000000",
".	c #464D4F",
"+	c #383F40",
"@	c #141413",
"#	c #382B2F",
"$	c #62797E",
"%	c #4B3F38",
"&	c #28221F",
"*	c #536265",
"=	c #332320",
"-	c #331817",
";	c #4B3633",
">	c #2D0501",
",	c #2D0801",
"'	c #4F0D01",
")	c #430A01",
"!	c #380901",
"~	c #3F2B27",
"{	c #342726",
"]	c #321A16",
"^	c #4C3D3B",
"/	c #471F18",
"(	c #3F2D28",
"_	c #1C1C1B",
":	c #110201",
"<	c #292A28",
"[	c #271815",
"}	c #230501",
"|	c #1B100E",
"1	c #180401",
"2	c #120C0A",
"3	c #584641",
"4	c #332422",
"5	c #2F1C17",
"6	c #270401",
"                                                                ",
".............+.+..........+.+++@ ..........................+.+..",
"+++++++++++++++++++++++++++++++@ .++++++++++++++++++++++++++++++",
"+++++++++++++++++++++++++++++++@ .++++++++++++++++++++++++++++++",
"+++++++++++++++++++++++++#$.+++@ .+#$.++++++++++++++++++++++++++",
"+++++++++++++++++++++++++#..+++@ .+#..++++++++++++++++++++++++++",
"+++++++++++++++++++++++++###+++@ .+##+++++++++++++++++++++++++++",
"++++++++++++++++++++++++++##+++@ .++++++++++++++++++++++++++++++",
"..........................%%...&@$..............................",
"++++++++++++++++++++++++++#++++@ .++++++++++++++++++++++++++++++",
"...........................%...&@$..............................",
"..........................%....@ $..............................",
"...............................&@$..............................",
"...............................&@$..............................",
"...............................&@$..............................",
"...............................&@$....................+.........",
"...............................&@$...................+..........",
"...............................@@*.................++*..........",
"...............................&@$...............+#+*...........",
"...............................@@*............+=-=;....+........",
"...............................&@$.........++>,';....++.........",
"...............................@@*......=,>,')....+#+*..........",
"...............................&@*......)')!...++#=;.....+......",
"...............................@@*......~!..++>,';.....++.......",
"...............................@@*.......,,>,').....+{{*........",
"...............................@@*......;'')!....+,>]^..........",
"...............................@@.......~!!..++>>,';............",
"...............................@@*........,>>,)'/...............",
"...............................@@........)'')~..................",
"...............................@@*........!!....................",
"...............................@@........!!(....................",
"...............................@&........!!.....................",
"...............................&@........~!.....................",
".........................#$+...@&..#$+....!.....................",
".........................#++...&@..#++....!.....................",
".........................##....@&..##.....!.....................",
"...............................&&.........!.....................",
"$$$$$$$$$$$$$$$$$$$$$$$$$$$$.$.&&.$.$$$$$$'.$.$.$$$.$.$.$.$$$$$$",
"                                                                ",
"                                                                ",
"_@ @_@@@_@ @_@@@_@ @_@@@_@ @_@@@_@ @_@@@_@ :_@@@_@ @_@@@_@ @_@@@",
"<@ <<_@<<@ <<_@<<@ <<_@<<@ <<_@<<@ <<_@<<@ [<_@<<@ <<_@<<@ <<_@<",
"<@ <<__<<@ <<__<<@ <<__<<@ <<__<<@ <<__<<@ }<__<<@ <<__<<@ <<__<",
"<@ <<__<<@ <<__<<@ <<__<<@ <<__<<@ <<__<<@ }<__<<@ <<__<<@ <<__<",
"<_@<<__<<_@<<__<<_@<<__<<_@<<__<<_@<<__<<|:}<__<<_@<<__<<_@<<__<",
"<@ <<__<<@ <<__<<@ <<__<<@ <<__<<@ <<__<<: }<__<<@ <<__<<@ <<__<",
"<_@<<__<<_@<<__<<_@<<__<<_@<<__<<_@<<__<<1:}<__<<_@<<__<<_@<<__<",
"<_ <<__<<_ <<__<<_ <<__<<_ <<__<<_ <<__<<1 }<__<<_ <<__<<_ <<__<",
"<_@<<__<<_@<<__<<_@<<__<<_@<<__<<_@<<__<<1:}<__<<_@<<__<<_@<<__<",
"<_@<<__<<_@<<__<<_@<<__<<_@<<__<<_@<<__<<_:}<__<<_@<<__<<_@<<__<",
"<@@<<__<<@@<___<<@@<<__<<@@<___<<@@<<__<<@:}___<<@@<<__<<@@<___<",
"<_@<<__<<_@<<__<<_@<<__<<_@<<__<<_@<<__<<|:[<__<<_@<<__<<_@<<__<",
"_@ <___<_@ <___<_@ <___<_@ <___<_@ <___<_2 }|__<_@ <___<_@ <___<",
"<@@_<__<<@@_<__<<@@_<__<<@@_<__<<@@_<__<<::1[__<<@@_<__<<@@_<__<",
"_@ <__@<_@ <__@<_@ <__@<_@ <__@<_@ <__@[|: }|_@<_@ <__@<_@ <__@<",
"_  __@ __  __@ __  __@ __  __@ __  __2 |1  112 __  __@ __  __@ _",
"$$$$$$$$$*$$$$*$*$*$*$******$*$*$*$$$$3'3''''$3$$$$$$$$$$*$$$$*$",
"........+................+.............+.4!(....+.+.....+.......",
".+.....+...............++...............+(!......+.....+........",
"+..$+......$+......$+..+...$+......$+..+..!'+...+..$+......$+...",
"..#++.....#++.....#++.+.+.#++.....#++.....>,+..+..#++.....#++..+",
"+.##......##......##...+..##......##......>>..++..##......##..+.",
"......................+.............+....(!!(.+..............+.+",
"#555555#5#5#######5#5#@#@#@@@@#@#######>6>6>>6>5#555555#5#5#####"};
