/* XPM */
static char * TECH_3G_xpm[] = {
"64 64 14 1",
" 	c #000000",
".	c #464D4F",
"+	c #383F40",
"@	c #141413",
"#	c #62797E",
"$	c #382B2F",
"%	c #4B3F38",
"&	c #28221F",
"*	c #536265",
"=	c #9F7315",
"-	c #C0A436",
";	c #1C1C1B",
">	c #292A28",
",	c #2F1C17",
"                                                                ",
".............+.+.+.+++@ ......+.+.+.++++  ++.+.+...........+.+..",
"++++++++++++++++++++++@ .+++++++++++++++  ++++++++++++++++++++++",
"++++++++++++++++++++++@ .+#++++++++++#++  ++++++++++++++++++++++",
"++++++++++++++++$#.+++@ .$++++++++++$+++  ++$#.+++++++++++++++++",
"++++++++++++++++$..+++@ .+++++++++++++++ @++$..+++++++++++++++++",
"++++++++$+++++++$$++++@ .+++++++++++++++@ ++$$$+++++++++++++++++",
"+++++++$@$++++++++++++@ .+++++++++++++++ @+++$$+++++++++++++++++",
".......%%%............&@.+++++++++++++++@ ...%%.................",
"+++++++$$$++++.+.+++++@ .+++++++++++++++ @+++$++++++.+.+.+++++++",
".......%%.............&@#...............@ ....%.................",
".......%%%............@ .+++++++.+.++.++ &...%..................",
".......%%.............&@#...............&@......................",
".......%%.............&@#...............@&......................",
"........%.............&@#...............&@......................",
".......%%.............&@#...............@&......................",
"........%.............&@#...............&@......................",
"........%.............@@#...............@&......................",
"......................&@#....%%.........&&......................",
"........%.............@@*....%%.........@&..................+*..",
"......................&@#....%..........&&.................+#...",
"......................@@*.....%.........@&.................*....",
"......................&@#....%..........&&...............+......",
"......................@@*...............@&............+.+.......",
"......................@@*...............@&...........+*+.+*.....",
"......................@@*...............@&..........+#+.+#......",
"......................@@*...............@&.........+#..+*.......",
"......................@@*...............&&.........*..+.........",
"====.=====.=.==.=.===.@@................@&..=.===.-==.=======.-=",
"===.===.===.========..@@*...............&&.=.===.-=======.==.-==",
"==.===.=.===.======.=.@@.=============..@&..===.======.=.===-===",
"=...=...=.=.========..@&*============.=.&&.==========.=...======",
"......................&@.=.===========..&&......................",
"................$#+...@&..=.=.=========.&&..$#+.................",
"................$++...&@................&&..$++.................",
"................$$....@&................&&..$$..................",
"......................&&..#..........#..&&......................",
"###################.#.&&.$..........$...&&.#.######.#.#.#.######",
"                       &................&                       ",
"                        ..##########.#..                        ",
";@ @;@@@;@ @;@@@;@ @;@                     @;@@@;@ @;@@@;@ @;@@@",
">@ >>;@>>@ >>;@>>@ >>;@                  @ >>;@>>@ >>;@>>@ >>;@>",
">@ >>;;>>@ >>;;>>@ >>;;>@@ @;@@@;@ @;@@@;@ >>;;>>@ >>;;>>@ >>;;>",
">@ >>;;>>@ >>;;>>@ >>;;>>@ >>;;>>@ >>;;>>@ >>;;>>@ >>;;>>@ >>;;>",
">;@>>;;>>;@>>;;>>;@>>;;>>;@>>;;>>;@>>;;>>;@>>;;>>;@>>;;>>;@>>;;>",
">@ >>;;>>@ >>;;>>@ >>;;>>@ >>;;>>@ >>;;>>@ >>;;>>@ >>;;>>@ >>;;>",
">;@>>;;>>;@>>;;>>;@>>;;>>;@>>;;>>;@>>;;>>;@>>;;>>;@>>;;>>;@>>;;>",
">; >>;;>>; >>;;>>; >>;;>>; >>;;>>; >>;;>>; >>;;>>; >>;;>>; >>;;>",
">;@>>;;>>;@>>;;>>;@>>;;>>;@>>;;>>;@>>;;>>;@>>;;>>;@>>;;>>;@>>;;>",
">;@>>;;>>;@>>;;>>;@>>;;>>;@>>;;>>;@>>;;>>;@>>;;>>;@>>;;>>;@>>;;>",
">@@>>;;>>@@>;;;>>@@>>;;>>@@>;;;>>@@>>;;>>@@>;;;>>@@>>;;>>@@>;;;>",
">;@>>;;>>;@>>;;>>;@>>;;>>;@>>;;>>;@>>;;>>;@>>;;>>;@>>;;>>;@>>;;>",
";@ >;;;>;@ >;;;>;@ >;;;>;@ >;;;>;@ >;;;>;@ >;;;>;@ >;;;>;@ >;;;>",
">@@;>;;>>@@;>;;>>@@;>;;>>@@;>;;>>@@;>;;>>@@;>;;>>@@;>;;>>@@;>;;>",
";@ >;;@>;@ >;;@>;@ >;;@>;@ >;;@>;@ >;;@>;@ >;;@>;@ >;;@>;@ >;;@>",
";  ;;@ ;;  ;;@ ;;  ;;@ ;;  ;;@ ;;  ;;@ ;;  ;;@ ;;  ;;@ ;;  ;;@ ;",
"#########*####*#*#*#*#******#*#*#*#######################*####*#",
"........+................+......+.......+.......+.+.....+.......",
".+.....+...............++..............%%%.......+.....+........",
"+..#+......#+......#+..+..%#+......#+.%.%..#+...+..#+......#+...",
"..$++.....$++.....$++.+.+.$++..+..$++..%..$++..+..$++.....$++..+",
"+.$$......$$......$$...+..$$%.....$$..%...$$..++..$$......$$..+.",
"......................+....%%........%........+..............+.+",
"$,,,,,,$,$,$$$$$$$,$,$@$@$@@@@$@$$$$$$$$,$,$$,$,$,,,,,,$,$,$$$$$"};
