/* XPM */
static char * TECH_5B_xpm[] = {
"64 64 14 1",
" 	c #000000",
".	c #464D4F",
"+	c #383F40",
"@	c #141413",
"#	c #382B2F",
"$	c #62797E",
"%	c #28221F",
"&	c #1C1C1B",
"*	c #014B4D",
"=	c #00749C",
"-	c #3BBAD0",
";	c #536265",
">	c #292A28",
",	c #2F1C17",
"                                                                ",
"......+.+++@ .................................+.+++@ ........+..",
"+++++++++++@ .+++++++++++++++++++++++++++++++++++++@ .++++++++++",
"+++++++++++@ .+++++++++++++++++++++++++++++++++++++@ .++++++++++",
"+++++#$.+++@ .+#$.+++++++++++++++++++++++++++#$.+++@ .+#$.++++++",
"+++++#..+++@ .+#..+++++++++++++++++++++++++++#..+++@ .+#..++++++",
"+++++##++++@ .+##++++++++++++++++++++++++++++##++++@ .+##+++++++",
"+++++++++++@ .+++++++++++++++++++++++++++++++++++++@ .++++++++++",
"...........%@$.....................................%@$..........",
"+++++++++++@ .+++++++++++++++++++++++++++++++++++++@ .++++++++++",
"...........%@$.....................................%@$..........",
"...........@ $.....................................@ $..........",
"...........%@$.........+################+..........%@$..........",
"...........%@$........+##################+.........%@$..........",
"...........%@$.......+###&&&&&&&&&&&&&&###+........%@$..........",
"...........%@$.......###&*============*&###........%@$..........",
"...........%@$.......##&*===========--=*&##........%@$..........",
"...........@@;.......##&===========----=&##........@@;..........",
"...........%@$.......##&==========-----=&##........%@$..........",
"...........@@;.......++#=========-----==#++........@@;..........",
"...........%@$.......##&========-----===&##........%@$..........",
"...........@@;.......++#=======-----====#++........@@;..........",
"...........%@;.......++#======-----===-=#++........%@;..........",
"...........@@;.......++#=====-----===--=#++........@@;..........",
"...........@@;.......++#====-----===---=#++........@@;..........",
"...........@@;.......++#===-----===----=#++........@@;..........",
"...........@@........++#==-----===----==#++........@@...........",
"...........@@;.......++#=-----===----===#++........@@;..........",
"...........@@........++#=----===----====#++........@@...........",
"...........@@;.......++#*=--===----====*#++........@@;..........",
"...........@@........+++#*============*#+++........@@...........",
"...........@%.........+++##############+++.........@%...........",
"...........%@.........;++++++++++++++++++;.........%@...........",
".....#$+...@%..........;++++++++++++++++;..........@%..#$+......",
".....#++...%@............;;;;;;;;;;;;;;............%@..#++......",
".....##....@%..#$+...........................#$+...@%..##.......",
"...........%%..#++...........................#++...%%...........",
"$$$$$$$$.$.%%..##............................##....%%.$.$$$$$$$$",
"            %......................................%            ",
"             .$.$$$$$$$.$.$.$.....$.$$$$$$$.$$$$.$.             ",
"&@ @&@@@&@                                           @@@&@ @&@@@",
">@ >>&@>>@ @                                        &&@>>@ >>&@>",
">@ >>&&>>@ >&@@@&@ @&@@@&@ @&@@@&@ @&@@@&@ @&@@@&@ &>&&>>@ >>&&>",
">@ >>&&>>@ >>&&>>@ >>&&>>@ >>&&>>@ >>&&>>@ >>&&>>@ >>&&>>@ >>&&>",
">&@>>&&>>&@>>&&>>&@>>&&>>&@>>&&>>&@>>&&>>&@>>&&>>&@>>&&>>&@>>&&>",
">@ >>&&>>@ >>&&>>@ >>&&>>@ >>&&>>@ >>&&>>@ >>&&>>@ >>&&>>@ >>&&>",
">&@>>&&>>&@>>&&>>&@>>&&>>&@>>&&>>&@>>&&>>&@>>&&>>&@>>&&>>&@>>&&>",
">& >>&&>>& >>&&>>& >>&&>>& >>&&>>& >>&&>>& >>&&>>& >>&&>>& >>&&>",
">&@>>&&>>&@>>&&>>&@>>&&>>&@>>&&>>&@>>&&>>&@>>&&>>&@>>&&>>&@>>&&>",
">&@>>&&>>&@>>&&>>&@>>&&>>&@>>&&>>&@>>&&>>&@>>&&>>&@>>&&>>&@>>&&>",
">@@>>&&>>@@>&&&>>@@>>&&>>@@>&&&>>@@>>&&>>@@>&&&>>@@>>&&>>@@>&&&>",
">&@>>&&>>&@>>&&>>&@>>&&>>&@>>&&>>&@>>&&>>&@>>&&>>&@>>&&>>&@>>&&>",
"&@ >&&&>&@ >&&&>&@ >&&&>&@ >&&&>&@ >&&&>&@ >&&&>&@ >&&&>&@ >&&&>",
">@@&>&&>>@@&>&&>>@@&>&&>>@@&>&&>>@@&>&&>>@@&>&&>>@@&>&&>>@@&>&&>",
"&@ >&&@>&@ >&&@>&@ >&&@>&@ >&&@>&@ >&&@>&@ >&&@>&@ >&&@>&@ >&&@>",
"&  &&@ &&  &&@ &&  &&@ &&  &&@ &&  &&@ &&  &&@ &&  &&@ &&  &&@ &",
"$$$$$$$$$;$$$$;$;$;$;$;;;;;;$;$;$;$$$$$$$$$$$$$$$$$$$$$$$;$$$$;$",
"........+................+.............+.+......+.+.....+.......",
".+.....+...............++...............+........+.....+........",
"+..$+......$+......$+..+...$+......$+..+...$+...+..$+......$+...",
"..#++.....#++.....#++.+.+.#++.....#++.....#++..+..#++.....#++..+",
"+.##......##......##...+..##......##......##..++..##......##..+.",
"......................+.............+.........+..............+.+",
"#,,,,,,#,#,#######,#,#@#@#@@@@#@########,#,##,#,#,,,,,,#,#,#####"};
